<?xml version="1.0" standalone="no"?><!DOCTYPE svg PUBLIC "-//W3C//DTD SVG 1.1//EN" "http://www.w3.org/Graphics/SVG/1.1/DTD/svg11.dtd"><svg height="200" legacy-metrics="false" node-id="1" sillyvg="true" template-height="200" template-width="200" version="1.1" viewBox="0 0 200 200" width="200" xmlns="http://www.w3.org/2000/svg" xmlns:xlink="http://www.w3.org/1999/xlink"><defs node-id="131"><clipPath id="clip-path" node-id="3"><path d="M 200.00 100.00 C 200.00 155.23 155.23 200.00 100.00 200.00 C 44.77 200.00 0.00 155.23 0.00 100.00 C -0.00 44.77 44.77 0.00 100.00 0.00 C 155.23 -0.00 200.00 44.77 200.00 100.00 Z" fill="#000000" fill-rule="nonzero" id="椭圆_101" node-id="4" stroke="none" target-height="200" target-width="200" target-x="0" target-y="0"></path></clipPath><linearGradient gradientUnits="objectBoundingBox" id="linear-gradient" node-id="5" x1="0" x2="1" y1="0.5" y2="0.5"><stop offset="0" stop-color="#00593f"></stop><stop offset="1" stop-color="#1f8247"></stop></linearGradient><linearGradient gradientUnits="objectBoundingBox" id="linear-gradient-2" node-id="8" x1="0" x2="1" y1="0.5" y2="0.5"><stop offset="0" stop-color="#009e53"></stop><stop offset="1" stop-color="#006842"></stop></linearGradient><linearGradient gradientUnits="objectBoundingBox" id="linear-gradient-3" node-id="11" x1="0.5" x2="0.5" y1="1" y2="0"><stop offset="0" stop-color="#009e53"></stop><stop offset="1" stop-color="#006842"></stop></linearGradient></defs><g clip-path="url(#clip-path)" id="组_211" node-id="12"><path d="M 19.98 -30.96 L 223.08 3.95 L 186.10 219.07 L -17.00 184.15 Z" fill="#dfeaf2" fill-rule="nonzero" id="矩形_67" node-id="13" stroke-linecap="butt" stroke-width="0.99999994" target-height="250.0301" target-width="240.07826" target-x="-17.002272" target-y="-30.962"></path><path d="M 146.73 -17.85 L 146.78 -13.77 L 146.96 -2.91 L 147.24 12.70 L 147.62 31.02 L 148.09 50.00 L 148.66 67.61 L 149.31 81.80 L 150.03 90.53 L 150.43 94.15 L 150.91 100.59 L 151.72 116.97 L 152.33 137.19 L 152.60 158.77 L 152.39 179.24 L 152.06 188.58 L 151.58 196.12 L 150.84 202.90 L 150.03 206.95" fill="none" group-id="1" id="路径_1704" node-id="15" stroke="#c6c6cc" stroke-linecap="butt" stroke-width="2" target-height="224.802" target-width="5.8691406" target-x="146.72607" target-y="-17.849003"></path><path d="M 28.03 -17.85 L 28.09 -13.77 L 28.26 -2.91 L 28.54 12.70 L 28.92 31.02 L 29.40 50.00 L 29.96 67.61 L 30.61 81.80 L 31.34 90.53 L 31.74 94.15 L 32.22 100.59 L 33.03 116.97 L 33.64 137.19 L 33.90 158.77 L 33.70 179.24 L 33.36 188.58 L 32.89 196.12 L 32.15 202.90 L 31.34 206.95" fill="none" group-id="1" id="路径_1705" node-id="16" stroke="#c6c6cc" stroke-linecap="butt" stroke-width="2" target-height="224.802" target-width="5.868408" target-x="28.033936" target-y="-17.849003"></path><path d="M 184.61 -17.85 L 184.42 -14.04 L 183.95 -4.24 L 183.39 9.15 L 182.91 23.69 L 182.69 36.97 L 182.75 42.69 L 182.92 46.57 L 183.40 55.96 L 183.81 68.86 L 184.15 83.28 L 184.40 97.18 L 184.56 108.56 L 184.61 115.41 L 184.46 122.29 L 184.08 134.80 L 183.61 150.76 L 183.20 168.00 L 182.98 184.34 L 183.08 197.59 L 183.33 202.78 L 183.65 205.60" fill="none" group-id="1" id="路径_1706" node-id="17" stroke="#c6c6cc" stroke-linecap="butt" stroke-width="2" target-height="223.44598" target-width="1.921875" target-x="182.69287" target-y="-17.849003"></path><path d="M 105.28 -21.24 L 105.33 -16.90 L 105.45 -5.54 L 105.60 10.36 L 105.70 28.31 L 105.72 45.83 L 105.60 60.43 L 105.28 69.63 L 105.11 77.86 L 105.39 90.09 L 106.00 104.62 L 106.79 119.77 L 107.64 133.85 L 108.42 145.16 L 109.00 152.02 L 109.31 159.29 L 109.23 170.35 L 108.77 183.35 L 107.92 196.43 L 107.34 202.59 L 106.70 207.74 L 105.89 212.43 L 105.10 215.43" fill="none" group-id="1" id="路径_1707" node-id="18" stroke="#c6c6cc" stroke-linecap="butt" stroke-width="2" target-height="236.67" target-width="4.210449" target-x="105.10449" target-y="-21.24"></path><path d="M 67.22 -21.24 L 67.28 -16.90 L 67.40 -5.54 L 67.54 10.36 L 67.65 28.31 L 67.67 45.83 L 67.54 60.43 L 67.22 69.63 L 67.05 77.86 L 67.34 90.09 L 67.94 104.62 L 68.74 119.77 L 69.59 133.85 L 70.37 145.16 L 70.95 152.02 L 71.26 159.29 L 71.18 170.35 L 70.71 183.35 L 69.87 196.43 L 69.28 202.59 L 68.64 207.74 L 67.84 212.43 L 67.05 215.43" fill="none" group-id="1" id="路径_1708" node-id="19" stroke="#c6c6cc" stroke-linecap="butt" stroke-width="2" target-height="236.67" target-width="4.2109375" target-x="67.05054" target-y="-21.24"></path><path d="M 171.39 -17.85 L 171.48 -13.76 L 171.74 -2.97 L 172.20 12.26 L 172.90 29.70 L 173.85 47.11 L 175.09 62.25 L 175.87 68.61 L 176.63 72.88 L 177.39 75.49 L 178.01 76.52 L 178.51 76.75 L 179.27 76.41 L 180.01 75.58 L 180.73 74.01 L 181.44 71.33 L 182.03 67.67 L 182.41 63.77 L 182.66 59.55 L 182.83 51.49 L 182.76 45.31 L 182.69 42.84" fill="none" group-id="1" id="路径_1709" node-id="20" stroke="#c1d2db" stroke-linecap="butt" stroke-width="1" target-height="94.59999" target-width="11.433594" target-x="171.39355" target-y="-17.849003"></path><path d="M 81.12 -17.85 L 81.24 -14.03 L 81.61 -4.19 L 82.22 9.25 L 83.06 23.89 L 84.14 37.31 L 84.80 43.10 L 85.44 47.09 L 86.07 49.59 L 86.57 50.58 L 86.96 50.81 L 87.46 50.51 L 88.15 49.43 L 89.09 46.93 L 90.22 42.88 L 91.53 37.02 L 94.09 23.35 L 96.55 8.14 L 98.74 -6.34 L 100.44 -17.85" fill="none" group-id="1" id="路径_1710" node-id="21" stroke="#c1d2db" stroke-linecap="butt" stroke-width="1" target-height="68.660995" target-width="19.328125" target-x="81.11572" target-y="-17.849003"></path><path d="M 112.65 -17.85 L 112.62 -15.50 L 112.63 -9.91 L 112.87 -3.29 L 113.14 -0.14 L 113.50 2.17 L 113.91 3.58 L 114.30 4.15 L 114.68 4.28 L 115.25 3.80 L 116.11 2.10 L 117.73 -2.94 L 119.33 -9.39 L 120.71 -15.81 L 121.69 -20.72 L 122.06 -22.68" fill="none" group-id="1" id="路径_1711" node-id="22" stroke="#c1d2db" stroke-linecap="butt" stroke-width="1" target-height="26.956" target-width="9.441406" target-x="112.617676" target-y="-22.680998"></path><path d="M 128.16 -19.12 L 127.53 -17.09 L 126.02 -11.91 L 124.21 -4.95 L 122.70 2.43 L 122.22 5.96 L 122.06 8.85 L 121.95 11.44 L 121.56 15.33 L 120.18 24.22 L 119.24 28.96 L 118.18 33.46 L 116.96 37.71 L 115.77 40.95 L 114.78 42.94 L 113.92 44.07 L 113.17 44.63 L 112.42 44.70 L 111.61 44.13 L 110.62 42.42 L 109.14 38.03 L 108.32 33.91 L 107.91 29.84 L 107.74 26.04 L 107.62 22.34 L 107.35 18.96 L 106.74 15.73 L 105.62 12.80" fill="none" group-id="1" id="路径_1712" node-id="23" stroke="#c1d2db" stroke-linecap="butt" stroke-width="1" target-height="63.825573" target-width="22.543945" target-x="105.618164" target-y="-19.120998"></path><path d="M 142.66 -19.12 L 141.25 -16.14 L 137.71 -8.09 L 133.02 3.70 L 130.60 10.49 L 128.19 17.91 L 126.03 25.51 L 124.20 33.21 L 122.83 40.93 L 122.06 48.27 L 121.39 55.78 L 120.26 64.55 L 117.23 83.27 L 113.78 102.69 L 110.76 121.09 L 109.64 129.61 L 109.00 136.76 L 108.83 141.41 L 108.96 145.09 L 109.33 147.95" fill="none" group-id="1" id="路径_1713" node-id="24" stroke="#c1d2db" stroke-linecap="butt" stroke-width="1" target-height="167.07599" target-width="33.828125" target-x="108.828125" target-y="-19.120998"></path><path d="M 145.71 -9.20 L 144.82 -6.16 L 142.69 1.98 L 140.14 13.72 L 138.99 20.40 L 138.01 27.59 L 137.36 34.87 L 137.12 42.10 L 137.08 57.08 L 137.22 61.12 L 137.55 63.87 L 137.98 65.66 L 138.55 66.78 L 139.25 67.33 L 140.12 67.46 L 141.31 67.12 L 142.86 66.16 L 145.19 64.18 L 148.57 60.71" fill="none" group-id="1" id="路径_1714" node-id="25" stroke="#c1d2db" stroke-linecap="butt" stroke-width="1" target-height="76.66074" target-width="11.485352" target-x="137.08252" target-y="-9.1989975"></path><path d="M 69.16 81.07 L 69.47 84.21 L 70.36 92.41 L 71.74 103.83 L 73.55 116.64 L 75.72 129.02 L 76.96 134.65 L 78.18 139.11 L 79.61 143.00 L 80.85 145.10 L 81.59 145.79 L 82.24 145.99 L 82.91 145.81 L 83.66 145.16 L 84.46 143.83 L 85.33 141.60 L 86.26 138.12 L 87.35 132.60 L 88.47 125.25 L 90.50 108.33 L 92.58 89.12 L 94.91 69.39 L 96.26 59.76 L 97.72 50.93 L 99.42 42.49 L 101.22 35.50 L 102.68 31.03 L 104.15 27.54 L 105.62 24.87" fill="none" group-id="1" id="路径_1715" node-id="26" stroke="#c1d2db" stroke-linecap="butt" stroke-width="1" target-height="121.11586" target-width="36.453613" target-x="69.16406" target-y="24.871994"></path><path d="M 105.10 81.84 L 104.63 84.82 L 103.39 92.72 L 101.67 103.94 L 99.73 116.87 L 97.84 129.92 L 96.30 141.49 L 95.36 149.99 L 94.62 155.60 L 93.45 160.78 L 91.84 165.61 L 90.05 169.35 L 88.55 171.55 L 87.12 172.96 L 85.74 173.77 L 84.64 174.02 L 83.54 173.86 L 82.39 173.27 L 81.12 172.11 L 80.26 170.81 L 79.47 168.96 L 78.76 166.41 L 78.02 162.38 L 77.40 157.37 L 76.38 146.40 L 75.09 134.89 L 74.13 129.30 L 72.89 124.26 L 71.81 121.04 L 70.56 118.27 L 69.16 115.91" fill="none" group-id="1" id="路径_1716" node-id="27" stroke="#c1d2db" stroke-linecap="butt" stroke-width="1" target-height="92.178345" target-width="35.93701" target-x="69.16406" target-y="81.837006"></path><path d="M 105.10 103.20 L 104.45 106.61 L 102.84 115.41 L 100.77 127.45 L 98.71 140.57 L 97.16 152.62 L 96.72 157.84 L 96.63 161.43 L 96.42 163.95 L 95.81 166.32 L 94.79 168.57 L 92.75 171.78 L 90.19 175.03 L 84.61 181.70 L 82.05 185.38 L 79.89 189.50 L 78.82 192.42 L 78.12 195.68 L 77.81 199.32" fill="none" group-id="1" id="路径_1717" node-id="28" stroke="#c1d2db" stroke-linecap="butt" stroke-width="1" target-height="96.12598" target-width="27.29004" target-x="77.80713" target-y="103.198"></path><path d="M 107.27 127.92 L 106.03 131.98 L 103.22 142.95 L 101.68 150.21 L 100.16 159.03 L 98.97 168.28 L 98.19 178.42 L 98.00 185.28 L 98.16 192.25 L 98.66 199.32" fill="none" group-id="1" id="路径_1718" node-id="29" stroke="#c1d2db" stroke-linecap="butt" stroke-width="1" target-height="71.39996" target-width="9.266602" target-x="98.00391" target-y="127.92001"></path><path d="M 123.58 201.36 L 123.57 196.96 L 123.57 185.08 L 123.65 167.65 L 123.89 146.62 L 124.36 123.94 L 125.13 101.56 L 126.27 81.42 L 127.03 72.48 L 127.85 65.46 L 128.92 59.24 L 129.94 55.64 L 130.63 54.29 L 131.06 53.96 L 131.38 54.09 L 131.76 54.91 L 132.24 57.63 L 132.63 63.38 L 132.77 70.01 L 132.78 78.79 L 132.44 98.86 L 131.86 121.32 L 131.26 143.87 L 130.88 164.26 L 130.96 180.20 L 131.28 186.27 L 131.72 189.41" fill="none" group-id="1" id="路径_1719" node-id="30" stroke="#c1d2db" stroke-linecap="butt" stroke-width="1" target-height="147.39847" target-width="9.209473" target-x="123.566895" target-y="53.959534"></path><path d="M 140.62 202.62 L 140.70 199.30 L 140.93 190.71 L 141.32 178.94 L 141.87 166.09 L 142.57 154.23 L 143.42 145.45 L 144.03 142.51 L 144.44 141.85 L 144.68 141.96 L 144.99 142.64 L 145.39 144.60 L 146.12 152.29 L 146.72 163.11 L 147.29 175.24 L 147.91 186.86 L 148.67 196.18 L 149.19 199.70 L 149.66 201.35" fill="none" group-id="1" id="路径_1720" node-id="31" stroke="#c1d2db" stroke-linecap="butt" stroke-width="1" target-height="60.778015" target-width="9.038574" target-x="140.62256" target-y="141.84692"></path><path d="M 166.31 201.36 L 165.44 198.15 L 163.27 189.65 L 160.46 177.58 L 157.64 163.65 L 156.43 156.46 L 155.47 149.56 L 154.83 142.82 L 154.61 137.02 L 154.81 124.63 L 155.31 105.72 L 155.89 82.54 L 156.39 57.33 L 156.59 32.32 L 156.32 9.75 L 155.93 -0.28 L 155.39 -8.15 L 154.53 -15.13 L 153.59 -19.12" fill="none" group-id="1" id="路径_1721" node-id="32" stroke="#c1d2db" stroke-linecap="butt" stroke-width="1" target-height="220.479" target-width="12.716797" target-x="153.59033" target-y="-19.120998"></path><path d="M 169.61 -17.85 L 169.22 -13.00 L 168.38 0.12 L 167.63 19.34 L 167.46 30.39 L 167.50 42.52 L 167.83 54.87 L 168.51 67.49 L 169.61 80.06 L 171.18 92.12 L 172.57 100.06 L 174.20 107.42 L 176.06 114.23 L 178.35 120.91 L 180.89 126.70 L 183.65 131.68" fill="none" group-id="1" id="路径_1722" node-id="33" stroke="#c1d2db" stroke-linecap="butt" stroke-width="1" target-height="149.52899" target-width="16.196777" target-x="167.45703" target-y="-17.849003"></path><path d="M 183.65 160.16 L 182.62 155.42 L 179.95 142.68 L 176.27 124.15 L 172.22 102.04 L 168.45 78.55 L 166.85 66.85 L 165.59 55.91 L 164.68 45.32 L 164.27 36.32 L 163.95 11.19 L 163.99 -4.66 L 164.17 -12.93 L 164.27 -15.31" fill="none" group-id="1" id="路径_1723" node-id="34" stroke="#c1d2db" stroke-linecap="butt" stroke-width="1" target-height="175.468" target-width="19.704102" target-x="163.9502" target-y="-15.306"></path><path d="M 204.96 17.75 L 204.21 15.81 L 202.29 11.04 L 199.66 5.04 L 196.79 -0.59 L 195.31 -2.90 L 194.15 -4.25 L 193.34 -4.79 L 192.75 -4.79 L 192.23 -4.35 L 191.89 -3.58 L 191.61 -2.03 L 191.48 0.71 L 191.50 12.45 L 191.54 27.43 L 191.58 43.94 L 191.59 60.26 L 191.57 74.66 L 191.48 85.43" fill="none" group-id="1" id="路径_1724" node-id="35" stroke="#c1d2db" stroke-linecap="butt" stroke-width="1" target-height="90.22445" target-width="13.480957" target-x="191.48047" target-y="-4.7934494"></path><path d="M 187.92 -0.30 L 188.04 4.69 L 188.30 18.14 L 188.55 37.76 L 188.65 61.24 L 188.46 86.29 L 187.82 110.63 L 187.27 122.06 L 186.58 131.95 L 185.65 141.15 L 184.62 147.95" fill="none" group-id="1" id="路径_1725" node-id="36" stroke="#c1d2db" stroke-linecap="butt" stroke-width="1" target-height="148.25702" target-width="4.0375977" target-x="184.6167" target-y="-0.3030014"></path><path d="M 204.96 38.10 L 204.28 37.54 L 203.55 37.25 L 202.56 37.29 L 201.58 37.83 L 200.29 39.46 L 199.21 41.81 L 197.95 46.20 L 196.98 51.47 L 196.04 59.61 L 195.43 68.89 L 195.04 81.84 L 194.57 97.76 L 193.77 111.32 L 192.71 124.21 L 191.63 135.47 L 190.58 146.30 L 189.77 156.21 L 189.30 165.95 L 189.34 175.49 L 189.69 181.82 L 190.40 188.41 L 191.48 195.25" fill="none" group-id="1" id="路径_1726" node-id="37" stroke="#c1d2db" stroke-linecap="butt" stroke-width="1" target-height="158.0072" target-width="15.657715" target-x="189.30225" target-y="37.247787"></path><path d="M 204.96 110.57 L 203.43 113.73 L 201.93 117.18 L 199.89 122.50 L 197.94 128.44 L 195.95 135.86 L 194.85 141.02 L 193.93 146.65 L 193.21 152.79 L 192.83 158.94 L 192.84 165.41 L 193.26 172.24 L 194.93 188.74 L 196.04 198.65 L 196.70 203.63 L 197.02 205.39 L 197.10 205.60" fill="none" group-id="1" id="路径_1727" node-id="38" stroke="#c1d2db" stroke-linecap="butt" stroke-width="1" target-height="95.02399" target-width="12.130371" target-x="192.83105" target-y="110.57303"></path><path d="M 201.15 202.63 L 201.01 199.06 L 200.70 189.80 L 200.35 177.07 L 200.08 163.05 L 200.03 149.93 L 200.35 139.93 L 200.75 136.39 L 201.15 135.24 L 202.43 134.02 L 203.26 133.62 L 204.04 133.59 L 204.54 133.81 L 204.96 134.22" fill="none" group-id="1" id="路径_1728" node-id="39" stroke="#c1d2db" stroke-linecap="butt" stroke-width="1" target-height="69.03674" target-width="4.9262695" target-x="200.03369" target-y="133.59326"></path><path d="M 60.43 4.28 L 60.60 7.29 L 60.77 14.74 L 60.71 19.35 L 60.47 24.32 L 59.98 29.25 L 59.22 33.69 L 58.45 36.54 L 57.55 38.78 L 56.53 40.51 L 55.55 41.59 L 54.48 42.25 L 53.30 42.54 L 51.93 42.46 L 50.18 41.81 L 47.91 40.20 L 44.93 37.20 L 38.11 28.99 L 33.23 22.57 L 29.12 16.59 L 26.49 12.31 L 24.44 8.49 L 23.42 6.26 L 22.68 4.28" fill="none" group-id="1" id="路径_1729" node-id="40" stroke="#c1d2db" stroke-linecap="butt" stroke-width="1" target-height="38.256638" target-width="38.088623" target-x="22.681885" target-y="4.2829895"></path><path d="M 38.93 121.97 L 38.71 118.07 L 38.18 107.91 L 37.59 93.77 L 37.16 77.94 L 37.13 62.70 L 37.34 55.77 L 37.72 50.35 L 38.41 45.60 L 39.18 43.18 L 39.72 42.43 L 40.24 42.24 L 40.86 42.49 L 41.73 43.46 L 42.56 45.22 L 43.37 48.10 L 44.09 52.50 L 44.72 59.42 L 45.11 68.56 L 45.22 78.31 L 45.14 89.45 L 44.56 112.96 L 43.75 136.90 L 43.09 159.06 L 42.92 169.09 L 42.94 177.23 L 43.20 184.58 L 43.68 189.21 L 44.29 191.57 L 44.95 192.76 L 45.64 193.25 L 46.40 193.25 L 47.53 192.64 L 48.99 191.12 L 50.94 188.16 L 53.44 183.19 L 56.34 176.10 L 59.01 168.36 L 61.67 159.26 L 64.00 149.80 L 65.99 139.80 L 67.48 129.71 L 68.35 119.90 L 68.54 113.36 L 68.35 107.31 L 67.81 101.71 L 66.79 95.92 L 66.05 93.61 L 65.46 92.86 L 64.98 92.91 L 64.35 93.89 L 63.60 96.25 L 62.68 100.68 L 61.01 112.14 L 59.31 126.38 L 57.56 141.56 L 55.72 155.79 L 54.72 162.20 L 53.77 167.23 L 52.64 171.64 L 51.68 174.00 L 51.14 174.67 L 50.76 174.75 L 50.41 174.42 L 50.00 173.27 L 49.54 170.28 L 49.22 164.70 L 49.13 158.37 L 49.23 150.16 L 49.92 131.52 L 51.19 110.67 L 52.94 89.47 L 55.05 69.80 L 56.24 60.87 L 57.41 53.55 L 58.75 46.91 L 59.93 42.58 L 62.33 34.77 L 64.12 27.97 L 65.39 22.07 L 66.36 16.08 L 66.89 11.26 L 67.05 7.45 L 66.88 3.58 L 66.46 1.14 L 65.91 -0.30" fill="none" group-id="1" id="路径_1730" node-id="41" stroke="#c1d2db" stroke-linecap="butt" stroke-width="1" target-height="193.55142" target-width="31.415527" target-x="37.12622" target-y="-0.3030014"></path><path d="M 71.28 -1.54 L 71.10 2.06 L 70.69 11.43 L 70.24 24.45 L 69.95 39.00 L 70.02 52.94 L 70.26 59.26 L 70.64 64.17 L 71.30 68.45 L 72.01 70.55 L 72.49 71.16 L 72.96 71.28 L 73.53 70.98 L 74.32 69.96 L 75.37 67.71 L 76.18 64.94 L 76.72 61.55 L 77.04 56.30 L 76.93 50.41 L 76.52 44.43 L 75.94 38.56 L 74.69 28.02 L 74.25 23.60 L 74.16 20.81 L 74.37 19.29 L 74.74 18.85 L 75.31 18.96 L 75.84 19.58 L 76.50 21.00 L 77.31 23.73 L 78.25 28.08 L 79.24 34.16 L 80.10 40.73 L 80.90 48.32 L 81.57 56.13 L 82.11 64.24 L 82.48 72.34 L 82.67 79.99 L 82.65 87.39 L 82.40 93.63 L 81.86 99.35 L 81.12 103.20 L 80.19 107.73 L 80.09 110.41 L 80.40 111.96 L 80.87 112.77 L 81.45 113.13 L 82.15 113.15 L 82.98 112.80 L 84.01 111.93 L 85.30 110.16 L 86.61 107.36 L 87.53 104.13 L 88.08 100.00 L 89.17 89.69 L 91.33 74.30 L 94.16 55.74 L 97.26 35.91 L 100.22 16.71 L 102.64 0.03" fill="none" group-id="1" id="路径_1731" node-id="42" stroke="#c1d2db" stroke-linecap="butt" stroke-width="1" target-height="114.68674" target-width="32.69043" target-x="69.94946" target-y="-1.5360031"></path><path d="M 2.43 46.72 L 3.10 63.35 L 3.36 77.84 L 3.26 102.65 L 3.19 120.02 L 3.40 124.57 L 3.78 127.32 L 4.22 128.82 L 4.74 129.54 L 5.33 129.69 L 6.16 129.29 L 7.43 127.92 L 8.16 126.49 L 8.78 124.19 L 9.18 120.68 L 9.32 115.18 L 9.07 108.05 L 8.54 100.53 L 7.79 92.20 L 6.01 75.28 L 4.44 59.46 L 3.92 52.37 L 3.74 46.91 L 3.85 43.39 L 4.18 41.13 L 4.62 39.77 L 5.13 39.09 L 5.73 38.90 L 6.54 39.18 L 7.74 40.22 L 8.96 42.08 L 10.12 44.97 L 11.15 49.23 L 12.12 56.01 L 12.79 64.83 L 13.11 74.20 L 13.19 84.78 L 12.91 106.84 L 12.47 128.75 L 12.37 139.17 L 12.43 148.28 L 12.74 156.81 L 13.32 163.18 L 14.02 167.22 L 14.83 169.74 L 15.68 171.21 L 16.55 171.96 L 17.19 172.14 L 17.74 171.93 L 18.28 171.24 L 19.05 169.08 L 19.73 164.97 L 20.11 160.28 L 20.36 154.35 L 20.49 141.36 L 20.47 127.97 L 20.60 116.14 L 20.86 111.15 L 21.23 107.85 L 21.72 105.88 L 22.21 105.16 L 22.68 105.06 L 23.25 105.49 L 23.78 106.52 L 24.26 108.52 L 24.61 111.78 L 24.79 116.40 L 24.74 127.09 L 24.58 138.95 L 24.60 144.91 L 24.76 150.39 L 25.15 155.61 L 25.76 159.76 L 26.42 162.38 L 27.19 164.22 L 28.03 165.46 L 28.55 165.78 L 29.00 165.67 L 29.50 165.04 L 30.09 163.42 L 30.82 159.73 L 31.49 153.49 L 31.93 146.51 L 32.21 137.72 L 32.31 128.46 L 32.24 118.15 L 31.98 107.63 L 31.54 96.82 L 30.91 86.05 L 30.10 75.77 L 29.08 65.78 L 27.91 57.04 L 26.46 48.86 L 24.94 42.67 L 23.62 38.81 L 22.36 36.27 L 21.18 34.71 L 18.25 32.12 L 16.95 31.39 L 16.36 31.41 L 16.03 31.85 L 15.97 32.98 L 16.29 35.07 L 17.09 38.44 L 19.14 46.71 L 20.15 51.50 L 20.98 56.73 L 21.45 62.07 L 21.43 67.47 L 20.66 77.77 L 19.82 85.45 L 18.87 92.23 L 18.15 96.34 L 17.37 99.99" fill="none" group-id="1" id="路径_1732" node-id="43" stroke="#c1d2db" stroke-linecap="butt" stroke-width="1" target-height="140.7502" target-width="29.88086" target-x="2.4318848" target-y="31.389313"></path><text align="center" editable="true" ellipsis="false" fill="#3fa027" flags="1" font-family="'Noto Sans CJK SC'" font-size="9" font-stretch="normal" font-style="normal" font-weight="400" height="13.32" hidden="true" id="夏至_" letter-spacing="0" node-id="44" stroke="none" target-x="40.766" target-y="47.890003" visibility="hidden" width="27" x="40.766" xml:space="preserve" y="58.33">夏至。</text><path d="M 39.60 46.81 L 37.43 46.81 L 37.43 46.81 L 36.68 46.81 L 36.68 49.73 L 37.43 49.73 L 37.43 47.56 L 39.60 47.56 Z" fill="#3fa027" fill-rule="nonzero" hidden="true" id="路径_1733" node-id="47" stroke-linecap="butt" stroke-width="1" target-height="2.9170227" target-width="2.9179688" target-x="36.681885" target-y="46.80899" visibility="hidden"></path><path d="M 180.80 28.33 L 180.53 32.22 L 179.78 35.89 L 178.57 39.36 L 176.92 42.65 L 174.90 45.64 L 172.50 48.37 L 169.78 50.77 L 166.78 52.79 L 163.49 54.44 L 160.02 55.65 L 156.36 56.40 L 152.47 56.67 L 148.57 56.40 L 144.91 55.65 L 141.44 54.44 L 138.15 52.79 L 135.15 50.77 L 132.43 48.37 L 130.03 45.64 L 128.01 42.65 L 126.36 39.36 L 125.15 35.89 L 124.40 32.22 L 124.13 28.33 L 124.40 24.44 L 125.15 20.78 L 126.36 17.30 L 128.01 14.02 L 130.03 11.02 L 132.43 8.30 L 135.15 5.90 L 138.15 3.88 L 141.44 2.23 L 144.91 1.01 L 148.57 0.27 L 152.47 0.00 L 156.36 0.27 L 160.02 1.01 L 163.49 2.23 L 166.78 3.88 L 169.78 5.90 L 172.50 8.30 L 174.90 11.02 L 176.92 14.02 L 178.57 17.30 L 179.78 20.78 L 180.53 24.44 L 180.80 28.33 Z" fill="url(#linear-gradient)" fill-rule="nonzero" group-id="2" id="椭圆_52" node-id="49" stroke-linecap="butt" stroke-width="1" target-height="56.666" target-width="56.666" target-x="124.132" target-y="0"></path><path d="M 179.41 28.33 L 179.16 32.04 L 178.45 35.52 L 177.29 38.82 L 175.72 41.95 L 173.80 44.80 L 171.52 47.39 L 168.93 49.67 L 166.08 51.59 L 162.95 53.16 L 159.65 54.32 L 156.17 55.02 L 152.47 55.28 L 148.76 55.02 L 145.28 54.32 L 141.98 53.16 L 138.85 51.59 L 136.00 49.67 L 133.41 47.39 L 131.13 44.80 L 129.21 41.95 L 127.64 38.82 L 126.48 35.52 L 125.78 32.04 L 125.52 28.33 L 125.78 24.63 L 126.48 21.15 L 127.64 17.85 L 129.21 14.72 L 131.13 11.87 L 133.41 9.28 L 136.00 7.00 L 138.85 5.08 L 141.98 3.51 L 145.28 2.35 L 148.76 1.64 L 152.47 1.39 L 156.17 1.64 L 159.65 2.35 L 162.95 3.51 L 166.08 5.08 L 168.93 7.00 L 171.52 9.28 L 173.80 11.87 L 175.72 14.72 L 177.29 17.85 L 178.45 21.15 L 179.16 24.63 L 179.41 28.33 Z" fill="url(#linear-gradient-2)" fill-rule="nonzero" group-id="2" id="椭圆_53" node-id="50" stroke-linecap="butt" stroke-width="1" target-height="53.892" target-width="53.892" target-x="125.520004" target-y="1.388"></path><path d="M 176.75 28.33 L 176.52 31.67 L 175.88 34.81 L 174.84 37.79 L 173.43 40.61 L 171.69 43.17 L 169.64 45.51 L 167.30 47.56 L 164.74 49.29 L 161.92 50.71 L 158.94 51.75 L 155.80 52.39 L 152.47 52.62 L 149.13 52.39 L 145.99 51.75 L 143.01 50.71 L 140.19 49.29 L 137.63 47.56 L 135.29 45.51 L 133.24 43.17 L 131.51 40.61 L 130.09 37.79 L 129.05 34.81 L 128.41 31.67 L 128.18 28.33 L 128.41 25.00 L 129.05 21.86 L 130.09 18.88 L 131.51 16.06 L 133.24 13.50 L 135.29 11.16 L 137.63 9.11 L 140.19 7.37 L 143.01 5.96 L 145.99 4.92 L 149.13 4.28 L 152.47 4.05 L 155.80 4.28 L 158.94 4.92 L 161.92 5.96 L 164.74 7.37 L 167.30 9.11 L 169.64 11.16 L 171.69 13.50 L 173.43 16.06 L 174.84 18.88 L 175.88 21.86 L 176.52 25.00 L 176.75 28.33 Z" fill="#fefdfe" fill-rule="nonzero" group-id="2" id="椭圆_54" node-id="51" stroke-linecap="butt" stroke-width="1" target-height="48.572" target-width="48.572006" target-x="128.18001" target-y="4.048"></path><path d="M 152.72 28.53 L 159.45 7.44 L 158.08 6.94 L 156.61 6.53 L 154.46 6.14 L 152.12 5.98 L 149.35 6.15 L 146.52 6.77 L 143.48 8.04 Z" fill="#ff3939" fill-rule="nonzero" group-id="2" id="路径_1734" node-id="52" stroke-linecap="butt" stroke-width="1" target-height="22.550827" target-width="15.970703" target-x="143.48096" target-y="5.97818"></path><path d="M 152.68 28.53 L 145.94 49.61 L 147.31 50.12 L 148.78 50.53 L 150.93 50.91 L 153.28 51.08 L 156.05 50.91 L 158.87 50.29 L 161.91 49.01 Z" fill="#ff3939" fill-rule="nonzero" group-id="2" id="路径_1735" node-id="53" stroke-linecap="butt" stroke-width="1" target-height="22.550827" target-width="15.971191" target-x="145.94287" target-y="28.528992"></path><path d="M 152.71 28.54 L 172.38 18.40 L 171.77 17.07 L 171.02 15.75 L 169.78 13.95 L 168.23 12.17 L 166.15 10.34 L 163.72 8.78 L 160.66 7.53 Z" fill="#ff3939" fill-rule="nonzero" group-id="2" id="路径_1736" node-id="54" stroke-linecap="butt" stroke-width="1" target-height="21.013992" target-width="19.670898" target-x="152.71387" target-y="7.529999"></path><path d="M 152.68 28.52 L 133.01 38.67 L 133.62 39.99 L 134.37 41.32 L 135.62 43.11 L 137.16 44.89 L 139.24 46.73 L 141.68 48.28 L 144.73 49.53 Z" fill="#ff3939" fill-rule="nonzero" group-id="2" id="路径_1737" node-id="55" stroke-linecap="butt" stroke-width="1" target-height="21.014008" target-width="19.67041" target-x="133.01172" target-y="28.51799"></path><path d="M 152.71 28.51 L 142.57 8.84 L 141.24 9.46 L 139.92 10.20 L 138.12 11.45 L 136.34 12.99 L 134.50 15.08 L 132.95 17.51 L 131.70 20.56 Z" fill="#ff3939" fill-rule="nonzero" group-id="2" id="路径_1738" node-id="56" stroke-linecap="butt" stroke-width="1" target-height="19.671005" target-width="21.013184" target-x="131.6997" target-y="8.842987"></path><path d="M 152.68 28.54 L 162.83 48.22 L 164.16 47.60 L 165.48 46.85 L 167.28 45.61 L 169.05 44.06 L 170.89 41.98 L 172.44 39.55 L 173.69 36.50 Z" fill="#ff3939" fill-rule="nonzero" group-id="2" id="路径_1739" node-id="57" stroke-linecap="butt" stroke-width="1" target-height="19.671005" target-width="21.013184" target-x="152.67969" target-y="28.544006"></path><path d="M 152.70 28.51 L 131.61 21.77 L 131.11 23.15 L 130.70 24.61 L 130.31 26.76 L 130.15 29.11 L 130.32 31.88 L 130.94 34.70 L 132.21 37.74 Z" fill="#ff3939" fill-rule="nonzero" group-id="2" id="路径_1740" node-id="58" stroke-linecap="butt" stroke-width="1" target-height="15.971008" target-width="22.549805" target-x="130.14795" target-y="21.773987"></path><path d="M 152.70 28.55 L 173.78 35.28 L 174.29 33.91 L 174.69 32.45 L 175.08 30.29 L 175.25 27.95 L 175.08 25.18 L 174.45 22.36 L 173.18 19.31 Z" fill="#ff3939" fill-rule="nonzero" group-id="2" id="路径_1741" node-id="59" stroke-linecap="butt" stroke-width="1" target-height="15.970993" target-width="22.549316" target-x="152.69678" target-y="19.313004"></path><path d="M 154.93 45.98 L 154.74 46.21 L 153.97 46.44 L 153.18 46.44 L 152.93 46.28 L 153.12 46.06 L 153.88 45.83 L 154.68 45.83 L 154.93 45.98 Z" fill="#3d281e" fill-rule="nonzero" group-id="2" id="椭圆_55" node-id="60" stroke-linecap="butt" stroke-width="0.99999994" target-height="0.6132698" target-width="1.9941101" target-x="152.93156" target-y="45.82586"></path><path d="M 136.47 30.41 L 136.29 30.63 L 135.52 30.86 L 134.72 30.86 L 134.48 30.70 L 134.67 30.48 L 135.43 30.25 L 136.23 30.25 L 136.47 30.41 Z" fill="#3d281e" fill-rule="nonzero" group-id="2" id="椭圆_56" node-id="61" stroke-linecap="butt" stroke-width="0.99999994" target-height="0.6132679" target-width="1.9941101" target-x="134.48056" target-y="30.24886"></path><path d="M 163.55 34.59 L 163.36 34.81 L 162.59 35.04 L 161.80 35.04 L 161.55 34.88 L 161.74 34.66 L 162.50 34.43 L 163.30 34.43 L 163.55 34.59 Z" fill="#3d281e" fill-rule="nonzero" group-id="2" id="椭圆_57" node-id="62" stroke-linecap="butt" stroke-width="0.99999994" target-height="0.6132698" target-width="1.9941101" target-x="161.55157" target-y="34.42886"></path><path d="M 158.43 23.64 L 158.25 23.86 L 157.48 24.10 L 156.68 24.09 L 156.44 23.94 L 156.63 23.71 L 157.39 23.48 L 158.19 23.48 L 158.43 23.64 Z" fill="#3d281e" fill-rule="nonzero" group-id="2" id="椭圆_58" node-id="63" stroke-linecap="butt" stroke-width="0.99999994" target-height="0.6132679" target-width="1.9941101" target-x="156.43857" target-y="23.48186"></path><path d="M 146.53 35.64 L 146.56 35.93 L 146.19 36.64 L 145.63 37.21 L 145.35 37.27 L 145.32 36.99 L 145.69 36.28 L 146.25 35.71 L 146.53 35.64 Z" fill="#3d281e" fill-rule="nonzero" group-id="2" id="椭圆_59" node-id="64" stroke-linecap="butt" stroke-width="0.99999994" target-height="1.6322174" target-width="1.2381897" target-x="145.32353" target-y="35.64273"></path><path d="M 153.68 10.33 L 153.70 10.62 L 153.34 11.33 L 152.78 11.90 L 152.49 11.96 L 152.47 11.67 L 152.83 10.96 L 153.39 10.39 L 153.68 10.33 Z" fill="#3d281e" fill-rule="nonzero" group-id="2" id="椭圆_60" node-id="65" stroke-linecap="butt" stroke-width="0.99999994" target-height="1.6322184" target-width="1.2381897" target-x="152.46654" target-y="10.330732"></path><path d="M 140.73 39.74 L 140.79 40.53 L 140.65 40.79 L 140.41 40.62 L 140.12 39.87 L 140.06 39.08 L 140.20 38.82 L 140.44 38.99 L 140.73 39.74 Z" fill="#3d281e" fill-rule="nonzero" group-id="2" id="椭圆_61" node-id="66" stroke-linecap="butt" stroke-width="1" target-height="1.9650879" target-width="0.7271271" target-x="140.06172" target-y="38.82177"></path><path d="M 169.90 31.13 L 169.97 31.93 L 169.83 32.18 L 169.59 32.01 L 169.30 31.27 L 169.24 30.47 L 169.38 30.22 L 169.61 30.39 L 169.90 31.13 Z" fill="#3d281e" fill-rule="nonzero" group-id="2" id="椭圆_62" node-id="67" stroke-linecap="butt" stroke-width="1" target-height="1.9650879" target-width="0.7271271" target-x="169.23872" target-y="30.21677"></path><path d="M 166.34 25.84 L 166.16 26.07 L 165.39 26.30 L 164.59 26.30 L 164.35 26.14 L 164.54 25.92 L 165.30 25.68 L 166.10 25.69 L 166.34 25.84 Z" fill="#3d281e" fill-rule="nonzero" group-id="2" id="椭圆_63" node-id="68" stroke-linecap="butt" stroke-width="0.99999994" target-height="0.6132679" target-width="1.9941101" target-x="164.35057" target-y="25.68486"></path><path d="M 140.42 15.71 L 140.24 15.93 L 139.47 16.16 L 138.67 16.16 L 138.43 16.00 L 138.62 15.78 L 139.38 15.55 L 140.18 15.55 L 140.42 15.71 Z" fill="#3d281e" fill-rule="nonzero" group-id="2" id="椭圆_64" node-id="69" stroke-linecap="butt" stroke-width="0.99999994" target-height="0.6132679" target-width="1.9941101" target-x="138.43057" target-y="15.547861"></path><path d="M 152.15 19.59 L 152.21 20.39 L 152.07 20.65 L 151.83 20.48 L 151.54 19.73 L 151.48 18.94 L 151.62 18.68 L 151.86 18.85 L 152.15 19.59 Z" fill="#3d281e" fill-rule="nonzero" group-id="2" id="椭圆_65" node-id="70" stroke-linecap="butt" stroke-width="1" target-height="1.9650879" target-width="0.7271271" target-x="151.48071" target-y="18.68077"></path><path d="M 143.99 44.92 L 144.04 45.20 L 143.75 45.95 L 143.25 46.57 L 142.98 46.66 L 142.92 46.38 L 143.21 45.64 L 143.71 45.01 L 143.99 44.92 Z" fill="#3d281e" fill-rule="nonzero" group-id="2" id="椭圆_66" node-id="71" stroke-linecap="butt" stroke-width="1" target-height="1.7459068" target-width="1.1224823" target-x="142.92123" target-y="44.91909"></path><path d="M 153.09 38.38 L 152.97 39.17 L 152.78 39.39 L 152.58 39.17 L 152.47 38.38 L 152.58 37.59 L 152.78 37.37 L 152.97 37.59 L 153.09 38.38 Z" fill="#3d281e" fill-rule="nonzero" group-id="2" id="椭圆_67" node-id="72" stroke-linecap="butt" stroke-width="1" target-height="2.0159988" target-width="0.6199951" target-x="152.466" target-y="37.371"></path><path d="M 142.04 28.54 L 141.93 29.33 L 141.73 29.55 L 141.54 29.33 L 141.42 28.54 L 141.54 27.75 L 141.73 27.54 L 141.93 27.75 L 142.04 28.54 Z" fill="#3d281e" fill-rule="nonzero" group-id="2" id="椭圆_68" node-id="73" stroke-linecap="butt" stroke-width="1" target-height="2.0160007" target-width="0.6199951" target-x="141.423" target-y="27.536"></path><path d="M 147.01 22.78 L 146.90 23.57 L 146.71 23.79 L 146.51 23.57 L 146.40 22.78 L 146.51 21.99 L 146.71 21.77 L 146.90 21.99 L 147.01 22.78 Z" fill="#3d281e" fill-rule="nonzero" group-id="2" id="椭圆_69" node-id="74" stroke-linecap="butt" stroke-width="1" target-height="2.0160007" target-width="0.6199951" target-x="146.395" target-y="21.773"></path><path d="M 164.28 43.28 L 164.16 44.07 L 163.97 44.28 L 163.78 44.07 L 163.66 43.28 L 163.78 42.49 L 163.97 42.27 L 164.16 42.49 L 164.28 43.28 Z" fill="#3d281e" fill-rule="nonzero" group-id="2" id="椭圆_70" node-id="75" stroke-linecap="butt" stroke-width="1" target-height="2.0159988" target-width="0.6199951" target-x="163.663" target-y="42.268"></path><path d="M 165.97 18.04 L 165.85 18.83 L 165.66 19.05 L 165.47 18.83 L 165.35 18.04 L 165.47 17.25 L 165.66 17.03 L 165.85 17.25 L 165.97 18.04 Z" fill="#3d281e" fill-rule="nonzero" group-id="2" id="椭圆_71" node-id="76" stroke-linecap="butt" stroke-width="1" target-height="2.0160007" target-width="0.6199951" target-x="165.347" target-y="17.029"></path><path d="M 24.52 100.46 L 24.43 103.31 L 24.47 106.33 L 24.74 110.76 L 25.29 115.53 L 26.31 121.14 L 27.81 126.84 L 30.01 132.80 L 31.84 136.66 L 34.07 140.41 L 36.70 144.06 L 39.70 147.41 L 43.21 150.48 L 47.27 153.28 L 50.48 155.02 L 54.08 156.53 L 58.09 157.79 L 62.57 158.78 L 67.82 159.29 L 72.63 159.33 L 77.04 158.95 L 81.08 158.17 L 85.12 156.98 L 88.84 155.51 L 92.27 153.76 L 95.42 151.74 L 99.38 148.62 L 102.89 145.24 L 106.00 141.59 L 108.80 137.68 L 111.20 133.78 L 113.23 129.86 L 115.77 123.91 L 117.52 118.65 L 118.75 113.65 L 119.29 110.08 Z" fill="url(#linear-gradient-3)" fill-rule="nonzero" group-id="3" id="路径_1742" node-id="78" stroke-linecap="butt" stroke-width="1" target-height="58.871582" target-width="94.854004" target-x="24.433838" target-y="100.45599"></path><path d="M 62.56 158.78 L 60.20 157.71 L 57.77 156.42 L 54.32 154.27 L 50.77 151.66 L 46.78 148.13 L 44.27 145.49 L 41.82 142.44 L 39.43 138.93 L 37.38 135.23 L 35.60 131.05 L 34.11 126.34 L 33.13 121.51 L 32.63 116.09 L 32.68 110.01 L 24.69 99.50 L 24.54 102.41 L 24.52 105.50 L 24.70 110.02 L 25.16 114.90 L 26.09 120.62 L 27.52 126.44 L 29.65 132.50 L 31.46 136.44 L 33.67 140.25 L 36.30 143.96 L 39.31 147.36 L 42.85 150.46 L 46.96 153.29 L 50.22 155.04 L 53.88 156.55 L 57.98 157.80 L 62.56 158.78 Z" fill="url(#linear-gradient)" fill-rule="nonzero" group-id="3" id="路径_1744" node-id="80" stroke-linecap="butt" stroke-width="1" target-height="59.28601" target-width="38.047363" target-x="24.517578" target-y="99.496"></path><path d="M 46.17 116.58 L 45.93 119.53 L 45.88 122.62 L 46.11 127.11 L 46.75 131.90 L 48.05 137.43 L 49.28 141.10 L 50.95 144.82 L 53.09 148.62 L 55.62 152.15 L 58.75 155.53 L 62.57 158.78 L 61.52 155.97 L 59.08 148.76 L 57.70 144.17 L 56.33 138.96 L 55.17 133.64 L 54.35 128.39 L 53.99 123.26 L 54.22 118.87 L 50.16 117.86 L 46.17 116.58 Z" fill="url(#linear-gradient)" fill-rule="nonzero" group-id="3" id="路径_1745" node-id="81" stroke-linecap="butt" stroke-width="1" target-height="42.200012" target-width="16.689209" target-x="45.87964" target-y="116.57999"></path><path d="M 68.38 121.08 L 68.50 123.47 L 68.65 129.56 L 68.48 137.75 L 68.16 142.14 L 67.63 146.42 L 66.83 150.54 L 65.78 153.97 L 64.82 156.08 L 63.74 157.65 L 62.57 158.78 L 64.34 157.76 L 66.09 156.48 L 68.56 154.22 L 70.97 151.42 L 73.61 147.41 L 75.12 144.47 L 76.53 140.90 L 77.83 136.61 L 78.74 132.25 L 79.35 127.11 L 79.60 121.08 Z" fill="url(#linear-gradient)" fill-rule="nonzero" group-id="3" id="路径_1746" node-id="82" stroke-linecap="butt" stroke-width="1" target-height="37.700012" target-width="17.036621" target-x="62.566162" target-y="121.07797"></path><path d="M 96.19 120.12 L 95.54 123.00 L 94.72 125.98 L 93.35 130.19 L 91.63 134.62 L 89.30 139.53 L 87.49 142.74 L 85.41 145.84 L 83.04 148.85 L 80.41 151.59 L 77.48 153.97 L 74.24 155.99 L 71.67 157.17 L 68.88 158.04 L 65.86 158.58 L 62.57 158.78 L 65.06 158.87 L 67.68 158.74 L 71.55 158.17 L 75.67 157.11 L 80.56 155.19 L 83.76 153.52 L 87.11 151.30 L 90.63 148.46 L 93.84 145.29 L 97.05 141.34 L 100.28 136.49 L 102.35 132.76 L 104.34 128.44 L 106.25 123.49 L 108.04 117.82 Z" fill="url(#linear-gradient)" fill-rule="nonzero" group-id="3" id="路径_1747" node-id="83" stroke-linecap="butt" stroke-width="1" target-height="41.049194" target-width="45.478027" target-x="62.566162" target-y="117.82498"></path><path d="M 115.66 114.65 L 115.03 117.29 L 114.23 120.04 L 112.85 124.03 L 111.09 128.27 L 108.65 133.16 L 105.69 138.00 L 101.97 142.93 L 99.16 146.00 L 95.97 148.90 L 92.37 151.61 L 88.53 153.93 L 84.22 155.89 L 79.39 157.47 L 75.72 158.28 L 71.71 158.79 L 67.34 158.96 L 62.57 158.78 L 64.96 159.25 L 67.51 159.55 L 71.32 159.68 L 75.45 159.44 L 80.41 158.61 L 83.73 157.71 L 87.25 156.38 L 90.99 154.57 L 94.51 152.41 L 98.12 149.62 L 101.82 146.12 L 105.13 142.26 L 108.41 137.52 L 111.66 131.77 L 113.72 127.38 L 115.68 122.35 L 117.55 116.60 L 119.29 110.08 Z" fill="url(#linear-gradient)" fill-rule="nonzero" group-id="3" id="路径_1748" node-id="84" stroke-linecap="butt" stroke-width="1" target-height="49.60254" target-width="56.72168" target-x="62.565186" target-y="110.076996"></path><path d="M 27.08 96.18 L 25.99 97.09 L 25.20 98.18 L 24.69 99.50 L 24.52 101.02 L 24.76 102.51 L 25.37 103.88 L 26.34 105.07 L 28.77 107.17 L 32.24 109.73 L 36.20 112.15 L 41.31 114.68 L 44.93 116.15 L 49.09 117.52 L 53.85 118.79 L 58.66 119.74 L 64.08 120.46 L 70.18 120.90 L 78.92 121.07 L 86.33 120.92 L 92.57 120.50 L 98.81 119.77 L 103.83 118.88 L 107.81 117.89 L 111.74 116.57 L 114.56 115.30 L 116.52 114.08 L 118.21 112.55 L 119.05 111.24 L 119.29 110.08 L 119.03 109.14 L 118.17 107.91 L 116.34 106.24 L 113.10 104.02 L 108.22 101.42 L 102.74 99.05 L 96.00 96.68 L 88.81 94.70 L 80.75 93.07 L 75.24 92.30 L 69.52 91.82 L 63.57 91.64 L 53.41 91.76 L 45.80 92.08 L 38.96 92.71 L 34.13 93.54 L 31.16 94.34 L 28.84 95.23 L 27.08 96.18 Z" fill="#ddeea4" fill-rule="nonzero" group-id="3" id="路径_1749" node-id="85" stroke-linecap="butt" stroke-width="1" target-height="29.434265" target-width="94.76367" target-x="24.52417" target-y="91.63699"></path><path d="M 31.99 97.02 L 31.05 97.62 L 30.33 98.42 L 29.82 99.42 L 29.65 100.59 L 29.82 101.72 L 30.33 102.75 L 31.14 103.61 L 33.99 105.79 L 38.52 108.55 L 41.84 110.22 L 45.97 111.88 L 51.02 113.54 L 56.14 114.82 L 62.20 115.85 L 69.34 116.57 L 79.58 116.99 L 87.76 116.95 L 94.19 116.54 L 100.62 115.71 L 105.18 114.73 L 108.27 113.69 L 110.59 112.53 L 111.92 111.53 L 112.58 110.65 L 112.77 109.85 L 112.48 109.00 L 111.39 107.79 L 108.90 106.01 L 104.65 103.75 L 98.31 101.14 L 93.77 99.61 L 88.62 98.16 L 82.80 96.82 L 76.94 95.78 L 70.75 95.04 L 64.19 94.62 L 55.25 94.44 L 48.55 94.47 L 42.52 94.76 L 38.25 95.24 L 34.51 96.05 L 31.99 97.02 Z" fill="#ff3939" fill-rule="nonzero" group-id="3" id="路径_1750" node-id="86" stroke-linecap="butt" stroke-width="1" target-height="22.557587" target-width="83.12598" target-x="29.645996" target-y="94.4364"></path><path d="M 43.67 100.54 L 43.63 100.78 L 43.35 101.08 L 42.35 101.57 L 41.24 101.72 L 40.84 101.62 L 40.68 101.44 L 40.72 101.21 L 41.00 100.90 L 42.00 100.42 L 43.11 100.27 L 43.50 100.37 L 43.67 100.54 Z" fill="#3d281e" fill-rule="nonzero" group-id="3,6" id="椭圆_72" node-id="88" stroke-linecap="butt" stroke-width="0.99999994" target-height="1.4518738" target-width="2.9851112" target-x="40.680878" target-y="100.26712"></path><path d="M 49.64 107.36 L 49.97 108.42 L 49.94 108.83 L 49.79 109.02 L 49.55 109.03 L 49.21 108.80 L 48.56 107.89 L 48.23 106.83 L 48.26 106.42 L 48.41 106.23 L 48.65 106.23 L 48.99 106.45 L 49.64 107.36 Z" fill="#3d281e" fill-rule="nonzero" group-id="3,6" id="椭圆_73" node-id="89" stroke-linecap="butt" stroke-width="0.999976" target-height="2.8000183" target-width="1.7417259" target-x="48.228725" target-y="106.22557"></path><path d="M 55.88 101.04 L 55.93 101.28 L 55.78 101.66 L 55.02 102.47 L 54.04 103.01 L 53.63 103.06 L 53.42 102.95 L 53.37 102.72 L 53.52 102.33 L 54.28 101.52 L 55.26 100.98 L 55.67 100.93 L 55.88 101.04 Z" fill="#3d281e" fill-rule="nonzero" group-id="3,6" id="椭圆_74" node-id="90" stroke-linecap="butt" stroke-width="1" target-height="2.122017" target-width="2.5666924" target-x="53.36716" target-y="100.93444"></path><path d="M 65.25 110.38 L 65.52 111.46 L 65.47 111.87 L 65.31 112.05 L 65.07 112.04 L 64.74 111.80 L 64.14 110.85 L 63.87 109.77 L 63.92 109.36 L 64.08 109.18 L 64.32 109.19 L 64.65 109.43 L 65.25 110.38 Z" fill="#3d281e" fill-rule="nonzero" group-id="3,6" id="椭圆_75" node-id="91" stroke-linecap="butt" stroke-width="1.000293" target-height="2.865448" target-width="1.6532784" target-x="63.867405" target-y="109.18121"></path><path d="M 67.57 100.13 L 67.61 100.37 L 67.43 100.74 L 66.61 101.50 L 65.59 101.96 L 65.18 101.98 L 64.97 101.85 L 64.94 101.62 L 65.12 101.25 L 65.94 100.49 L 66.96 100.03 L 67.37 100.01 L 67.57 100.13 Z" fill="#3d281e" fill-rule="nonzero" group-id="3,6" id="椭圆_76" node-id="92" stroke-linecap="butt" stroke-width="1" target-height="1.9658813" target-width="2.6658936" target-x="64.94141" target-y="100.01088"></path><path d="M 72.54 106.29 L 73.63 106.54 L 73.97 106.78 L 74.05 107.00 L 73.94 107.21 L 73.57 107.39 L 72.46 107.49 L 71.37 107.24 L 71.03 107.01 L 70.94 106.79 L 71.06 106.58 L 71.43 106.39 L 72.54 106.29 Z" fill="#3d281e" fill-rule="nonzero" group-id="3,6" id="椭圆_77" node-id="93" stroke-linecap="butt" stroke-width="1.000314" target-height="1.2015915" target-width="3.111763" target-x="70.94294" target-y="106.29242"></path><path d="M 80.96 101.37 L 81.24 102.45 L 81.18 102.86 L 81.02 103.04 L 80.79 103.03 L 80.45 102.78 L 79.86 101.84 L 79.58 100.76 L 79.64 100.35 L 79.79 100.17 L 80.03 100.18 L 80.36 100.42 L 80.96 101.37 Z" fill="#3d281e" fill-rule="nonzero" group-id="3,6" id="椭圆_78" node-id="94" stroke-linecap="butt" stroke-width="1.000293" target-height="2.865448" target-width="1.6532745" target-x="79.58241" target-y="100.17021"></path><path d="M 79.92 111.06 L 80.86 111.65 L 81.11 111.98 L 81.12 112.22 L 80.94 112.38 L 80.53 112.44 L 79.45 112.17 L 78.50 111.58 L 78.26 111.25 L 78.24 111.01 L 78.42 110.85 L 78.83 110.79 L 79.92 111.06 Z" fill="#3d281e" fill-rule="nonzero" group-id="3,6" id="椭圆_79" node-id="95" stroke-linecap="butt" stroke-width="1.0001705" target-height="1.643959" target-width="2.8716812" target-x="78.244774" target-y="110.793594"></path><path d="M 90.96 106.28 L 91.09 106.47 L 91.10 106.88 L 90.70 107.93 L 89.99 108.79 L 89.64 108.99 L 89.40 108.98 L 89.26 108.78 L 89.26 108.37 L 89.66 107.32 L 90.36 106.46 L 90.72 106.26 L 90.96 106.28 Z" fill="#3d281e" fill-rule="nonzero" group-id="3,6" id="椭圆_80" node-id="96" stroke-linecap="butt" stroke-width="1" target-height="2.7368774" target-width="1.8396759" target-x="89.25701" target-y="106.25743"></path><path d="M 101.73 110.46 L 101.65 110.68 L 101.32 110.93 L 100.24 111.21 L 99.13 111.15 L 98.76 110.97 L 98.63 110.77 L 98.71 110.55 L 99.04 110.30 L 100.12 110.02 L 101.24 110.08 L 101.61 110.25 L 101.73 110.46 Z" fill="#3d281e" fill-rule="nonzero" group-id="3,6" id="椭圆_81" node-id="97" stroke-linecap="butt" stroke-width="1.0000125" target-height="1.1979828" target-width="3.1024094" target-x="98.6322" target-y="110.01511"></path><path d="M 119.29 144.04 L 118.36 145.43 L 116.10 148.91 L 113.33 153.44 L 110.85 157.98 L 109.94 160.05 L 109.49 161.50 L 109.61 162.15 L 110.27 162.94 L 111.83 163.94 L 114.56 165.09 L 118.57 166.25 L 122.95 167.08 L 127.98 167.59 L 133.12 167.63 L 138.28 167.11 L 141.66 166.40 L 144.80 165.35 L 147.72 163.98 L 150.39 162.20 L 152.65 160.01 L 154.55 157.34 Z" fill="#03581f" fill-rule="nonzero" group-id="4" id="路径_1751" node-id="99" stroke-linecap="butt" stroke-width="1" target-height="23.59143" target-width="45.065918" target-x="109.48828" target-y="144.03699"></path><path d="M 125.05 147.22 L 151.94 153.54 L 151.76 153.76 L 150.56 154.56 L 148.99 155.03 L 146.93 155.12 L 143.70 154.70 L 139.85 153.67 L 135.97 152.28 L 132.05 150.63 L 125.05 147.22 Z M 155.17 109.76 L 154.07 111.26 L 154.75 119.88 L 155.12 128.50 L 155.17 137.15 L 147.22 138.12 L 127.63 144.91 L 120.11 143.25 L 119.29 144.03 L 120.51 146.53 L 121.89 149.03 L 123.95 152.37 L 126.35 155.75 L 129.23 159.12 L 131.36 161.18 L 133.61 162.91 L 135.98 164.31 L 138.51 165.29 L 141.11 165.68 L 143.85 165.50 L 145.80 164.96 L 147.86 163.96 L 150.07 162.42 L 152.47 160.22 L 155.17 156.94 L 157.27 153.54 L 158.83 150.01 L 159.96 146.31 L 160.70 142.60 L 161.05 138.86 L 161.03 133.26 L 160.47 128.00 L 159.51 122.96 L 158.41 118.70 L 156.20 112.21 L 155.17 109.76 Z" fill="#e5ecae" fill-rule="nonzero" group-id="4" id="路径_1752" node-id="100" stroke-linecap="butt" stroke-width="1" target-height="55.918457" target-width="41.7666" target-x="119.28613" target-y="109.763"></path><path d="M 120.12 143.26 L 154.06 111.27 L 154.93 113.75 L 156.74 120.29 L 157.62 124.53 L 158.34 129.51 L 158.69 134.67 L 158.55 140.05 L 158.12 143.62 L 157.34 147.11 L 156.21 150.51 L 154.68 153.74 L 152.68 156.74 L 150.16 159.54 L 147.55 161.27 L 145.11 162.32 L 142.79 162.79 L 140.52 162.73 L 138.31 162.19 L 135.99 161.13 L 133.50 159.49 L 130.82 157.13 L 127.67 153.69 L 124.12 149.14 L 120.12 143.26 Z" fill="#ff3939" fill-rule="nonzero" group-id="4" id="路径_1753" node-id="101" stroke-linecap="butt" stroke-width="1" target-height="51.521973" target-width="38.572266" target-x="120.11621" target-y="111.26599"></path><path d="M 139.28 135.23 L 139.93 136.07 L 140.01 136.61 L 139.47 136.53 L 138.63 135.88 L 137.98 135.04 L 137.90 134.50 L 138.44 134.58 L 139.28 135.23 Z" fill="#3d281e" fill-rule="nonzero" group-id="4" id="椭圆_82" node-id="102" stroke-linecap="butt" stroke-width="0.99999994" target-height="2.1057587" target-width="2.1057587" target-x="137.89986" target-y="134.50114"></path><path d="M 129.42 144.30 L 129.55 144.83 L 129.26 145.85 L 128.73 146.77 L 128.26 147.04 L 128.13 146.51 L 128.42 145.49 L 128.95 144.57 L 129.42 144.30 Z" fill="#3d281e" fill-rule="nonzero" group-id="4" id="椭圆_83" node-id="103" stroke-linecap="butt" stroke-width="1.0001705" target-height="2.7427368" target-width="1.4177856" target-x="128.12863" target-y="144.29889"></path><path d="M 139.50 156.79 L 140.51 157.14 L 140.87 157.54 L 140.38 157.77 L 139.32 157.69 L 138.31 157.34 L 137.95 156.93 L 138.45 156.71 L 139.50 156.79 Z" fill="#3d281e" fill-rule="nonzero" group-id="4" id="椭圆_84" node-id="104" stroke-linecap="butt" stroke-width="1" target-height="1.0636597" target-width="2.9153748" target-x="137.95343" target-y="156.70557"></path><path d="M 139.86 148.84 L 139.98 149.89 L 139.77 150.39 L 139.35 150.05 L 138.97 149.06 L 138.84 148.00 L 139.05 147.50 L 139.47 147.85 L 139.86 148.84 Z" fill="#3d281e" fill-rule="nonzero" group-id="4" id="椭圆_85" node-id="105" stroke-linecap="butt" stroke-width="1" target-height="2.8911896" target-width="1.1335907" target-x="138.84377" target-y="147.5012"></path><path d="M 150.88 150.73 L 151.88 151.08 L 152.25 151.48 L 151.75 151.71 L 150.69 151.63 L 149.69 151.28 L 149.33 150.87 L 149.82 150.65 L 150.88 150.73 Z" fill="#3d281e" fill-rule="nonzero" group-id="4" id="椭圆_86" node-id="106" stroke-linecap="butt" stroke-width="1" target-height="1.0636597" target-width="2.9153748" target-x="149.33043" target-y="150.64656"></path><path d="M 149.20 141.41 L 149.32 142.46 L 149.11 142.97 L 148.69 142.62 L 148.31 141.63 L 148.18 140.58 L 148.39 140.07 L 148.81 140.42 L 149.20 141.41 Z" fill="#3d281e" fill-rule="nonzero" group-id="4" id="椭圆_87" node-id="107" stroke-linecap="butt" stroke-width="1" target-height="2.8911896" target-width="1.1335907" target-x="148.18378" target-y="140.07422"></path><path d="M 152.89 124.51 L 152.86 125.06 L 152.29 125.95 L 151.51 126.68 L 150.99 126.81 L 151.01 126.26 L 151.58 125.37 L 152.36 124.64 L 152.89 124.51 Z" fill="#3d281e" fill-rule="nonzero" group-id="4" id="椭圆_88" node-id="108" stroke-linecap="butt" stroke-width="1" target-height="2.291275" target-width="1.9022522" target-x="150.98538" target-y="124.51428"></path><path d="M 156.83 135.81 L 156.59 136.29 L 155.70 136.88 L 154.70 137.23 L 154.17 137.13 L 154.41 136.65 L 155.30 136.06 L 156.30 135.71 L 156.83 135.81 Z" fill="#3d281e" fill-rule="nonzero" group-id="4" id="椭圆_89" node-id="109" stroke-linecap="butt" stroke-width="0.999976" target-height="1.5153198" target-width="2.6682892" target-x="154.16536" target-y="135.7116"></path><path d="M 144.53 126.61 L 144.94 127.59 L 144.88 128.13 L 144.38 127.92 L 143.74 127.07 L 143.33 126.09 L 143.39 125.55 L 143.89 125.77 L 144.53 126.61 Z" fill="#3d281e" fill-rule="nonzero" group-id="4" id="椭圆_90" node-id="110" stroke-linecap="butt" stroke-width="1" target-height="2.5790176" target-width="1.6138153" target-x="143.32722" target-y="125.553"></path><path d="M 153.50 117.03 L 154.42 117.56 L 154.69 118.03 L 154.16 118.16 L 153.14 117.87 L 152.22 117.34 L 151.95 116.87 L 152.48 116.74 L 153.50 117.03 Z" fill="#3d281e" fill-rule="nonzero" group-id="4" id="椭圆_91" node-id="111" stroke-linecap="butt" stroke-width="1.0001705" target-height="1.4177856" target-width="2.7427368" target-x="151.94861" target-y="116.743"></path><path d="M 183.98 75.24 L 186.14 74.88 L 191.02 73.91 L 196.26 72.51 L 198.44 71.62 L 199.50 70.86 L 199.97 69.88 L 199.86 68.79 L 199.49 68.16 L 198.79 67.64 L 197.65 67.25 L 196.43 67.16 L 194.69 67.40 L 192.25 68.12 L 189.92 69.11 L 186.91 70.77 L 183.06 73.28 Z" fill="#be8a51" fill-rule="nonzero" group-id="5" id="路径_1754" node-id="113" stroke-linecap="butt" stroke-width="1" target-height="8.085358" target-width="16.906738" target-x="183.06104" target-y="67.15567"></path><path d="M 183.46 72.56 L 184.96 72.15 L 188.64 71.41 L 190.90 71.16 L 193.27 71.12 L 195.59 71.38 L 197.62 72.03 L 196.12 72.55 L 192.41 73.67 L 187.70 74.76 L 185.30 75.09 L 183.21 75.15 L 181.91 74.92 L 181.52 74.64 L 181.48 74.25 L 181.79 73.76 L 182.84 72.93 L 183.46 72.56 Z" fill="#e9c0a2" fill-rule="nonzero" group-id="5" id="路径_1755" node-id="114" stroke-linecap="butt" stroke-width="1" target-height="4.0385437" target-width="16.14795" target-x="181.47705" target-y="71.11545"></path><path d="M 159.43 70.69 L 161.42 69.72 L 166.27 67.59 L 169.25 66.47 L 172.35 65.48 L 175.43 64.78 L 178.01 64.55 L 179.63 64.73 L 180.79 65.21 L 181.62 65.99 L 182.90 68.05 L 184.27 70.69 L 185.37 73.51 L 186.03 76.37 L 186.14 78.29 L 185.87 80.03 L 185.23 81.64 L 184.20 82.99 L 182.58 84.15 L 180.19 85.11 L 175.22 86.26 L 171.36 86.85 L 165.30 87.48 L 163.14 87.88 L 161.87 88.49 L 161.45 88.61 L 160.97 88.41 L 160.33 87.70 L 159.53 86.29 L 158.70 84.17 L 158.05 81.83 L 157.60 79.25 L 157.44 76.66 L 157.64 74.31 L 158.03 72.83 L 158.63 71.64 L 159.43 70.69 Z" fill="url(#linear-gradient-2)" fill-rule="nonzero" group-id="5" id="路径_1756" node-id="115" stroke-linecap="butt" stroke-width="1" target-height="24.057922" target-width="28.696777" target-x="157.44092" target-y="64.55362"></path><path d="M 160.73 83.96 L 163.19 83.45 L 169.06 82.19 L 176.09 80.55 L 182.00 78.90 L 184.07 78.05 L 184.53 77.61 L 184.47 76.99 L 184.09 76.71 L 183.21 76.72 L 177.88 78.32 L 172.76 79.69 L 167.01 80.92 L 162.33 81.80 L 160.40 82.13 Z" fill="#000000" fill-opacity="0.15" fill-rule="nonzero" group-id="5,7" id="路径_1757" node-id="116" stroke-linecap="butt" stroke-opacity="0.15" stroke-width="1" target-height="7.2502747" target-width="24.136719" target-x="160.39697" target-y="76.70575"></path><path d="M 159.25 78.77 L 161.60 78.34 L 167.24 77.26 L 173.97 75.82 L 179.64 74.34 L 181.62 73.56 L 182.08 73.13 L 182.05 72.42 L 181.80 72.08 L 181.30 71.96 L 180.14 72.08 L 176.32 72.94 L 173.54 73.75 L 169.10 74.79 L 164.31 75.83 L 160.48 76.63 L 158.92 76.95 Z" fill="#000000" fill-opacity="0.15" fill-rule="nonzero" group-id="5,8" id="路径_1758" node-id="117" stroke-linecap="butt" stroke-opacity="0.15" stroke-width="1" target-height="6.812744" target-width="23.160645" target-x="158.91504" target-y="71.96124"></path><path d="M 159.52 76.78 L 160.23 74.79 L 161.13 72.87 L 161.36 71.60 L 160.95 70.59 L 160.08 69.85 L 158.80 69.45 L 157.40 69.51 L 155.85 70.13 L 154.94 70.82 L 154.08 71.86 L 153.27 73.32 L 152.50 75.81 L 152.13 78.61 L 152.18 81.46 L 152.59 84.19 L 153.38 86.73 L 154.44 88.70 L 155.38 89.77 L 156.38 90.43 L 157.48 90.76 L 159.70 90.78 L 161.21 90.43 L 162.43 89.73 L 163.27 88.79 L 163.87 87.65 L 164.28 86.36 L 164.30 85.54 L 163.98 85.19 L 163.42 85.08 L 162.65 85.13 L 161.23 85.37 L 160.73 85.34 L 160.61 85.11 L 160.89 84.67 L 161.66 84.18 L 163.45 83.12 L 164.12 82.37 L 164.36 81.37 L 164.14 80.78 L 163.63 80.68 L 162.04 81.30 L 160.29 82.15 L 159.54 82.33 L 159.12 82.15 L 159.11 81.76 L 159.79 81.11 L 162.13 79.74 L 164.68 78.31 L 165.64 77.59 L 165.95 77.10 L 165.67 76.56 L 164.55 76.08 L 163.14 75.86 L 161.61 75.88 L 160.23 76.21 L 159.52 76.78 Z" fill="#ff3939" fill-rule="nonzero" group-id="5" id="路径_1759" node-id="118" stroke-linecap="butt" stroke-width="1" target-height="21.331451" target-width="13.810547" target-x="152.13477" target-y="69.45114"></path><path d="M 159.52 76.79 L 160.03 76.39 L 160.65 76.10 L 161.79 75.87 L 163.12 75.88 L 165.14 76.27 L 165.56 76.58 L 165.42 76.93 L 164.92 77.27 L 163.97 77.59 L 162.89 77.75 L 161.69 77.72 L 160.53 77.42 L 159.52 76.79 Z" fill="#000000" fill-opacity="0.1" fill-rule="nonzero" group-id="5,9" id="路径_1760" node-id="119" stroke-linecap="butt" stroke-opacity="0.1" stroke-width="1" target-height="1.882904" target-width="6.0424805" target-x="159.52197" target-y="75.87106"></path><path d="M 161.94 85.89 L 162.59 85.72 L 163.64 85.74 L 163.88 86.02 L 163.71 86.74 L 163.24 87.45 L 162.95 87.65 L 162.69 87.61 L 162.55 87.40 L 162.56 87.10 L 162.74 86.82 L 162.76 86.63 L 162.22 86.66 L 161.94 86.59 L 161.80 86.39 L 161.78 86.12 L 161.94 85.89 Z" fill="#ffffff" fill-opacity="0.8" fill-rule="nonzero" group-id="5,10" id="路径_1761" node-id="120" stroke-linecap="butt" stroke-opacity="0.8" stroke-width="1" target-height="1.9243164" target-width="2.0957031" target-x="161.78271" target-y="85.72159"></path><path d="M 158.22 85.88 L 158.90 86.31 L 159.02 86.57 L 158.74 86.66 L 157.97 86.45 L 157.30 86.02 L 157.18 85.76 L 157.45 85.67 L 158.22 85.88 Z" fill="#3d281e" fill-rule="nonzero" group-id="5" id="椭圆_92" node-id="121" stroke-linecap="butt" stroke-width="0.99971044" target-height="0.99082947" target-width="1.8426208" target-x="157.17755" target-y="85.66849"></path><path d="M 158.24 81.41 L 158.28 81.70 L 157.96 82.43 L 157.45 83.04 L 157.17 83.12 L 157.12 82.83 L 157.44 82.10 L 157.96 81.49 L 158.24 81.41 Z" fill="#3d281e" fill-rule="nonzero" group-id="5" id="椭圆_93" node-id="122" stroke-linecap="butt" stroke-width="1" target-height="1.7087173" target-width="1.1638794" target-x="157.11974" target-y="81.4098"></path><path d="M 160.34 79.02 L 160.81 79.66 L 160.83 79.95 L 160.54 79.93 L 159.90 79.46 L 159.42 78.81 L 159.41 78.52 L 159.70 78.54 L 160.34 79.02 Z" fill="#3d281e" fill-rule="nonzero" group-id="5" id="椭圆_94" node-id="123" stroke-linecap="butt" stroke-width="0.99999994" target-height="1.4255219" target-width="1.4255219" target-x="159.4062" target-y="78.5248"></path><path d="M 155.12 78.97 L 155.74 79.47 L 155.83 79.74 L 155.55 79.80 L 154.81 79.51 L 154.18 79.01 L 154.09 78.73 L 154.37 78.68 L 155.12 78.97 Z" fill="#3d281e" fill-rule="nonzero" group-id="5" id="椭圆_95" node-id="124" stroke-linecap="butt" stroke-width="1" target-height="1.1224976" target-width="1.7459106" target-x="154.089" target-y="78.676285"></path><path d="M 157.63 89.39 L 158.25 89.88 L 158.34 90.16 L 158.06 90.22 L 157.32 89.92 L 156.69 89.43 L 156.60 89.15 L 156.88 89.09 L 157.63 89.39 Z" fill="#3d281e" fill-rule="nonzero" group-id="5" id="椭圆_96" node-id="125" stroke-linecap="butt" stroke-width="1" target-height="1.1224976" target-width="1.7459106" target-x="156.599" target-y="89.093285"></path><path d="M 158.01 72.75 L 158.01 73.55 L 157.85 73.80 L 157.63 73.61 L 157.40 72.84 L 157.40 72.05 L 157.55 71.80 L 157.78 71.99 L 158.01 72.75 Z" fill="#3d281e" fill-rule="nonzero" group-id="5" id="椭圆_97" node-id="126" stroke-linecap="butt" stroke-width="0.99999994" target-height="1.9941101" target-width="0.61328125" target-x="157.39514" target-y="71.801445"></path><path d="M 156.87 74.48 L 156.68 74.71 L 155.92 74.94 L 155.12 74.94 L 154.87 74.78 L 155.06 74.56 L 155.82 74.33 L 156.62 74.33 L 156.87 74.48 Z" fill="#3d281e" fill-rule="nonzero" group-id="5" id="椭圆_98" node-id="127" stroke-linecap="butt" stroke-width="0.99999994" target-height="0.613266" target-width="1.9941101" target-x="154.87256" target-y="74.32586"></path><path d="M 156.77 76.39 L 156.93 76.64 L 156.91 77.44 L 156.66 78.20 L 156.43 78.38 L 156.28 78.13 L 156.30 77.33 L 156.55 76.57 L 156.77 76.39 Z" fill="#3d281e" fill-rule="nonzero" group-id="5" id="椭圆_99" node-id="128" stroke-linecap="butt" stroke-width="0.99999994" target-height="1.9868546" target-width="0.64611816" target-x="156.27924" target-y="76.39167"></path><path d="M 154.96 83.57 L 155.11 83.82 L 155.10 84.62 L 154.85 85.38 L 154.62 85.56 L 154.47 85.31 L 154.48 84.51 L 154.73 83.75 L 154.96 83.57 Z" fill="#3d281e" fill-rule="nonzero" group-id="5" id="椭圆_100" node-id="129" stroke-linecap="butt" stroke-width="0.99999994" target-height="1.9868546" target-width="0.64611816" target-x="154.46722" target-y="83.57166"></path></g></svg>