<?xml version="1.0" standalone="no"?><!DOCTYPE svg PUBLIC "-//W3C//DTD SVG 1.1//EN" "http://www.w3.org/Graphics/SVG/1.1/DTD/svg11.dtd"><svg height="200" legacy-metrics="false" node-id="1" sillyvg="true" template-height="200" template-width="200" version="1.1" viewBox="0 0 200 200" width="200" xmlns="http://www.w3.org/2000/svg" xmlns:xlink="http://www.w3.org/1999/xlink"><defs node-id="44"><clipPath id="clip-path" node-id="3"><path d="M 200.00 100.00 L 199.77 106.67 L 199.14 113.15 L 198.11 119.45 L 196.70 125.60 L 194.90 131.61 L 192.11 138.97 L 188.82 145.99 L 185.02 152.68 L 180.71 159.06 L 175.91 165.10 L 170.71 170.71 L 165.10 175.91 L 159.06 180.71 L 152.68 185.02 L 145.99 188.82 L 138.97 192.11 L 131.61 194.90 L 125.60 196.70 L 119.45 198.11 L 113.15 199.14 L 106.67 199.77 L 100.00 200.00 L 93.33 199.77 L 86.85 199.14 L 80.55 198.11 L 74.40 196.70 L 68.39 194.90 L 61.03 192.11 L 54.01 188.82 L 47.32 185.02 L 40.94 180.71 L 34.90 175.91 L 29.29 170.71 L 24.09 165.10 L 19.29 159.06 L 14.98 152.68 L 11.18 145.99 L 7.89 138.97 L 5.10 131.61 L 3.30 125.60 L 1.89 119.45 L 0.86 113.15 L 0.23 106.67 L 0.00 100.00 L 0.23 93.33 L 0.86 86.85 L 1.89 80.55 L 3.30 74.40 L 5.10 68.39 L 7.89 61.03 L 11.18 54.01 L 14.98 47.32 L 19.29 40.94 L 24.09 34.90 L 29.29 29.29 L 34.90 24.09 L 40.94 19.29 L 47.32 14.98 L 54.01 11.18 L 61.03 7.89 L 68.39 5.10 L 74.40 3.30 L 80.55 1.89 L 86.85 0.86 L 93.33 0.23 L 100.00 0.00 L 106.67 0.23 L 113.15 0.86 L 119.45 1.89 L 125.60 3.30 L 131.61 5.10 L 138.97 7.89 L 145.99 11.18 L 152.68 14.98 L 159.06 19.29 L 165.10 24.09 L 170.71 29.29 L 175.91 34.90 L 180.71 40.94 L 185.02 47.32 L 188.82 54.01 L 192.11 61.03 L 194.90 68.39 L 196.70 74.40 L 198.11 80.55 L 199.14 86.85 L 199.77 93.33 L 200.00 100.00 Z" fill="#000000" fill-rule="nonzero" id="椭圆_237" node-id="4" stroke-linecap="butt" stroke-width="1" target-height="200" target-width="200" target-x="0" target-y="0"></path></clipPath></defs><g node-id="46"><g clip-path="url(#clip-path)" group-id="1" id="组_306" node-id="6"><path d="M 19.08 -30.40 L 222.18 4.51 L 185.20 219.63 L -17.90 184.72 Z" fill="#afc8e7" fill-rule="nonzero" group-id="1" id="矩形_142" node-id="7" stroke-linecap="butt" stroke-width="0.99999994" target-height="250.0301" target-width="240.07825" target-x="-17.898272" target-y="-30.399"></path><text align="center" editable="true" ellipsis="false" fill="#3c282a" flags="1" font-family="'Noto Sans CJK SC'" font-size="8" font-stretch="normal" font-style="normal" font-weight="400" group-id="1" height="11.84" hidden="true" id="大雪_" letter-spacing="0" node-id="11" stroke="none" target-x="141.571" target-y="43.289" visibility="hidden" width="24" x="141.571" xml:space="preserve" y="52.569">大雪。</text><path d="M 167.20 58.91 L 170.12 58.91 L 170.12 56.00 L 169.37 56.00 L 169.37 58.16 L 167.20 58.16 Z" fill="#3c282a" fill-rule="nonzero" group-id="1" hidden="true" id="路径_3281" node-id="14" stroke-linecap="butt" stroke-width="1" target-height="2.9169922" target-width="2.9179688" target-x="167.198" target-y="55.996094" visibility="hidden"></path><path d="M 28.74 169.71 L 28.06 167.15 L 26.42 160.57 L 24.38 151.61 L 22.52 141.92 L 21.82 137.19 L 21.42 133.13 L 21.35 129.37 L 21.67 126.88 L 22.67 124.21 L 24.46 121.13 L 26.66 118.09 L 29.26 114.93 L 34.68 108.95 L 39.32 103.87 L 41.03 101.70 L 41.79 100.34 L 42.30 99.63 L 43.40 98.75 L 45.37 97.66 L 52.67 94.47 L 56.94 92.59 L 61.30 90.44 L 65.42 87.98 L 68.86 85.28 L 70.79 83.20 L 72.14 81.01 L 72.97 78.67 L 70.64 80.32 L 64.77 84.31 L 57.11 89.23 L 53.08 91.63 L 49.39 93.64 L 45.85 95.30 L 43.34 96.14 L 44.28 94.09 L 46.52 89.11 L 49.17 82.91 L 51.35 77.23 L 52.04 74.91 L 52.19 73.80 L 51.42 75.76 L 49.35 80.71 L 46.35 87.24 L 42.78 93.95 L 40.84 97.03 L 39.00 99.45 L 37.65 100.88 L 36.45 101.80 L 35.38 102.33 L 33.77 103.10 L 32.23 104.24 L 30.72 105.81 L 28.72 108.47 L 26.84 111.43 L 23.40 116.92 L 22.21 118.46 L 21.12 119.45 L 20.12 120.02 L 20.74 117.46 L 21.29 114.63 L 21.94 110.13 L 22.43 105.09 L 22.73 98.57 L 22.67 91.60 L 22.11 83.31 L 23.87 81.24 L 28.26 75.87 L 33.91 68.47 L 36.80 64.39 L 39.47 60.31 L 41.86 56.23 L 43.58 52.67 L 44.46 50.26 L 44.86 48.35 L 44.89 46.82 L 43.38 48.59 L 39.58 53.01 L 34.60 58.77 L 29.55 64.52 L 25.54 68.94 L 24.04 70.44 L 23.66 70.71 L 23.91 68.76 L 24.52 63.87 L 25.26 57.49 L 25.88 51.08 L 26.17 46.08 L 26.07 44.35 L 25.87 43.95 L 25.22 43.89 L 23.96 44.00 L 21.06 44.56 L 18.40 45.19 L 17.24 45.50 L 11.94 103.44 L 10.66 102.00 L 9.42 100.36 L 7.70 97.73 L 6.06 94.70 L 4.34 90.73 L 2.94 86.38 L 1.86 81.10 L 1.45 77.46 L 1.33 73.42 L 1.54 68.94 L 1.00 67.81 L 0.30 66.95 L -0.51 66.43 L -1.22 66.48 L -1.78 67.06 L -2.25 68.78 L -2.35 71.07 L -2.00 75.13 L -0.55 84.82 L 0.47 89.99 L 1.76 95.06 L 3.42 99.90 L 5.40 104.02 L 7.05 106.49 L 8.85 108.41 L 10.83 109.85 L 10.49 112.75 L 9.67 120.31 L 8.69 130.83 L 7.85 142.61 L 7.46 153.94 L 7.54 159.09 L 7.83 163.12 L 8.24 165.70 L 8.74 167.40 L 9.28 168.46 Z" fill="#3c282a" fill-rule="nonzero" group-id="1" id="路径_3282" node-id="15" stroke-linecap="butt" stroke-width="1" target-height="125.826416" target-width="75.32007" target-x="-2.3461914" target-y="43.885498"></path><path d="M 64.64 154.36 L 64.21 152.72 L 63.21 148.64 L 62.11 143.42 L 61.35 138.37 L 61.25 136.18 L 61.41 134.78 L 62.02 133.25 L 63.17 131.45 L 66.12 127.92 L 69.01 124.78 L 70.13 123.44 L 70.61 122.65 L 71.22 122.01 L 72.96 121.08 L 77.54 119.09 L 80.03 117.84 L 82.22 116.40 L 83.48 115.26 L 84.35 114.05 L 84.86 112.74 L 83.24 113.87 L 79.42 116.43 L 74.92 119.14 L 72.78 120.21 L 71.31 120.72 L 71.96 119.31 L 73.37 116.11 L 74.77 112.66 L 75.25 111.18 L 75.36 110.51 L 74.60 112.41 L 72.69 116.65 L 71.46 119.02 L 70.20 121.09 L 68.80 122.81 L 67.67 123.56 L 66.25 124.42 L 64.92 125.95 L 62.71 129.46 L 61.62 130.96 L 60.70 131.64 L 61.16 129.58 L 61.51 127.33 L 61.82 123.80 L 61.89 119.87 L 61.61 114.86 L 62.74 113.52 L 65.42 110.18 L 68.57 105.84 L 70.03 103.55 L 71.13 101.50 L 71.88 99.52 L 72.02 98.17 L 71.05 99.31 L 68.72 102.02 L 65.91 105.25 L 63.48 107.96 L 62.31 109.09 L 62.56 107.21 L 63.05 103.05 L 63.42 98.86 L 63.44 97.23 L 63.32 96.86 L 62.03 96.95 L 60.27 97.34 L 59.38 97.57 L 56.95 124.06 L 56.08 123.03 L 55.27 121.87 L 54.24 120.00 L 53.34 117.86 L 52.56 115.06 L 52.15 112.00 L 52.20 108.29 L 51.84 107.61 L 51.40 107.20 L 50.96 107.15 L 50.58 107.69 L 50.43 108.71 L 50.58 111.12 L 51.54 117.12 L 52.32 120.27 L 53.33 123.08 L 54.24 124.79 L 55.28 126.07 L 56.45 126.99 L 56.16 129.49 L 55.56 135.55 L 55.03 143.05 L 54.91 146.78 L 54.96 149.84 L 55.27 152.53 L 55.74 153.79 Z" fill="#3c282a" fill-rule="nonzero" group-id="1" id="路径_3283" node-id="16" stroke-linecap="butt" stroke-width="1" target-height="57.503906" target-width="34.4375" target-x="50.425537" target-y="96.85986"></path><path d="M 230.32 165.82 L 230.62 169.16 L 230.44 172.51 L 229.78 175.92 L 228.61 179.40 L 226.88 182.98 L 224.31 187.07 L 221.04 191.24 L 216.99 195.51 L 212.07 199.89 L 207.02 203.78 L 201.31 207.66 L 194.91 211.52 L 187.74 215.36 L 180.58 218.78 L 172.88 222.07 L 164.61 225.22 L 155.74 228.22 L 143.87 231.68 L 131.28 234.71 L 117.92 237.29 L 104.45 239.25 L 91.57 240.53 L 79.23 241.17 L 69.86 241.25 L 61.01 241.00 L 52.66 240.43 L 44.78 239.55 L 36.75 238.29 L 29.42 236.75 L 22.76 234.97 L 16.71 232.95 L 10.62 230.44 L 5.40 227.74 L 0.94 224.88 L -2.84 221.86 L -5.65 219.04 L -7.90 216.14 L -9.64 213.15 L -10.92 210.04 L -11.74 206.79 L -12.03 203.45 L -11.85 200.10 L -11.19 196.70 L -10.02 193.22 L -8.29 189.63 L -5.72 185.54 L -2.45 181.37 L 1.60 177.10 L 6.52 172.73 L 11.57 168.83 L 17.27 164.95 L 23.68 161.09 L 30.85 157.26 L 38.00 153.84 L 45.70 150.55 L 53.97 147.40 L 62.85 144.39 L 74.71 140.94 L 87.30 137.90 L 100.66 135.32 L 114.13 133.36 L 127.02 132.08 L 139.36 131.45 L 148.73 131.36 L 157.58 131.61 L 165.93 132.19 L 173.81 133.06 L 181.84 134.33 L 189.16 135.86 L 195.82 137.65 L 201.87 139.66 L 207.96 142.18 L 213.19 144.87 L 217.65 147.74 L 221.43 150.75 L 224.24 153.57 L 226.49 156.47 L 228.23 159.47 L 229.50 162.57 L 230.32 165.82 Z" fill="#f2f6f9" fill-rule="nonzero" group-id="1" id="椭圆_227" node-id="17" stroke-linecap="butt" stroke-width="0.99999994" target-height="109.89404" target-width="242.64783" target-x="-12.030773" target-y="131.3602"></path><path d="M 157.89 138.05 L 157.63 141.86 L 156.90 145.45 L 155.71 148.85 L 154.09 152.07 L 152.11 155.00 L 149.77 157.67 L 147.10 160.02 L 144.17 161.99 L 140.95 163.61 L 137.55 164.80 L 133.96 165.53 L 130.15 165.79 L 126.33 165.53 L 122.75 164.80 L 119.35 163.61 L 116.12 161.99 L 113.19 160.02 L 110.53 157.67 L 108.18 155.00 L 106.20 152.07 L 104.58 148.85 L 103.39 145.45 L 102.66 141.86 L 102.40 138.05 L 102.66 134.24 L 103.39 130.65 L 104.58 127.25 L 106.20 124.03 L 108.18 121.09 L 110.53 118.43 L 113.19 116.08 L 116.12 114.10 L 119.35 112.48 L 122.75 111.29 L 126.33 110.56 L 130.15 110.30 L 133.96 110.56 L 137.55 111.29 L 140.95 112.48 L 144.17 114.10 L 147.10 116.08 L 149.77 118.43 L 152.11 121.09 L 154.09 124.03 L 155.71 127.25 L 156.90 130.65 L 157.63 134.24 L 157.89 138.05 Z" fill="#dddddd" fill-rule="nonzero" group-id="1,2" id="椭圆_228" node-id="19" stroke-linecap="butt" stroke-width="1" target-height="55.494003" target-width="55.493996" target-x="102.398994" target-y="110.3"></path><path d="M 149.77 118.43 L 152.29 121.30 L 154.33 124.33 L 155.94 127.53 L 157.14 130.90 L 157.88 134.30 L 158.19 137.75 L 158.06 141.21 L 157.50 144.57 L 156.48 147.86 L 155.04 150.99 L 153.15 153.91 L 150.79 156.64 L 148.05 159.01 L 145.13 160.90 L 142.01 162.34 L 138.71 163.35 L 135.35 163.92 L 131.89 164.05 L 128.44 163.74 L 125.04 162.99 L 121.67 161.80 L 118.47 160.19 L 115.45 158.14 L 112.57 155.62 L 110.05 152.75 L 108.00 149.72 L 106.39 146.52 L 105.20 143.15 L 104.45 139.75 L 104.14 136.30 L 104.27 132.84 L 104.84 129.48 L 105.85 126.19 L 107.29 123.06 L 109.18 120.14 L 111.55 117.40 L 114.29 115.04 L 117.20 113.15 L 120.33 111.71 L 123.62 110.70 L 126.99 110.13 L 130.44 110.00 L 133.89 110.31 L 137.29 111.06 L 140.67 112.25 L 143.86 113.86 L 146.89 115.91 L 149.77 118.43 Z" fill="#ffffff" fill-rule="nonzero" group-id="1,2" id="椭圆_229" node-id="20" stroke-linecap="butt" stroke-width="0.99999994" target-height="54.048004" target-width="54.04799" target-x="104.14371" target-y="110.00047"></path><path d="M 148.51 101.44 L 148.21 104.62 L 147.42 107.54 L 146.13 110.24 L 144.40 112.69 L 142.32 114.76 L 139.87 116.49 L 137.17 117.78 L 134.25 118.58 L 131.07 118.88 L 127.89 118.58 L 124.97 117.78 L 122.27 116.49 L 119.82 114.76 L 117.75 112.69 L 116.01 110.24 L 114.72 107.54 L 113.93 104.62 L 113.63 101.44 L 113.93 98.25 L 114.72 95.34 L 116.01 92.63 L 117.75 90.19 L 119.82 88.11 L 122.27 86.38 L 124.97 85.09 L 127.89 84.29 L 131.07 84.00 L 134.25 84.29 L 137.17 85.09 L 139.87 86.38 L 142.32 88.11 L 144.40 90.19 L 146.13 92.63 L 147.42 95.34 L 148.21 98.25 L 148.51 101.44 Z" fill="#ffffff" fill-rule="nonzero" group-id="1,2" id="椭圆_230" node-id="21" stroke-linecap="butt" stroke-width="1" target-height="34.880005" target-width="34.880005" target-x="113.631" target-y="83.996"></path><path d="M 126.25 95.44 L 126.13 96.02 L 125.82 96.48 L 125.36 96.79 L 124.78 96.91 L 124.20 96.79 L 123.74 96.48 L 123.42 96.02 L 123.31 95.44 L 123.42 94.86 L 123.74 94.40 L 124.20 94.08 L 124.78 93.97 L 125.36 94.08 L 125.82 94.40 L 126.13 94.86 L 126.25 95.44 Z" fill="#2d2d2d" fill-rule="nonzero" group-id="1,2" id="椭圆_231" node-id="22" stroke-linecap="butt" stroke-width="1" target-height="2.9459991" target-width="2.9459991" target-x="123.306" target-y="93.965004"></path><path d="M 139.27 95.44 L 139.15 96.02 L 138.83 96.48 L 138.37 96.79 L 137.79 96.91 L 137.22 96.79 L 136.75 96.48 L 136.44 96.02 L 136.32 95.44 L 136.44 94.86 L 136.75 94.40 L 137.22 94.08 L 137.79 93.97 L 138.37 94.08 L 138.83 94.40 L 139.15 94.86 L 139.27 95.44 Z" fill="#2d2d2d" fill-rule="nonzero" group-id="1,2" id="椭圆_232" node-id="23" stroke-linecap="butt" stroke-width="1" target-height="2.9459991" target-width="2.9459991" target-x="136.31999" target-y="93.965004"></path><path d="M 130.21 100.39 L 129.59 100.56 L 129.17 101.06 L 127.54 103.85 L 125.88 106.97 L 125.47 108.41 L 125.59 109.38 L 125.83 109.42 L 126.76 109.03 L 129.12 107.43 L 130.38 106.29 L 131.52 104.97 L 132.38 103.51 L 132.80 102.03 L 132.61 101.48 L 131.91 100.94 L 131.03 100.57 L 130.21 100.39 Z" fill="#ea802a" fill-rule="nonzero" group-id="1,2" id="路径_3284" node-id="24" stroke-linecap="butt" stroke-width="1" target-height="9.026367" target-width="7.338135" target-x="125.4668" target-y="100.38989"></path><path d="M 118.18 88.00 L 121.18 81.28 L 122.25 79.41 L 123.59 77.85 L 125.22 76.56 L 127.06 75.60 L 129.03 75.01 L 131.17 74.80 L 131.17 74.80 L 133.32 75.01 L 135.29 75.60 L 137.13 76.56 L 138.75 77.85 L 140.09 79.41 L 141.16 81.28 L 144.16 88.00 Z" fill="#5090ef" fill-rule="nonzero" group-id="1,2,3" id="路径_3285" node-id="26" stroke-linecap="butt" stroke-width="1" target-height="13.1970215" target-width="25.979004" target-x="118.18286" target-y="74.79883"></path><path d="M 118.80 86.76 L 143.34 86.76 L 144.22 86.94 L 144.92 87.41 L 145.39 88.11 L 145.57 88.98 L 145.57 88.98 L 145.39 89.86 L 144.92 90.56 L 144.22 91.03 L 143.34 91.21 L 118.80 91.21 L 117.93 91.03 L 117.23 90.56 L 116.75 89.86 L 116.58 88.98 L 116.58 88.98 L 116.75 88.11 L 117.23 87.41 L 117.93 86.94 L 118.80 86.76 Z" fill="#4889d8" fill-rule="nonzero" group-id="1,2,3" id="矩形_143" node-id="27" stroke-linecap="butt" stroke-width="1" target-height="4.4440002" target-width="28.990997" target-x="116.575" target-y="86.76201"></path><path d="M 117.85 112.81 L 120.16 113.75 L 122.60 114.54 L 126.13 115.39 L 129.96 115.91 L 134.35 115.98 L 137.31 115.66 L 140.32 114.93 L 143.40 113.77 L 145.57 114.42 L 144.05 115.52 L 142.37 116.52 L 139.81 117.72 L 136.92 118.68 L 133.33 119.34 L 130.84 119.47 L 128.11 119.27 L 125.09 118.70 L 122.18 117.76 L 119.03 116.27 L 115.58 114.13 Z" fill="#5090ef" fill-rule="nonzero" group-id="1,2" id="路径_3286" node-id="28" stroke-linecap="butt" stroke-width="1" target-height="6.6591797" target-width="29.98413" target-x="115.58179" target-y="112.81201"></path><path d="M 114.44 114.82 L 117.77 116.52 L 121.19 117.79 L 124.72 118.65 L 128.32 119.10 L 131.92 119.14 L 135.53 118.77 L 139.08 117.99 L 142.53 116.79 L 145.89 115.17 L 147.59 116.46 L 145.51 117.56 L 143.26 118.56 L 139.92 119.75 L 136.24 120.71 L 131.84 121.36 L 128.82 121.49 L 125.63 121.28 L 122.25 120.71 L 118.99 119.75 L 115.64 118.25 L 112.18 116.14 Z" fill="#5090ef" fill-rule="nonzero" group-id="1,2" id="路径_3287" node-id="29" stroke-linecap="butt" stroke-width="1" target-height="6.666992" target-width="35.41797" target-x="112.177" target-y="114.82007"></path><path d="M 127.14 119.46 L 116.58 136.70 L 126.35 139.39 L 132.83 118.79 Z" fill="#5090ef" fill-rule="nonzero" group-id="1,2" id="路径_3288" node-id="30" stroke-linecap="butt" stroke-width="1" target-height="20.599854" target-width="16.25" target-x="116.57593" target-y="118.79199"></path><path d="M 129.88 117.27 L 135.25 134.96 L 139.27 132.17 L 134.57 116.73 Z" fill="#5090ef" fill-rule="nonzero" group-id="1,2" id="路径_3289" node-id="31" stroke-linecap="butt" stroke-width="1" target-height="18.236816" target-width="9.384033" target-x="129.88184" target-y="116.726074"></path><path d="M 115.90 113.97 L 117.76 114.55 L 122.65 115.73 L 125.81 116.26 L 129.51 116.66 L 133.31 116.77 L 137.27 116.50 L 141.16 115.74 L 144.89 114.39 L 146.26 115.44 L 144.62 116.29 L 142.82 117.05 L 140.03 117.97 L 136.92 118.71 L 133.01 119.22 L 128.85 119.29 L 124.04 118.75 L 120.82 118.03 L 117.36 116.89 L 113.63 115.28 Z" fill="#4284c6" fill-rule="nonzero" group-id="1,2" id="路径_3290" node-id="32" stroke-linecap="butt" stroke-width="1" target-height="5.3188477" target-width="32.625" target-x="113.63086" target-y="113.96802"></path><path d="M 133.26 134.65 L 133.12 135.33 L 132.75 135.87 L 132.21 136.23 L 131.54 136.37 L 130.86 136.23 L 130.32 135.87 L 129.96 135.33 L 129.82 134.65 L 129.96 133.98 L 130.32 133.44 L 130.86 133.07 L 131.54 132.94 L 132.21 133.07 L 132.75 133.44 L 133.12 133.98 L 133.26 134.65 Z" fill="#3973b7" fill-rule="nonzero" group-id="1,2" id="椭圆_233" node-id="33" stroke-linecap="butt" stroke-width="1" target-height="3.4360046" target-width="3.4360046" target-x="129.81999" target-y="132.935"></path><path d="M 133.26 143.26 L 133.12 143.93 L 132.75 144.48 L 132.21 144.84 L 131.54 144.98 L 130.86 144.84 L 130.32 144.48 L 129.96 143.93 L 129.82 143.26 L 129.96 142.59 L 130.32 142.05 L 130.86 141.68 L 131.54 141.54 L 132.21 141.68 L 132.75 142.05 L 133.12 142.59 L 133.26 143.26 Z" fill="#3973b7" fill-rule="nonzero" group-id="1,2" id="椭圆_234" node-id="34" stroke-linecap="butt" stroke-width="1" target-height="3.4360046" target-width="3.4360046" target-x="129.81999" target-y="141.543"></path><path d="M 133.26 150.92 L 133.12 151.59 L 132.75 152.13 L 132.21 152.50 L 131.54 152.64 L 130.86 152.50 L 130.32 152.13 L 129.96 151.59 L 129.82 150.92 L 129.96 150.25 L 130.32 149.71 L 130.86 149.34 L 131.54 149.20 L 132.21 149.34 L 132.75 149.71 L 133.12 150.25 L 133.26 150.92 Z" fill="#3973b7" fill-rule="nonzero" group-id="1,2" id="椭圆_235" node-id="35" stroke-linecap="butt" stroke-width="1" target-height="3.4360046" target-width="3.4360046" target-x="129.81999" target-y="149.202"></path><path d="M 132.83 75.25 L 132.70 75.93 L 132.33 76.47 L 131.78 76.84 L 131.11 76.98 L 130.43 76.84 L 129.89 76.47 L 129.52 75.93 L 129.38 75.25 L 129.52 74.57 L 129.89 74.03 L 130.43 73.66 L 131.11 73.52 L 131.78 73.66 L 132.33 74.03 L 132.70 74.57 L 132.83 75.25 Z" fill="#5090ef" fill-rule="nonzero" group-id="1,2" id="椭圆_236" node-id="36" stroke-linecap="butt" stroke-width="1" target-height="3.4520035" target-width="3.4519958" target-x="129.38199" target-y="73.524"></path><path d="M 129.13 101.44 L 129.78 101.58 L 131.04 101.98 L 131.61 102.28 L 131.89 102.57" fill="none" group-id="1,2" id="路径_3291" node-id="37" stroke="#d87227" stroke-linecap="butt" stroke-width="1" target-height="1.1330566" target-width="2.7609863" target-x="129.12695" target-y="101.43579"></path><path d="M 128.09 103.51 L 128.88 103.74 L 129.51 104.05 L 129.91 104.47" fill="none" group-id="1,2" id="路径_3292" node-id="38" stroke="#d87227" stroke-linecap="butt" stroke-width="1" target-height="0.9621582" target-width="1.8198242" target-x="128.08813" target-y="103.50879"></path><path d="M 127.43 104.67 L 127.97 104.73 L 128.41 104.91 L 128.74 105.30" fill="none" group-id="1,2" id="路径_3293" node-id="39" stroke="#d87227" stroke-linecap="butt" stroke-width="1" target-height="0.63500977" target-width="1.3129883" target-x="127.43091" target-y="104.66504"></path><path d="M 127.01 105.94 L 127.25 105.90 L 127.79 106.25" fill="none" group-id="1,2" id="路径_3294" node-id="40" stroke="#d87227" stroke-linecap="butt" stroke-width="1" target-height="0.34814453" target-width="0.78686523" target-x="127.00708" target-y="105.904785"></path><path d="M 126.40 107.22 L 126.72 107.21 L 127.01 107.36" fill="none" group-id="1,2" id="路径_3295" node-id="41" stroke="#d87227" stroke-linecap="butt" stroke-width="1" target-height="0.15600586" target-width="0.611084" target-x="126.395996" target-y="107.208984"></path><path d="M 128.74 102.45 L 129.27 102.62 L 130.31 103.06 L 131.07 103.62" fill="none" group-id="1,2" id="路径_3296" node-id="42" stroke="#d87227" stroke-linecap="butt" stroke-width="1" target-height="1.1750488" target-width="2.3259277" target-x="128.74414" target-y="102.4458"></path></g></g></svg>