<?xml version="1.0" standalone="no"?><!DOCTYPE svg PUBLIC "-//W3C//DTD SVG 1.1//EN" "http://www.w3.org/Graphics/SVG/1.1/DTD/svg11.dtd"><svg height="200" legacy-metrics="false" node-id="1" sillyvg="true" template-height="200" template-width="200" version="1.1" viewBox="0 0 200 200" width="200" xmlns="http://www.w3.org/2000/svg" xmlns:xlink="http://www.w3.org/1999/xlink"><defs node-id="36"><clipPath id="clip-path" node-id="3"><path d="M 200.00 100.00 L 199.77 106.67 L 199.14 113.15 L 198.11 119.45 L 196.70 125.60 L 194.90 131.61 L 192.11 138.97 L 188.82 145.99 L 185.02 152.68 L 180.71 159.06 L 175.91 165.10 L 170.71 170.71 L 165.10 175.91 L 159.06 180.71 L 152.68 185.02 L 145.99 188.82 L 138.97 192.11 L 131.61 194.90 L 125.60 196.70 L 119.45 198.11 L 113.15 199.14 L 106.67 199.77 L 100.00 200.00 L 93.33 199.77 L 86.85 199.14 L 80.55 198.11 L 74.40 196.70 L 68.39 194.90 L 61.03 192.11 L 54.01 188.82 L 47.32 185.02 L 40.94 180.71 L 34.90 175.91 L 29.29 170.71 L 24.09 165.10 L 19.29 159.06 L 14.98 152.68 L 11.18 145.99 L 7.89 138.97 L 5.10 131.61 L 3.30 125.60 L 1.89 119.45 L 0.86 113.15 L 0.23 106.67 L 0.00 100.00 L 0.23 93.33 L 0.86 86.85 L 1.89 80.55 L 3.30 74.40 L 5.10 68.39 L 7.89 61.03 L 11.18 54.01 L 14.98 47.32 L 19.29 40.94 L 24.09 34.90 L 29.29 29.29 L 34.90 24.09 L 40.94 19.29 L 47.32 14.98 L 54.01 11.18 L 61.03 7.89 L 68.39 5.10 L 74.40 3.30 L 80.55 1.89 L 86.85 0.86 L 93.33 0.23 L 100.00 0.00 L 106.67 0.23 L 113.15 0.86 L 119.45 1.89 L 125.60 3.30 L 131.61 5.10 L 138.97 7.89 L 145.99 11.18 L 152.68 14.98 L 159.06 19.29 L 165.10 24.09 L 170.71 29.29 L 175.91 34.90 L 180.71 40.94 L 185.02 47.32 L 188.82 54.01 L 192.11 61.03 L 194.90 68.39 L 196.70 74.40 L 198.11 80.55 L 199.14 86.85 L 199.77 93.33 L 200.00 100.00 Z" fill="#000000" fill-rule="nonzero" id="椭圆_147" node-id="4" stroke-linecap="butt" stroke-width="1" target-height="200" target-width="200" target-x="0" target-y="0"></path></clipPath><linearGradient gradientUnits="objectBoundingBox" id="linear-gradient" node-id="5" x1="0.5" x2="0.5" y1="0" y2="1"><stop offset="0" stop-color="#c0bdba"></stop><stop offset="0.523" stop-color="#cac2ba"></stop><stop offset="1" stop-color="#9fa4b3"></stop></linearGradient><linearGradient gradientUnits="objectBoundingBox" id="linear-gradient-2" node-id="9" x1="0.5" x2="0.5" y1="0" y2="1"><stop offset="0" stop-color="#ffee74"></stop><stop offset="1" stop-color="#edc3a9"></stop></linearGradient></defs><g node-id="38"><g clip-path="url(#clip-path)" group-id="1" id="组_278" node-id="13"><path d="M 19.08 -30.40 L 222.18 4.51 L 185.20 219.63 L -17.90 184.72 Z" fill="#edcbae" fill-rule="nonzero" group-id="1" id="矩形_129" node-id="14" stroke-linecap="butt" stroke-width="0.99999994" target-height="250.0301" target-width="240.07825" target-x="-17.898272" target-y="-30.399"></path><text align="center" editable="true" ellipsis="false" fill="#1e1913" flags="1" font-family="'Noto Sans CJK SC'" font-size="8" font-stretch="normal" font-style="normal" font-weight="400" group-id="1" height="11.84" hidden="true" id="寒露_" letter-spacing="0" node-id="18" stroke="none" target-x="142.488" target-y="56.372" visibility="hidden" width="24" x="142.488" xml:space="preserve" y="65.652">寒露。</text><path d="M 171.35 58.33 L 171.35 56.16 L 171.35 56.16 L 171.35 55.41 L 168.43 55.41 L 168.43 56.16 L 170.60 56.16 L 170.60 58.33 Z" fill="#1e1913" fill-rule="nonzero" group-id="1" hidden="true" id="路径_3118" node-id="21" stroke-linecap="butt" stroke-width="1" target-height="2.9180908" target-width="2.9169922" target-x="168.43103" target-y="55.41394" visibility="hidden"></path><path d="M 0.00 139.95 L 210.10 139.95 L 210.10 201.95 L 0.00 201.95 Z" fill="url(#linear-gradient)" fill-rule="nonzero" group-id="1" id="矩形_130" node-id="22" stroke-linecap="butt" stroke-width="1" target-height="62" target-width="210.097" target-x="0" target-y="139.949"></path><path d="M -3.38 95.57 L -2.61 94.64 L -1.74 93.79 L -0.44 92.82 L 1.08 92.04 L 2.95 91.56 L 4.26 91.50 L 5.72 91.74 L 7.38 92.32 L 8.37 92.99 L 9.61 94.19 L 11.13 96.13 L 13.26 99.31 L 15.75 103.37 L 21.00 112.19 L 23.83 116.66 L 26.67 120.76 L 29.69 124.48 L 32.54 127.25 L 34.61 128.70 L 36.53 129.52 L 38.38 129.82 L 41.21 129.66 L 43.32 129.30 L 44.86 128.80 L 46.94 127.73 L 48.41 126.60 L 51.07 124.44 L 52.60 123.79 L 54.88 123.57 L 56.49 123.84 L 58.07 124.42 L 59.62 125.35 L 61.84 127.05 L 64.16 129.03 L 66.54 130.98 L 69.11 132.67 L 70.94 133.54 L 72.94 134.09 L 75.12 134.32 L 78.32 134.13 L 80.69 133.69 L 82.83 133.04 L 84.56 132.35 L 87.78 131.05 L 89.42 130.66 L 91.38 130.57 L 93.10 130.91 L 95.31 131.83 L 97.54 133.08 L 99.91 134.63 L 104.30 137.93 L 107.58 140.67 L 108.88 141.82 L -3.38 141.82 Z" fill="#ccaf97" fill-rule="nonzero" group-id="1" id="路径_3119" node-id="23" stroke-linecap="butt" stroke-width="1" target-height="50.31421" target-width="112.25" target-x="-3.375" target-y="91.500854"></path><path d="M -3.38 188.06 L -2.61 188.99 L -1.74 189.84 L -0.44 190.81 L 1.08 191.59 L 2.95 192.07 L 4.26 192.13 L 5.72 191.89 L 7.38 191.31 L 8.37 190.64 L 9.61 189.43 L 11.13 187.49 L 13.26 184.32 L 15.75 180.26 L 21.00 171.44 L 23.83 166.96 L 26.67 162.87 L 29.69 159.15 L 32.54 156.38 L 34.61 154.93 L 36.53 154.11 L 38.38 153.81 L 41.21 153.97 L 43.32 154.33 L 44.86 154.82 L 46.94 155.90 L 48.41 157.03 L 51.07 159.19 L 52.60 159.84 L 54.88 160.06 L 56.49 159.79 L 58.07 159.21 L 59.62 158.28 L 61.84 156.58 L 64.16 154.59 L 66.54 152.65 L 69.11 150.96 L 70.94 150.09 L 72.94 149.54 L 75.12 149.31 L 78.32 149.50 L 80.69 149.93 L 82.83 150.59 L 84.56 151.28 L 87.78 152.58 L 89.42 152.97 L 91.38 153.06 L 93.10 152.72 L 95.31 151.80 L 97.54 150.55 L 99.91 149.00 L 104.30 145.70 L 107.58 142.96 L 108.88 141.81 L -3.38 141.81 Z" fill="#ccaf97" fill-opacity="0.35" fill-rule="nonzero" group-id="1,2" id="路径_3120" node-id="24" stroke-linecap="butt" stroke-opacity="0.35" stroke-width="1" target-height="50.314087" target-width="112.25" target-x="-3.375" target-y="141.81299"></path><path d="M 203.12 118.82 L 202.36 117.89 L 201.49 117.04 L 200.19 116.07 L 198.67 115.29 L 196.80 114.81 L 195.49 114.75 L 194.03 114.99 L 192.38 115.57 L 191.38 116.24 L 190.14 117.44 L 188.62 119.38 L 186.49 122.56 L 184.00 126.62 L 178.75 135.44 L 175.92 139.91 L 173.08 144.01 L 170.06 147.73 L 167.21 150.50 L 165.14 151.95 L 163.22 152.77 L 161.38 153.07 L 158.54 152.91 L 156.43 152.55 L 154.89 152.05 L 152.81 150.98 L 151.34 149.85 L 148.68 147.69 L 147.15 147.04 L 144.88 146.82 L 143.26 147.09 L 141.68 147.67 L 140.13 148.60 L 137.91 150.30 L 135.59 152.28 L 133.21 154.23 L 130.64 155.92 L 128.81 156.79 L 126.81 157.34 L 124.62 157.57 L 121.43 157.38 L 119.06 156.94 L 116.92 156.29 L 115.19 155.60 L 111.97 154.30 L 110.33 153.91 L 108.38 153.82 L 106.65 154.16 L 104.44 155.08 L 102.21 156.33 L 99.84 157.88 L 95.45 161.18 L 92.17 163.92 L 90.88 165.07 L 203.12 165.07 Z" fill="#ccaf97" fill-rule="nonzero" group-id="1" id="路径_3121" node-id="25" stroke-linecap="butt" stroke-width="1" target-height="50.31433" target-width="112.25" target-x="90.875" target-y="114.75073"></path><path d="M 203.12 211.30 L 202.36 212.23 L 201.49 213.07 L 200.19 214.05 L 198.67 214.83 L 196.80 215.31 L 195.49 215.37 L 194.03 215.13 L 192.38 214.55 L 191.38 213.88 L 190.14 212.67 L 188.62 210.73 L 186.49 207.56 L 184.00 203.50 L 178.75 194.68 L 175.92 190.20 L 173.08 186.11 L 170.06 182.39 L 167.21 179.62 L 165.14 178.17 L 163.22 177.34 L 161.38 177.05 L 158.54 177.21 L 156.43 177.57 L 154.89 178.06 L 152.81 179.14 L 151.34 180.27 L 148.68 182.43 L 147.15 183.08 L 144.88 183.30 L 143.26 183.03 L 141.68 182.44 L 140.13 181.52 L 137.91 179.82 L 135.59 177.83 L 133.21 175.89 L 130.64 174.20 L 128.81 173.33 L 126.81 172.78 L 124.62 172.55 L 121.43 172.74 L 119.06 173.17 L 116.92 173.83 L 115.19 174.52 L 111.97 175.82 L 110.33 176.21 L 108.38 176.30 L 106.65 175.96 L 104.44 175.04 L 102.21 173.79 L 99.84 172.23 L 95.45 168.94 L 92.17 166.20 L 90.88 165.05 L 203.12 165.05 Z" fill="#ccaf97" fill-opacity="0.35" fill-rule="nonzero" group-id="1,3" id="路径_3122" node-id="26" stroke-linecap="butt" stroke-opacity="0.35" stroke-width="1" target-height="50.31433" target-width="112.25" target-x="90.875" target-y="165.05188"></path><path d="M 59.30 43.94 L 59.12 45.81 L 58.66 47.52 L 57.90 49.10 L 56.89 50.53 L 55.67 51.75 L 54.24 52.76 L 52.65 53.52 L 50.94 53.99 L 49.08 54.16 L 47.21 53.99 L 45.50 53.52 L 43.92 52.76 L 42.49 51.75 L 41.27 50.53 L 40.26 49.10 L 39.50 47.52 L 39.03 45.81 L 38.86 43.94 L 39.03 42.08 L 39.50 40.37 L 40.26 38.78 L 41.27 37.35 L 42.49 36.13 L 43.92 35.12 L 45.50 34.36 L 47.21 33.90 L 49.08 33.72 L 50.94 33.90 L 52.65 34.36 L 54.24 35.12 L 55.67 36.13 L 56.89 37.35 L 57.90 38.78 L 58.66 40.37 L 59.12 42.08 L 59.30 43.94 Z" fill="url(#linear-gradient-2)" fill-rule="nonzero" group-id="1" id="椭圆_146" node-id="27" stroke-linecap="butt" stroke-width="1" target-height="20.436" target-width="20.436" target-x="38.861" target-y="33.723"></path><path d="M 112.23 121.39 L 113.82 121.30 L 115.37 121.50 L 116.86 121.98 L 118.26 122.74 L 119.29 121.90 L 121.71 120.35 L 123.15 119.74 L 124.46 119.50 L 123.36 119.19 L 122.26 119.04 L 120.90 119.10 L 119.58 119.50 L 118.35 120.44 L 117.08 120.23 L 115.86 120.14 L 114.46 120.22 L 113.17 120.61 L 112.23 121.39 Z" fill="#483422" fill-rule="nonzero" group-id="1" id="路径_3123" node-id="28" stroke-linecap="butt" stroke-width="1" target-height="3.6940918" target-width="12.229004" target-x="112.23303" target-y="119.04297"></path><path d="M 82.61 103.45 L 84.31 103.64 L 85.84 104.20 L 87.26 105.15 L 88.17 104.60 L 90.25 103.62 L 91.46 103.28 L 92.53 103.23 L 91.68 102.87 L 90.83 102.64 L 89.74 102.54 L 88.64 102.72 L 87.57 103.34 L 86.58 103.04 L 84.50 102.76 L 83.43 102.93 L 82.61 103.45 Z" fill="#483422" fill-rule="nonzero" group-id="1" id="路径_3124" node-id="29" stroke-linecap="butt" stroke-width="1" target-height="2.616333" target-width="9.919006" target-x="82.60901" target-y="102.53772"></path><path d="M 132.16 99.48 L 133.84 99.43 L 135.42 100.00 L 135.95 99.52 L 137.19 98.61 L 137.94 98.24 L 138.63 98.07 L 138.03 97.94 L 136.72 97.97 L 136.02 98.23 L 135.40 98.77 L 134.72 98.70 L 133.31 98.78 L 132.64 99.03 L 132.16 99.48 Z" fill="#483422" fill-rule="nonzero" group-id="1" id="路径_3125" node-id="30" stroke-linecap="butt" stroke-width="1" target-height="2.057251" target-width="6.4680176" target-x="132.164" target-y="97.94275"></path><path d="M 77.59 159.17 L 78.78 158.85 L 81.52 157.91 L 83.08 157.22 L 84.56 156.38 L 85.84 155.36 L 86.67 154.27 L 86.73 155.26 L 86.47 157.43 L 86.04 158.59 L 85.28 159.60 L 84.21 160.29 L 82.53 160.58 L 80.57 160.30 L 77.59 159.17 Z" fill="#efb86f" fill-rule="nonzero" group-id="1" id="路径_3126" node-id="31" stroke-linecap="butt" stroke-width="1" target-height="6.3013916" target-width="9.137634" target-x="77.591" target-y="154.27393"></path><path d="M 142.25 136.41 L 143.65 136.92 L 145.04 137.29 L 146.70 137.51 L 148.33 137.39 L 149.69 136.77 L 149.27 137.64 L 148.15 139.37 L 147.35 140.15 L 146.48 140.62 L 145.55 140.67 L 144.46 140.08 L 143.48 138.90 L 142.25 136.41 Z" fill="#efb86f" fill-rule="nonzero" group-id="1" id="路径_3127" node-id="32" stroke-linecap="butt" stroke-width="1" target-height="4.2611084" target-width="7.4379883" target-x="142.24902" target-y="136.406"></path><path d="M 54.05 175.34 L 55.09 174.60 L 56.17 174.06 L 57.50 173.74 L 58.40 173.77 L 59.29 174.11 L 60.21 174.84 L 60.00 175.45 L 59.68 175.97 L 59.12 176.50 L 58.38 176.83 L 57.25 176.85 L 55.98 176.47 L 54.05 175.34 Z" fill="#efb86f" fill-rule="nonzero" group-id="1" id="路径_3128" node-id="33" stroke-linecap="butt" stroke-width="1" target-height="3.111084" target-width="6.166992" target-x="54.048004" target-y="173.74158"></path><path d="M 126.01 184.39 L 125.70 185.49 L 125.28 186.55 L 124.59 187.84 L 123.67 189.03 L 122.46 189.99 L 121.52 190.41 L 120.41 190.59 L 119.07 190.49 L 118.78 189.57 L 118.70 188.65 L 118.89 187.51 L 119.49 186.46 L 120.83 185.42 L 121.94 184.95 L 123.61 184.59 L 126.01 184.39 Z" fill="#efb86f" fill-rule="nonzero" group-id="1" id="路径_3129" node-id="34" stroke-linecap="butt" stroke-width="1" target-height="6.199951" target-width="7.313965" target-x="118.698" target-y="184.38599"></path></g></g></svg>