<?xml version="1.0" standalone="no"?><!DOCTYPE svg PUBLIC "-//W3C//DTD SVG 1.1//EN" "http://www.w3.org/Graphics/SVG/1.1/DTD/svg11.dtd"><svg height="200" legacy-metrics="false" node-id="1" sillyvg="true" template-height="200" template-width="200" version="1.1" viewBox="0 0 200 200" width="200" xmlns="http://www.w3.org/2000/svg" xmlns:xlink="http://www.w3.org/1999/xlink"><defs node-id="134"><clipPath id="clip-path" node-id="3"><path d="M 200.00 100.00 C 200.00 155.23 155.23 200.00 100.00 200.00 C 44.77 200.00 0.00 155.23 0.00 100.00 C -0.00 44.77 44.77 0.00 100.00 0.00 C 155.23 -0.00 200.00 44.77 200.00 100.00 Z" fill="#000000" fill-rule="nonzero" id="椭圆_31" node-id="4" stroke="none" target-height="200" target-width="200" target-x="0" target-y="0"></path></clipPath><linearGradient gradientUnits="objectBoundingBox" id="linear-gradient" node-id="5" x1="0" x2="1" y1="0.5" y2="0.5"><stop offset="0" stop-color="#9ad6d1"></stop><stop offset="1" stop-color="#d2e0f9"></stop></linearGradient><linearGradient gradientUnits="objectBoundingBox" id="linear-gradient-2" node-id="8" x1="0" x2="1" y1="0.5" y2="0.5"><stop offset="0" stop-color="#fabfb5"></stop><stop offset="1" stop-color="#fa9d7f"></stop></linearGradient><linearGradient gradientUnits="objectBoundingBox" id="linear-gradient-3" node-id="11" x1="33.431" x2="33.431" y1="-0.232" y2="0.821"><stop offset="0" stop-color="#faeae0"></stop><stop offset="1" stop-color="#fae3db"></stop></linearGradient><linearGradient gradientUnits="objectBoundingBox" id="linear-gradient-4" node-id="14" x1="13.221" x2="14.221" y1="0.5" y2="0.5"><stop offset="0" stop-color="#ffe75a"></stop><stop offset="1" stop-color="#ffcc40"></stop></linearGradient><linearGradient gradientUnits="objectBoundingBox" id="linear-gradient-5" node-id="17" x1="53.731" x2="53.731" y1="1" y2="0"><stop offset="0" stop-color="#faefec"></stop><stop offset="1" stop-color="#fad9d3"></stop></linearGradient><linearGradient gradientUnits="objectBoundingBox" id="linear-gradient-6" node-id="20" x1="12.434" x2="13.434" y1="0.5" y2="0.5"><stop offset="0" stop-color="#fabfb5"></stop><stop offset="1" stop-color="#fadba9"></stop></linearGradient><linearGradient gradientUnits="objectBoundingBox" id="linear-gradient-7" node-id="23" x1="93.309" x2="92.736" y1="0.177" y2="0.846"><stop offset="0" stop-color="#faefec" stop-opacity="0"></stop><stop offset="1" stop-color="#fae3db"></stop></linearGradient></defs><g clip-path="url(#clip-path)" id="组_78" node-id="26"><path d="M 18.48 -30.96 L 221.58 3.95 L 184.60 219.07 L -18.50 184.15 Z" fill="#ffd392" fill-rule="nonzero" id="矩形_32" node-id="27" stroke-linecap="butt" stroke-width="0.99999994" target-height="250.0301" target-width="240.07826" target-x="-18.502272" target-y="-30.962"></path><path d="M 87.82 102.17 L 89.65 101.91 L 94.12 101.26 L 99.64 100.48 L 104.65 99.77 L 107.57 99.39 L 107.93 99.52 L 108.34 100.04 L 108.82 101.25 L 109.29 103.29 L 109.66 106.24 L 109.82 109.40 L 109.75 112.96 L 109.41 116.55 L 108.75 120.05 L 107.71 123.36 L 106.32 126.14 L 92.07 126.14 L 91.46 124.42 L 90.07 120.01 L 88.55 114.08 L 87.96 110.87 L 87.58 107.75 L 87.51 104.71 L 87.82 102.17 Z" fill="#ffffff" fill-opacity="0" fill-rule="nonzero" group-id="1,5" id="路径_431" node-id="31" stroke="#ffffff" stroke-linecap="butt" stroke-opacity="0.43" stroke-width="2" target-height="26.75" target-width="22.310059" target-x="87.51221" target-y="99.38699"></path><path d="M 89.59 106.67 L 90.66 106.95 L 93.12 107.29 L 94.53 107.26 L 95.83 106.97 L 96.96 106.85 L 98.09 107.16 L 100.26 108.13 L 101.30 108.32 L 102.29 108.01 L 104.55 106.64 L 107.00 105.64 L 107.41 105.77 L 107.84 106.29 L 108.29 107.45 L 108.66 109.43 L 108.81 112.23 L 108.63 115.20 L 108.05 118.47 L 107.02 121.68 L 105.48 124.69 L 92.78 124.69 L 92.06 122.88 L 90.60 118.37 L 89.92 115.55 L 89.43 112.51 L 89.28 109.46 L 89.59 106.67 Z" fill="url(#linear-gradient)" fill-rule="nonzero" group-id="1" id="路径_432" node-id="32" stroke-linecap="butt" stroke-width="1" target-height="19.054016" target-width="19.535034" target-x="89.275635" target-y="105.640015"></path><path d="M 113.05 44.84 L 113.56 46.60 L 113.83 48.48 L 113.79 51.32 L 113.50 53.29 L 112.84 55.55 L 111.74 58.17 L 110.34 60.61 L 108.29 63.31 L 105.45 66.30 L 102.34 68.96 L 98.22 71.81 L 92.93 74.87 L 87.45 77.50 L 80.61 80.23 L 72.20 83.04 L 60.35 86.32 L 50.93 88.44 L 42.19 89.89 L 35.52 90.54 L 29.43 90.67 L 25.04 90.35 L 21.16 89.65 L 18.59 88.85 L 16.46 87.85 L 15.27 87.05 L 14.96 86.62 L 14.90 86.10 L 15.11 85.61 L 15.53 85.29 Z" fill="url(#linear-gradient-2)" fill-rule="nonzero" group-id="1,6" id="路径_433" node-id="34" stroke-linecap="butt" stroke-width="1" target-height="45.83069" target-width="98.92432" target-x="14.901001" target-y="44.83699"></path><path d="M 85.45 56.62 L 87.64 63.38 L 89.28 70.26 L 90.36 77.28 L 90.34 78.88 L 89.34 83.52 L 87.83 87.89 L 85.93 92.03 L 83.96 95.60 L 81.88 98.85 L 80.20 101.21 L 78.75 103.63 L 77.83 106.21 L 77.43 109.00 L 77.39 111.45 L 77.53 114.29 L 77.91 117.18 L 78.60 120.09 L 79.68 122.86 L 81.20 125.34 L 81.98 126.61 L 82.04 127.11 L 81.77 127.30 L 80.82 127.20 L 78.76 126.41 L 73.73 123.78 L 68.22 120.53 L 63.77 117.76 L 61.95 116.59 L 59.20 94.25 Z" fill="#35210f" fill-rule="nonzero" group-id="1,6" id="路径_434" node-id="35" stroke-linecap="butt" stroke-width="1" target-height="70.68103" target-width="31.16101" target-x="59.19702" target-y="56.616028"></path><path d="M 81.42 175.52 L 81.76 172.06 L 82.50 163.19 L 83.24 151.18 L 83.59 138.30 L 83.48 132.07 L 83.14 126.81 L 82.70 123.39 L 82.13 120.83 L 81.48 118.97 L 80.00 115.36 L 79.56 113.72 L 79.57 112.95 L 79.77 112.77 L 80.21 112.96 L 81.05 113.79 L 82.36 115.62 L 83.60 117.80 L 84.90 120.61 L 85.59 121.64 L 86.43 122.11 L 87.51 122.10 L 89.29 121.43 L 91.62 119.88 L 93.94 117.91 L 96.45 115.49 L 101.23 110.50 L 105.15 106.46 L 106.73 105.16 L 107.43 104.92 L 107.70 105.11 L 107.72 105.47 L 107.34 106.21 L 105.11 108.95 L 102.08 112.32 L 100.65 114.04 L 99.63 115.48 L 99.02 116.84 L 99.11 117.61 L 99.46 117.84 L 100.02 117.80 L 100.93 117.36 L 102.29 116.40 L 104.02 114.93 L 107.51 111.75 L 110.52 109.26 L 111.69 108.70 L 112.19 108.89 L 111.93 109.86 L 110.89 111.22 L 107.76 114.18 L 104.39 117.48 L 103.06 119.23 L 102.35 120.84 L 102.84 121.03 L 103.57 120.93 L 104.66 120.40 L 108.14 117.94 L 110.02 116.57 L 111.65 115.55 L 112.75 115.07 L 113.50 115.02 L 114.03 115.27 L 113.70 116.03 L 112.53 117.18 L 109.23 119.49 L 106.01 121.62 L 104.93 122.57 L 104.77 123.02 L 105.15 123.18 L 106.23 122.93 L 108.97 121.78 L 111.64 120.78 L 112.59 120.73 L 112.91 121.14 L 112.56 121.69 L 110.94 122.80 L 106.08 125.50 L 103.19 127.23 L 100.19 129.27 L 97.41 131.59 L 95.11 134.14 L 93.90 136.03 L 93.11 138.02 L 92.71 140.14 L 92.68 143.17 L 92.94 147.52 L 93.87 157.47 L 94.70 168.08 L 94.84 173.18 L 94.65 177.44 L 94.27 180.17 L 93.67 182.19 L 92.93 183.64 L 92.16 184.49 L 91.25 184.96 L 90.15 185.08 L 88.75 184.79 L 85.99 183.65 L 84.08 182.60 L 82.82 181.65 L 81.38 179.99 L 80.83 178.65 L 80.75 177.33 L 80.97 176.40 L 81.42 175.52 Z" fill="url(#linear-gradient-3)" fill-rule="nonzero" group-id="1,6" id="路径_435" node-id="36" stroke-linecap="butt" stroke-width="1" target-height="80.154724" target-width="34.47693" target-x="79.55701" target-y="104.92102"></path><path d="M 75.54 96.89 L 74.44 97.14 L 73.39 97.55 L 72.04 98.38 L 70.81 99.55 L 69.65 101.38 L 69.12 102.77 L 68.76 104.57 L 68.63 106.88 L 68.78 109.17 L 69.30 112.06 L 70.29 115.64 L 72.00 119.07 L 73.73 121.70 L 75.65 124.04 L 77.61 126.09 L 81.72 130.18 L 83.74 132.47 L 85.84 135.34 L 87.76 138.60 L 89.76 142.94 L 90.82 146.06 L 91.42 148.74 L 91.62 151.05 L 91.47 154.48 L 90.90 157.51 L 89.37 163.35 L 88.86 166.32 L 88.82 169.63 L 89.12 171.84 L 89.83 174.41 L 91.04 177.39 L 93.57 183.16 L 96.07 189.59 L 100.70 202.42 L 102.95 208.48 L 105.00 213.42 L 106.52 216.55 L 107.86 218.72 L 109.04 220.14 L 31.29 220.14 L 31.71 215.73 L 32.82 204.06 L 34.38 187.51 L 36.17 168.43 L 37.94 149.19 L 39.48 132.13 L 40.54 119.64 L 41.26 109.29 L 41.58 102.36 L 41.67 93.30 L 41.54 90.69 L 58.79 90.69 Z" fill="#faefec" fill-rule="nonzero" group-id="1,6" id="路径_436" node-id="37" stroke-linecap="butt" stroke-width="1" target-height="129.453" target-width="77.75" target-x="31.291016" target-y="90.68701"></path><path d="M 72.51 119.89 L 74.78 122.72 L 77.23 125.40 L 82.81 131.29 L 85.65 134.63 L 88.16 138.03 L 89.62 140.41 L 90.67 142.64 L 91.36 144.75 L 91.90 148.59 L 91.90 152.34 L 91.54 156.05 L 90.98 159.52 L 90.00 165.80 L 89.93 168.53 L 90.36 170.67 L 92.43 176.05 L 96.12 185.59 L 100.68 197.40 L 105.34 209.57 L 109.33 220.20 L 111.90 227.40 L 114.18 234.97 L 115.79 241.51 L 116.82 247.13 L 117.35 251.93 L 117.48 257.05 L 117.17 261.34 L 116.48 264.91 L 115.47 267.88 L 113.97 270.76 L 112.21 273.13 L 110.17 275.07 L 107.83 276.60 L 105.27 277.77 L 102.47 278.65 L 99.40 279.21 L 96.02 279.45 L 91.53 279.33 L 86.74 278.78 L 81.60 277.77 L 73.97 275.68 L 66.16 272.92 L 58.50 269.71 L 51.26 266.25 L 44.36 262.56 L 38.49 259.10 L 33.16 255.61 L 29.42 252.83 L 27.16 250.86 L 26.04 249.58 L 25.62 248.79 L 26.12 244.64 L 27.48 233.42 L 29.47 216.96 L 31.85 197.09 L 34.40 175.65 L 36.90 154.46 L 39.10 135.36 L 40.80 120.17 L 41.74 110.74 Z" fill="url(#linear-gradient-4)" fill-rule="nonzero" group-id="1,6" id="路径_437" node-id="38" stroke-linecap="butt" stroke-width="1" target-height="168.70929" target-width="91.86267" target-x="25.619995" target-y="110.742035"></path><path d="M 73.99 97.42 L 73.09 97.62 L 72.26 97.99 L 71.23 98.78 L 70.38 99.90 L 69.66 101.75 L 69.28 102.38 L 68.56 102.77 L 67.32 102.90 L 65.27 102.68 L 62.60 102.03 L 57.17 100.15 L 52.69 98.27 L 50.83 97.42 L 55.66 85.59 Z" fill="url(#linear-gradient-5)" fill-rule="nonzero" group-id="1,6" id="路径_438" node-id="39" stroke-linecap="butt" stroke-width="1" target-height="17.315155" target-width="23.166016" target-x="50.82898" target-y="85.587006"></path><path d="M 83.07 58.32 L 84.37 62.38 L 85.24 66.53 L 85.70 70.77 L 85.86 74.19 L 86.14 75.69 L 86.75 77.28 L 87.72 78.87 L 89.46 80.92 L 91.17 82.23 L 91.61 82.76 L 91.50 83.52 L 90.98 84.18 L 87.77 86.72 L 85.91 88.22 L 85.48 89.00 L 85.32 90.13 L 85.52 92.50 L 85.50 93.82 L 85.14 95.09 L 84.68 95.82 L 83.90 96.48 L 82.69 97.09 L 80.50 97.57 L 76.70 97.66 L 72.92 97.13 L 69.54 96.08 L 66.48 94.51 L 63.69 92.48 L 61.26 90.12 L 59.16 87.41 L 57.42 84.45 L 56.08 81.37 L 55.13 78.15 L 55.05 76.56 L 55.46 74.97 L 56.42 73.29 L 58.46 71.02 L 61.37 68.67 L 64.65 66.56 L 68.26 64.58 L 75.33 61.29 L 80.84 59.11 L 83.07 58.32 Z" fill="#faefec" fill-rule="nonzero" group-id="1,6" id="路径_439" node-id="40" stroke-linecap="butt" stroke-width="1" target-height="39.343018" target-width="36.558228" target-x="55.05017" target-y="58.31601"></path><path d="M 82.71 92.67 L 82.68 92.66 L 80.15 91.86 L 77.75 90.72 L 82.82 91.44 L 85.33 89.80 L 85.34 89.92 L 85.39 90.98 L 85.47 92.02 L 85.31 92.32 L 84.64 92.61 L 83.78 92.73 L 82.81 92.68 Z" fill="#ffc0c0" fill-rule="nonzero" group-id="1,6" id="路径_442" node-id="43" stroke-linecap="butt" stroke-width="1" target-height="2.9274902" target-width="7.7249756" target-x="77.74805" target-y="89.80499"></path><path d="M 85.33 89.81 L 84.60 89.36 L 83.75 89.48 L 82.35 90.21 L 80.86 90.67 L 79.32 90.84 L 77.75 90.73 L 78.93 91.33 L 80.16 91.70 L 81.81 91.80 L 82.91 91.62 L 84.07 91.09 L 85.35 90.15 Z" fill="#ffa4a4" fill-rule="nonzero" group-id="1,6" id="路径_443" node-id="44" stroke-linecap="butt" stroke-width="1" target-height="2.4404907" target-width="7.5999756" target-x="77.74707" target-y="89.36432"></path><path d="M 55.01 114.09 L 73.77 157.12 L 74.70 158.93 L 76.76 163.40 L 78.94 169.07 L 79.76 171.98 L 80.17 174.49 L 80.19 176.11 L 79.93 177.31 L 79.43 178.20 L 78.67 178.78 L 77.49 179.01 L 75.66 178.77 L 73.89 177.99 L 71.77 176.49 L 69.22 174.03 L 65.69 169.79 L 61.71 164.11 L 57.89 157.92 L 54.00 150.96 L 50.34 143.78 L 46.95 136.55 L 43.88 129.35 L 41.41 122.83 L 39.40 116.57 L 38.25 111.75 L 37.88 108.70 L 37.96 106.76 L 38.32 105.60 L 39.02 104.70 L 39.91 104.27 L 41.09 104.26 L 43.02 104.84 L 45.36 106.09 L 47.67 107.67 L 49.91 109.43 L 53.53 112.65 L 55.01 114.09 Z" fill="#faefec" fill-rule="nonzero" group-id="1,6" id="路径_444" node-id="45" stroke-linecap="butt" stroke-width="1" target-height="74.75305" target-width="42.310303" target-x="37.88318" target-y="104.25818"></path><path d="M 25.83 139.86 L 26.83 129.97 L 28.18 118.11 L 28.73 111.40 L 29.10 103.55 L 29.17 95.29 L 28.83 85.59 L 50.21 71.79 L 44.58 104.53 L 44.42 107.17 L 43.87 113.99 L 42.79 123.30 L 42.01 128.36 L 41.05 133.44 L 39.87 138.38 L 38.53 142.73 L 38.53 142.73 L 36.93 145.90 L 35.04 148.50 L 32.88 150.75 L 30.82 152.45 L 28.77 153.84 L 27.28 154.70 L 25.79 155.42 L 24.96 155.05 L 24.29 154.01 L 23.85 152.68 L 23.59 151.38 L 23.42 149.97 L 24.27 148.14 L 24.93 145.90 L 25.65 141.76 L 25.83 139.86 Z" fill="#35210f" fill-rule="nonzero" group-id="1,6" id="路径_445" node-id="46" stroke-linecap="butt" stroke-width="1" target-height="83.634" target-width="26.786987" target-x="23.419067" target-y="71.78702"></path><path d="M 62.68 69.19 L 62.49 71.55 L 62.43 74.03 L 62.55 77.62 L 62.95 81.47 L 63.80 85.92 L 65.16 90.38 L 67.20 94.93 L 64.97 96.20 L 62.59 97.12 L 60.11 97.70 L 57.55 97.91 L 56.19 97.67 L 54.83 97.01 L 53.42 95.86 L 51.63 93.67 L 50.09 90.83 L 49.03 87.71 L 48.53 84.46 L 48.56 82.28 L 48.94 80.28 L 49.67 78.41 L 50.29 81.17 L 52.06 88.13 L 53.33 92.47 L 54.89 97.27 L 56.68 102.05 L 58.67 106.56 L 60.22 109.32 L 61.91 111.73 L 63.72 113.82 L 66.69 116.76 L 69.83 119.61 L 72.95 122.57 L 76.07 126.04 L 77.96 128.56 L 79.78 131.59 L 81.55 135.21 L 82.33 137.39 L 82.55 138.67 L 82.46 139.36 L 82.10 139.81 L 81.46 139.95 L 80.34 139.66 L 78.55 138.74 L 75.98 136.96 L 73.30 134.82 L 70.17 132.09 L 63.53 125.65 L 56.81 119.18 L 53.45 116.39 L 50.42 114.41 L 47.46 112.54 L 44.66 110.40 L 42.00 107.96 L 38.35 103.98 L 35.16 99.87 L 32.32 95.66 L 30.07 91.91 L 26.89 85.84 L 25.80 83.42 L 49.67 70.26 Z" fill="#35210f" fill-rule="nonzero" group-id="1,6" id="路径_446" node-id="47" stroke-linecap="butt" stroke-width="1" target-height="70.76065" target-width="56.759644" target-x="25.795044" target-y="69.19202"></path><path d="M 64.80 25.34 L 65.84 26.66 L 68.42 30.04 L 71.72 34.55 L 74.93 39.29 L 76.83 41.75 L 79.05 43.74 L 81.61 45.31 L 84.41 46.41 L 87.34 46.97 L 90.45 47.01 L 93.70 46.47 L 96.81 45.50 L 99.80 44.09 L 102.92 42.57 L 105.28 41.71 L 107.03 41.36 L 108.82 41.30 L 110.10 41.52 L 111.01 41.93 L 112.13 42.87 L 112.70 43.77 L 113.05 44.84 L 106.25 49.13 L 99.28 53.11 L 92.13 56.80 L 91.45 57.09 L 83.02 60.39 L 74.28 64.06 L 57.21 71.69 L 41.88 78.78 L 29.95 84.14 L 25.36 85.95 L 23.05 86.59 L 18.40 87.11 L 15.73 86.98 L 14.73 86.62 L 14.22 86.06 L 14.06 85.25 L 14.36 84.03 L 15.23 82.42 L 17.13 79.89 L 20.55 76.09 L 25.19 71.26 L 28.02 68.16 L 28.95 66.91 L 29.57 65.81 L 30.03 64.65 L 30.39 63.25 L 30.89 59.49 L 30.83 55.72 L 30.22 52.01 L 29.08 48.39 L 27.57 44.32 L 27.19 42.44 L 27.25 40.65 L 27.82 38.90 L 29.15 36.90 L 31.09 34.99 L 34.30 32.59 L 38.08 30.21 L 41.63 28.28 L 44.97 26.76 L 50.00 24.96 L 54.23 23.95 L 58.23 23.50 L 61.15 23.64 L 62.94 24.06 L 64.10 24.64 L 64.80 25.34 Z" fill="url(#linear-gradient-6)" fill-rule="nonzero" group-id="1,6" id="路径_447" node-id="48" stroke-linecap="butt" stroke-width="1" target-height="63.607788" target-width="98.98108" target-x="14.063965" target-y="23.503754"></path><path d="M 71.09 152.34 L 62.29 164.89 L 67.40 171.94 L 75.48 163.67 Z" fill="url(#linear-gradient-7)" fill-rule="nonzero" group-id="1,6" id="路径_448" node-id="49" stroke-linecap="butt" stroke-width="1" target-height="19.599976" target-width="13.188965" target-x="62.289063" target-y="152.34497"></path><path d="M 70.10 167.24 L 71.14 163.78 L 73.70 154.88 L 76.91 142.77 L 79.91 129.68 L 81.10 123.31 L 81.85 117.85 L 82.12 114.26 L 82.10 111.53 L 81.85 109.49 L 81.15 105.48 L 81.05 103.70 L 81.23 102.92 L 81.46 102.78 L 81.85 103.07 L 82.50 104.09 L 83.40 106.25 L 84.16 108.75 L 84.85 111.90 L 85.32 113.11 L 86.04 113.76 L 87.08 113.99 L 88.96 113.69 L 91.56 112.60 L 94.23 111.09 L 97.19 109.17 L 102.89 105.10 L 107.55 101.82 L 109.37 100.83 L 110.10 100.74 L 110.32 100.99 L 110.27 101.36 L 109.75 102.04 L 107.00 104.36 L 103.35 107.14 L 101.60 108.59 L 100.30 109.84 L 99.42 111.09 L 99.35 111.90 L 99.65 112.21 L 100.20 112.30 L 101.18 112.05 L 102.71 111.35 L 104.70 110.23 L 108.76 107.74 L 112.22 105.84 L 113.18 105.53 L 113.68 105.57 L 113.93 105.82 L 113.47 106.76 L 112.18 107.93 L 108.51 110.27 L 104.53 112.91 L 102.88 114.41 L 101.85 115.91 L 102.29 116.20 L 103.02 116.26 L 104.20 115.95 L 108.10 114.20 L 110.22 113.20 L 112.02 112.51 L 113.19 112.26 L 113.94 112.37 L 114.41 112.74 L 113.93 113.45 L 112.55 114.37 L 108.84 116.01 L 105.27 117.50 L 104.01 118.23 L 103.76 118.66 L 104.10 118.91 L 105.21 118.88 L 108.12 118.29 L 110.94 117.85 L 111.87 118.00 L 112.10 118.49 L 111.65 118.99 L 109.83 119.76 L 104.53 121.48 L 101.35 122.61 L 98.00 124.06 L 94.81 125.82 L 92.03 127.93 L 90.46 129.59 L 89.28 131.45 L 88.44 133.53 L 87.79 136.63 L 87.14 141.13 L 85.99 151.50 L 84.62 162.51 L 83.69 167.75 L 82.63 172.06 L 81.69 174.78 L 80.69 176.71 L 79.67 178.03 L 78.74 178.73 L 77.76 179.01 L 76.66 178.89 L 75.35 178.30 L 72.89 176.54 L 71.24 175.05 L 70.21 173.81 L 69.14 171.80 L 68.88 170.31 L 69.08 168.95 L 69.48 168.05 L 70.10 167.24 Z" fill="#faefec" fill-rule="nonzero" group-id="1,6" id="路径_449" node-id="50" stroke-linecap="butt" stroke-width="1" target-height="78.26648" target-width="45.53125" target-x="68.881836" target-y="100.741"></path><path d="M 74.93 39.29 L 72.10 40.78 L 64.88 44.49 L 55.23 49.28 L 45.06 54.00 L 40.22 56.04 L 36.31 57.51 L 32.77 58.51 L 30.92 58.65" fill="none" group-id="1,6,9" id="路径_450" node-id="52" stroke="#fffce9" stroke-linecap="butt" stroke-width="1" target-height="19.365997" target-width="44.00708" target-x="30.92395" target-y="39.28897"></path><path d="M 75.26 40.80 L 72.43 42.29 L 65.21 46.00 L 55.56 50.79 L 45.39 55.51 L 40.55 57.55 L 36.64 59.01 L 33.10 60.02 L 31.25 60.16" fill="none" group-id="1,6,9" id="路径_451" node-id="53" stroke="#fffce9" stroke-linecap="butt" stroke-width="1" target-height="19.366974" target-width="44.008057" target-x="31.25293" target-y="40.795013"></path><path d="M 76.19 40.90 L 73.28 42.23 L 65.87 45.54 L 55.95 49.77 L 45.54 53.92 L 40.59 55.68 L 36.61 56.93 L 33.02 57.73 L 31.17 57.77" fill="none" group-id="1,6,9" id="路径_452" node-id="54" stroke="#fffce9" stroke-linecap="butt" stroke-width="1" target-height="16.869019" target-width="45.024048" target-x="31.165894" target-y="40.902985"></path><path d="M 75.59 40.25 L 72.71 41.73 L 65.37 45.42 L 55.56 50.18 L 45.23 54.88 L 40.32 56.91 L 36.36 58.36 L 32.78 59.36 L 30.92 59.50" fill="none" group-id="1,6,9" id="路径_453" node-id="55" stroke="#fffce9" stroke-linecap="butt" stroke-width="1" target-height="19.253998" target-width="44.666016" target-x="30.92395" target-y="40.25"></path><path d="M 76.19 40.90 L 73.26 42.18 L 65.82 45.36 L 55.86 49.46 L 45.38 53.49 L 40.41 55.23 L 36.40 56.47 L 32.79 57.31 L 30.92 57.41" fill="none" group-id="1,6,9" id="路径_454" node-id="56" stroke="#fffce9" stroke-linecap="butt" stroke-width="1" target-height="16.505005" target-width="45.266113" target-x="30.92395" target-y="40.902985"></path><path d="M 56.71 47.75 L 57.27 45.95 L 58.75 41.87 L 59.76 39.57 L 60.87 37.49 L 62.17 35.73 L 63.36 34.79 L 64.17 34.59 L 64.99 34.87 L 65.91 35.75 L 66.68 37.24 L 66.91 38.58 L 66.69 39.84 L 65.72 41.64 L 64.09 43.35 L 62.14 44.82 L 60.10 46.05 L 56.71 47.75 L 53.43 49.10 L 51.29 49.78 L 48.96 50.32 L 46.61 50.55 L 44.50 50.36 L 43.22 49.79 L 42.47 48.92 L 42.11 47.83 L 42.15 46.68 L 42.56 45.60 L 43.32 44.74 L 44.35 44.25 L 45.75 44.24 L 47.56 44.82 L 49.50 45.74 L 53.26 47.54 L 55.09 47.96 L 56.71 47.75 Z" fill="none" group-id="1,6,9" id="路径_455" node-id="57" stroke="#fffce9" stroke-linecap="butt" stroke-width="1" target-height="15.96106" target-width="24.80603" target-x="42.106934" target-y="34.593872"></path><path d="M 56.81 47.75 L 57.22 45.96 L 58.32 41.88 L 59.08 39.58 L 59.94 37.51 L 60.98 35.73 L 61.93 34.81 L 62.59 34.61 L 63.28 34.87 L 64.11 35.77 L 64.81 37.26 L 65.07 38.60 L 64.94 39.86 L 64.20 41.67 L 62.93 43.36 L 61.36 44.83 L 59.69 46.06 L 56.81 47.75 L 54.03 48.94 L 52.22 49.49 L 50.22 49.90 L 48.21 50.03 L 46.35 49.80 L 45.21 49.40 L 44.23 48.74 L 43.39 47.82 L 43.03 47.06 L 42.93 46.24 L 43.09 45.44 L 43.50 44.71 L 44.51 43.83 L 45.51 43.45 L 46.56 43.50 L 48.22 44.09 L 50.04 45.16 L 53.58 47.35 L 54.76 47.83 L 55.82 47.95 L 56.81 47.75 Z" fill="none" group-id="1,6,9" id="路径_456" node-id="58" stroke="#fffce9" stroke-linecap="butt" stroke-width="1" target-height="15.418945" target-width="22.137695" target-x="42.928345" target-y="34.61319"></path><path d="M 80.22 48.98 L 78.26 49.11 L 73.41 49.31 L 67.19 49.33 L 63.98 49.18 L 61.12 48.89 L 58.47 48.39 L 56.71 47.75 L 56.02 49.31 L 53.87 53.11 L 52.28 55.39 L 50.19 57.85 L 47.78 60.14 L 44.89 62.23 L 42.78 63.37 L 40.45 64.27 L 37.87 64.92" fill="none" group-id="1,6,9" id="路径_457" node-id="59" stroke="#fffce9" stroke-linecap="butt" stroke-width="1" target-height="17.166992" target-width="42.349" target-x="37.868042" target-y="47.75302"></path><path d="M 77.91 50.09 L 76.21 50.13 L 71.97 50.12 L 66.50 49.89 L 61.12 49.26 L 58.75 48.70 L 57.12 48.03 L 56.47 49.59 L 54.46 53.39 L 52.96 55.67 L 51.01 58.13 L 48.74 60.43 L 46.03 62.50 L 44.05 63.65 L 41.86 64.55 L 39.45 65.20" fill="none" group-id="1,6,9" id="路径_458" node-id="60" stroke="#fffce9" stroke-linecap="butt" stroke-width="1" target-height="17.167023" target-width="38.46399" target-x="39.447876" target-y="48.030975"></path><path d="M 27.99 151.31 L 30.27 150.32 L 36.26 147.98 L 40.16 146.63 L 44.75 145.22 L 49.51 143.99 L 54.49 143.00 L 59.49 142.37 L 64.25 142.24 L 65.79 142.53 L 66.92 143.15 L 67.73 144.10 L 68.25 145.46 L 68.49 147.49 L 68.34 150.11 L 67.66 153.46 L 66.06 158.49 L 63.63 164.36 L 60.73 170.28 L 57.35 176.32 L 53.69 182.17 L 49.99 187.46 L 46.12 192.30 L 42.70 195.92 L 40.25 198.01 L 38.27 199.25 L 36.66 199.84 L 34.15 200.08 L 30.24 199.92 L 26.02 199.35 L 21.15 198.31 L 16.27 196.86 L 11.50 194.98 L 8.44 193.44 L 5.74 191.75 L 3.37 189.89 L 1.30 187.75 L -0.18 185.47 L -1.14 183.02 L -1.47 181.11 L -1.41 179.06 L -0.92 176.81 L 0.06 174.32 L 1.32 172.10 L 3.16 169.63 L 5.70 166.87 L 9.08 163.76 L 13.72 160.14 L 19.93 156.01 L 27.99 151.31 Z" fill="#53915a" fill-rule="nonzero" group-id="2" id="路径_459" node-id="62" stroke-linecap="butt" stroke-width="1" target-height="57.840942" target-width="69.964355" target-x="-1.4696045" target-y="142.24402"></path><path d="M 60.53 152.66 L 57.12 153.99 L 53.57 155.51 L 48.49 157.90 L 43.12 160.71 L 37.06 164.29 L 31.09 168.36 L 25.26 173.05 L 21.62 176.50 L 18.38 180.16 L 15.50 184.06" fill="none" group-id="2" id="路径_460" node-id="63" stroke="#447548" stroke-linecap="butt" stroke-width="2" target-height="31.400024" target-width="45.03003" target-x="15.501953" target-y="152.65802"></path><path d="M 49.09 145.56 L 47.16 146.70 L 45.27 148.06 L 42.75 150.26 L 40.32 152.93 L 37.90 156.46 L 36.58 159.06 L 35.50 162.05 L 34.70 165.50 L 36.60 166.25 L 38.62 166.71 L 40.80 166.88 L 44.10 166.72 L 47.44 166.14 L 50.71 165.28 L 53.66 164.30 L 58.47 162.36 L 60.92 161.34" fill="none" group-id="2" id="路径_461" node-id="64" stroke="#447548" stroke-linecap="butt" stroke-width="2" target-height="21.322754" target-width="26.220947" target-x="34.696045" target-y="145.56097"></path><path d="M 48.61 181.76 L 46.63 181.96 L 41.74 182.00 L 38.73 181.72 L 35.48 181.08 L 32.33 180.01 L 29.43 178.40 L 27.73 177.00 L 26.30 175.27 L 25.13 173.15 L 24.37 170.84 L 24.01 168.70 L 24.01 166.68 L 24.54 163.74 L 25.54 161.10 L 26.89 158.70 L 28.33 156.73 L 31.01 153.87 L 32.21 152.85" fill="none" group-id="2" id="路径_462" node-id="65" stroke="#447548" stroke-linecap="butt" stroke-width="2" target-height="29.147034" target-width="24.604736" target-x="24.007202" target-y="152.85101"></path><path d="M -0.16 138.48 L 1.25 136.44 L 5.11 131.29 L 7.71 128.09 L 10.87 124.47 L 14.27 120.91 L 17.97 117.45 L 21.89 114.28 L 25.87 111.66 L 27.33 111.09 L 28.61 111.03 L 29.80 111.41 L 30.96 112.28 L 32.24 113.88 L 33.48 116.18 L 34.67 119.39 L 35.97 124.50 L 37.00 130.78 L 37.65 137.33 L 37.97 144.25 L 37.94 151.15 L 37.58 157.60 L 36.85 163.74 L 35.86 168.63 L 34.88 171.70 L 33.85 173.79 L 32.79 175.14 L 30.79 176.67 L 27.37 178.59 L 23.49 180.33 L 18.80 182.02 L 13.89 183.36 L 8.84 184.28 L 5.44 184.59 L 2.25 184.57 L -0.74 184.24 L -3.63 183.51 L -6.09 182.36 L -8.20 180.78 L -9.48 179.34 L -10.51 177.56 L -11.28 175.39 L -11.76 172.76 L -11.86 170.21 L -11.60 167.14 L -10.90 163.45 L -9.67 159.04 L -7.63 153.51 L -4.53 146.73 L -0.16 138.48 Z" fill="#50a356" fill-rule="nonzero" group-id="3" id="路径_463" node-id="67" stroke-linecap="butt" stroke-width="1" target-height="73.56116" target-width="49.831665" target-x="-11.860352" target-y="111.026306"></path><path d="M 28.20 122.47 L 26.00 125.40 L 23.78 128.57 L 20.73 133.28 L 17.65 138.50 L 14.39 144.73 L 11.46 151.33 L 8.98 158.39 L 7.71 163.24 L 6.88 168.07 L 6.49 172.89" fill="none" group-id="3" id="路径_464" node-id="68" stroke="#447548" stroke-linecap="butt" stroke-width="2" target-height="50.422974" target-width="21.705933" target-x="6.48999" target-y="122.468994"></path><path d="M 14.73 122.47 L 13.69 124.46 L 12.80 126.61 L 11.82 129.81 L 11.16 133.36 L 10.97 137.63 L 11.22 140.54 L 11.88 143.65 L 13.02 147.01 L 15.03 146.64 L 16.99 145.96 L 18.93 144.96 L 21.65 143.08 L 24.18 140.83 L 26.51 138.38 L 28.49 135.99 L 31.56 131.80 L 33.10 129.64" fill="none" group-id="3" id="路径_465" node-id="69" stroke="#447548" stroke-linecap="butt" stroke-width="2" target-height="24.533997" target-width="22.12561" target-x="10.973389" target-y="122.47302"></path><path d="M 33.41 153.49 L 31.84 154.69 L 27.70 157.31 L 24.99 158.66 L 21.90 159.83 L 18.66 160.58 L 15.34 160.75 L 13.16 160.45 L 11.04 159.73 L 8.92 158.55 L 7.05 156.99 L 5.62 155.36 L 4.56 153.65 L 3.45 150.86 L 2.91 148.10 L 2.80 145.35 L 2.98 142.91 L 3.76 139.07 L 4.24 137.57" fill="none" group-id="3" id="路径_466" node-id="70" stroke="#447548" stroke-linecap="butt" stroke-width="2" target-height="23.176819" target-width="30.616577" target-x="2.7974854" target-y="137.57"></path><path d="M 201.73 136.73 L 199.48 134.24 L 197.25 131.50 L 194.19 127.29 L 191.18 122.53 L 188.04 116.60 L 186.20 112.42 L 184.59 107.86 L 183.23 102.92 L 182.29 97.89 L 181.86 92.58 L 181.93 86.97 L 182.38 82.82 L 183.25 78.54 L 184.56 74.10 L 186.34 69.49 L 185.08 72.13 L 182.21 79.25 L 180.63 83.95 L 179.07 89.62 L 177.84 95.59 L 177.03 102.06 L 176.82 106.45 L 176.96 110.87 L 177.45 115.35 L 178.36 119.74 L 179.76 124.04 L 181.68 128.27 L 183.44 131.24 L 185.57 134.12 L 188.11 136.91 L 191.08 139.62 Z" fill="#d19c46" fill-rule="nonzero" group-id="4" id="路径_468" node-id="73" stroke-linecap="butt" stroke-width="1" target-height="70.13202" target-width="24.910645" target-x="176.82324" target-y="69.491"></path><path d="M 191.96 131.77 L 189.49 130.36 L 182.86 126.92 L 178.50 124.86 L 173.29 122.62 L 167.81 120.54 L 161.97 118.65 L 156.00 117.16 L 150.11 116.20 L 146.17 115.91 L 142.44 116.00 L 138.91 116.44 L 135.50 117.32 L 132.40 118.69 L 129.58 120.55 L 132.50 121.17 L 140.11 122.90 L 150.74 125.53 L 162.71 128.85 L 168.73 130.73 L 174.32 132.66 L 179.63 134.74 L 183.91 136.74 L 186.57 138.26 L 188.48 139.63 L 189.77 140.89 Z" fill="#d19c46" fill-rule="nonzero" group-id="4" id="路径_469" node-id="74" stroke-linecap="butt" stroke-width="1" target-height="24.977844" target-width="62.38098" target-x="129.58301" target-y="115.91315"></path><path d="M 163.95 118.45 L 161.81 117.14 L 159.62 115.62 L 156.49 113.19 L 153.28 110.32 L 149.66 106.57 L 146.25 102.34 L 142.96 97.26 L 141.07 93.63 L 139.42 89.63 L 138.05 85.23 L 137.10 80.73 L 136.60 75.83 L 136.57 70.46 L 138.22 70.62 L 140.29 77.06 L 142.80 83.26 L 145.75 89.23 L 149.15 94.98 L 152.97 100.48 L 157.17 105.65 L 161.76 110.51 L 166.75 115.08 Z" fill="#8e6e2f" fill-rule="nonzero" group-id="4,7" id="路径_470" node-id="76" stroke-linecap="butt" stroke-width="1" target-height="47.990997" target-width="30.177002" target-x="136.57495" target-y="70.45999"></path><path d="M 226.49 138.08 L 223.26 138.59 L 219.77 138.84 L 214.35 138.73 L 210.56 138.38 L 206.12 137.62 L 200.94 136.39 L 195.90 134.79 L 190.34 132.51 L 184.18 129.45 L 179.82 126.90 L 175.23 123.82 L 170.38 120.13 L 165.26 115.80 L 164.47 116.38 L 166.95 118.54 L 173.74 123.79 L 178.30 126.91 L 183.83 130.31 L 189.76 133.44 L 196.24 136.26 L 200.73 137.82 L 205.30 139.00 L 209.96 139.82 L 214.66 140.17 L 219.33 139.96 L 224.00 139.16 L 225.67 138.80 Z" fill="#e8af49" fill-rule="nonzero" group-id="4,7" id="路径_471" node-id="77" stroke-linecap="butt" stroke-width="1" target-height="24.374512" target-width="62.025024" target-x="164.46606" target-y="115.79999"></path><path d="M 127.38 101.31 L 127.56 101.43 L 131.51 103.93 L 139.19 108.48 L 143.80 110.99 L 148.70 113.46 L 153.65 115.66 L 158.15 117.29 L 161.17 118.08 L 163.64 118.40 L 165.63 118.35 L 166.55 118.00 L 165.87 117.25 L 165.11 116.57 L 163.94 115.76 L 162.59 115.11 L 160.89 114.68 L 159.06 114.64 L 156.87 115.15 L 156.01 115.29 L 155.16 115.11 L 150.64 113.20 L 143.60 110.02 L 135.39 105.93 L 131.24 103.64 L 127.38 101.31 Z" fill="#e8af49" fill-rule="nonzero" group-id="4,7" id="路径_472" node-id="78" stroke-linecap="butt" stroke-width="1" target-height="17.093689" target-width="39.169067" target-x="127.380005" target-y="101.31"></path><path d="M 166.66 117.96 L 167.23 117.10 L 167.55 116.02 L 167.61 113.89 L 167.16 111.38 L 165.73 107.37 L 165.86 107.64 L 165.68 109.00 L 164.36 112.31 L 164.01 113.22 L 164.03 114.31 L 164.37 115.41 L 164.97 116.47 L 165.76 117.36 L 166.66 117.96 Z" fill="#e8af49" fill-rule="nonzero" group-id="4,7" id="路径_473" node-id="79" stroke-linecap="butt" stroke-width="1" target-height="10.591003" target-width="3.59729" target-x="164.01208" target-y="107.37201"></path><path d="M 151.77 110.85 L 152.84 112.11 L 154.08 113.08 L 155.50 113.77 L 157.04 114.16 L 158.61 114.22 L 160.25 113.93 L 159.64 113.04 L 158.80 112.30 L 157.15 111.45 L 155.09 110.95 L 151.77 110.85 Z" fill="#e8af49" fill-rule="nonzero" group-id="4,7" id="路径_474" node-id="80" stroke-linecap="butt" stroke-width="1" target-height="3.3690796" target-width="8.481079" target-x="151.76599" target-y="110.84607"></path><path d="M 149.27 107.05 L 150.29 108.06 L 151.37 108.94 L 152.83 109.82 L 154.44 110.38 L 156.16 110.40 L 155.83 109.32 L 155.23 108.42 L 153.97 107.49 L 152.94 107.11 L 151.43 106.93 L 149.27 107.05 Z" fill="#e8af49" fill-rule="nonzero" group-id="4,7" id="路径_475" node-id="81" stroke-linecap="butt" stroke-width="1" target-height="3.466858" target-width="6.8830566" target-x="149.27295" target-y="106.92914"></path><path d="M 162.49 112.99 L 161.56 111.70 L 161.09 110.24 L 161.06 108.70 L 161.51 107.18 L 162.23 107.64 L 163.51 108.89 L 163.95 109.75 L 164.04 110.74 L 163.66 111.74 L 162.49 112.99 Z" fill="#e8af49" fill-rule="nonzero" group-id="4,7" id="路径_476" node-id="82" stroke-linecap="butt" stroke-width="1" target-height="5.807007" target-width="2.9748535" target-x="161.0603" target-y="107.18201"></path><path d="M 160.00 110.47 L 159.32 110.02 L 158.79 109.39 L 158.23 108.21 L 157.96 106.75 L 158.10 104.41 L 159.09 105.13 L 159.86 105.97 L 160.50 107.19 L 160.67 108.09 L 160.53 109.16 L 160.00 110.47 Z" fill="#e8af49" fill-rule="nonzero" group-id="4,7" id="路径_477" node-id="83" stroke-linecap="butt" stroke-width="1" target-height="6.061035" target-width="2.7091064" target-x="157.96191" target-y="104.412964"></path><path d="M 144.24 102.15 L 145.09 102.84 L 147.21 104.30 L 148.54 105.03 L 149.95 105.61 L 151.38 105.92 L 152.66 105.85 L 151.90 104.87 L 149.93 102.93 L 148.63 102.06 L 147.22 101.53 L 146.25 101.42 L 145.27 101.62 L 144.24 102.15 Z" fill="#e8af49" fill-rule="nonzero" group-id="4,7" id="路径_478" node-id="84" stroke-linecap="butt" stroke-width="1" target-height="4.5006104" target-width="8.421997" target-x="144.2351" target-y="101.42395"></path><path d="M 147.01 100.33 L 145.72 100.44 L 144.49 100.27 L 143.02 99.62 L 142.16 98.93 L 141.38 97.82 L 140.67 96.16 L 138.39 93.98 L 134.68 90.96 L 130.66 87.87 L 127.43 85.46 L 126.11 84.48 L 127.47 85.50 L 130.78 87.96 L 134.89 90.99 L 138.64 93.71 L 140.89 95.26 L 142.97 95.92 L 144.30 96.42 L 145.58 97.23 L 146.25 97.95 L 146.74 98.96 L 147.01 100.33 Z" fill="#e8af49" fill-rule="nonzero" group-id="4,7" id="路径_479" node-id="85" stroke-linecap="butt" stroke-width="1" target-height="15.950989" target-width="20.90503" target-x="126.10901" target-y="84.484985"></path><path d="M 144.72 93.65 L 145.45 92.58 L 145.92 91.43 L 146.08 89.82 L 145.91 88.74 L 145.33 87.51 L 144.24 86.07 L 143.48 83.01 L 142.69 78.30 L 142.00 73.27 L 141.51 69.27 L 141.32 67.64 L 141.53 69.32 L 142.03 73.42 L 142.62 78.49 L 143.13 83.10 L 143.35 85.82 L 142.90 87.95 L 142.67 89.35 L 142.74 90.86 L 143.04 91.81 L 143.67 92.73 L 144.72 93.65 Z" fill="#e8af49" fill-rule="nonzero" group-id="4,7" id="路径_480" node-id="86" stroke-linecap="butt" stroke-width="1" target-height="26.009003" target-width="4.7633057" target-x="141.32104" target-y="67.639984"></path><path d="M 155.17 106.58 L 154.91 106.28 L 154.75 105.85 L 154.66 104.90 L 154.76 103.73 L 155.22 101.74 L 155.92 102.04 L 156.48 102.53 L 157.07 103.51 L 157.36 104.80 L 157.24 106.99 L 157.07 107.47 L 156.83 107.78 L 156.44 107.86 L 156.00 107.63 L 155.17 106.58 Z" fill="#e8af49" fill-rule="nonzero" group-id="4,7" id="路径_481" node-id="87" stroke-linecap="butt" stroke-width="1" target-height="6.118042" target-width="2.7003174" target-x="154.65588" target-y="101.74402"></path><path d="M 153.15 104.08 L 152.31 102.95 L 151.82 101.75 L 151.64 100.44 L 151.78 99.13 L 152.25 97.91 L 153.07 96.76 L 153.67 97.33 L 154.12 98.02 L 154.48 99.18 L 154.50 100.54 L 153.96 102.56 L 153.15 104.08 Z" fill="#e8af49" fill-rule="nonzero" group-id="4,7" id="路径_482" node-id="88" stroke-linecap="butt" stroke-width="1" target-height="7.3160095" target-width="2.8587646" target-x="151.63855" target-y="96.76297"></path><path d="M 149.21 100.49 L 148.70 99.83 L 148.38 99.07 L 148.23 97.82 L 148.45 96.41 L 149.35 94.40 L 149.84 94.96 L 150.65 96.41 L 150.85 97.33 L 150.77 98.37 L 150.31 99.37 L 149.21 100.49 Z" fill="#e8af49" fill-rule="nonzero" group-id="4,7" id="路径_483" node-id="89" stroke-linecap="butt" stroke-width="1" target-height="6.0899963" target-width="2.628418" target-x="148.22534" target-y="94.40204"></path><path d="M 147.12 96.40 L 146.42 94.86 L 146.17 93.23 L 146.35 91.60 L 146.98 90.03 L 147.51 90.33 L 147.96 90.73 L 148.41 91.37 L 148.66 92.17 L 148.62 93.33 L 148.21 94.59 L 147.12 96.40 Z" fill="#e8af49" fill-rule="nonzero" group-id="4,7" id="路径_484" node-id="90" stroke-linecap="butt" stroke-width="1" target-height="6.367981" target-width="2.489502" target-x="146.1687" target-y="90.03"></path><path d="M 141.30 86.24 L 140.60 84.70 L 140.35 83.07 L 140.53 81.44 L 141.16 79.87 L 141.69 80.17 L 142.14 80.56 L 142.58 81.21 L 142.84 82.01 L 142.80 83.17 L 142.39 84.43 L 141.30 86.24 Z" fill="#e8af49" fill-rule="nonzero" group-id="4,7" id="路径_485" node-id="91" stroke-linecap="butt" stroke-width="1" target-height="6.367981" target-width="2.4882813" target-x="140.34766" target-y="79.86801"></path><path d="M 139.61 81.38 L 138.91 79.84 L 138.66 78.22 L 138.84 76.58 L 139.47 75.01 L 140.00 75.32 L 140.45 75.71 L 140.90 76.36 L 141.15 77.16 L 141.11 78.32 L 140.70 79.58 L 139.61 81.38 Z" fill="#e8af49" fill-rule="nonzero" group-id="4,7" id="路径_486" node-id="92" stroke-linecap="butt" stroke-width="1" target-height="6.367981" target-width="2.4881592" target-x="138.65967" target-y="75.014984"></path><path d="M 138.37 74.58 L 137.97 73.37 L 137.91 72.12 L 138.18 70.90 L 138.78 69.77 L 139.36 70.26 L 139.73 70.85 L 139.86 71.82 L 139.55 72.90 L 138.37 74.58 Z" fill="#e8af49" fill-rule="nonzero" group-id="4,7" id="路径_487" node-id="93" stroke-linecap="butt" stroke-width="1" target-height="4.8150024" target-width="1.9547119" target-x="137.90662" target-y="69.76999"></path><path d="M 143.97 94.43 L 142.28 94.33 L 140.73 93.79 L 139.37 92.86 L 138.28 91.57 L 138.80 91.25 L 139.35 91.04 L 140.13 90.94 L 140.96 91.09 L 141.96 91.67 L 142.88 92.62 L 143.97 94.43 Z" fill="#e8af49" fill-rule="nonzero" group-id="4,7" id="路径_488" node-id="94" stroke-linecap="butt" stroke-width="1" target-height="3.490387" target-width="5.6900635" target-x="138.27795" target-y="90.94159"></path><path d="M 142.20 89.68 L 140.51 89.58 L 138.95 89.04 L 137.60 88.11 L 136.50 86.82 L 137.02 86.50 L 137.58 86.29 L 138.36 86.19 L 139.18 86.34 L 140.19 86.92 L 141.11 87.88 L 142.20 89.68 Z" fill="#e8af49" fill-rule="nonzero" group-id="4,7" id="路径_489" node-id="95" stroke-linecap="butt" stroke-width="1" target-height="3.4934998" target-width="5.6900635" target-x="136.505" target-y="86.19147"></path><path d="M 138.41 80.88 L 136.95 80.03 L 135.81 78.84 L 135.01 77.40 L 134.62 75.76 L 135.23 75.70 L 135.82 75.76 L 136.56 76.03 L 137.23 76.54 L 137.87 77.51 L 138.26 78.78 L 138.41 80.88 Z" fill="#e8af49" fill-rule="nonzero" group-id="4,7" id="路径_490" node-id="96" stroke-linecap="butt" stroke-width="1" target-height="5.1793823" target-width="3.7860107" target-x="134.62097" target-y="75.7016"></path><path d="M 138.04 75.24 L 136.89 74.97 L 135.87 74.40 L 135.04 73.59 L 134.44 72.57 L 135.12 72.34 L 135.77 72.35 L 136.59 72.71 L 137.30 73.49 L 138.04 75.24 Z" fill="#e8af49" fill-rule="nonzero" group-id="4,7" id="路径_491" node-id="97" stroke-linecap="butt" stroke-width="1" target-height="2.9012146" target-width="3.5999756" target-x="134.443" target-y="72.34277"></path><path d="M 137.02 71.73 L 136.42 71.10 L 136.10 70.38 L 136.05 69.51 L 136.43 69.59 L 136.73 69.76 L 137.02 70.16 L 137.14 70.71 L 137.02 71.73 Z" fill="#e8af49" fill-rule="nonzero" group-id="4,7" id="路径_492" node-id="98" stroke-linecap="butt" stroke-width="1" target-height="2.2170105" target-width="1.0887451" target-x="136.05005" target-y="69.51199"></path><path d="M 140.23 85.19 L 138.55 85.08 L 136.99 84.54 L 135.63 83.62 L 134.54 82.33 L 135.06 82.00 L 135.61 81.79 L 136.40 81.70 L 137.22 81.85 L 138.23 82.42 L 139.15 83.38 L 140.23 85.19 Z" fill="#e8af49" fill-rule="nonzero" group-id="4,7" id="路径_493" node-id="99" stroke-linecap="butt" stroke-width="1" target-height="3.4911194" target-width="5.6900635" target-x="134.54297" target-y="81.69791"></path><path d="M 165.30 110.88 L 164.80 104.83 L 163.88 98.86 L 162.55 92.97 L 160.80 87.15 L 161.37 89.16 L 162.74 94.21 L 164.42 100.89 L 165.92 107.74 L 166.47 110.92 L 166.75 113.35 Z" fill="#e8af49" fill-rule="nonzero" group-id="4,7" id="路径_494" node-id="100" stroke-linecap="butt" stroke-width="1" target-height="26.199982" target-width="5.9449463" target-x="160.80103" target-y="87.153015"></path><path d="M 173.61 115.17 L 172.52 113.16 L 171.48 110.96 L 170.11 107.61 L 168.87 103.87 L 167.72 99.25 L 166.95 94.35 L 166.66 88.83 L 166.81 85.09 L 167.34 81.17 L 168.25 77.06 L 169.55 73.07 L 171.39 68.96 L 173.82 64.70 L 175.04 65.57 L 173.75 71.62 L 172.91 77.67 L 172.53 83.74 L 172.60 89.85 L 173.12 95.94 L 174.08 101.94 L 175.50 107.89 L 177.37 113.78 Z" fill="#8e6e2f" fill-rule="nonzero" group-id="4,8" id="路径_495" node-id="102" stroke-linecap="butt" stroke-width="1" target-height="50.474" target-width="10.714233" target-x="166.65784" target-y="64.698"></path><path d="M 214.19 159.22 L 211.40 158.15 L 208.52 156.75 L 204.28 154.21 L 201.44 152.20 L 198.27 149.57 L 194.73 146.23 L 191.47 142.67 L 188.10 138.33 L 184.62 133.10 L 181.58 127.65 L 178.65 121.21 L 175.86 113.67 L 174.97 113.77 L 175.96 116.61 L 178.94 123.86 L 181.12 128.42 L 183.96 133.63 L 187.22 138.81 L 191.07 144.00 L 193.91 147.27 L 196.99 150.30 L 200.31 153.07 L 203.87 155.49 L 207.67 157.45 L 211.72 158.95 L 213.21 159.42 Z" fill="#e8af49" fill-rule="nonzero" group-id="4,8" id="路径_496" node-id="103" stroke-linecap="butt" stroke-width="1" target-height="45.74701" target-width="39.218994" target-x="174.97205" target-y="113.67096"></path><path d="M 152.48 84.93 L 152.57 85.11 L 154.56 88.90 L 158.57 95.99 L 161.07 100.09 L 163.82 104.27 L 166.74 108.27 L 169.56 111.61 L 171.59 113.61 L 173.39 114.99 L 175.00 115.86 L 175.88 116.00 L 175.69 115.10 L 174.84 113.04 L 174.06 111.91 L 172.92 110.80 L 171.49 109.93 L 169.52 109.34 L 168.77 109.05 L 168.18 108.52 L 165.48 104.95 L 161.35 99.22 L 156.71 92.24 L 154.47 88.54 L 152.48 84.93 Z" fill="#e8af49" fill-rule="nonzero" group-id="4,8" id="路径_497" node-id="104" stroke-linecap="butt" stroke-width="1" target-height="31.067993" target-width="23.40393" target-x="152.479" target-y="84.93399"></path><path d="M 175.98 116.02 L 176.84 115.60 L 177.58 114.89 L 178.60 113.23 L 179.38 111.04 L 180.08 107.21 L 180.06 107.48 L 179.30 108.48 L 176.75 110.50 L 176.05 111.06 L 175.57 111.93 L 175.34 112.96 L 175.33 114.06 L 175.55 115.14 L 175.98 116.02 Z" fill="#e8af49" fill-rule="nonzero" group-id="4,8" id="路径_498" node-id="105" stroke-linecap="butt" stroke-width="1" target-height="8.80603" target-width="4.754883" target-x="175.3291" target-y="107.21399"></path><path d="M 167.44 103.60 L 167.71 105.09 L 168.25 106.42 L 169.06 107.62 L 170.11 108.63 L 171.32 109.39 L 172.75 109.91 L 172.67 108.92 L 172.34 107.95 L 171.42 106.53 L 170.02 105.19 L 167.44 103.60 Z" fill="#e8af49" fill-rule="nonzero" group-id="4,8" id="路径_499" node-id="106" stroke-linecap="butt" stroke-width="1" target-height="6.311035" target-width="5.3081055" target-x="167.43799" target-y="103.599"></path><path d="M 167.20 99.45 L 167.54 100.72 L 168.00 101.91 L 168.75 103.28 L 169.77 104.45 L 171.12 105.24 L 171.35 104.24 L 171.28 103.26 L 170.71 101.95 L 170.07 101.18 L 168.96 100.35 L 167.20 99.45 Z" fill="#e8af49" fill-rule="nonzero" group-id="4,8" id="路径_500" node-id="107" stroke-linecap="butt" stroke-width="1" target-height="5.7890015" target-width="4.1539307" target-x="167.19592" target-y="99.45404"></path><path d="M 174.95 110.18 L 174.81 108.74 L 175.10 107.37 L 175.77 106.14 L 176.82 105.14 L 177.18 105.83 L 177.63 107.41 L 177.58 108.28 L 177.20 109.11 L 176.45 109.73 L 174.95 110.18 Z" fill="#e8af49" fill-rule="nonzero" group-id="4,8" id="路径_501" node-id="108" stroke-linecap="butt" stroke-width="1" target-height="5.041992" target-width="2.8188477" target-x="174.80823" target-y="105.13995"></path><path d="M 174.13 107.06 L 173.80 106.39 L 173.66 105.65 L 173.76 104.46 L 174.21 103.18 L 175.38 101.39 L 175.84 102.41 L 176.07 103.43 L 176.01 104.69 L 175.74 105.48 L 175.15 106.26 L 174.13 107.06 Z" fill="#e8af49" fill-rule="nonzero" group-id="4,8" id="路径_502" node-id="109" stroke-linecap="butt" stroke-width="1" target-height="5.666992" target-width="2.4101563" target-x="173.65906" target-y="101.390015"></path><path d="M 165.44 93.28 L 166.07 94.84 L 166.79 96.29 L 167.80 97.91 L 169.05 99.27 L 170.42 100.05 L 170.27 98.93 L 169.59 96.49 L 168.96 95.22 L 168.09 94.15 L 166.96 93.45 L 165.44 93.28 Z" fill="#e8af49" fill-rule="nonzero" group-id="4,8" id="路径_503" node-id="110" stroke-linecap="butt" stroke-width="1" target-height="6.770996" target-width="4.981079" target-x="165.43896" target-y="93.278015"></path><path d="M 168.47 93.10 L 167.40 92.60 L 166.50 91.91 L 165.63 90.72 L 165.27 89.78 L 165.15 88.55 L 165.35 86.91 L 165.01 85.58 L 164.20 83.20 L 162.08 77.88 L 160.05 73.10 L 159.14 71.03 L 159.75 72.45 L 161.25 75.91 L 163.12 80.18 L 164.86 84.05 L 165.94 86.30 L 167.27 87.77 L 168.10 88.77 L 168.74 90.00 L 168.95 90.88 L 168.87 91.89 L 168.47 93.10 Z" fill="#e8af49" fill-rule="nonzero" group-id="4,8" id="路径_504" node-id="111" stroke-linecap="butt" stroke-width="1" target-height="22.072998" target-width="9.807861" target-x="159.14001" target-y="71.03104"></path><path d="M 169.70 86.77 L 170.77 86.26 L 171.66 85.56 L 172.52 84.36 L 172.87 83.43 L 172.98 82.19 L 172.78 80.55 L 173.10 79.22 L 173.89 76.84 L 175.97 71.50 L 177.97 66.71 L 178.86 64.63 L 178.26 66.06 L 176.79 69.52 L 174.95 73.81 L 173.24 77.69 L 172.18 79.95 L 170.86 81.43 L 170.03 82.43 L 169.40 83.66 L 169.20 84.55 L 169.29 85.56 L 169.70 86.77 Z" fill="#e8af49" fill-rule="nonzero" group-id="4,8" id="路径_505" node-id="112" stroke-linecap="butt" stroke-width="1" target-height="22.141998" target-width="9.657471" target-x="169.20447" target-y="64.62796"></path><path d="M 172.08 101.77 L 172.01 101.41 L 172.08 101.00 L 172.44 100.21 L 173.05 99.33 L 174.32 97.97 L 174.74 98.52 L 174.97 99.16 L 174.98 100.21 L 174.62 101.36 L 173.53 103.04 L 173.18 103.34 L 172.84 103.47 L 172.50 103.37 L 172.26 102.98 L 172.08 101.77 Z" fill="#e8af49" fill-rule="nonzero" group-id="4,8" id="路径_506" node-id="113" stroke-linecap="butt" stroke-width="1" target-height="5.509369" target-width="2.9726563" target-x="172.00769" target-y="97.965"></path><path d="M 171.62 98.87 L 171.47 97.60 L 171.62 96.42 L 172.08 95.30 L 172.80 94.33 L 173.72 93.58 L 174.89 93.04 L 175.11 93.77 L 175.15 94.51 L 174.90 95.60 L 174.30 96.69 L 172.95 98.04 L 171.62 98.87 Z" fill="#e8af49" fill-rule="nonzero" group-id="4,8" id="路径_507" node-id="114" stroke-linecap="butt" stroke-width="1" target-height="5.8320007" target-width="3.6795654" target-x="171.46973" target-y="93.04199"></path><path d="M 170.13 94.24 L 170.03 93.48 L 170.12 92.73 L 170.57 91.67 L 171.39 90.66 L 173.02 89.48 L 173.20 90.59 L 173.14 91.63 L 172.73 92.76 L 172.23 93.38 L 171.41 93.88 L 170.13 94.24 Z" fill="#e8af49" fill-rule="nonzero" group-id="4,8" id="路径_508" node-id="115" stroke-linecap="butt" stroke-width="1" target-height="4.756012" target-width="3.1658936" target-x="170.02917" target-y="89.479004"></path><path d="M 170.34 90.04 L 170.50 88.51 L 171.04 87.11 L 171.93 85.90 L 173.14 84.94 L 173.55 85.77 L 173.66 86.60 L 173.34 87.73 L 172.87 88.40 L 171.94 89.17 L 170.34 90.04 Z" fill="#e8af49" fill-rule="nonzero" group-id="4,8" id="路径_509" node-id="116" stroke-linecap="butt" stroke-width="1" target-height="5.100006" target-width="3.3153076" target-x="170.34497" target-y="84.94498"></path><path d="M 170.37 79.34 L 170.52 77.81 L 171.06 76.41 L 171.95 75.20 L 173.16 74.24 L 173.57 75.07 L 173.68 75.90 L 173.36 77.02 L 172.89 77.70 L 171.96 78.47 L 170.37 79.34 Z" fill="#e8af49" fill-rule="nonzero" group-id="4,8" id="路径_510" node-id="117" stroke-linecap="butt" stroke-width="1" target-height="5.100006" target-width="3.317505" target-x="170.36707" target-y="74.24399"></path><path d="M 171.24 74.73 L 171.39 73.20 L 171.93 71.79 L 172.82 70.58 L 174.04 69.63 L 174.45 70.45 L 174.56 71.29 L 174.24 72.41 L 173.77 73.09 L 172.84 73.85 L 171.24 74.73 Z" fill="#e8af49" fill-rule="nonzero" group-id="4,8" id="路径_511" node-id="118" stroke-linecap="butt" stroke-width="1" target-height="5.100006" target-width="3.3166504" target-x="171.24194" target-y="69.629"></path><path d="M 173.36 68.78 L 173.59 67.63 L 174.11 66.62 L 174.88 65.78 L 175.87 65.16 L 176.12 65.81 L 176.13 66.45 L 175.80 67.27 L 175.06 67.99 L 173.36 68.78 Z" fill="#e8af49" fill-rule="nonzero" group-id="4,8" id="路径_512" node-id="119" stroke-linecap="butt" stroke-width="1" target-height="3.625" target-width="2.7788086" target-x="173.35608" target-y="65.155"></path><path d="M 168.75 87.05 L 167.46 86.20 L 166.47 85.06 L 165.82 83.71 L 165.55 82.19 L 166.47 82.22 L 167.25 82.51 L 168.10 83.32 L 168.47 84.05 L 168.72 85.23 L 168.75 87.05 Z" fill="#e8af49" fill-rule="nonzero" group-id="4,8" id="路径_513" node-id="120" stroke-linecap="butt" stroke-width="1" target-height="4.8589783" target-width="3.1999512" target-x="165.54602" target-y="82.19101"></path><path d="M 169.51 82.48 L 168.22 81.63 L 167.24 80.49 L 166.59 79.14 L 166.31 77.62 L 167.23 77.65 L 168.02 77.94 L 168.86 78.75 L 169.24 79.48 L 169.48 80.66 L 169.51 82.48 Z" fill="#e8af49" fill-rule="nonzero" group-id="4,8" id="路径_514" node-id="121" stroke-linecap="butt" stroke-width="1" target-height="4.859009" target-width="3.1999512" target-x="166.31006" target-y="77.62198"></path><path d="M 170.52 73.78 L 169.76 72.44 L 169.39 70.99 L 169.42 69.48 L 169.86 68.00 L 170.67 68.44 L 171.24 69.06 L 171.63 70.16 L 171.63 70.99 L 171.31 72.15 L 170.52 73.78 Z" fill="#e8af49" fill-rule="nonzero" group-id="4,8" id="路径_515" node-id="122" stroke-linecap="butt" stroke-width="1" target-height="5.781006" target-width="2.2408447" target-x="169.39001" target-y="68.00302"></path><path d="M 172.80 69.16 L 172.01 68.41 L 171.47 67.50 L 171.18 66.48 L 171.17 65.40 L 171.81 65.53 L 172.32 65.82 L 172.81 66.49 L 173.01 67.42 L 172.80 69.16 Z" fill="#e8af49" fill-rule="nonzero" group-id="4,8" id="路径_516" node-id="123" stroke-linecap="butt" stroke-width="1" target-height="3.7590027" target-width="1.8383789" target-x="171.17395" target-y="65.397"></path><path d="M 173.59 65.90 L 173.41 64.77 L 173.84 63.70 L 174.10 63.94 L 174.31 64.66 L 174.15 65.15 L 173.59 65.90 Z" fill="#e8af49" fill-rule="nonzero" group-id="4,8" id="路径_517" node-id="124" stroke-linecap="butt" stroke-width="1" target-height="2.2000122" target-width="0.8984375" target-x="173.40894" target-y="63.70398"></path><path d="M 170.00 78.03 L 168.72 77.18 L 167.73 76.04 L 167.08 74.69 L 166.80 73.17 L 167.72 73.19 L 168.51 73.49 L 169.35 74.30 L 169.73 75.03 L 169.97 76.21 L 170.00 78.03 Z" fill="#e8af49" fill-rule="nonzero" group-id="4,8" id="路径_518" node-id="125" stroke-linecap="butt" stroke-width="1" target-height="4.859009" target-width="3.2000732" target-x="166.802" target-y="73.168976"></path><path d="M 178.14 109.80 L 180.50 104.77 L 182.49 99.63 L 184.12 94.36 L 185.39 88.96 L 184.93 90.80 L 183.71 95.43 L 182.00 101.48 L 180.06 107.59 L 178.16 112.41 Z" fill="#e8af49" fill-rule="nonzero" group-id="4,8" id="路径_519" node-id="126" stroke-linecap="butt" stroke-width="1" target-height="23.453003" target-width="7.253174" target-x="178.13794" target-y="88.95703"></path><path d="M 129.59 120.55 L 133.05 120.55 L 136.77 120.70 L 142.41 121.14 L 148.57 121.89 L 156.10 123.19 L 163.91 125.00 L 172.57 127.59 L 178.32 129.69 L 184.21 132.23 L 190.26 135.22 L 189.78 140.89 L 186.45 139.38 L 177.37 135.54 L 163.95 130.43 L 156.16 127.76 L 147.56 125.08 L 138.71 122.66 L 129.59 120.55 Z" fill="#edaf54" fill-rule="nonzero" group-id="4" id="路径_520" node-id="127" stroke-linecap="butt" stroke-width="1" target-height="20.341492" target-width="60.671997" target-x="129.58691" target-y="120.55151"></path><path d="M 199.68 128.27 L 199.02 127.95 L 197.21 126.69 L 195.23 125.01 L 192.64 122.33 L 190.15 119.17 L 187.55 114.96 L 186.05 111.92 L 184.70 108.40 L 183.52 104.35 L 182.71 100.23 L 182.24 95.55 L 182.15 90.26 L 182.52 85.01 L 183.45 79.10 L 185.03 72.47 L 184.22 75.02 L 182.47 81.78 L 181.58 86.21 L 180.80 91.48 L 180.31 96.96 L 180.22 102.81 L 180.44 106.74 L 180.95 110.63 L 181.76 114.50 L 182.91 118.26 L 184.46 121.83 L 186.42 125.24 L 188.80 128.35 L 191.71 131.18 L 195.23 133.74 Z" fill="#edaf54" fill-rule="nonzero" group-id="4" id="路径_521" node-id="128" stroke-linecap="butt" stroke-width="1" target-height="61.270996" target-width="19.457031" target-x="180.22107" target-y="72.47302"></path><text align="center" editable="true" ellipsis="false" fill="#35210f" flags="1" font-family="'Noto Sans CJK SC'" font-size="9" font-stretch="normal" font-style="normal" font-weight="400" height="13.32" hidden="true" id="小满_" letter-spacing="0" node-id="129" stroke="none" target-x="121.541" target-y="146.298" visibility="hidden" width="27" x="121.541" xml:space="preserve" y="156.738">小满。</text><path d="M 146.03 163.25 L 148.95 163.25 L 148.95 160.33 L 148.20 160.33 L 148.20 162.49 L 146.03 162.49 Z" fill="#35210f" fill-rule="nonzero" hidden="true" id="路径_522" node-id="132" stroke-linecap="butt" stroke-width="1" target-height="2.9170532" target-width="2.9180908" target-x="146.03491" target-y="160.32898" visibility="hidden"></path></g></svg>