<?xml version="1.0" standalone="no"?><!DOCTYPE svg PUBLIC "-//W3C//DTD SVG 1.1//EN" "http://www.w3.org/Graphics/SVG/1.1/DTD/svg11.dtd"><svg height="200" legacy-metrics="false" node-id="1" sillyvg="true" template-height="200" template-width="200" version="1.1" viewBox="0 0 200 200" width="200" xmlns="http://www.w3.org/2000/svg" xmlns:xlink="http://www.w3.org/1999/xlink"><defs node-id="165"><clipPath id="clip-path" node-id="3"><path d="M 200.00 100.00 C 200.00 155.23 155.23 200.00 100.00 200.00 C 44.77 200.00 0.00 155.23 0.00 100.00 C -0.00 44.77 44.77 0.00 100.00 0.00 C 155.23 -0.00 200.00 44.77 200.00 100.00 Z" fill="#000000" fill-rule="nonzero" id="椭圆_35" node-id="4" stroke="none" target-height="200" target-width="200" target-x="0" target-y="0"></path></clipPath><linearGradient gradientUnits="objectBoundingBox" id="linear-gradient" node-id="5" x1="0.49999997" x2="0.49999997" y1="1.0729998" y2="-0.07299999"><stop offset="0" stop-color="#60d7a0"></stop><stop offset="1" stop-color="#cde783"></stop></linearGradient><linearGradient gradientUnits="objectBoundingBox" id="linear-gradient-2" node-id="8" x1="-3.132" x2="-3.132" y1="-1.642" y2="-2.58"><stop offset="0" stop-color="#e6beb5"></stop><stop offset="1" stop-color="#e6646f"></stop></linearGradient><linearGradient gradientUnits="objectBoundingBox" id="linear-gradient-3" node-id="11" x1="58.613" x2="58.613" y1="17.025" y2="15.962"><stop offset="0" stop-color="#e6beb5"></stop><stop offset="1" stop-color="#e65a65"></stop></linearGradient><linearGradient gradientUnits="objectBoundingBox" id="linear-gradient-4" node-id="14" x1="-6.379" x2="-6.379" y1="-2.683" y2="-3.633"><stop offset="0" stop-color="#e6beb5"></stop><stop offset="1" stop-color="#e65a65"></stop></linearGradient><linearGradient gradientUnits="objectBoundingBox" id="linear-gradient-5" node-id="15" x1="66.106" x2="66.106" y1="6.844" y2="5.921"><stop offset="0" stop-color="#e6beb5"></stop><stop offset="1" stop-color="#e6646f"></stop></linearGradient><linearGradient gradientUnits="objectBoundingBox" id="linear-gradient-6" node-id="16" x1="38.853" x2="38.853" y1="-10.029" y2="-11.043"><stop offset="0" stop-color="#e6beb5"></stop><stop offset="1" stop-color="#e65a65"></stop></linearGradient><linearGradient gradientUnits="objectBoundingBox" id="linear-gradient-7" node-id="17" x1="124.82" x2="124.82" y1="9.036" y2="8.092"><stop offset="0" stop-color="#e6beb5"></stop><stop offset="1" stop-color="#e65a65"></stop></linearGradient><linearGradient gradientUnits="objectBoundingBox" id="linear-gradient-8" node-id="18" x1="279.514" x2="280.343" y1="-275.113" y2="-275.113"><stop offset="0" stop-color="#ff2f1d"></stop><stop offset="1" stop-color="#e38d6a"></stop></linearGradient><linearGradient gradientUnits="objectBoundingBox" id="linear-gradient-9" node-id="21" x1="426.031" x2="426.471" y1="-146.42" y2="-146.42"><stop offset="0" stop-color="#ff2f1d"></stop><stop offset="1" stop-color="#e38d6a"></stop></linearGradient><linearGradient gradientUnits="objectBoundingBox" id="linear-gradient-10" node-id="22" x1="90.626" x2="90.626" y1="-31.474" y2="-32.834"><stop offset="0" stop-color="#ff2f1d"></stop><stop offset="1" stop-color="#e38d6a"></stop></linearGradient><linearGradient gradientUnits="objectBoundingBox" id="linear-gradient-11" node-id="23" x1="170.423" x2="170.423" y1="-98.187" y2="-100.043"><stop offset="0" stop-color="#ff2f1d"></stop><stop offset="1" stop-color="#e38d6a"></stop></linearGradient><linearGradient gradientUnits="objectBoundingBox" id="linear-gradient-12" node-id="24" x1="-67.434" x2="-66.557" y1="-383.401" y2="-383.401"><stop offset="0" stop-color="#ff2f1d"></stop><stop offset="1" stop-color="#e38d6a"></stop></linearGradient><linearGradient gradientUnits="objectBoundingBox" id="linear-gradient-13" node-id="25" x1="-135.26" x2="-134.652" y1="-213.851" y2="-213.851"><stop offset="0" stop-color="#ff2f1d"></stop><stop offset="1" stop-color="#e38d6a"></stop></linearGradient><linearGradient gradientUnits="objectBoundingBox" id="linear-gradient-14" node-id="26" x1="-25.338" x2="-25.338" y1="-52.103" y2="-53.244"><stop offset="0" stop-color="#ff2f1d"></stop><stop offset="1" stop-color="#e38d6a"></stop></linearGradient><linearGradient gradientUnits="objectBoundingBox" id="linear-gradient-15" node-id="27" x1="-44.079" x2="-44.079" y1="-126.674" y2="-127.911"><stop offset="0" stop-color="#ff2f1d"></stop><stop offset="1" stop-color="#e38d6a"></stop></linearGradient><linearGradient gradientUnits="objectBoundingBox" id="linear-gradient-16" node-id="28" x1="142.914" x2="143.767" y1="-166.539" y2="-166.539"><stop offset="0" stop-color="#ff2f1d"></stop><stop offset="1" stop-color="#e38d6a"></stop></linearGradient><linearGradient gradientUnits="objectBoundingBox" id="linear-gradient-17" node-id="29" x1="180.004" x2="180.379" y1="-152.039" y2="-152.039"><stop offset="0" stop-color="#ff2f1d"></stop><stop offset="1" stop-color="#e38d6a"></stop></linearGradient><linearGradient gradientUnits="objectBoundingBox" id="linear-gradient-18" node-id="30" x1="40.809" x2="40.809" y1="-27.379" y2="-29.121"><stop offset="0" stop-color="#ff2f1d"></stop><stop offset="1" stop-color="#e38d6a"></stop></linearGradient><linearGradient gradientUnits="objectBoundingBox" id="linear-gradient-19" node-id="31" x1="80.704" x2="80.704" y1="-91.031" y2="-93.559"><stop offset="0" stop-color="#ff2f1d"></stop><stop offset="1" stop-color="#e38d6a"></stop></linearGradient><linearGradient gradientUnits="objectBoundingBox" id="linear-gradient-20" node-id="32" x1="55.326" x2="55.326" y1="5.326" y2="4.394"><stop offset="0" stop-color="#e6beb5"></stop><stop offset="1" stop-color="#e6646f"></stop></linearGradient><linearGradient gradientUnits="objectBoundingBox" id="linear-gradient-21" node-id="33" x1="16.636" x2="16.636" y1="-13.815" y2="-14.856"><stop offset="0" stop-color="#e6beb5"></stop><stop offset="1" stop-color="#e65a65"></stop></linearGradient><linearGradient gradientUnits="objectBoundingBox" id="linear-gradient-22" node-id="34" x1="103.628" x2="103.628" y1="6.897" y2="5.951"><stop offset="0" stop-color="#e6beb5"></stop><stop offset="1" stop-color="#e65a65"></stop></linearGradient></defs><g clip-path="url(#clip-path)" id="组_159" node-id="35"><path d="M 18.85 -30.96 L 221.95 3.95 L 184.97 219.07 L -18.13 184.15 Z" fill="url(#linear-gradient)" fill-rule="nonzero" id="矩形_34" node-id="36" stroke-linecap="butt" stroke-width="0.99999994" target-height="250.0301" target-width="240.07826" target-x="-18.127272" target-y="-30.962"></path><text align="center" editable="true" ellipsis="false" fill="#4f9352" flags="1" font-family="'Noto Sans CJK SC'" font-size="9" font-stretch="normal" font-style="normal" font-weight="400" height="13.32" hidden="true" id="小暑_" letter-spacing="0" node-id="38" stroke="none" target-x="145.391" target-y="57.298" visibility="hidden" width="27" x="145.391" xml:space="preserve" y="67.738">小暑。</text><path d="M 173.58 59.13 L 173.58 56.96 L 173.58 56.96 L 173.58 56.21 L 170.67 56.21 L 170.67 56.96 L 172.83 56.96 L 172.83 59.13 Z" fill="#4f9352" fill-rule="nonzero" hidden="true" id="路径_1515" node-id="41" stroke-linecap="butt" stroke-width="1" target-height="2.9179688" target-width="2.9169922" target-x="170.66595" target-y="56.214966" visibility="hidden"></path><path d="M 25.24 77.14 L 34.38 74.23 L 33.55 72.31 L 32.54 70.43 L 30.92 67.95 L 28.93 65.55 L 26.33 63.23 L 24.36 61.94 L 22.12 60.93 L 19.57 60.22 L 16.94 59.95 L 13.94 60.18 L 10.46 61.01 L 7.98 62.00 L 5.75 63.32 L 3.72 64.96 L 1.97 66.88 L 0.53 69.04 L -0.61 71.45 L -1.35 74.26 L -1.56 76.89 L -1.27 79.39 L -0.50 81.79 L 0.69 83.98 L 2.34 86.00 L 4.32 87.70 L 6.69 89.12 L 9.50 90.25 L 12.45 90.96 L 15.77 91.27 L 19.51 91.14 L 21.99 90.68 L 24.18 89.95 L 26.11 88.97 L 28.72 87.14 L 30.74 85.21 L 32.42 83.19 L 33.48 81.65 L 34.38 80.06 Z" fill="#65ab63" fill-rule="nonzero" group-id="1" id="路径_1516" node-id="43" stroke-linecap="butt" stroke-width="1" target-height="31.322998" target-width="35.937927" target-x="-1.5579224" target-y="59.9458"></path><path d="M 5.41 60.25 L 7.15 59.46 L 8.97 58.77 L 11.52 58.03 L 14.26 57.53 L 17.23 57.40 L 19.22 57.60 L 21.14 58.12 L 23.01 58.98" fill-opacity="0.5" fill-rule="nonzero" group-id="1,16" id="路径_1517" node-id="44" stroke="#ffffff" stroke-linecap="butt" stroke-opacity="0.5" stroke-width="2" target-height="2.8521729" target-width="17.600006" target-x="5.4119873" target-y="57.398804"></path><path d="M 7.10 56.19 L 8.49 55.55 L 11.99 54.41 L 14.18 54.01 L 16.56 53.91 L 18.92 54.24 L 21.18 55.17" fill-opacity="0.5" fill-rule="nonzero" group-id="1,17" id="路径_1518" node-id="45" stroke="#ffffff" stroke-linecap="butt" stroke-opacity="0.5" stroke-width="2" target-height="2.2810059" target-width="14.082001" target-x="7.1019897" target-y="53.90503"></path><path d="M 115.90 79.66 L 118.21 72.76 L 116.57 72.26 L 114.86 71.88 L 112.48 71.56 L 109.96 71.50 L 107.24 71.84 L 105.47 72.34 L 103.77 73.14 L 102.12 74.28 L 100.73 75.69 L 99.49 77.58 L 98.42 80.07 L 97.94 82.13 L 97.78 84.18 L 97.92 86.24 L 98.37 88.25 L 99.12 90.17 L 100.17 92.00 L 101.70 93.91 L 103.34 95.40 L 105.11 96.51 L 107.03 97.28 L 109.06 97.71 L 111.08 97.78 L 113.13 97.48 L 115.24 96.79 L 117.17 95.79 L 119.01 94.40 L 120.77 92.59 L 122.46 90.28 L 123.60 87.75 L 124.09 85.26 L 124.09 82.78 L 123.76 80.58 L 123.21 78.55 L 122.68 77.12 L 122.06 75.77 Z" fill="#65ab63" fill-rule="nonzero" group-id="2" id="路径_1519" node-id="47" stroke-linecap="butt" stroke-width="1" target-height="26.275024" target-width="26.31488" target-x="97.77637" target-y="71.50037"></path><path d="M 95.58 82.66 L 95.87 81.22 L 96.96 77.90 L 97.90 76.02 L 99.19 74.19 L 100.83 72.67 L 102.91 71.60" fill-opacity="0.5" fill-rule="nonzero" group-id="2,18" id="路径_1520" node-id="48" stroke="#ffffff" stroke-linecap="butt" stroke-opacity="0.5" stroke-width="2" target-height="11.057983" target-width="7.325012" target-x="95.58496" target-y="71.59802"></path><path d="M 93.69 79.56 L 93.92 78.41 L 94.79 75.75 L 95.54 74.25 L 96.57 72.79 L 97.88 71.57 L 99.55 70.71" fill-opacity="0.5" fill-rule="nonzero" group-id="2,19" id="路径_1521" node-id="49" stroke="#ffffff" stroke-linecap="butt" stroke-opacity="0.5" stroke-width="2" target-height="8.846069" target-width="5.859009" target-x="93.69098" target-y="70.712036"></path><path d="M 179.90 172.16 L 182.21 165.26 L 180.57 164.76 L 178.86 164.38 L 176.48 164.06 L 173.96 164.00 L 171.24 164.34 L 169.47 164.84 L 167.77 165.64 L 166.12 166.78 L 164.73 168.19 L 163.49 170.08 L 162.42 172.57 L 161.94 174.63 L 161.78 176.68 L 161.92 178.74 L 162.37 180.75 L 163.12 182.67 L 164.17 184.50 L 165.70 186.41 L 167.34 187.90 L 169.11 189.01 L 171.03 189.78 L 173.06 190.21 L 175.08 190.28 L 177.13 189.98 L 179.24 189.29 L 181.17 188.29 L 183.01 186.91 L 184.77 185.09 L 186.46 182.78 L 187.61 180.25 L 188.09 177.76 L 188.09 175.28 L 187.76 173.08 L 187.21 171.05 L 186.68 169.62 L 186.06 168.27 Z" fill="#65ab63" fill-rule="nonzero" group-id="3" id="路径_1522" node-id="51" stroke-linecap="butt" stroke-width="1" target-height="26.275146" target-width="26.31549" target-x="161.77667" target-y="164.0011"></path><path d="M 159.58 175.16 L 159.87 173.72 L 160.96 170.40 L 161.90 168.52 L 163.19 166.69 L 164.83 165.17 L 166.91 164.10" fill-opacity="0.5" fill-rule="nonzero" group-id="3,20" id="路径_1523" node-id="52" stroke="#ffffff" stroke-linecap="butt" stroke-opacity="0.5" stroke-width="2" target-height="11.058105" target-width="7.325012" target-x="159.58496" target-y="164.09802"></path><path d="M 157.69 172.06 L 157.92 170.91 L 158.79 168.25 L 159.54 166.75 L 160.57 165.29 L 161.88 164.07 L 163.55 163.21" fill-opacity="0.5" fill-rule="nonzero" group-id="3,21" id="路径_1524" node-id="53" stroke="#ffffff" stroke-linecap="butt" stroke-opacity="0.5" stroke-width="2" target-height="8.845947" target-width="5.859009" target-x="157.69098" target-y="163.21204"></path><path d="M 65.74 189.78 L 68.05 182.88 L 66.40 182.38 L 64.69 182.00 L 62.31 181.68 L 59.79 181.62 L 57.07 181.96 L 55.30 182.46 L 53.60 183.26 L 51.96 184.40 L 50.56 185.81 L 49.33 187.70 L 48.26 190.19 L 47.78 192.25 L 47.61 194.30 L 47.76 196.36 L 48.21 198.37 L 48.95 200.29 L 50.00 202.12 L 51.53 204.03 L 53.18 205.52 L 54.95 206.63 L 56.86 207.40 L 58.89 207.83 L 60.92 207.90 L 62.97 207.60 L 65.08 206.91 L 67.01 205.91 L 68.85 204.52 L 70.61 202.71 L 72.29 200.40 L 73.44 197.87 L 73.92 195.38 L 73.93 192.90 L 73.60 190.70 L 73.05 188.67 L 72.52 187.24 L 71.89 185.89 Z" fill="#65ab63" fill-rule="nonzero" group-id="4" id="路径_1525" node-id="55" stroke-linecap="butt" stroke-width="1" target-height="26.275146" target-width="26.315582" target-x="47.611694" target-y="181.62012"></path><path d="M 45.42 192.78 L 45.70 191.34 L 46.79 188.02 L 47.73 186.14 L 49.02 184.31 L 50.66 182.79 L 52.74 181.72" fill-opacity="0.5" fill-rule="nonzero" group-id="4,22" id="路径_1526" node-id="56" stroke="#ffffff" stroke-linecap="butt" stroke-opacity="0.5" stroke-width="2" target-height="11.057861" target-width="7.325012" target-x="45.418976" target-y="181.71802"></path><path d="M 43.53 189.68 L 43.76 188.53 L 44.63 185.87 L 45.38 184.37 L 46.41 182.91 L 47.72 181.69 L 49.39 180.83" fill-opacity="0.5" fill-rule="nonzero" group-id="4,23" id="路径_1527" node-id="57" stroke="#ffffff" stroke-linecap="butt" stroke-opacity="0.5" stroke-width="2" target-height="8.845947" target-width="5.859009" target-x="43.52899" target-y="180.83301"></path><path d="M 96.11 10.74 L 98.46 17.63 L 100.07 17.03 L 101.66 16.29 L 103.75 15.10 L 105.79 13.62 L 107.74 11.70 L 108.85 10.22 L 109.70 8.55 L 110.32 6.65 L 110.57 4.68 L 110.41 2.43 L 109.74 -0.20 L 108.88 -2.13 L 107.76 -3.85 L 106.40 -5.40 L 104.81 -6.73 L 103.06 -7.80 L 101.11 -8.62 L 98.74 -9.20 L 96.53 -9.38 L 94.44 -9.19 L 92.46 -8.64 L 90.58 -7.75 L 88.93 -6.57 L 87.49 -5.09 L 86.23 -3.27 L 85.30 -1.30 L 84.68 0.92 L 84.39 3.43 L 84.45 6.29 L 85.08 9.00 L 86.20 11.27 L 87.71 13.24 L 89.30 14.79 L 90.98 16.07 L 92.26 16.88 L 93.58 17.57 Z" fill="#65ab63" fill-rule="nonzero" group-id="5" id="路径_1528" node-id="59" stroke-linecap="butt" stroke-width="1" target-height="27.01355" target-width="26.187256" target-x="84.38721" target-y="-9.382568"></path><path d="M 110.43 -3.98 L 111.07 -2.66 L 112.23 0.63 L 112.62 2.70 L 112.70 4.93 L 112.33 7.13 L 111.33 9.26" fill-opacity="0.5" fill-rule="nonzero" group-id="5,24" id="路径_1529" node-id="60" stroke="#ffffff" stroke-linecap="butt" stroke-opacity="0.5" stroke-width="2" target-height="13.234009" target-width="2.2781372" target-x="110.42505" target-y="-3.9779053"></path><path d="M 113.81 -2.67 L 114.33 -1.61 L 115.25 1.02 L 115.57 2.67 L 115.63 4.46 L 115.33 6.22 L 114.53 7.92" fill-opacity="0.5" fill-rule="nonzero" group-id="5,25" id="路径_1530" node-id="61" stroke="#ffffff" stroke-linecap="butt" stroke-opacity="0.5" stroke-width="2" target-height="10.5859375" target-width="1.8217163" target-x="113.81305" target-y="-2.66687"></path><path d="M 42.98 167.71 L 41.71 167.95 L 40.53 168.29 L 39.25 168.86 L 38.18 169.67 L 37.60 170.72 L 37.41 171.83 L 37.28 173.87 L 37.35 176.16 L 37.74 179.09 L 38.50 182.13 L 39.82 185.53 L 41.67 188.86 L 44.34 192.33 L 42.82 193.37 L 41.53 191.24 L 38.81 185.78 L 37.44 182.31 L 36.32 178.45 L 35.82 175.80 L 35.63 173.21 L 35.75 170.68 L 36.27 168.23 L 37.27 165.99 L 38.79 163.90 L 39.58 163.54 L 40.32 163.73 L 41.01 164.29 L 41.67 165.13 L 42.62 166.86 L 42.98 167.71 Z" fill="#83bd6f" fill-rule="nonzero" group-id="6" id="路径_1531" node-id="63" stroke-linecap="butt" stroke-width="1" target-height="29.829102" target-width="8.70462" target-x="35.6344" target-y="163.5437"></path><path d="M 42.65 151.67 L 41.47 152.44 L 40.41 153.34 L 39.18 154.75 L 38.21 156.43 L 37.61 158.60 L 37.54 160.12 L 37.85 161.90 L 38.60 164.00 L 40.37 166.34 L 42.12 168.05 L 43.88 169.24 L 45.65 169.97 L 47.53 170.27 L 49.53 170.10 L 51.72 169.40 L 54.17 168.06 Z" fill="#83bd6f" fill-rule="nonzero" group-id="6" id="路径_1532" node-id="64" stroke-linecap="butt" stroke-width="1" target-height="18.600098" target-width="16.629211" target-x="37.54178" target-y="151.6748"></path><path d="M 51.94 155.24 L 50.86 154.02 L 49.60 153.04 L 48.16 152.29 L 45.49 151.44 L 44.14 151.28 L 43.08 151.44 L 42.53 151.76 L 42.16 152.30 L 41.97 153.15 L 42.09 154.58 L 42.64 156.65 L 43.47 158.81 L 44.61 161.15 L 45.97 163.40 L 47.47 165.39 L 49.16 167.06 L 50.79 168.11 L 51.95 168.47 L 53.06 168.45 L 54.17 168.05 L 55.09 167.33 L 55.69 166.49 L 55.99 165.51 L 56.03 163.89 L 55.63 162.04 L 54.91 160.20 L 53.97 158.38 L 51.94 155.24 Z" fill="#65ab63" fill-rule="nonzero" group-id="6" id="路径_1533" node-id="65" stroke-linecap="butt" stroke-width="1" target-height="17.187256" target-width="14.066162" target-x="41.96701" target-y="151.28125"></path><path d="M 51.48 155.74 L 49.99 154.17 L 48.15 153.06 L 45.78 152.23 L 44.58 152.05 L 43.65 152.17 L 43.00 152.65 L 42.71 153.68 L 42.93 155.32 L 43.75 157.81 L 44.93 160.36 L 46.45 162.94 L 48.25 165.25 L 50.05 166.85 L 51.37 167.53 L 52.58 167.67 L 53.77 167.32 L 54.57 166.69 L 55.07 165.95 L 55.32 165.07 L 55.31 163.61 L 54.90 161.93 L 54.22 160.25 L 53.34 158.59 L 51.48 155.74 Z" fill="#8ecc76" fill-rule="nonzero" group-id="6" id="路径_1534" node-id="66" stroke-linecap="butt" stroke-width="1" target-height="15.616211" target-width="12.609985" target-x="42.709015" target-y="152.05127"></path><path d="M 46.40 154.44 L 46.40 154.44 L 46.18 154.40 L 45.98 154.10 L 46.02 153.88 L 46.02 153.88 L 46.23 153.92 L 46.44 154.23 L 46.40 154.44 Z" fill="#488657" fill-rule="nonzero" group-id="6" id="矩形_35" node-id="67" stroke-linecap="butt" stroke-width="1" target-height="0.5553131" target-width="0.45867538" target-x="45.976597" target-y="153.88414"></path><path d="M 48.45 156.05 L 48.45 156.05 L 48.23 156.01 L 48.03 155.71 L 48.07 155.49 L 48.07 155.49 L 48.28 155.54 L 48.49 155.84 L 48.45 156.05 Z" fill="#488657" fill-rule="nonzero" group-id="6" id="矩形_36" node-id="68" stroke-linecap="butt" stroke-width="0.9996224" target-height="0.5550842" target-width="0.45851517" target-x="48.02978" target-y="155.49435"></path><path d="M 49.55 158.20 L 49.55 158.20 L 49.33 158.16 L 49.13 157.86 L 49.17 157.65 L 49.17 157.65 L 49.38 157.69 L 49.59 157.99 L 49.55 158.20 Z" fill="#488657" fill-rule="nonzero" group-id="6" id="矩形_37" node-id="69" stroke-linecap="butt" stroke-width="1" target-height="0.5553131" target-width="0.45867538" target-x="49.126595" target-y="157.64914"></path><path d="M 48.89 154.53 L 48.89 154.53 L 48.68 154.49 L 48.47 154.18 L 48.51 153.97 L 48.51 153.97 L 48.73 154.01 L 48.93 154.31 L 48.89 154.53 Z" fill="#488657" fill-rule="nonzero" group-id="6" id="矩形_38" node-id="70" stroke-linecap="butt" stroke-width="0.9996224" target-height="0.5550842" target-width="0.45851517" target-x="48.47478" target-y="153.97134"></path><path d="M 46.71 156.01 L 46.71 156.01 L 46.50 155.97 L 46.29 155.67 L 46.33 155.46 L 46.33 155.46 L 46.55 155.50 L 46.75 155.80 L 46.71 156.01 Z" fill="#488657" fill-rule="nonzero" group-id="6" id="矩形_39" node-id="71" stroke-linecap="butt" stroke-width="0.9996224" target-height="0.5550842" target-width="0.45851517" target-x="46.29378" target-y="155.45735"></path><path d="M 45.80 159.12 L 45.80 159.12 L 45.59 159.08 L 45.38 158.78 L 45.42 158.57 L 45.42 158.57 L 45.63 158.61 L 45.84 158.91 L 45.80 159.12 Z" fill="#488657" fill-rule="nonzero" group-id="6" id="矩形_40" node-id="72" stroke-linecap="butt" stroke-width="1" target-height="0.5553131" target-width="0.45867538" target-x="45.380596" target-y="158.56514"></path><path d="M 47.56 159.56 L 47.56 159.56 L 47.35 159.52 L 47.14 159.22 L 47.18 159.00 L 47.18 159.00 L 47.40 159.04 L 47.60 159.34 L 47.56 159.56 Z" fill="#488657" fill-rule="nonzero" group-id="6" id="矩形_41" node-id="73" stroke-linecap="butt" stroke-width="1" target-height="0.5553131" target-width="0.45867538" target-x="47.141594" target-y="159.00214"></path><path d="M 45.89 157.38 L 45.89 157.38 L 45.68 157.34 L 45.47 157.04 L 45.51 156.83 L 45.51 156.83 L 45.73 156.87 L 45.93 157.17 L 45.89 157.38 Z" fill="#488657" fill-rule="nonzero" group-id="6" id="矩形_42" node-id="74" stroke-linecap="butt" stroke-width="1" target-height="0.5553131" target-width="0.45867538" target-x="45.474594" target-y="156.82814"></path><path d="M 47.62 157.88 L 47.62 157.88 L 47.40 157.84 L 47.20 157.54 L 47.24 157.33 L 47.24 157.33 L 47.45 157.37 L 47.66 157.67 L 47.62 157.88 Z" fill="#488657" fill-rule="nonzero" group-id="6" id="矩形_43" node-id="75" stroke-linecap="butt" stroke-width="1" target-height="0.5553131" target-width="0.45867538" target-x="47.196594" target-y="157.32814"></path><path d="M 50.91 160.48 L 50.91 160.48 L 50.70 160.44 L 50.49 160.14 L 50.53 159.93 L 50.53 159.93 L 50.75 159.97 L 50.95 160.27 L 50.91 160.48 Z" fill="#488657" fill-rule="nonzero" group-id="6" id="矩形_44" node-id="76" stroke-linecap="butt" stroke-width="1" target-height="0.5553131" target-width="0.45867538" target-x="50.491596" target-y="159.92514"></path><path d="M 49.07 164.20 L 49.07 164.20 L 48.86 164.16 L 48.65 163.85 L 48.69 163.64 L 48.69 163.64 L 48.91 163.68 L 49.11 163.98 L 49.07 164.20 Z" fill="#488657" fill-rule="nonzero" group-id="6" id="矩形_45" node-id="77" stroke-linecap="butt" stroke-width="0.9996224" target-height="0.5550842" target-width="0.45851517" target-x="48.65378" target-y="163.64134"></path><path d="M 48.58 160.13 L 48.58 160.13 L 48.37 160.09 L 48.17 159.79 L 48.21 159.57 L 48.21 159.57 L 48.42 159.61 L 48.62 159.91 L 48.58 160.13 Z" fill="#488657" fill-rule="nonzero" group-id="6" id="矩形_46" node-id="78" stroke-linecap="butt" stroke-width="0.9996224" target-height="0.5550842" target-width="0.45851517" target-x="48.165783" target-y="159.57335"></path><path d="M 47.74 162.24 L 47.74 162.24 L 47.52 162.20 L 47.32 161.90 L 47.36 161.68 L 47.36 161.68 L 47.57 161.72 L 47.78 162.02 L 47.74 162.24 Z" fill="#488657" fill-rule="nonzero" group-id="6" id="矩形_47" node-id="79" stroke-linecap="butt" stroke-width="1" target-height="0.5553131" target-width="0.45867538" target-x="47.318596" target-y="161.68213"></path><path d="M 52.84 163.31 L 52.84 163.31 L 52.63 163.27 L 52.42 162.97 L 52.46 162.76 L 52.46 162.76 L 52.68 162.80 L 52.88 163.10 L 52.84 163.31 Z" fill="#488657" fill-rule="nonzero" group-id="6" id="矩形_48" node-id="80" stroke-linecap="butt" stroke-width="1" target-height="0.5553131" target-width="0.45867538" target-x="52.421597" target-y="162.75714"></path><path d="M 52.30 165.58 L 52.30 165.58 L 52.09 165.54 L 51.88 165.24 L 51.92 165.03 L 51.92 165.03 L 52.14 165.07 L 52.34 165.37 L 52.30 165.58 Z" fill="#488657" fill-rule="nonzero" group-id="6" id="矩形_49" node-id="81" stroke-linecap="butt" stroke-width="1" target-height="0.5553131" target-width="0.45867538" target-x="51.882595" target-y="165.02713"></path><path d="M 54.01 165.29 L 54.01 165.29 L 53.79 165.25 L 53.59 164.95 L 53.63 164.74 L 53.63 164.74 L 53.84 164.78 L 54.05 165.08 L 54.01 165.29 Z" fill="#488657" fill-rule="nonzero" group-id="6" id="矩形_50" node-id="82" stroke-linecap="butt" stroke-width="0.9996224" target-height="0.5550842" target-width="0.45851517" target-x="53.58678" target-y="164.73935"></path><path d="M 44.19 155.54 L 44.19 155.54 L 43.98 155.49 L 43.77 155.19 L 43.81 154.98 L 43.81 154.98 L 44.03 155.02 L 44.23 155.32 L 44.19 155.54 Z" fill="#488657" fill-rule="nonzero" group-id="6" id="矩形_51" node-id="83" stroke-linecap="butt" stroke-width="0.9996224" target-height="0.5550842" target-width="0.45851517" target-x="43.773785" target-y="154.98035"></path><path d="M 50.18 156.14 L 50.18 156.14 L 49.96 156.10 L 49.76 155.80 L 49.80 155.58 L 49.80 155.58 L 50.01 155.62 L 50.22 155.92 L 50.18 156.14 Z" fill="#488657" fill-rule="nonzero" group-id="6" id="矩形_52" node-id="84" stroke-linecap="butt" stroke-width="1" target-height="0.5553131" target-width="0.45867538" target-x="49.758595" target-y="155.58214"></path><path d="M 51.89 158.37 L 51.89 158.37 L 51.67 158.33 L 51.47 158.03 L 51.51 157.82 L 51.51 157.82 L 51.72 157.86 L 51.93 158.16 L 51.89 158.37 Z" fill="#488657" fill-rule="nonzero" group-id="6" id="矩形_53" node-id="85" stroke-linecap="butt" stroke-width="0.9996224" target-height="0.5550842" target-width="0.45851517" target-x="51.468784" target-y="157.81834"></path><path d="M 53.13 161.02 L 53.13 161.02 L 52.92 160.98 L 52.72 160.68 L 52.76 160.47 L 52.76 160.47 L 52.97 160.51 L 53.17 160.81 L 53.13 161.02 Z" fill="#488657" fill-rule="nonzero" group-id="6" id="矩形_54" node-id="86" stroke-linecap="butt" stroke-width="1" target-height="0.5553131" target-width="0.45867538" target-x="52.715595" target-y="160.46614"></path><path d="M 50.57 162.77 L 50.57 162.77 L 50.36 162.73 L 50.15 162.43 L 50.19 162.21 L 50.19 162.21 L 50.40 162.26 L 50.61 162.56 L 50.57 162.77 Z" fill="#488657" fill-rule="nonzero" group-id="6" id="矩形_55" node-id="87" stroke-linecap="butt" stroke-width="0.9996224" target-height="0.5550842" target-width="0.45851517" target-x="50.150784" target-y="162.21436"></path><path d="M 54.36 163.09 L 54.36 163.09 L 54.14 163.05 L 53.94 162.75 L 53.98 162.54 L 53.98 162.54 L 54.19 162.58 L 54.40 162.88 L 54.36 163.09 Z" fill="#488657" fill-rule="nonzero" group-id="6" id="矩形_56" node-id="88" stroke-linecap="butt" stroke-width="0.9996224" target-height="0.5550842" target-width="0.45851517" target-x="53.939785" target-y="162.53534"></path><path d="M 50.98 164.58 L 50.98 164.58 L 50.77 164.54 L 50.56 164.24 L 50.60 164.02 L 50.60 164.02 L 50.82 164.06 L 51.02 164.36 L 50.98 164.58 Z" fill="#488657" fill-rule="nonzero" group-id="6" id="矩形_57" node-id="89" stroke-linecap="butt" stroke-width="1" target-height="0.5553131" target-width="0.45867538" target-x="50.563595" target-y="164.02313"></path><path d="M 51.21 166.38 L 51.21 166.38 L 51.00 166.34 L 50.79 166.04 L 50.83 165.83 L 50.83 165.83 L 51.05 165.87 L 51.25 166.17 L 51.21 166.38 Z" fill="#488657" fill-rule="nonzero" group-id="6" id="矩形_58" node-id="90" stroke-linecap="butt" stroke-width="1" target-height="0.5553131" target-width="0.45867538" target-x="50.794594" target-y="165.82814"></path><path d="M 49.10 161.82 L 49.10 161.82 L 48.89 161.78 L 48.68 161.47 L 48.72 161.26 L 48.72 161.26 L 48.94 161.30 L 49.14 161.60 L 49.10 161.82 Z" fill="#488657" fill-rule="nonzero" group-id="6" id="矩形_59" node-id="91" stroke-linecap="butt" stroke-width="0.9996224" target-height="0.5550842" target-width="0.45851517" target-x="48.68178" target-y="161.26135"></path><path d="M 124.25 192.72 L 124.45 195.40 L 124.95 198.17 L 126.12 202.17 L 127.20 204.87 L 128.74 207.84 L 130.81 211.11 L 132.23 210.19 L 131.12 209.00 L 130.08 207.64 L 128.74 205.46 L 127.55 202.95 L 126.49 199.67 L 126.03 197.35 L 125.79 194.71 L 125.82 191.70 Z" fill="#83bd6f" fill-rule="nonzero" group-id="7" id="路径_1535" node-id="93" stroke-linecap="butt" stroke-width="1" target-height="19.40503" target-width="7.983032" target-x="124.24896" target-y="191.7041"></path><path d="M 100.55 181.26 L 100.75 180.39 L 101.09 179.54 L 101.76 178.40 L 102.70 177.31 L 104.15 176.21 L 105.93 175.37 L 108.50 174.75 L 110.97 174.27 L 112.27 173.84 L 113.26 173.29 L 113.79 172.83 L 114.88 171.94 L 115.70 171.64 L 117.37 171.38 L 119.01 170.98 L 119.93 170.36 L 121.25 168.66 L 122.00 167.92 L 123.23 167.35 L 124.84 167.18 L 127.77 167.51 L 131.83 168.09 L 134.61 168.25 L 138.68 168.29 L 140.06 168.59 L 141.15 169.34 L 141.28 169.78 L 141.01 170.48 L 140.00 171.69 L 138.14 173.37 L 135.46 175.47 L 129.64 179.56 L 124.60 182.83 L 122.46 184.17 L 102.83 181.27 Z" fill="#65ab63" fill-rule="nonzero" group-id="7" id="路径_1536" node-id="94" stroke-linecap="butt" stroke-width="1" target-height="16.996338" target-width="40.732056" target-x="100.547" target-y="167.17676"></path><path d="M 100.00 182.60 L 100.44 181.49 L 100.97 180.46 L 101.77 179.34 L 102.78 178.44 L 104.00 177.97 L 104.86 177.96 L 105.89 178.31 L 107.15 179.15 L 108.91 180.37 L 110.07 180.77 L 111.15 180.73 L 112.07 180.35 L 113.92 179.19 L 114.97 178.74 L 116.33 178.58 L 119.37 178.59 L 120.49 178.38 L 121.69 177.90 L 124.96 175.86 L 126.56 175.01 L 127.92 174.64 L 130.73 174.39 L 132.21 174.17 L 133.99 173.60 L 135.82 172.64 L 138.26 170.78 L 139.69 169.84 L 141.17 169.32 L 142.74 169.19 L 145.11 169.56 L 147.40 170.50 L 149.45 171.87 L 151.02 173.43 L 151.83 174.62 L 152.26 175.69 L 152.38 176.67 L 152.15 177.57 L 151.50 178.31 L 150.26 178.94 L 147.59 179.63 L 145.00 180.10 L 142.43 180.56 L 139.93 181.20 L 137.54 182.19 L 135.14 183.79 L 133.71 185.14 L 132.23 186.97 L 130.70 189.41 L 129.41 191.25 L 128.20 192.33 L 127.02 192.84 L 125.72 192.97 L 124.33 192.75 L 122.80 192.14 L 120.56 190.83 L 118.06 189.07 L 112.82 185.43 L 110.01 183.95 L 107.14 183.01 L 105.42 182.70 L 104.22 182.70 L 102.16 182.96 L 101.20 182.94 L 100.00 182.60 Z" fill="#83bd6f" fill-rule="nonzero" group-id="7" id="路径_1537" node-id="95" stroke-linecap="butt" stroke-width="1" target-height="23.7854" target-width="52.379456" target-x="100" target-y="169.18604"></path><path d="M 108.50 174.75 L 109.71 174.86 L 112.55 175.38 L 114.19 175.87 L 115.80 176.55 L 117.21 177.48 L 118.24 178.63" fill="none" group-id="7" id="路径_1538" node-id="96" stroke="#4f9352" stroke-linecap="butt" stroke-width="1" target-height="3.8850098" target-width="9.747986" target-x="108.49603" target-y="174.74805"></path><path d="M 115.00 171.88 L 116.53 172.55 L 117.95 173.35 L 119.55 174.56 L 120.89 176.06 L 121.70 177.89" fill="none" group-id="7" id="路径_1539" node-id="97" stroke="#4f9352" stroke-linecap="butt" stroke-width="1" target-height="6.013916" target-width="6.700012" target-x="115.00299" target-y="171.88013"></path><path d="M 123.72 167.26 L 123.52 168.78 L 123.46 170.30 L 123.59 172.22 L 124.05 174.12 L 124.96 175.86" fill="none" group-id="7" id="路径_1540" node-id="98" stroke="#4f9352" stroke-linecap="butt" stroke-width="1" target-height="8.600098" target-width="1.499939" target-x="123.45709" target-y="167.25684"></path><path d="M 128.45 174.56 L 128.26 173.21 L 128.32 171.92 L 128.77 170.42 L 129.31 169.52 L 130.21 168.74 L 131.55 168.06" fill="none" group-id="7" id="路径_1541" node-id="99" stroke="#4f9352" stroke-linecap="butt" stroke-width="1" target-height="6.5" target-width="3.2842407" target-x="128.26178" target-y="168.0581"></path><path d="M 137.17 171.68 L 137.38 170.61 L 137.88 169.68 L 138.64 168.94 L 139.62 168.45" fill="none" group-id="7" id="路径_1542" node-id="100" stroke="#4f9352" stroke-linecap="butt" stroke-width="1" target-height="3.2370605" target-width="2.4500122" target-x="137.16699" target-y="168.44604"></path><path d="M 125.22 192.94 L 124.18 192.13 L 122.78 190.77 L 119.98 187.61 L 117.69 184.76 L 116.73 183.52" fill="none" group-id="7" id="路径_1543" node-id="101" stroke="#4f9352" stroke-linecap="butt" stroke-width="1" target-height="9.419189" target-width="8.484985" target-x="116.73303" target-y="183.51782"></path><path d="M 131.47 185.32 L 130.48 186.32 L 128.29 188.63 L 126.09 191.23 L 125.29 192.43 L 125.05 193.11" fill="none" group-id="7" id="路径_1544" node-id="102" stroke="#4f9352" stroke-linecap="butt" stroke-width="1" target-height="7.7839355" target-width="6.4259644" target-x="125.048035" target-y="185.323"></path><path d="M 123.13 185.19 L 123.72 186.72 L 124.76 189.97 L 125.10 191.71 L 125.11 192.94" fill="none" group-id="7" id="路径_1545" node-id="103" stroke="#4f9352" stroke-linecap="butt" stroke-width="1" target-height="7.7470703" target-width="1.9790039" target-x="123.130005" target-y="185.18799"></path><path d="M 68.91 168.72 L 68.11 171.33 L 67.46 174.16 L 66.77 178.52 L 66.39 183.34 L 66.45 189.36 L 66.82 193.48 L 67.57 197.99 L 68.74 202.92 L 71.62 202.26 L 70.51 199.63 L 69.61 196.76 L 68.69 192.38 L 68.32 189.27 L 68.23 185.67 L 68.46 181.51 L 69.07 177.42 L 70.26 172.93 L 72.09 167.99 Z" fill="#83bd6f" fill-rule="nonzero" group-id="8" id="路径_1546" node-id="105" stroke-linecap="butt" stroke-width="1" target-height="34.93286" target-width="5.701996" target-x="66.390045" target-y="167.98706"></path><path d="M 36.72 135.71 L 37.58 134.41 L 38.64 133.21 L 40.43 131.73 L 42.61 130.50 L 45.66 129.55 L 47.85 129.25 L 50.49 129.29 L 53.69 129.74 L 57.25 130.34 L 59.49 130.51 L 61.40 130.40 L 62.57 130.13 L 64.42 129.34 L 65.29 129.03 L 66.51 128.87 L 67.94 128.97 L 70.32 129.48 L 72.74 129.83 L 74.39 129.60 L 75.85 128.98 L 77.09 128.17 L 78.32 127.33 L 79.70 126.65 L 81.27 126.33 L 83.50 126.54 L 85.98 127.36 L 89.76 129.32 L 94.56 131.95 L 98.29 133.68 L 104.36 136.00 L 106.70 136.89 L 108.37 137.72 L 109.71 138.81 L 110.69 140.32 L 110.69 141.00 L 110.11 141.83 L 108.50 142.93 L 105.61 144.28 L 101.37 145.84 L 96.77 147.28 L 91.68 148.71 L 81.81 151.19 L 74.14 152.93 L 71.06 153.59 L 40.47 137.10 Z" fill="#65ab63" fill-rule="nonzero" group-id="8" id="路径_1547" node-id="106" stroke-linecap="butt" stroke-width="1" target-height="27.25586" target-width="73.97302" target-x="36.72101" target-y="126.33411"></path><path d="M 35.02 137.60 L 35.93 136.53 L 38.31 134.33 L 39.87 133.29 L 41.61 132.53 L 42.82 132.27 L 44.04 132.31 L 45.31 132.64 L 46.44 133.28 L 47.61 134.41 L 48.86 136.19 L 50.57 138.73 L 51.96 140.10 L 53.45 140.94 L 54.82 141.20 L 56.23 141.10 L 57.69 140.78 L 60.77 140.19 L 62.42 140.23 L 64.31 140.73 L 68.25 142.24 L 69.83 142.67 L 71.32 142.88 L 72.86 142.87 L 74.84 142.61 L 80.14 141.39 L 82.68 140.97 L 84.74 141.00 L 86.71 141.35 L 88.59 141.86 L 92.62 142.87 L 94.91 143.09 L 97.80 142.94 L 100.92 142.33 L 105.08 140.97 L 107.51 140.33 L 109.83 140.21 L 112.08 140.59 L 114.26 141.38 L 116.30 142.50 L 118.23 143.95 L 120.77 146.52 L 122.81 149.38 L 124.31 152.43 L 125.10 155.23 L 125.23 157.09 L 124.98 158.60 L 124.39 159.84 L 123.44 160.78 L 122.03 161.37 L 119.96 161.57 L 116.10 161.23 L 112.42 160.65 L 105.21 159.43 L 101.62 159.12 L 97.92 159.22 L 95.48 159.58 L 92.90 160.28 L 90.15 161.34 L 87.54 162.70 L 84.67 164.59 L 81.50 167.12 L 78.82 169.09 L 76.56 170.18 L 74.61 170.59 L 72.63 170.47 L 70.76 169.87 L 68.93 168.74 L 66.44 166.45 L 63.87 163.30 L 58.84 155.97 L 56.16 152.14 L 53.26 148.48 L 51.15 146.21 L 48.91 144.24 L 46.52 142.54 L 44.52 141.32 L 42.93 140.61 L 40.06 139.85 L 37.54 139.20 L 36.35 138.61 L 35.02 137.60 Z" fill="#83bd6f" fill-rule="nonzero" group-id="8" id="路径_1548" node-id="107" stroke-linecap="butt" stroke-width="1" target-height="38.314697" target-width="90.210724" target-x="35.019012" target-y="132.27222"></path><path d="M 53.69 129.73 L 55.63 130.65 L 59.99 133.19 L 62.40 134.97 L 64.64 137.06 L 65.92 138.63 L 66.83 140.25 L 67.43 141.95" fill="none" group-id="8" id="路径_1549" node-id="108" stroke="#4f9352" stroke-linecap="butt" stroke-width="1" target-height="12.212891" target-width="13.730988" target-x="53.69403" target-y="129.73401"></path><path d="M 66.12 128.90 L 67.40 130.07 L 70.16 133.17 L 71.57 135.25 L 72.76 137.62 L 73.32 139.30 L 73.58 141.02 L 73.56 142.80" fill="none" group-id="8" id="路径_1550" node-id="109" stroke="#4f9352" stroke-linecap="butt" stroke-width="1" target-height="13.899902" target-width="7.4645386" target-x="66.11902" target-y="128.89697"></path><path d="M 83.24 126.49 L 82.48 127.89 L 80.95 131.45 L 80.26 133.73 L 79.79 136.27 L 79.71 138.85 L 80.14 141.39" fill="none" group-id="8" id="路径_1551" node-id="110" stroke="#4f9352" stroke-linecap="butt" stroke-width="1" target-height="14.900024" target-width="3.5357666" target-x="79.70621" target-y="126.48999"></path><path d="M 86.65 141.33 L 86.90 139.93 L 87.30 138.57 L 88.06 136.85 L 89.16 135.24 L 90.77 133.80 L 92.04 133.10 L 93.64 132.65 L 95.64 132.48" fill="none" group-id="8" id="路径_1552" node-id="111" stroke="#4f9352" stroke-linecap="butt" stroke-width="1" target-height="8.851074" target-width="8.991028" target-x="86.652985" target-y="132.48389"></path><path d="M 102.73 141.80 L 103.18 140.87 L 103.81 140.04 L 104.96 139.07 L 106.44 138.36 L 108.69 137.93" fill="none" group-id="8" id="路径_1553" node-id="112" stroke="#4f9352" stroke-linecap="butt" stroke-width="1" target-height="3.86792" target-width="5.964966" target-x="102.72803" target-y="137.93091"></path><path d="M 70.37 169.66 L 69.38 168.15 L 68.21 165.87 L 65.98 160.56 L 63.99 155.09 L 62.57 150.82 L 62.02 149.09" fill="none" group-id="8" id="路径_1554" node-id="113" stroke="#4f9352" stroke-linecap="butt" stroke-width="1" target-height="20.571045" target-width="8.351013" target-x="62.020996" target-y="149.09106"></path><path d="M 85.22 160.86 L 83.74 161.56 L 80.17 163.30 L 75.82 165.59 L 71.99 167.94 L 70.57 169.08 L 69.99 169.85" fill="none" group-id="8" id="路径_1555" node-id="114" stroke="#4f9352" stroke-linecap="butt" stroke-width="1" target-height="8.98291" target-width="15.225037" target-x="69.991" target-y="160.86401"></path><path d="M 71.55 155.66 L 71.60 157.37 L 71.57 161.38 L 71.19 166.01 L 70.75 168.14 L 70.18 169.59" fill="none" group-id="8" id="路径_1556" node-id="115" stroke="#4f9352" stroke-linecap="butt" stroke-width="1" target-height="13.936035" target-width="1.4176025" target-x="70.181" target-y="155.656"></path><path d="M 87.65 187.05 L 86.26 190.54 L 84.87 194.41 L 82.91 200.55 L 80.97 207.47 L 78.85 216.39 L 76.99 225.98 L 75.33 237.35 L 77.24 237.62 L 77.41 234.78 L 78.24 227.09 L 79.03 222.00 L 80.25 215.78 L 81.81 209.31 L 83.92 202.12 L 86.51 194.88 L 89.76 187.35 Z" fill="#83bd6f" fill-rule="nonzero" group-id="9" id="路径_1557" node-id="117" stroke-linecap="butt" stroke-width="1" target-height="50.57202" target-width="14.432007" target-x="75.32901" target-y="187.05005"></path><path d="M 101.79 144.58 L 99.78 146.48 L 94.91 151.52 L 92.01 154.84 L 88.94 158.72 L 86.08 162.83 L 83.62 167.09 L 82.26 170.05 L 81.30 172.89 L 80.71 175.65 L 80.57 178.41 L 80.99 180.97 L 81.97 183.40 L 83.04 185.00 L 84.54 186.53 L 86.54 187.99 L 89.15 189.38 L 92.12 189.73 L 94.60 189.67 L 96.67 189.26 L 98.41 188.54 L 100.51 187.08 L 102.21 185.18 L 103.54 182.78 L 104.48 180.15 L 105.15 177.22 L 105.53 173.94 L 105.66 168.96 L 105.37 163.86 L 104.78 158.83 L 104.04 154.38 L 102.52 147.34 L 101.79 144.58 Z" fill="url(#linear-gradient-2)" fill-rule="nonzero" group-id="9" id="路径_1558" node-id="118" stroke-linecap="butt" stroke-width="1" target-height="45.15039" target-width="25.087708" target-x="80.57327" target-y="144.58105"></path><path d="M 107.68 160.41 L 105.71 161.66 L 103.76 163.09 L 101.15 165.34 L 98.60 167.98 L 96.06 171.33 L 94.60 173.78 L 93.40 176.50 L 92.46 179.52 L 91.95 182.62 L 91.91 186.02 L 92.41 189.79 L 94.24 189.74 L 96.05 189.41 L 98.49 188.48 L 100.06 187.57 L 101.68 186.20 L 103.37 184.30 L 104.73 182.16 L 105.96 179.29 L 107.04 175.50 L 107.65 171.64 L 107.90 166.68 L 107.68 160.41 Z" fill="url(#linear-gradient-3)" fill-rule="nonzero" group-id="9" id="路径_1559" node-id="119" stroke-linecap="butt" stroke-width="1" target-height="29.383057" target-width="15.985901" target-x="91.914795" target-y="160.40503"></path><path d="M 89.58 154.71 L 90.53 156.84 L 91.35 159.12 L 92.27 162.43 L 92.92 166.05 L 93.18 170.25 L 93.03 173.09 L 92.52 176.02 L 91.62 179.05 L 90.32 181.92 L 88.46 184.77 L 85.96 187.62 L 84.47 186.57 L 83.15 185.29 L 81.63 183.16 L 80.83 181.53 L 80.24 179.49 L 79.90 176.97 L 79.95 174.44 L 80.52 171.37 L 81.73 167.62 L 83.37 164.06 L 85.92 159.80 L 89.58 154.71 Z" fill="url(#linear-gradient-4)" fill-rule="nonzero" group-id="9" id="路径_1560" node-id="120" stroke-linecap="butt" stroke-width="1" target-height="32.913086" target-width="13.280334" target-x="79.89737" target-y="154.70703"></path><path d="M 28.25 162.75 L 29.22 166.38 L 30.07 170.35 L 31.08 176.54 L 31.82 183.41 L 32.24 192.10 L 31.14 192.14 L 31.22 187.16 L 30.99 182.20 L 30.45 177.27 L 29.62 172.38 L 28.48 167.56 L 27.04 162.79 Z" fill="#83bd6f" fill-rule="nonzero" group-id="10" id="路径_1561" node-id="122" stroke-linecap="butt" stroke-width="1" target-height="29.392822" target-width="5.200012" target-x="27.036987" target-y="162.74512"></path><path d="M 22.77 137.74 L 24.13 139.35 L 27.24 143.47 L 28.97 146.12 L 30.60 149.06 L 31.93 152.11 L 32.72 155.04 L 32.90 156.99 L 32.69 158.75 L 32.11 160.37 L 31.13 161.74 L 29.57 162.95 L 27.27 163.98 L 24.71 163.91 L 22.83 163.39 L 21.45 162.50 L 20.36 161.23 L 19.57 159.67 L 19.09 157.77 L 18.86 154.73 L 19.10 151.36 L 19.67 147.98 L 20.43 144.84 L 22.00 139.77 L 22.77 137.74 Z" fill="url(#linear-gradient-5)" fill-rule="nonzero" group-id="10" id="路径_1562" node-id="123" stroke-linecap="butt" stroke-width="1" target-height="26.24292" target-width="14.040436" target-x="18.861176" target-y="137.73804"></path><path d="M 18.46 146.39 L 20.02 147.67 L 21.47 149.12 L 23.20 151.29 L 24.67 153.80 L 25.74 156.86 L 26.06 159.01 L 25.96 161.38 L 25.38 164.02 L 24.35 163.88 L 23.34 163.58 L 22.00 162.91 L 20.74 161.89 L 19.48 160.23 L 18.55 158.14 L 17.92 155.01 L 17.80 152.78 L 17.96 149.94 L 18.46 146.39 Z" fill="url(#linear-gradient-6)" fill-rule="nonzero" group-id="10" id="路径_1563" node-id="124" stroke-linecap="butt" stroke-width="1" target-height="17.63208" target-width="8.256683" target-x="17.803162" target-y="146.38794"></path><path d="M 29.10 144.23 L 28.13 146.00 L 27.32 147.88 L 26.51 150.53 L 26.07 153.41 L 26.21 156.65 L 26.70 158.77 L 27.67 160.94 L 29.18 163.17 L 30.09 162.67 L 30.92 162.01 L 31.91 160.89 L 32.71 159.49 L 33.27 157.48 L 33.36 155.19 L 32.79 152.05 L 32.07 149.93 L 30.88 147.35 L 29.10 144.23 Z" fill="url(#linear-gradient-7)" fill-rule="nonzero" group-id="10" id="路径_1564" node-id="125" stroke-linecap="butt" stroke-width="1" target-height="18.938965" target-width="7.282654" target-x="26.074036" target-y="144.23389"></path><path d="M 23.21 117.30 L 23.96 117.13 L 25.49 116.93 L 26.24 116.98 L 26.66 117.18 L 27.86 117.46 L 27.26 117.85 L 26.59 118.10 L 25.62 118.21 L 24.56 118.02 L 23.21 117.30 Z" fill="url(#linear-gradient-8)" fill-rule="nonzero" group-id="11,26" id="路径_1565" node-id="128" stroke-linecap="butt" stroke-width="1" target-height="1.27771" target-width="4.6569824" target-x="23.207" target-y="116.93213"></path><path d="M 27.33 113.98 L 27.01 113.13 L 26.61 112.45 L 26.08 111.99 L 26.74 112.28 L 28.07 113.10 L 28.70 113.70 L 29.12 114.39 Z" fill="url(#linear-gradient-9)" fill-rule="nonzero" group-id="11,26" id="路径_1566" node-id="129" stroke-linecap="butt" stroke-width="1" target-height="2.394043" target-width="3.040985" target-x="26.083008" target-y="111.99402"></path><path d="M 32.58 116.26 L 32.23 115.68 L 31.71 115.17 L 30.57 114.49 L 29.10 113.96 L 26.63 113.50 L 24.91 113.14 L 23.67 112.61 L 22.80 111.96 L 21.81 110.71 L 21.29 109.45 L 20.91 107.30 L 20.98 108.14 L 20.80 109.56 L 20.45 109.98 L 19.78 109.94 L 18.77 109.34 L 18.36 108.85 L 18.17 108.28 L 18.36 109.31 L 18.77 110.25 L 19.38 111.07 L 20.18 111.74 L 20.98 112.79 L 23.07 115.06 L 24.46 116.25 L 26.00 117.26 L 27.66 117.93 L 29.32 118.09 L 30.38 117.87 L 31.46 117.29 L 32.58 116.26 Z" fill="url(#linear-gradient-10)" fill-rule="nonzero" group-id="11,26" id="路径_1567" node-id="130" stroke-linecap="butt" stroke-width="1" target-height="10.7948" target-width="14.407013" target-x="18.169006" target-y="107.297"></path><path d="M 24.04 113.84 L 25.12 114.02 L 27.52 114.45 L 30.00 114.91 L 31.28 115.22 L 31.60 115.72 L 31.64 116.31 L 31.41 116.86 L 30.96 117.24 L 30.28 117.38 L 29.10 117.25 L 26.72 116.59 L 25.44 116.07 L 24.99 115.41 L 24.36 114.38 L 24.04 113.84 Z" fill="url(#linear-gradient-11)" fill-rule="nonzero" group-id="11" id="路径_1568" node-id="131" stroke-linecap="butt" stroke-width="1" target-height="3.534912" target-width="7.6046753" target-x="24.039032" target-y="113.841064"></path><path d="M 30.16 116.97 L 30.09 116.96 L 29.95 116.98 L 29.74 117.11 L 29.83 117.25 L 29.97 117.34 L 30.10 117.35 L 30.30 117.23 L 30.30 117.23 L 30.28 117.07 L 30.16 116.97 Z" fill="#130d0e" fill-rule="nonzero" group-id="11" id="路径_1569" node-id="132" stroke-linecap="butt" stroke-width="1" target-height="0.39196777" target-width="0.55300903" target-x="29.743988" target-y="116.95911"></path><path d="M 186.82 138.22 L 186.04 138.16 L 184.53 137.90 L 183.83 137.64 L 183.48 137.32 L 182.42 136.70 L 183.11 136.51 L 183.82 136.46 L 184.78 136.65 L 185.73 137.14 L 186.82 138.22 Z" fill="url(#linear-gradient-12)" fill-rule="nonzero" group-id="12,27" id="路径_1570" node-id="135" stroke-linecap="butt" stroke-width="1" target-height="1.7597656" target-width="4.4019775" target-x="182.41602" target-y="136.46228"></path><path d="M 181.90 140.18 L 181.95 141.09 L 182.13 141.86 L 182.50 142.45 L 181.96 141.98 L 180.93 140.81 L 180.50 140.05 L 180.30 139.26 Z" fill="url(#linear-gradient-13)" fill-rule="nonzero" group-id="12,27" id="路径_1571" node-id="136" stroke-linecap="butt" stroke-width="1" target-height="3.183838" target-width="2.2000122" target-x="180.29895" target-y="139.26306"></path><path d="M 177.56 136.46 L 177.71 137.11 L 178.06 137.76 L 178.95 138.74 L 180.20 139.68 L 182.42 140.84 L 183.96 141.70 L 184.99 142.57 L 185.63 143.44 L 186.21 144.93 L 186.33 146.29 L 186.06 148.46 L 186.24 147.64 L 186.83 146.33 L 187.29 146.03 L 187.92 146.27 L 188.70 147.14 L 188.95 147.72 L 188.97 148.33 L 189.09 147.29 L 188.98 146.28 L 188.63 145.31 L 188.07 144.43 L 187.62 143.20 L 186.29 140.41 L 185.31 138.86 L 184.14 137.44 L 182.75 136.31 L 181.21 135.66 L 180.13 135.56 L 178.93 135.80 L 177.56 136.46 Z" fill="url(#linear-gradient-14)" fill-rule="nonzero" group-id="12,27" id="路径_1572" node-id="137" stroke-linecap="butt" stroke-width="1" target-height="12.896484" target-width="11.535828" target-x="177.557" target-y="135.56335"></path><path d="M 185.00 141.29 L 184.02 140.79 L 181.85 139.68 L 179.62 138.51 L 178.49 137.83 L 178.33 137.26 L 178.46 136.68 L 178.84 136.22 L 179.39 135.99 L 180.09 136.07 L 181.17 136.54 L 183.25 137.87 L 184.32 138.74 L 184.55 139.50 L 184.85 140.68 L 185.00 141.29 Z" fill="url(#linear-gradient-15)" fill-rule="nonzero" group-id="12" id="路径_1573" node-id="138" stroke-linecap="butt" stroke-width="1" target-height="5.291992" target-width="6.666565" target-x="178.33441" target-y="135.99304"></path><path d="M 180.08 136.49 L 180.14 136.52 L 180.28 136.54 L 180.52 136.48 L 180.47 136.32 L 180.36 136.19 L 180.25 136.14 L 180.02 136.20 L 180.02 136.20 L 179.99 136.36 L 180.08 136.49 Z" fill="#130d0e" fill-rule="nonzero" group-id="12" id="路径_1574" node-id="139" stroke-linecap="butt" stroke-width="1" target-height="0.39501953" target-width="0.5296631" target-x="179.98535" target-y="136.14392"></path><path d="M 65.73 50.28 L 66.90 49.65 L 69.32 48.62 L 70.57 48.37 L 71.36 48.50 L 73.46 48.40 L 72.64 49.33 L 71.67 50.04 L 70.11 50.67 L 68.96 50.85 L 67.53 50.74 L 65.73 50.28 Z" fill="url(#linear-gradient-16)" fill-rule="nonzero" group-id="13,28" id="路径_1575" node-id="142" stroke-linecap="butt" stroke-width="1" target-height="2.480713" target-width="7.721985" target-x="65.734985" target-y="48.365967"></path><path d="M 70.99 42.93 L 70.56 42.28 L 69.47 41.04 L 68.76 40.51 L 68.04 40.24 L 69.25 40.41 L 71.81 41.15 L 73.11 41.84 L 74.13 42.78 Z" fill="url(#linear-gradient-17)" fill-rule="nonzero" group-id="13,28" id="路径_1576" node-id="143" stroke-linecap="butt" stroke-width="1" target-height="2.690918" target-width="6.09198" target-x="68.041016" target-y="40.236084"></path><path d="M 80.66 44.28 L 79.83 43.48 L 78.73 42.88 L 76.55 42.28 L 73.90 42.08 L 69.63 42.47 L 67.35 42.67 L 65.50 42.57 L 64.01 42.24 L 61.97 41.32 L 60.48 40.12 L 59.29 38.69 L 58.46 37.28 L 57.39 34.88 L 57.71 35.69 L 58.19 37.45 L 58.26 38.40 L 58.11 39.14 L 57.67 39.62 L 56.74 39.74 L 55.38 39.43 L 54.53 39.05 L 53.55 38.17 L 53.33 37.74 L 54.11 39.35 L 55.21 40.71 L 56.60 41.78 L 58.22 42.52 L 60.01 43.87 L 61.89 45.14 L 64.48 46.65 L 67.31 47.97 L 70.31 48.93 L 72.36 49.26 L 74.30 49.20 L 76.15 48.78 L 77.79 47.93 L 79.29 46.48 L 80.66 44.28 Z" fill="url(#linear-gradient-18)" fill-rule="nonzero" group-id="13,28" id="路径_1577" node-id="144" stroke-linecap="butt" stroke-width="1" target-height="14.3845215" target-width="27.328003" target-x="53.330994" target-y="34.875"></path><path d="M 65.52 44.21 L 67.38 44.01 L 71.52 43.61 L 75.80 43.24 L 78.06 43.16 L 78.80 43.85 L 79.15 44.80 L 79.03 45.80 L 78.45 46.64 L 77.71 47.06 L 76.38 47.38 L 73.24 47.57 L 70.31 47.44 L 68.85 47.24 L 67.81 46.36 L 66.30 44.94 L 65.52 44.21 Z" fill="url(#linear-gradient-19)" fill-rule="nonzero" group-id="13" id="路径_1578" node-id="145" stroke-linecap="butt" stroke-width="1" target-height="4.4072266" target-width="13.632111" target-x="65.520966" target-y="43.16101"></path><path d="M 77.01 46.56 L 76.90 46.57 L 76.67 46.67 L 76.39 46.98 L 76.60 47.17 L 76.87 47.25 L 77.08 47.21 L 77.35 46.91 L 77.35 46.91 L 77.26 46.66 L 77.01 46.56 Z" fill="#130d0e" fill-rule="nonzero" group-id="13" id="路径_1579" node-id="146" stroke-linecap="butt" stroke-width="1" target-height="0.6850586" target-width="0.96099854" target-x="76.392944" target-y="46.56201"></path><path d="M 159.21 153.82 L 160.03 155.94 L 160.75 158.25 L 161.58 161.83 L 162.19 165.80 L 162.51 170.81 L 162.45 174.25 L 162.10 178.04 L 161.43 182.20 L 159.00 181.83 L 159.76 179.58 L 160.34 177.14 L 160.83 173.45 L 160.91 169.40 L 160.37 164.41 L 159.60 161.05 L 158.35 157.40 L 156.52 153.41 Z" fill="#83bd6f" fill-rule="nonzero" group-id="14" id="路径_1580" node-id="148" stroke-linecap="butt" stroke-width="1" target-height="28.793945" target-width="5.9816284" target-x="156.52399" target-y="153.40906"></path><path d="M 183.92 124.47 L 183.13 123.43 L 182.18 122.50 L 180.60 121.38 L 178.71 120.50 L 176.12 119.89 L 174.29 119.78 L 172.10 119.97 L 169.47 120.54 L 166.55 121.26 L 164.70 121.53 L 163.11 121.56 L 162.12 121.41 L 160.54 120.86 L 159.80 120.66 L 158.78 120.60 L 157.60 120.77 L 155.65 121.34 L 153.67 121.77 L 152.28 121.68 L 151.03 121.25 L 149.95 120.66 L 148.88 120.04 L 147.69 119.56 L 146.37 119.39 L 144.53 119.70 L 142.52 120.53 L 139.51 122.38 L 135.68 124.86 L 132.69 126.53 L 127.79 128.82 L 125.90 129.70 L 124.57 130.49 L 123.52 131.47 L 122.80 132.78 L 122.84 133.35 L 123.38 134.00 L 124.78 134.81 L 127.26 135.76 L 130.88 136.80 L 139.09 138.59 L 147.44 140.05 L 153.90 141.03 L 156.50 141.39 L 180.90 125.84 Z" fill="#65ab63" fill-rule="nonzero" group-id="14" id="路径_1581" node-id="149" stroke-linecap="butt" stroke-width="1" target-height="21.998535" target-width="61.122986" target-x="122.798035" target-y="119.39038"></path><path d="M 185.45 125.92 L 184.63 125.09 L 182.52 123.42 L 181.16 122.64 L 179.67 122.12 L 178.14 122.00 L 176.61 122.44 L 175.71 123.04 L 174.80 124.05 L 173.88 125.60 L 172.77 127.57 L 171.81 128.79 L 170.97 129.48 L 169.50 130.08 L 168.05 130.12 L 164.91 129.67 L 163.24 129.71 L 161.32 130.31 L 158.15 131.80 L 156.86 132.26 L 155.64 132.52 L 154.36 132.60 L 152.70 132.51 L 148.22 131.82 L 145.60 131.64 L 143.56 131.96 L 139.67 133.30 L 137.58 133.89 L 134.87 134.20 L 132.99 134.14 L 130.58 133.77 L 127.50 132.99 L 125.44 132.61 L 123.51 132.65 L 121.66 133.10 L 119.91 133.89 L 118.28 134.94 L 116.76 136.26 L 114.81 138.55 L 113.29 141.05 L 112.23 143.67 L 111.75 146.04 L 111.75 147.59 L 112.05 148.83 L 112.62 149.83 L 113.46 150.55 L 114.67 150.96 L 116.40 150.99 L 120.36 150.31 L 124.09 149.39 L 127.78 148.48 L 131.49 147.84 L 133.97 147.69 L 136.60 147.87 L 139.41 148.44 L 142.11 149.37 L 145.17 150.94 L 148.66 153.26 L 151.01 154.74 L 152.95 155.50 L 154.59 155.72 L 156.23 155.50 L 157.75 154.89 L 159.19 153.84 L 161.12 151.79 L 163.06 149.02 L 166.79 142.63 L 168.79 139.28 L 170.97 136.07 L 173.43 133.14 L 176.20 130.73 L 178.30 129.29 L 179.89 128.57 L 182.79 127.68 L 184.06 127.08 L 185.45 125.92 Z" fill="#83bd6f" fill-rule="nonzero" group-id="14" id="路径_1582" node-id="150" stroke-linecap="butt" stroke-width="1" target-height="33.71814" target-width="73.70068" target-x="111.74829" target-y="122.00171"></path><path d="M 169.46 120.54 L 167.92 121.41 L 164.45 123.79 L 162.55 125.41 L 160.83 127.28 L 159.49 129.36 L 158.81 131.51" fill="none" group-id="14" id="路径_1583" node-id="151" stroke="#4f9352" stroke-linecap="butt" stroke-width="1" target-height="10.973022" target-width="10.655029" target-x="158.80896" target-y="120.53699"></path><path d="M 159.10 120.60 L 158.11 121.65 L 156.01 124.39 L 154.96 126.20 L 154.12 128.24 L 153.67 130.39 L 153.77 132.59" fill="none" group-id="14" id="路径_1584" node-id="152" stroke="#4f9352" stroke-linecap="butt" stroke-width="1" target-height="11.990967" target-width="5.4313965" target-x="153.67157" target-y="120.596924"></path><path d="M 144.74 119.64 L 145.46 120.75 L 146.95 123.62 L 147.66 125.47 L 148.20 127.54 L 148.43 129.68 L 148.22 131.82" fill="none" group-id="14" id="路径_1585" node-id="153" stroke="#4f9352" stroke-linecap="butt" stroke-width="1" target-height="12.177002" target-width="3.6877441" target-x="144.74396" target-y="119.64099"></path><path d="M 142.82 132.17 L 142.53 131.02 L 142.11 129.91 L 141.37 128.53 L 140.36 127.26 L 138.94 126.16 L 137.84 125.66 L 136.49 125.39 L 134.82 125.37" fill="none" group-id="14" id="路径_1586" node-id="154" stroke="#4f9352" stroke-linecap="butt" stroke-width="1" target-height="6.7999268" target-width="8" target-x="134.81598" target-y="125.369995"></path><path d="M 129.50 133.54 L 129.07 132.79 L 128.50 132.14 L 127.48 131.41 L 126.21 130.91 L 124.31 130.69" fill="none" group-id="14" id="路径_1587" node-id="155" stroke="#4f9352" stroke-linecap="butt" stroke-width="1" target-height="2.8480225" target-width="5.1870117" target-x="124.313965" target-y="130.68701"></path><path d="M 158.05 154.69 L 158.96 153.00 L 160.01 150.35 L 161.85 144.49 L 163.20 139.33 L 163.73 137.11" fill="none" group-id="14" id="路径_1588" node-id="156" stroke="#4f9352" stroke-linecap="butt" stroke-width="1" target-height="17.583984" target-width="5.6799927" target-x="158.05402" target-y="137.10901"></path><path d="M 145.20 148.29 L 147.11 149.03 L 151.40 150.79 L 155.88 152.94 L 157.66 154.07 L 158.38 154.82" fill="none" group-id="14" id="路径_1589" node-id="157" stroke="#4f9352" stroke-linecap="butt" stroke-width="1" target-height="6.5300293" target-width="13.184021" target-x="145.19696" target-y="148.2909"></path><path d="M 156.22 143.14 L 156.28 144.56 L 156.55 147.89 L 157.15 151.71 L 157.64 153.45 L 158.20 154.62" fill="none" group-id="14" id="路径_1590" node-id="158" stroke="#4f9352" stroke-linecap="butt" stroke-width="1" target-height="11.485107" target-width="1.9810181" target-x="156.22296" target-y="143.1388"></path><path d="M 171.23 144.86 L 172.58 148.91 L 173.82 153.35 L 175.39 160.28 L 176.71 168.01 L 177.78 177.82 L 176.54 177.94 L 176.28 172.29 L 175.68 166.70 L 174.73 161.16 L 173.44 155.68 L 171.82 150.29 L 169.85 144.99 Z" fill="#83bd6f" fill-rule="nonzero" group-id="15" id="路径_1591" node-id="160" stroke-linecap="butt" stroke-width="1" target-height="33.081055" target-width="7.932007" target-x="169.85199" target-y="144.85913"></path><path d="M 163.27 116.93 L 164.93 118.66 L 168.74 123.11 L 170.88 125.99 L 172.93 129.20 L 174.64 132.56 L 175.75 135.82 L 176.09 138.03 L 175.97 140.03 L 175.42 141.90 L 174.41 143.52 L 172.73 144.99 L 170.19 146.33 L 167.30 146.43 L 165.14 145.97 L 163.51 145.06 L 162.19 143.69 L 161.18 141.99 L 160.50 139.87 L 160.04 136.44 L 160.07 132.61 L 160.48 128.75 L 161.12 125.13 L 162.55 119.29 L 163.27 116.93 Z" fill="url(#linear-gradient-20)" fill-rule="nonzero" group-id="15" id="路径_1592" node-id="161" stroke-linecap="butt" stroke-width="1" target-height="29.500488" target-width="16.05243" target-x="160.03662" target-y="116.92798"></path><path d="M 159.01 127.02 L 160.25 127.89 L 163.10 130.40 L 164.67 132.19 L 166.23 134.43 L 167.47 136.94 L 168.32 139.84 L 168.57 141.87 L 168.50 144.07 L 168.07 146.50 L 166.88 146.42 L 165.72 146.15 L 164.16 145.48 L 162.67 144.42 L 161.12 142.63 L 160.30 141.21 L 159.58 139.31 L 158.99 136.82 L 158.70 134.30 L 158.68 131.08 L 159.01 127.02 Z" fill="url(#linear-gradient-21)" fill-rule="nonzero" group-id="15" id="路径_1593" node-id="162" stroke-linecap="butt" stroke-width="1" target-height="19.482056" target-width="9.88739" target-x="158.68341" target-y="127.01807"></path><path d="M 170.90 123.84 L 170.23 125.20 L 168.94 128.77 L 168.41 131.10 L 168.13 133.81 L 168.24 136.61 L 168.89 139.57 L 169.64 141.46 L 170.77 143.36 L 172.31 145.28 L 173.31 144.64 L 174.20 143.85 L 175.25 142.51 L 176.05 140.86 L 176.54 138.55 L 176.58 136.91 L 176.30 134.90 L 175.62 132.44 L 174.66 130.08 L 173.13 127.25 L 170.90 123.84 Z" fill="url(#linear-gradient-22)" fill-rule="nonzero" group-id="15" id="路径_1594" node-id="163" stroke-linecap="butt" stroke-width="1" target-height="21.438965" target-width="8.453918" target-x="168.12616" target-y="123.84204"></path></g></svg>