<?xml version="1.0" standalone="no"?><!DOCTYPE svg PUBLIC "-//W3C//DTD SVG 1.1//EN" "http://www.w3.org/Graphics/SVG/1.1/DTD/svg11.dtd"><svg t="1681830738174" class="icon" viewBox="0 0 1024 1024" version="1.1" xmlns="http://www.w3.org/2000/svg" p-id="12209" xmlns:xlink="http://www.w3.org/1999/xlink" width="200" height="200"><path d="M939.303655 84.62284a289.780202 289.780202 0 0 1 0 409.290765l-446.080124 446.080124a289.487642 289.487642 0 0 1-408.486226-0.731399 289.487642 289.487642 0 0 1-0.731399-408.486226l236.24181-236.24181a178.315026 178.315026 0 0 1 251.820605 0c69.482885 69.482885 69.482885 182.118299 0 251.966884l-223.076632 223.003492a48.27232 48.27232 0 1 1-68.312647-68.239507L503.828814 478.334811a81.843525 81.843525 0 0 0 0-115.48787 81.916665 81.916665 0 0 0-115.41473 0L152.172274 598.869332a193.308701 193.308701 0 0 0 0 272.884889 193.235561 193.235561 0 0 0 272.88489 0l446.080123-446.080123a193.016141 193.016141 0 0 0-272.884889-272.81175l-13.165179 13.165178a48.27232 48.27232 0 1 1-68.166367-68.312647l13.092038-13.165179a289.926482 289.926482 0 0 1 397.368965-11.263541l11.9218 11.263541z" fill="#999999" p-id="12210"></path></svg>