<?xml version="1.0" standalone="no"?><!DOCTYPE svg PUBLIC "-//W3C//DTD SVG 1.1//EN" "http://www.w3.org/Graphics/SVG/1.1/DTD/svg11.dtd"><svg height="800" legacy-metrics="false" node-id="1" sillyvg="true" template-height="800" template-width="800" version="1.1" viewBox="0 0 800 800" width="800" xmlns="http://www.w3.org/2000/svg" xmlns:xlink="http://www.w3.org/1999/xlink"><defs node-id="95"><clipPath id="clip-path" node-id="3"><path d="M 800.00 400.00 L 799.68 415.95 L 798.74 431.75 L 797.18 447.42 L 795.02 462.97 L 792.24 478.40 L 788.86 493.74 L 784.90 508.87 L 780.36 523.79 L 775.25 538.52 L 769.55 553.07 L 763.29 567.39 L 756.49 581.42 L 749.15 595.18 L 741.25 608.68 L 732.80 621.92 L 723.84 634.80 L 714.38 647.32 L 704.40 659.50 L 693.89 671.33 L 682.84 682.84 L 671.33 693.89 L 659.50 704.40 L 647.32 714.38 L 634.80 723.84 L 621.92 732.80 L 608.68 741.25 L 595.18 749.15 L 581.42 756.49 L 567.39 763.29 L 553.07 769.55 L 538.52 775.25 L 523.79 780.36 L 508.87 784.90 L 493.74 788.86 L 478.40 792.24 L 462.97 795.02 L 447.42 797.18 L 431.75 798.74 L 415.95 799.68 L 400.00 800.00 L 384.05 799.68 L 368.25 798.74 L 352.58 797.18 L 337.03 795.02 L 321.60 792.24 L 306.26 788.86 L 291.13 784.90 L 276.21 780.36 L 261.48 775.25 L 246.93 769.55 L 232.61 763.29 L 218.58 756.49 L 204.82 749.15 L 191.32 741.25 L 178.08 732.80 L 165.20 723.84 L 152.68 714.38 L 140.50 704.40 L 128.67 693.89 L 117.16 682.84 L 106.11 671.33 L 95.60 659.50 L 85.62 647.32 L 76.16 634.80 L 67.20 621.92 L 58.75 608.68 L 50.85 595.18 L 43.51 581.42 L 36.71 567.39 L 30.45 553.07 L 24.75 538.52 L 19.64 523.79 L 15.10 508.87 L 11.14 493.74 L 7.76 478.40 L 4.98 462.97 L 2.82 447.42 L 1.26 431.75 L 0.32 415.95 L 0.00 400.00 L 0.32 384.05 L 1.26 368.25 L 2.82 352.58 L 4.98 337.03 L 7.76 321.60 L 11.14 306.26 L 15.10 291.13 L 19.64 276.21 L 24.75 261.48 L 30.45 246.93 L 36.71 232.61 L 43.51 218.58 L 50.85 204.82 L 58.75 191.32 L 67.20 178.08 L 76.16 165.20 L 85.62 152.68 L 95.60 140.50 L 106.11 128.67 L 117.16 117.16 L 128.67 106.11 L 140.50 95.60 L 152.68 85.62 L 165.20 76.16 L 178.08 67.20 L 191.32 58.75 L 204.82 50.85 L 218.58 43.51 L 232.61 36.71 L 246.93 30.45 L 261.48 24.75 L 276.21 19.64 L 291.13 15.10 L 306.26 11.14 L 321.60 7.76 L 337.03 4.98 L 352.58 2.82 L 368.25 1.26 L 384.05 0.32 L 400.00 0.00 L 415.95 0.32 L 431.75 1.26 L 447.42 2.82 L 462.97 4.98 L 478.40 7.76 L 493.74 11.14 L 508.87 15.10 L 523.79 19.64 L 538.52 24.75 L 553.07 30.45 L 567.39 36.71 L 581.42 43.51 L 595.18 50.85 L 608.68 58.75 L 621.92 67.20 L 634.80 76.16 L 647.32 85.62 L 659.50 95.60 L 671.33 106.11 L 682.84 117.16 L 693.89 128.67 L 704.40 140.50 L 714.38 152.68 L 723.84 165.20 L 732.80 178.08 L 741.25 191.32 L 749.15 204.82 L 756.49 218.58 L 763.29 232.61 L 769.55 246.93 L 775.25 261.48 L 780.36 276.21 L 784.90 291.13 L 788.86 306.26 L 792.24 321.60 L 795.02 337.03 L 797.18 352.58 L 798.74 368.25 L 799.68 384.05 L 800.00 400.00 Z" fill="#000000" fill-rule="nonzero" id="椭圆_12" node-id="4" stroke-linecap="butt" stroke-width="1" target-height="800" target-width="800" target-x="0" target-y="0"></path></clipPath><linearGradient gradientUnits="objectBoundingBox" id="linear-gradient" node-id="5" x1="0.476" x2="0.533" y1="0.568" y2="0.428"><stop offset="0" stop-color="#3d0e24"></stop><stop offset="1" stop-color="#743311"></stop></linearGradient><linearGradient gradientUnits="objectBoundingBox" id="linear-gradient-2" node-id="8" x1="0.476" x2="0.533" y1="0.568" y2="0.428"><stop offset="0" stop-color="#560e24"></stop><stop offset="1" stop-color="#743311"></stop></linearGradient><radialGradient cx="0.5" cy="0.5" fx="0.5" fy="0.5" gradientTransform="matrix(0.54 0 0 1 0.23 0)" gradientUnits="objectBoundingBox" id="radial-gradient" node-id="11" r="0.744"><stop offset="0" stop-color="#5c7a39"></stop><stop offset="1" stop-color="#427a39"></stop></radialGradient><radialGradient cx="0.51" cy="0.514" fx="0.51" fy="0.514" gradientTransform="matrix(0.986 0.453 -0.501 0.892 -7.814 -3.63)" gradientUnits="objectBoundingBox" id="radial-gradient-2" node-id="14" r="0.492"><stop offset="0" stop-color="#5c7a39"></stop><stop offset="1" stop-color="#427a39"></stop></radialGradient><radialGradient cx="0.555" cy="0.5" fx="0.555" fy="0.5" gradientTransform="matrix(0.665 0.964 -2.413 0.266 -80.414 -4.29)" gradientUnits="objectBoundingBox" id="radial-gradient-3" node-id="15" r="0.376"><stop offset="0" stop-color="#5c7a39"></stop><stop offset="1" stop-color="#427a39"></stop></radialGradient></defs><g node-id="97"><g clip-path="url(#clip-path)" group-id="1" id="组_307" node-id="17"><path d="M 73.91 -123.85 L 886.30 15.81 L 738.39 876.27 L -74.01 736.62 Z" fill="#f4e7d7" fill-rule="nonzero" group-id="1" id="矩形_525" node-id="18" stroke-linecap="butt" stroke-width="0.99999994" target-height="1000.1194" target-width="960.31287" target-x="-74.01018" target-y="-123.846924"></path><path d="M 517.72 401.27 L 520.52 399.76 L 527.77 395.54 L 537.79 389.12 L 543.25 385.27 L 548.89 380.97 L 554.34 376.39 L 559.39 371.59 L 575.46 355.22 L 603.21 364.77 L 600.99 366.86 L 595.26 372.24 L 587.45 379.60 L 578.97 387.62 L 571.24 395.01 L 565.67 400.43 L 562.52 403.43 L 559.11 406.46 L 552.49 411.93 L 547.37 415.89 L 545.32 417.42 Z" fill="#e2bf9f" fill-rule="nonzero" group-id="1,2" id="路径_3903" node-id="22" stroke-linecap="butt" stroke-width="1" target-height="62.197998" target-width="85.48633" target-x="517.72266" target-y="355.21802"></path><path d="M 522.97 420.82 L 545.22 429.71 L 545.32 417.42 L 517.72 401.27 L 518.59 403.45 L 520.47 408.71 L 522.29 415.14 L 522.85 418.31 L 522.97 420.82 Z" fill="#c9aa93" fill-rule="nonzero" group-id="1,2" id="路径_3904" node-id="23" stroke-linecap="butt" stroke-width="1" target-height="28.435059" target-width="27.600098" target-x="517.72266" target-y="401.27197"></path><path d="M 603.21 364.77 L 598.89 381.78 L 595.72 384.18 L 587.55 390.54 L 576.40 399.56 L 564.29 409.96 L 558.41 415.35 L 553.22 420.44 L 548.54 425.50 L 545.21 429.71 L 545.32 417.42 L 548.06 415.02 L 555.25 408.72 L 565.31 399.83 L 576.70 389.67 L 587.85 379.56 L 597.21 370.82 L 603.21 364.77 Z" fill="#d3b398" fill-rule="nonzero" group-id="1,2" id="路径_3905" node-id="24" stroke-linecap="butt" stroke-width="1" target-height="64.93799" target-width="57.993164" target-x="545.2129" target-y="364.771"></path><path d="M 530.07 368.32 L 529.96 367.26 L 529.96 366.19 L 530.16 364.80 L 530.61 363.41 L 531.47 362.03 L 532.73 360.91 L 534.71 360.04 L 880.53 590.37 L 880.53 605.60 Z" fill="url(#linear-gradient)" fill-rule="nonzero" group-id="1" id="路径_3906" node-id="25" stroke-linecap="butt" stroke-width="1" target-height="245.55396" target-width="350.5747" target-x="529.9595" target-y="360.04297"></path><path d="M 517.87 370.81 L 517.75 369.73 L 517.76 368.66 L 517.95 367.24 L 518.42 365.84 L 519.29 364.44 L 520.57 363.30 L 522.57 362.42 L 873.29 596.01 L 873.29 611.45 Z" fill="url(#linear-gradient-2)" fill-rule="nonzero" group-id="1" id="路径_3907" node-id="26" stroke-linecap="butt" stroke-width="1" target-height="249.031" target-width="355.5381" target-x="517.7549" target-y="362.41895"></path><text align="center" editable="true" ellipsis="false" fill="#351804" flags="1" font-family="'Noto Sans CJK SC'" font-size="40" font-stretch="normal" font-style="normal" font-weight="400" group-id="1" height="59.199997" hidden="true" id="清明_" letter-spacing="0" node-id="27" stroke="none" target-x="506.52197" target-y="566.2079" visibility="hidden" width="120" x="506.52197" xml:space="preserve" y="612.6079">清明。</text><path d="M 601.50 637.42 L 610.17 637.42 L 610.17 637.42 L 613.17 637.42 L 613.17 625.76 L 610.17 625.76 L 610.17 634.42 L 601.50 634.42 Z" fill="#351804" fill-rule="nonzero" group-id="1" hidden="true" id="路径_3908" node-id="30" stroke-linecap="butt" stroke-width="1" target-height="11.666992" target-width="11.672852" target-x="601.5" target-y="625.7551" visibility="hidden"></path><path d="M 200.64 495.54 L 199.50 492.59 L 198.05 489.51 L 195.49 484.97 L 192.31 480.20 L 187.76 474.53 L 184.36 470.87 L 180.28 467.07 L 175.44 463.11 L 170.35 459.52 L 164.46 456.00 L 157.65 452.57 L 152.48 450.36 L 146.77 448.31 L 140.47 446.43 L 133.54 444.74 L 126.75 443.46 L 119.30 442.48 L 111.15 441.81 L 102.24 441.49 L 88.58 441.12 L 77.07 440.44 L 67.47 439.50 L 57.89 438.16 L 50.09 436.71 L 43.82 435.18 L 37.63 433.28 L 32.82 431.46 L 29.16 429.74 L 25.64 427.69 L 23.10 425.91 L 21.35 424.36 L 19.19 421.88 L 18.23 420.25 L 17.66 418.61 L 18.85 422.42 L 20.31 426.46 L 22.78 432.53 L 25.80 439.08 L 29.96 447.00 L 33.06 452.31 L 36.71 457.94 L 40.93 463.91 L 45.42 469.64 L 50.49 475.44 L 56.20 481.29 L 62.23 486.78 L 68.92 492.09 L 76.30 497.21 L 82.02 500.68 L 88.16 503.93 L 94.73 506.95 L 101.76 509.73 L 108.83 512.06 L 116.38 514.04 L 124.46 515.66 L 133.10 516.90 L 144.59 518.02 L 154.28 518.67 L 162.38 518.93 L 170.50 518.86 L 177.11 518.50 L 182.42 517.90 L 187.69 516.93 L 191.77 515.83 L 194.85 514.65 L 197.77 513.11 L 199.88 511.58 L 201.33 510.07 L 202.47 508.32 L 203.18 506.64 L 203.50 505.00 L 203.48 502.52 L 203.01 500.32 L 202.24 498.30 L 201.51 496.88 L 200.64 495.54 Z" fill="url(#radial-gradient)" fill-rule="nonzero" group-id="1,3" id="路径_3909" node-id="32" stroke-linecap="butt" stroke-width="1" target-height="100.31763" target-width="185.83545" target-x="17.661621" target-y="418.614"></path><path d="M 33.48 438.91 L 36.62 442.27 L 40.25 445.71 L 46.26 450.75 L 50.69 454.10 L 56.14 457.82 L 62.76 461.95 L 69.53 465.72 L 77.40 469.56 L 86.47 473.46 L 93.28 476.02 L 100.74 478.45 L 108.88 480.74 L 117.75 482.87 L 126.45 484.58 L 135.85 485.99 L 146.00 487.07 L 156.94 487.80 L 167.60 488.06 L 179.03 487.85 L 191.28 487.11 L 204.39 485.82" fill="none" group-id="1,3" id="路径_3910" node-id="33" stroke="#779647" stroke-linecap="butt" stroke-width="1" target-height="49.155518" target-width="170.91064" target-x="33.47998" target-y="438.90796"></path><path d="M 71.57 442.56 L 71.68 444.80 L 71.97 447.14 L 72.64 450.56 L 73.68 454.19 L 75.36 458.42 L 76.77 461.19 L 78.56 464.03 L 80.77 466.95 L 83.25 469.63 L 86.24 472.23 L 89.79 474.73" fill="none" group-id="1,3" id="路径_3911" node-id="34" stroke="#779647" stroke-linecap="butt" stroke-width="1" target-height="32.1709" target-width="18.225098" target-x="71.569824" target-y="442.562"></path><path d="M 103.74 457.82 L 103.88 459.94 L 104.28 462.12 L 105.27 465.28 L 106.20 467.40 L 107.55 469.73 L 109.40 472.31 L 111.50 474.66 L 114.24 477.06 L 117.72 479.53 L 121.43 481.60 L 126.04 483.57 L 131.72 485.41" fill="none" group-id="1,3" id="路径_3912" node-id="35" stroke="#779647" stroke-linecap="butt" stroke-width="1" target-height="27.585938" target-width="27.978027" target-x="103.74072" target-y="457.823"></path><path d="M 58.19 473.68 L 59.75 474.96 L 61.61 476.16 L 64.90 477.81 L 68.78 479.27 L 74.38 480.74 L 78.35 481.44 L 83.17 481.97 L 88.96 482.26 L 94.71 482.22 L 101.47 481.78 L 109.35 480.88" fill="none" group-id="1,3" id="路径_3913" node-id="36" stroke="#779647" stroke-linecap="butt" stroke-width="1" target-height="8.581543" target-width="51.15625" target-x="58.194824" target-y="473.677"></path><path d="M 101.69 500.59 L 105.04 500.94 L 108.85 500.96 L 115.42 500.46 L 120.10 499.81 L 126.02 498.66 L 133.38 496.88 L 140.63 494.77 L 149.25 491.82 L 159.43 487.89" fill="none" group-id="1,3" id="路径_3914" node-id="37" stroke="#779647" stroke-linecap="butt" stroke-width="1" target-height="13.070557" target-width="57.737793" target-x="101.691895" target-y="487.89404"></path><path d="M 331.65 469.01 L 334.80 469.30 L 338.15 469.86 L 343.22 471.08 L 348.68 472.84 L 355.38 475.67 L 359.82 477.95 L 364.59 480.84 L 369.72 484.41 L 374.56 488.32 L 379.56 493.04 L 384.72 498.65 L 388.25 503.02 L 391.78 507.95 L 395.31 513.50 L 398.82 519.71 L 401.90 525.89 L 404.88 532.79 L 407.75 540.45 L 410.49 548.93 L 414.57 561.97 L 418.36 572.86 L 421.88 581.84 L 425.79 590.69 L 429.31 597.80 L 432.49 603.41 L 436.01 608.85 L 439.07 612.99 L 441.73 616.03 L 444.65 618.87 L 447.06 620.82 L 449.04 622.09 L 452.01 623.49 L 453.84 623.97 L 455.57 624.06 L 451.58 623.96 L 447.30 623.66 L 440.79 622.94 L 433.66 621.82 L 424.90 619.98 L 418.95 618.44 L 412.54 616.47 L 405.65 614.04 L 398.90 611.28 L 391.95 607.98 L 384.76 604.09 L 377.83 599.78 L 370.90 594.79 L 363.96 589.09 L 359.05 584.53 L 354.26 579.52 L 349.56 574.02 L 344.97 568.01 L 340.80 561.84 L 336.83 555.12 L 333.07 547.79 L 329.52 539.81 L 325.31 529.07 L 322.04 519.92 L 319.58 512.19 L 317.43 504.36 L 315.98 497.91 L 315.11 492.64 L 314.60 487.30 L 314.54 483.08 L 314.84 479.79 L 315.53 476.56 L 316.42 474.12 L 317.48 472.31 L 318.85 470.73 L 320.28 469.59 L 321.76 468.84 L 324.15 468.18 L 326.40 468.04 L 328.55 468.22 L 330.13 468.54 L 331.65 469.01 Z" fill="url(#radial-gradient-2)" fill-rule="nonzero" group-id="1,4" id="路径_3915" node-id="39" stroke-linecap="butt" stroke-width="1" target-height="156.02979" target-width="141.02344" target-x="314.54248" target-y="468.03516"></path><path d="M 431.73 614.39 L 427.64 612.29 L 423.34 609.73 L 416.85 605.32 L 412.42 601.98 L 407.35 597.75 L 401.58 592.50 L 396.10 587.01 L 390.26 580.49 L 384.04 572.83 L 379.71 566.97 L 375.34 560.47 L 370.91 553.26 L 366.44 545.31 L 362.43 537.40 L 358.51 528.74 L 354.70 519.27 L 351.02 508.95 L 347.85 498.76 L 344.94 487.70 L 342.31 475.72 L 339.97 462.75" fill="none" group-id="1,4" id="路径_3916" node-id="40" stroke="#779647" stroke-linecap="butt" stroke-width="1" target-height="151.63306" target-width="91.75635" target-x="339.97168" target-y="462.75293"></path><path d="M 421.11 590.97 L 418.27 589.87 L 410.96 586.78 L 406.32 584.62 L 400.98 581.95 L 395.60 578.99 L 390.17 575.66 L 384.97 572.03 L 380.32 568.20" fill="none" group-id="1,4" id="路径_3917" node-id="41" stroke="#779647" stroke-linecap="butt" stroke-width="1" target-height="22.768066" target-width="40.79492" target-x="380.3169" target-y="568.198"></path><path d="M 401.88 551.75 L 398.88 551.98 L 395.74 551.99 L 391.21 551.66 L 386.40 550.87 L 380.88 549.31 L 377.25 547.86 L 373.59 545.92 L 369.87 543.44 L 366.49 540.55 L 363.26 536.95 L 360.19 532.55" fill="none" group-id="1,4" id="路径_3918" node-id="42" stroke="#779647" stroke-linecap="butt" stroke-width="1" target-height="19.4375" target-width="41.68213" target-x="360.19482" target-y="532.552"></path><path d="M 395.91 606.67 L 394.18 604.78 L 392.43 602.65 L 389.91 599.19 L 387.36 595.22 L 384.47 589.99 L 381.81 584.23 L 379.23 577.25 L 377.79 572.39 L 376.55 567.02 L 375.54 561.08" fill="none" group-id="1,4" id="路径_3919" node-id="43" stroke="#779647" stroke-linecap="butt" stroke-width="1" target-height="45.583008" target-width="20.365723" target-x="375.54004" target-y="561.08496"></path><path d="M 354.64 576.31 L 354.61 570.70 L 354.76 564.41 L 355.28 554.02 L 356.16 542.27 L 357.76 526.51" fill="none" group-id="1,4" id="路径_3920" node-id="44" stroke="#779647" stroke-linecap="butt" stroke-width="1" target-height="49.80005" target-width="3.145996" target-x="354.61084" target-y="526.5071"></path><path d="M 535.56 -56.46 L 537.47 -53.93 L 539.31 -51.08 L 541.83 -46.51 L 544.20 -41.28 L 546.62 -34.43 L 547.93 -29.62 L 549.00 -24.14 L 549.82 -17.94 L 550.19 -11.73 L 550.06 -4.86 L 549.39 2.73 L 548.54 8.28 L 547.27 14.22 L 545.55 20.56 L 543.32 27.33 L 540.83 33.78 L 537.74 40.63 L 534.01 47.91 L 529.58 55.64 L 522.69 67.44 L 517.19 77.58 L 512.93 86.23 L 509.01 95.07 L 506.13 102.47 L 504.12 108.60 L 502.47 114.86 L 501.48 119.91 L 501.02 123.92 L 500.90 128.00 L 501.07 131.10 L 501.46 133.40 L 502.43 136.54 L 503.31 138.22 L 504.40 139.56 L 501.80 136.55 L 499.13 133.18 L 495.28 127.88 L 491.31 121.86 L 486.77 114.14 L 483.90 108.70 L 481.04 102.64 L 478.19 95.91 L 475.69 89.07 L 473.45 81.70 L 471.48 73.77 L 470.00 65.74 L 469.02 57.26 L 468.56 48.29 L 468.62 41.60 L 469.10 34.67 L 470.00 27.50 L 471.35 20.06 L 473.10 12.83 L 475.40 5.36 L 478.29 -2.36 L 481.79 -10.35 L 486.90 -20.70 L 491.46 -29.28 L 495.51 -36.30 L 499.85 -43.16 L 503.65 -48.58 L 506.96 -52.77 L 510.56 -56.74 L 513.64 -59.63 L 516.27 -61.62 L 519.12 -63.29 L 521.53 -64.27 L 523.58 -64.71 L 525.67 -64.76 L 527.47 -64.47 L 529.03 -63.88 L 531.12 -62.55 L 532.75 -60.99 L 534.06 -59.28 L 534.88 -57.90 L 535.56 -56.46 Z" fill="url(#radial-gradient-3)" fill-rule="nonzero" group-id="1,5" id="路径_3921" node-id="46" stroke-linecap="butt" stroke-width="1" target-height="204.32349" target-width="81.629395" target-x="468.55762" target-y="-64.758545"></path><path d="M 495.51 115.43 L 494.31 110.99 L 493.30 106.09 L 492.19 98.33 L 491.67 92.80 L 491.39 86.20 L 491.38 78.40 L 491.74 70.66 L 492.63 61.95 L 494.11 52.18 L 495.52 45.05 L 497.38 37.43 L 499.73 29.31 L 502.60 20.65 L 505.74 12.35 L 509.51 3.62 L 513.94 -5.57 L 519.09 -15.25 L 524.49 -24.45 L 530.70 -34.04 L 537.78 -44.06 L 545.79 -54.52" fill="none" group-id="1,5" id="路径_3922" node-id="47" stroke="#779647" stroke-linecap="butt" stroke-width="1" target-height="169.94897" target-width="54.41797" target-x="491.37695" target-y="-54.52002"></path><path d="M 505.66 91.81 L 504.56 88.97 L 501.92 81.48 L 500.39 76.60 L 498.77 70.86 L 497.33 64.89 L 496.13 58.63 L 495.32 52.34 L 495.02 46.32" fill="none" group-id="1,5" id="路径_3923" node-id="48" stroke="#779647" stroke-linecap="butt" stroke-width="1" target-height="45.48999" target-width="10.64502" target-x="495.01904" target-y="46.31909"></path><path d="M 521.70 51.18 L 519.51 49.12 L 517.39 46.80 L 514.58 43.24 L 511.92 39.14 L 509.36 34.01 L 507.98 30.36 L 506.95 26.35 L 506.29 21.93 L 506.14 17.48 L 506.63 12.67 L 507.81 7.44" fill="none" group-id="1,5" id="路径_3924" node-id="49" stroke="#779647" stroke-linecap="butt" stroke-width="1" target-height="43.73999" target-width="15.553223" target-x="506.14258" target-y="7.4399414"></path><path d="M 477.08 83.75 L 477.31 81.21 L 477.72 78.48 L 478.57 74.29 L 479.79 69.73 L 481.71 64.06 L 484.18 58.22 L 487.59 51.61 L 490.22 47.27 L 493.36 42.74 L 497.06 38.00" fill="none" group-id="1,5" id="路径_3925" node-id="50" stroke="#779647" stroke-linecap="butt" stroke-width="1" target-height="45.753906" target-width="19.978027" target-x="477.083" target-y="38"></path><path d="M 471.73 32.80 L 475.86 29.00 L 480.61 24.88 L 488.64 18.26 L 497.92 11.00 L 510.64 1.56" fill="none" group-id="1,5" id="路径_3926" node-id="51" stroke="#779647" stroke-linecap="butt" stroke-width="1" target-height="31.235107" target-width="38.91504" target-x="471.72803" target-y="1.5629883"></path><path d="M 365.74 463.94 L 365.44 470.94 L 364.58 477.76 L 363.18 484.41 L 361.23 490.93 L 358.78 497.27 L 355.84 503.42 L 352.43 509.38 L 348.51 515.18 L 344.22 520.66 L 339.51 525.91 L 334.37 530.93 L 328.78 535.72 L 322.94 540.13 L 316.75 544.25 L 310.19 548.07 L 303.24 551.60 L 296.15 554.70 L 288.77 557.44 L 281.09 559.82 L 273.09 561.83 L 265.05 563.39 L 256.79 564.52 L 248.30 565.21 L 239.55 565.46 L 230.80 565.21 L 222.30 564.52 L 214.04 563.39 L 206.00 561.83 L 198.00 559.82 L 190.32 557.44 L 182.94 554.70 L 175.85 551.60 L 168.90 548.07 L 162.34 544.25 L 156.15 540.13 L 150.31 535.72 L 144.72 530.93 L 139.59 525.91 L 134.88 520.66 L 130.58 515.18 L 126.66 509.38 L 123.25 503.42 L 120.32 497.27 L 117.86 490.93 L 115.91 484.41 L 114.51 477.76 L 113.65 470.94 L 113.35 463.94 L 113.65 456.93 L 114.51 450.12 L 115.91 443.46 L 117.86 436.95 L 120.32 430.60 L 123.25 424.46 L 126.66 418.49 L 130.58 412.70 L 134.88 407.21 L 139.59 401.96 L 144.72 396.94 L 150.31 392.15 L 156.15 387.74 L 162.34 383.62 L 168.90 379.80 L 175.85 376.28 L 182.94 373.17 L 190.32 370.43 L 198.00 368.05 L 206.00 366.04 L 214.04 364.48 L 222.30 363.36 L 230.80 362.66 L 239.55 362.42 L 248.30 362.66 L 256.79 363.36 L 265.05 364.48 L 273.09 366.04 L 281.09 368.05 L 288.77 370.43 L 296.15 373.17 L 303.24 376.28 L 310.19 379.80 L 316.75 383.62 L 322.94 387.74 L 328.78 392.15 L 334.37 396.94 L 339.51 401.96 L 344.22 407.21 L 348.51 412.70 L 352.43 418.49 L 355.84 424.46 L 358.78 430.60 L 361.23 436.95 L 363.18 443.46 L 364.58 450.12 L 365.44 456.93 L 365.74 463.94 Z" fill="#ddc08c" fill-rule="nonzero" group-id="1,6" id="椭圆_8" node-id="53" stroke-linecap="butt" stroke-width="1" target-height="203.04199" target-width="252.392" target-x="113.3501" target-y="362.41602"></path><path d="M 113.35 459.04 L 113.35 459.04 L 113.35 388.74 L 365.74 388.74 L 365.74 462.76 Z" fill="#ddc08c" fill-rule="nonzero" group-id="1,6" id="路径_3927" node-id="54" stroke-linecap="butt" stroke-width="1" target-height="74.02588" target-width="252.39258" target-x="113.3501" target-y="388.73706"></path><path d="M 350.94 395.79 L 350.68 401.74 L 349.98 407.53 L 348.85 413.17 L 347.27 418.70 L 345.26 424.11 L 342.19 430.64 L 338.54 436.91 L 334.30 442.92 L 329.44 448.71 L 324.17 454.06 L 318.41 459.08 L 312.14 463.76 L 305.33 468.11 L 298.29 471.94 L 290.86 475.34 L 283.03 478.31 L 274.75 480.83 L 266.40 482.78 L 257.77 484.21 L 248.82 485.08 L 239.55 485.40 L 230.27 485.08 L 221.33 484.21 L 212.69 482.78 L 204.34 480.83 L 196.06 478.31 L 188.23 475.34 L 180.80 471.94 L 173.76 468.11 L 166.95 463.76 L 160.69 459.08 L 154.92 454.06 L 149.65 448.71 L 144.79 442.92 L 140.55 436.91 L 136.90 430.64 L 133.83 424.11 L 131.82 418.70 L 130.24 413.17 L 129.11 407.53 L 128.41 401.74 L 128.15 395.79 L 128.41 389.84 L 129.11 384.05 L 130.24 378.40 L 131.82 372.88 L 133.83 367.46 L 136.90 360.93 L 140.55 354.67 L 144.79 348.65 L 149.65 342.86 L 154.92 337.51 L 160.69 332.50 L 166.95 327.82 L 173.76 323.47 L 180.80 319.63 L 188.23 316.23 L 196.06 313.27 L 204.34 310.74 L 212.69 308.79 L 221.33 307.37 L 230.27 306.49 L 239.55 306.18 L 248.82 306.49 L 257.77 307.37 L 266.40 308.79 L 274.75 310.74 L 283.03 313.27 L 290.86 316.23 L 298.29 319.63 L 305.33 323.47 L 312.14 327.82 L 318.41 332.50 L 324.17 337.51 L 329.44 342.86 L 334.30 348.65 L 338.54 354.67 L 342.19 360.93 L 345.26 367.46 L 347.27 372.88 L 348.85 378.40 L 349.98 384.05 L 350.68 389.84 L 350.94 395.79 Z" fill="#d9b166" fill-rule="nonzero" group-id="1,6" id="椭圆_9" node-id="55" stroke-linecap="butt" stroke-width="1" target-height="179.22198" target-width="222.78198" target-x="128.15479" target-y="306.17603"></path><path d="M 331.91 427.28 L 329.52 431.84 L 326.77 436.18 L 323.63 440.30 L 320.08 444.22 L 314.94 449.02 L 309.32 453.44 L 303.18 457.49 L 296.76 461.08 L 290.08 464.26 L 283.14 467.04 L 276.05 469.40 L 268.97 471.32 L 261.91 472.81 L 254.77 473.90 L 247.95 474.54 L 241.43 474.75 L 235.56 474.64 L 229.35 474.22 L 222.76 473.48 L 216.24 472.40 L 209.50 470.86 L 202.54 468.84 L 195.73 466.38 L 188.81 463.29 L 181.77 459.55 L 176.72 456.44 L 171.66 452.88 L 166.58 448.85 L 161.48 444.33 L 156.73 439.61 L 152.01 434.33 L 147.32 428.44 L 142.66 421.91 L 142.88 415.16 L 143.47 408.75 L 144.43 402.66 L 145.75 396.86 L 147.40 391.34 L 150.03 384.52 L 153.13 378.15 L 156.70 372.22 L 160.76 366.68 L 165.29 361.50 L 170.23 356.74 L 175.61 352.39 L 181.43 348.43 L 187.53 344.96 L 193.99 341.92 L 200.85 339.30 L 208.13 337.10 L 215.47 335.44 L 223.14 334.22 L 231.16 333.48 L 239.55 333.22 L 247.93 333.52 L 255.86 334.38 L 263.37 335.77 L 270.50 337.66 L 277.52 340.14 L 284.11 343.08 L 290.28 346.47 L 296.07 350.32 L 301.53 354.66 L 306.57 359.40 L 311.18 364.56 L 315.40 370.16 L 319.13 376.06 L 322.41 382.35 L 325.25 389.03 L 327.64 396.15 L 329.46 403.36 L 330.79 410.93 L 331.61 418.89 L 331.91 427.28 Z" fill="#f1dda0" fill-rule="nonzero" group-id="1,6" id="路径_3928" node-id="56" stroke-linecap="butt" stroke-width="1" target-height="141.53003" target-width="189.24902" target-x="142.65674" target-y="333.21704"></path><path d="M 217.45 326.38 L 219.81 327.90 L 145.02 444.19 L 142.65 442.67 Z" fill="#d9b166" fill-rule="nonzero" group-id="1,6" id="矩形_526" node-id="57" stroke-linecap="butt" stroke-width="1" target-height="117.81952" target-width="77.16029" target-x="142.6523" target-y="326.375"></path><path d="M 255.36 327.41 L 257.73 328.94 L 172.08 462.12 L 169.71 460.60 Z" fill="#d9b166" fill-rule="nonzero" group-id="1,6" id="矩形_527" node-id="58" stroke-linecap="butt" stroke-width="1" target-height="134.71002" target-width="88.022964" target-x="169.70857" target-y="327.4131"></path><path d="M 291.35 338.25 L 293.72 339.77 L 204.19 478.98 L 201.82 477.45 Z" fill="#d9b166" fill-rule="nonzero" group-id="1,6" id="矩形_528" node-id="59" stroke-linecap="butt" stroke-width="1" target-height="140.72876" target-width="91.89375" target-x="201.82411" target-y="338.24805"></path><path d="M 324.26 354.19 L 326.62 355.71 L 246.92 479.65 L 244.55 478.13 Z" fill="#d9b166" fill-rule="nonzero" group-id="1,6" id="矩形_529" node-id="60" stroke-linecap="butt" stroke-width="1" target-height="125.46155" target-width="82.07504" target-x="244.54858" target-y="354.18896"></path><path d="M 342.03 399.23 L 344.40 400.75 L 290.63 484.35 L 288.27 482.82 Z" fill="#d9b166" fill-rule="nonzero" group-id="1,6" id="矩形_530" node-id="61" stroke-linecap="butt" stroke-width="1" target-height="85.12097" target-width="56.131104" target-x="288.26645" target-y="399.22607"></path><path d="M 239.55 294.27 L 230.80 294.51 L 222.30 295.21 L 214.04 296.33 L 206.00 297.89 L 198.00 299.90 L 190.32 302.28 L 182.94 305.02 L 175.85 308.13 L 168.90 311.65 L 162.34 315.47 L 156.15 319.59 L 150.31 324.00 L 144.72 328.79 L 139.58 333.81 L 134.87 339.06 L 130.58 344.55 L 126.66 350.34 L 123.24 356.31 L 120.31 362.45 L 117.85 368.80 L 115.91 375.31 L 114.50 381.97 L 113.65 388.78 L 113.35 395.79 L 113.65 402.79 L 114.51 409.61 L 115.91 416.26 L 117.85 422.77 L 120.31 429.12 L 123.24 435.27 L 126.66 441.23 L 130.57 447.03 L 134.87 452.51 L 139.58 457.76 L 144.72 462.78 L 150.31 467.57 L 156.15 471.98 L 162.34 476.10 L 168.90 479.92 L 175.85 483.45 L 182.94 486.55 L 190.32 489.29 L 198.00 491.67 L 206.00 493.68 L 214.04 495.24 L 222.30 496.37 L 230.80 497.06 L 239.55 497.31 L 248.29 497.06 L 256.79 496.37 L 265.05 495.24 L 273.09 493.68 L 281.09 491.67 L 288.77 489.29 L 296.15 486.55 L 303.24 483.45 L 310.19 479.92 L 316.75 476.10 L 322.94 471.98 L 328.78 467.57 L 334.37 462.78 L 339.51 457.76 L 344.22 452.51 L 348.52 447.03 L 352.43 441.23 L 355.85 435.27 L 358.78 429.12 L 361.24 422.77 L 363.19 416.26 L 364.59 409.61 L 365.44 402.79 L 365.75 395.79 L 365.44 388.78 L 364.59 381.97 L 363.19 375.31 L 361.24 368.80 L 358.78 362.45 L 355.85 356.31 L 352.43 350.34 L 348.51 344.55 L 344.22 339.06 L 339.51 333.81 L 334.37 328.79 L 328.78 324.00 L 322.94 319.59 L 316.75 315.47 L 310.19 311.65 L 303.24 308.13 L 296.15 305.02 L 288.77 302.28 L 281.09 299.90 L 273.09 297.89 L 265.05 296.33 L 256.79 295.21 L 248.30 294.51 L 239.55 294.27 Z M 239.55 485.40 L 230.27 485.08 L 221.33 484.20 L 212.69 482.78 L 204.34 480.83 L 196.06 478.31 L 188.23 475.34 L 180.80 471.94 L 173.76 468.11 L 166.95 463.76 L 160.69 459.07 L 154.92 454.06 L 149.65 448.71 L 144.79 442.92 L 140.55 436.91 L 136.90 430.64 L 133.83 424.11 L 131.82 418.70 L 130.24 413.17 L 129.11 407.53 L 128.41 401.74 L 128.15 395.79 L 128.41 389.84 L 129.11 384.05 L 130.24 378.40 L 131.82 372.88 L 133.83 367.46 L 136.90 360.93 L 140.55 354.67 L 144.79 348.65 L 149.65 342.86 L 154.92 337.51 L 160.69 332.50 L 166.95 327.82 L 173.76 323.46 L 180.80 319.63 L 188.23 316.23 L 196.07 313.27 L 204.34 310.74 L 212.69 308.79 L 221.33 307.37 L 230.27 306.49 L 239.55 306.18 L 248.82 306.49 L 257.77 307.37 L 266.40 308.79 L 274.75 310.74 L 283.03 313.27 L 290.86 316.23 L 298.29 319.63 L 305.33 323.47 L 312.14 327.82 L 318.41 332.50 L 324.17 337.51 L 329.45 342.86 L 334.31 348.65 L 338.54 354.67 L 342.19 360.93 L 345.26 367.46 L 347.28 372.88 L 348.85 378.40 L 349.98 384.05 L 350.68 389.84 L 350.94 395.79 L 350.68 401.74 L 349.98 407.53 L 348.85 413.17 L 347.28 418.70 L 345.26 424.11 L 342.19 430.64 L 338.54 436.91 L 334.31 442.92 L 329.45 448.71 L 324.17 454.06 L 318.41 459.07 L 312.14 463.76 L 305.33 468.11 L 298.29 471.94 L 290.86 475.34 L 283.03 478.31 L 274.75 480.83 L 266.40 482.78 L 257.77 484.20 L 248.82 485.08 L 239.55 485.40 Z" fill="#eccf90" fill-rule="nonzero" group-id="1,6" id="路径_3929" node-id="62" stroke-linecap="butt" stroke-width="1" target-height="203.04199" target-width="252.40039" target-x="113.3457" target-y="294.26514"></path><path d="M 240.30 477.84 L 231.64 477.54 L 223.29 476.70 L 215.22 475.34 L 207.41 473.46 L 199.69 471.05 L 192.36 468.20 L 185.41 464.94 L 178.82 461.26 L 172.46 457.10 L 166.60 452.61 L 161.20 447.81 L 156.26 442.67 L 151.71 437.14 L 147.75 431.38 L 144.33 425.37 L 141.45 419.11 L 139.56 413.93 L 138.09 408.65 L 137.03 403.24 L 136.37 397.70 L 136.13 392.01 L 136.37 386.32 L 137.03 380.78 L 138.09 375.37 L 139.56 370.09 L 141.45 364.91 L 144.33 358.65 L 147.75 352.64 L 151.71 346.88 L 156.26 341.35 L 161.20 336.21 L 166.60 331.41 L 172.46 326.92 L 178.82 322.76 L 185.41 319.08 L 192.36 315.82 L 199.68 312.98 L 207.41 310.56 L 215.22 308.68 L 223.29 307.32 L 231.64 306.48 L 240.30 306.18 L 248.96 306.48 L 257.31 307.32 L 265.38 308.68 L 273.19 310.56 L 280.91 312.98 L 288.24 315.82 L 295.18 319.08 L 301.78 322.76 L 308.14 326.92 L 314.00 331.41 L 319.39 336.21 L 324.34 341.35 L 328.88 346.88 L 332.85 352.65 L 336.26 358.65 L 339.14 364.91 L 341.03 370.09 L 342.50 375.37 L 343.57 380.78 L 344.22 386.32 L 344.46 392.01 L 344.22 397.70 L 343.57 403.24 L 342.50 408.65 L 341.03 413.93 L 339.14 419.11 L 336.27 425.37 L 332.85 431.38 L 328.88 437.14 L 324.34 442.67 L 319.39 447.81 L 314.00 452.61 L 308.14 457.10 L 301.78 461.26 L 295.18 464.94 L 288.23 468.20 L 280.91 471.05 L 273.19 473.46 L 265.38 475.34 L 257.31 476.70 L 248.96 477.54 L 240.30 477.84 Z M 240.30 316.04 L 232.46 316.31 L 224.90 317.06 L 217.59 318.26 L 210.53 319.92 L 203.53 322.06 L 196.90 324.58 L 190.61 327.47 L 184.65 330.72 L 178.88 334.41 L 173.57 338.38 L 168.69 342.64 L 164.22 347.17 L 160.10 352.08 L 156.51 357.18 L 153.42 362.49 L 150.82 368.02 L 148.74 373.77 L 147.25 379.67 L 146.33 385.74 L 146.00 392.01 L 146.33 398.28 L 147.25 404.35 L 148.74 410.25 L 150.82 415.99 L 153.42 421.53 L 156.51 426.84 L 160.10 431.94 L 164.22 436.84 L 168.69 441.38 L 173.57 445.63 L 178.88 449.61 L 184.64 453.30 L 190.61 456.55 L 196.90 459.44 L 203.53 461.95 L 210.53 464.09 L 217.59 465.76 L 224.90 466.96 L 232.46 467.70 L 240.30 467.97 L 248.14 467.70 L 255.70 466.96 L 263.00 465.76 L 270.07 464.09 L 277.07 461.95 L 283.70 459.44 L 289.99 456.55 L 295.95 453.30 L 301.71 449.61 L 307.02 445.63 L 311.90 441.38 L 316.38 436.84 L 320.49 431.94 L 324.09 426.84 L 327.18 421.53 L 329.78 415.99 L 331.86 410.25 L 333.35 404.35 L 334.26 398.28 L 334.59 392.01 L 334.26 385.74 L 333.35 379.67 L 331.86 373.77 L 329.78 368.02 L 327.18 362.49 L 324.09 357.18 L 320.49 352.08 L 316.38 347.18 L 311.90 342.64 L 307.02 338.38 L 301.71 334.41 L 295.95 330.72 L 289.99 327.47 L 283.70 324.58 L 277.07 322.07 L 270.07 319.92 L 263.00 318.26 L 255.70 317.06 L 248.14 316.31 L 240.30 316.05 Z" fill="#f6da96" fill-rule="nonzero" group-id="1,6,8" id="路径_3930" node-id="64" stroke-linecap="butt" stroke-width="1" target-height="171.66895" target-width="208.33008" target-x="136.13281" target-y="306.17603"></path><path d="M 223.01 381.42 L 222.89 387.26 L 222.48 393.10 L 221.66 398.84 L 220.38 404.20 L 219.18 407.62 L 217.70 410.73 L 215.94 413.55 L 213.83 416.08 L 211.33 418.23 L 208.41 420.01 L 205.23 421.28 L 201.47 422.10 L 197.01 422.42 L 191.36 422.08 L 186.05 421.16 L 181.05 419.67 L 176.25 417.60 L 171.92 415.10 L 168.01 412.16 L 164.51 408.77 L 161.60 405.07 L 159.23 401.04 L 157.84 397.82 L 156.85 394.50 L 156.23 391.03 L 156.01 387.42 L 156.20 380.29 L 156.88 374.10 L 157.74 370.16 L 158.95 366.70 L 160.51 363.67 L 161.99 361.62 L 163.78 359.80 L 165.90 358.22 L 168.39 356.85 L 170.97 355.87 L 174.04 355.11 L 177.69 354.61 L 182.01 354.42 L 187.69 354.58 L 193.00 355.09 L 197.96 355.92 L 202.83 357.16 L 207.16 358.75 L 211.00 360.67 L 213.70 362.44 L 216.04 364.42 L 218.07 366.61 L 219.78 369.04 L 221.14 371.66 L 222.14 374.56 L 222.77 377.80 L 223.01 381.42 Z" fill="#a0a549" fill-rule="nonzero" group-id="1,6" id="路径_3931" node-id="65" stroke-linecap="butt" stroke-width="1" target-height="68" target-width="67" target-x="156.00586" target-y="354.41602"></path><path d="M 277.01 358.42 L 276.70 363.22 L 275.83 367.70 L 274.41 371.88 L 272.44 375.84 L 269.97 379.42 L 267.00 382.66 L 263.60 385.47 L 259.73 387.86 L 255.34 389.82 L 250.73 391.22 L 245.64 392.09 L 240.01 392.42 L 235.75 392.18 L 231.77 391.55 L 228.03 390.56 L 224.52 389.20 L 221.12 387.47 L 218.00 385.47 L 215.14 383.21 L 212.51 380.66 L 209.41 376.91 L 206.83 372.87 L 204.76 368.51 L 203.24 363.93 L 202.33 359.24 L 202.01 354.42 L 202.23 350.51 L 202.84 346.91 L 203.82 343.56 L 205.14 340.44 L 206.82 337.53 L 209.40 334.18 L 212.44 331.23 L 215.99 328.64 L 220.09 326.42 L 224.37 324.74 L 229.08 323.49 L 234.27 322.71 L 240.01 322.42 L 244.27 322.63 L 248.23 323.20 L 251.91 324.10 L 255.34 325.32 L 258.67 326.91 L 261.71 328.74 L 264.48 330.82 L 267.00 333.17 L 269.97 336.66 L 272.44 340.48 L 274.41 344.64 L 275.83 349.02 L 276.70 353.60 L 277.01 358.42 Z" fill="#abb552" fill-rule="nonzero" group-id="1,6" id="路径_3932" node-id="66" stroke-linecap="butt" stroke-width="1" target-height="70" target-width="75" target-x="202.00586" target-y="322.41602"></path><path d="M 291.01 394.42 L 290.71 399.27 L 289.88 403.71 L 288.54 407.79 L 286.70 411.56 L 284.35 415.04 L 281.54 418.12 L 278.24 420.82 L 274.40 423.16 L 270.35 424.93 L 265.81 426.25 L 260.73 427.10 L 255.01 427.42 L 249.25 427.17 L 244.05 426.49 L 239.35 425.40 L 235.09 423.93 L 230.96 421.94 L 227.42 419.59 L 224.39 416.88 L 221.83 413.78 L 220.16 411.07 L 218.83 408.11 L 217.86 404.87 L 217.24 401.32 L 217.01 397.42 L 217.22 392.57 L 217.88 387.88 L 218.98 383.32 L 220.54 378.93 L 222.55 374.89 L 225.01 371.17 L 227.17 368.62 L 229.59 366.36 L 232.29 364.37 L 235.30 362.64 L 238.44 361.29 L 241.90 360.30 L 245.74 359.66 L 250.01 359.42 L 255.66 359.75 L 260.96 360.67 L 265.96 362.17 L 270.76 364.23 L 275.09 366.73 L 279.00 369.67 L 282.50 373.07 L 285.42 376.77 L 287.78 380.79 L 289.17 384.01 L 290.17 387.34 L 290.78 390.80 L 291.01 394.42 Z" fill="#b7bc4b" fill-rule="nonzero" group-id="1,6" id="路径_3933" node-id="67" stroke-linecap="butt" stroke-width="1" target-height="68" target-width="74" target-x="217.00586" target-y="359.41602"></path><path d="M 331.01 407.42 L 330.78 411.03 L 330.17 414.50 L 329.17 417.82 L 327.78 421.04 L 325.42 425.07 L 322.50 428.77 L 319.00 432.16 L 315.09 435.10 L 310.76 437.60 L 305.96 439.67 L 300.96 441.16 L 295.65 442.08 L 290.01 442.42 L 284.29 442.23 L 278.67 441.68 L 273.11 440.76 L 267.65 439.43 L 262.63 437.72 L 258.01 435.66 L 254.70 433.78 L 251.82 431.70 L 249.31 429.42 L 247.17 426.95 L 245.40 424.21 L 244.12 421.23 L 243.32 417.99 L 243.01 414.42 L 243.32 410.57 L 244.21 406.65 L 245.72 402.63 L 247.68 398.78 L 250.11 395.00 L 253.03 391.28 L 256.26 387.82 L 259.81 384.61 L 263.68 381.63 L 267.78 378.99 L 272.03 376.76 L 276.42 374.93 L 280.97 373.55 L 285.48 372.71 L 290.01 372.42 L 295.66 372.75 L 300.96 373.67 L 305.96 375.17 L 310.76 377.23 L 315.09 379.73 L 319.00 382.67 L 322.50 386.07 L 325.42 389.77 L 327.78 393.79 L 329.17 397.01 L 330.17 400.34 L 330.78 403.80 L 331.01 407.42 Z" fill="#a0a549" fill-rule="nonzero" group-id="1,6" id="路径_3934" node-id="68" stroke-linecap="butt" stroke-width="1" target-height="70" target-width="88" target-x="243.00586" target-y="372.41602"></path><path d="M 265.01 433.42 L 264.75 437.02 L 264.07 440.39 L 262.98 443.57 L 261.47 446.57 L 259.60 449.38 L 257.41 451.99 L 254.89 454.42 L 252.00 456.66 L 247.86 459.22 L 243.30 461.38 L 238.28 463.13 L 233.09 464.38 L 227.68 465.15 L 222.01 465.42 L 216.36 465.08 L 211.05 464.16 L 206.05 462.67 L 201.25 460.60 L 196.92 458.10 L 193.01 455.16 L 189.51 451.77 L 186.60 448.07 L 184.23 444.04 L 182.84 440.82 L 181.85 437.50 L 181.23 434.03 L 181.01 430.42 L 181.21 425.57 L 181.82 420.99 L 182.82 416.64 L 184.29 412.44 L 186.19 408.63 L 188.51 405.17 L 190.57 402.82 L 192.89 400.74 L 195.51 398.91 L 198.45 397.32 L 201.50 396.12 L 204.91 395.21 L 208.73 394.64 L 213.01 394.42 L 217.55 394.67 L 222.25 395.40 L 227.11 396.62 L 231.86 398.23 L 236.52 400.22 L 241.09 402.58 L 245.48 405.27 L 249.51 408.19 L 253.22 411.34 L 256.63 414.79 L 259.47 418.32 L 261.77 421.94 L 263.19 424.84 L 264.18 427.70 L 264.78 430.55 L 265.01 433.42 Z" fill="#abb552" fill-rule="nonzero" group-id="1,6" id="路径_3935" node-id="69" stroke-linecap="butt" stroke-width="1" target-height="71" target-width="84" target-x="181.00586" target-y="394.41602"></path><path d="M 261.30 259.31 L 240.10 303.91 L 240.87 307.33 L 242.05 311.02 L 244.45 316.83 L 246.42 320.84 L 249.14 325.60 L 252.73 331.23 L 256.61 336.60 L 261.51 342.62 L 267.59 349.34 L 273.98 355.69 L 281.70 362.57 L 290.91 370.00 L 297.90 375.17 L 305.80 380.56 L 314.67 386.18 L 324.59 392.03 L 337.31 398.00 L 348.79 402.90 L 359.11 406.86 L 369.62 410.41 L 379.00 413.17 L 387.33 415.22 L 395.79 416.89 L 403.22 418.01 L 409.72 418.64 L 416.29 418.95 L 421.93 418.94 L 426.76 418.66 L 433.70 417.83 L 438.91 416.80 L 443.55 415.58 L 446.66 414.59 L 476.58 374.22 Z" fill="#f9e0a4" fill-rule="nonzero" group-id="1,7,9" id="路径_3936" node-id="72" stroke-linecap="butt" stroke-width="1" target-height="159.64478" target-width="236.4834" target-x="240.0957" target-y="259.3059"></path><path d="M 391.83 273.86 L 403.62 280.50 L 414.56 287.28 L 424.69 294.21 L 434.50 301.61 L 443.24 308.90 L 450.99 316.07 L 456.61 321.84 L 461.50 327.37 L 465.73 332.69 L 469.33 337.80 L 472.69 343.33 L 475.25 348.47 L 477.10 353.25 L 478.32 357.73 L 478.90 361.52 L 478.99 365.02 L 478.62 368.28 L 477.82 371.33 L 476.57 374.22 L 474.87 376.85 L 472.78 379.22 L 470.28 381.34 L 467.32 383.22 L 463.85 384.85 L 459.45 386.32 L 454.45 387.45 L 448.75 388.18 L 442.28 388.46 L 436.03 388.32 L 429.27 387.77 L 421.95 386.78 L 414.03 385.31 L 403.76 382.87 L 392.84 379.67 L 381.23 375.63 L 369.84 371.07 L 358.11 365.76 L 346.04 359.66 L 334.25 353.02 L 323.31 346.24 L 313.18 339.31 L 303.37 331.91 L 294.63 324.62 L 286.89 317.45 L 281.26 311.68 L 276.37 306.15 L 272.14 300.84 L 268.54 295.73 L 265.18 290.19 L 262.62 285.06 L 260.77 280.27 L 259.55 275.79 L 258.97 272.00 L 258.88 268.50 L 259.25 265.24 L 260.06 262.19 L 261.30 259.31 L 263.00 256.67 L 265.09 254.30 L 267.59 252.18 L 270.55 250.31 L 274.02 248.68 L 278.42 247.20 L 283.43 246.08 L 289.12 245.35 L 295.59 245.06 L 301.84 245.21 L 308.60 245.76 L 315.93 246.74 L 323.84 248.21 L 334.11 250.65 L 345.03 253.86 L 356.64 257.89 L 368.04 262.45 L 379.76 267.76 L 391.83 273.86 Z" fill="#eacf8b" fill-rule="nonzero" group-id="1,7,9" id="椭圆_10" node-id="73" stroke-linecap="butt" stroke-width="1" target-height="143.40668" target-width="220.10901" target-x="258.88132" target-y="245.05771"></path><path d="M 388.12 282.44 L 398.31 288.14 L 407.78 293.91 L 416.58 299.75 L 425.15 305.95 L 432.80 312.01 L 439.61 317.93 L 446.12 324.21 L 451.53 330.10 L 455.97 335.64 L 459.06 340.13 L 461.44 344.25 L 463.20 348.03 L 464.41 351.53 L 465.17 355.25 L 465.27 358.56 L 464.77 361.53 L 463.70 364.25 L 462.03 366.65 L 459.84 368.73 L 457.04 370.49 L 453.52 371.93 L 449.95 372.87 L 445.82 373.51 L 441.07 373.83 L 435.62 373.76 L 428.56 373.15 L 420.65 371.93 L 411.80 370.02 L 403.10 367.66 L 393.81 364.67 L 383.88 361.00 L 374.13 356.94 L 364.07 352.28 L 353.67 346.99 L 343.48 341.30 L 334.01 335.53 L 325.21 329.69 L 316.64 323.48 L 308.98 317.42 L 302.18 311.51 L 295.67 305.22 L 290.25 299.33 L 285.82 293.80 L 282.73 289.31 L 280.34 285.19 L 278.58 281.40 L 277.37 277.90 L 276.61 274.18 L 276.52 270.87 L 277.02 267.90 L 278.09 265.18 L 279.75 262.78 L 281.95 260.71 L 284.75 258.94 L 288.26 257.50 L 291.84 256.56 L 295.97 255.92 L 300.71 255.61 L 306.17 255.68 L 313.23 256.28 L 321.14 257.50 L 329.99 259.41 L 338.69 261.77 L 347.98 264.76 L 357.91 268.43 L 367.65 272.49 L 377.72 277.15 L 388.12 282.44 Z" fill="#f9e0a4" fill-rule="nonzero" group-id="1,7,9" id="椭圆_11" node-id="74" stroke-linecap="butt" stroke-width="1" target-height="118.2206" target-width="188.7493" target-x="276.5184" target-y="255.60585"></path><path d="M 299.89 255.64 L 299.89 310.41" fill="none" group-id="1,7" id="直线_171" node-id="75" stroke="#ead19b" stroke-linecap="butt" stroke-width="1" target-height="54.770996" target-width="0" target-x="299.88867" target-y="255.63892"></path><path d="M 285.80 257.52 L 285.80 293.84" fill="none" group-id="1,7" id="直线_172" node-id="76" stroke="#ead19b" stroke-linecap="butt" stroke-width="1" target-height="36.322998" target-width="0" target-x="285.79883" target-y="257.51904"></path><path d="M 314.89 256.50 L 314.89 322.14" fill="none" group-id="1,7" id="直线_173" node-id="77" stroke="#ead19b" stroke-linecap="butt" stroke-width="1" target-height="65.64801" target-width="0" target-x="314.88867" target-y="256.49512"></path><path d="M 280.21 262.26 L 441.41 319.18" fill="none" group-id="1,7" id="直线_174" node-id="78" stroke="#ead19b" stroke-linecap="butt" stroke-width="1" target-height="56.92099" target-width="161.20099" target-x="280.21094" target-y="262.26196"></path><path d="M 276.07 274.26 L 457.34 337.54" fill="none" group-id="1,7" id="直线_175" node-id="79" stroke="#ead19b" stroke-linecap="butt" stroke-width="1" target-height="63.286987" target-width="181.26898" target-x="276.06885" target-y="274.25708"></path><path d="M 280.21 287.68 L 466.20 353.36" fill="none" group-id="1,7" id="直线_176" node-id="80" stroke="#ead19b" stroke-linecap="butt" stroke-width="1" target-height="65.67499" target-width="185.99402" target-x="280.21094" target-y="287.68213"></path><path d="M 293.20 302.63 L 463.70 364.25" fill="none" group-id="1,7" id="直线_177" node-id="81" stroke="#ead19b" stroke-linecap="butt" stroke-width="1" target-height="61.627014" target-width="170.50299" target-x="293.19775" target-y="302.62598"></path><path d="M 314.89 322.54 L 453.59 372.68" fill="none" group-id="1,7" id="直线_178" node-id="82" stroke="#ead19b" stroke-linecap="butt" stroke-width="1" target-height="50.132996" target-width="138.70398" target-x="314.88867" target-y="322.54395"></path><path d="M 299.77 256.31 L 418.11 300.76" fill="none" group-id="1,7" id="直线_179" node-id="83" stroke="#ead19b" stroke-linecap="butt" stroke-width="1" target-height="44.45099" target-width="118.345" target-x="299.76904" target-y="256.30908"></path><path d="M 330.45 259.31 L 330.45 333.22" fill="none" group-id="1,7" id="直线_180" node-id="84" stroke="#ead19b" stroke-linecap="butt" stroke-width="1" target-height="73.912994" target-width="0" target-x="330.44873" target-y="259.3059"></path><path d="M 345.99 264.47 L 345.99 342.75" fill="none" group-id="1,7" id="直线_181" node-id="85" stroke="#ead19b" stroke-linecap="butt" stroke-width="1" target-height="78.281006" target-width="0" target-x="345.98682" target-y="264.4651"></path><path d="M 360.81 269.33 L 360.81 351.54" fill="none" group-id="1,7" id="直线_182" node-id="86" stroke="#ead19b" stroke-linecap="butt" stroke-width="1" target-height="82.20599" target-width="0" target-x="360.81104" target-y="269.3291"></path><path d="M 375.57 276.11 L 375.57 358.31" fill="none" group-id="1,7" id="直线_183" node-id="87" stroke="#ead19b" stroke-linecap="butt" stroke-width="1" target-height="82.20599" target-width="0" target-x="375.56982" target-y="276.1079"></path><path d="M 389.67 281.44 L 389.67 363.65" fill="none" group-id="1,7" id="直线_184" node-id="88" stroke="#ead19b" stroke-linecap="butt" stroke-width="1" target-height="82.20599" target-width="0" target-x="389.66992" target-y="281.43994"></path><path d="M 403.44 290.99 L 403.44 367.76" fill="none" group-id="1,7" id="直线_185" node-id="89" stroke="#ead19b" stroke-linecap="butt" stroke-width="1" target-height="76.76999" target-width="0" target-x="403.4419" target-y="290.98608"></path><path d="M 416.93 299.16 L 416.93 371.19" fill="none" group-id="1,7" id="直线_186" node-id="90" stroke="#ead19b" stroke-linecap="butt" stroke-width="1" target-height="72.031006" target-width="0" target-x="416.9297" target-y="299.15894"></path><path d="M 430.09 309.03 L 430.09 373.32" fill="none" group-id="1,7" id="直线_187" node-id="91" stroke="#ead19b" stroke-linecap="butt" stroke-width="1" target-height="64.29401" target-width="0" target-x="430.08984" target-y="309.02905"></path><path d="M 442.55 319.39 L 442.55 373.77" fill="none" group-id="1,7" id="直线_188" node-id="92" stroke="#ead19b" stroke-linecap="butt" stroke-width="1" target-height="54.378998" target-width="0" target-x="442.5459" target-y="319.38794"></path><path d="M 455.94 335.90 L 455.94 371.19" fill="none" group-id="1,7" id="直线_189" node-id="93" stroke="#ead19b" stroke-linecap="butt" stroke-width="1" target-height="35.291992" target-width="0" target-x="455.94092" target-y="335.89893"></path></g></g></svg>