<?xml version="1.0" standalone="no"?><!DOCTYPE svg PUBLIC "-//W3C//DTD SVG 1.1//EN" "http://www.w3.org/Graphics/SVG/1.1/DTD/svg11.dtd"><svg height="200" legacy-metrics="false" node-id="1" sillyvg="true" template-height="200" template-width="200" version="1.1" viewBox="0 0 200 200" width="200" xmlns="http://www.w3.org/2000/svg" xmlns:xlink="http://www.w3.org/1999/xlink"><defs node-id="124"><clipPath id="clip-path" node-id="3"><path d="M 200.00 100.00 L 199.77 106.67 L 199.14 113.15 L 198.11 119.45 L 196.70 125.60 L 194.90 131.61 L 192.11 138.97 L 188.82 145.99 L 185.02 152.68 L 180.71 159.06 L 175.91 165.10 L 170.71 170.71 L 165.10 175.91 L 159.06 180.71 L 152.68 185.02 L 145.99 188.82 L 138.97 192.11 L 131.61 194.90 L 125.60 196.70 L 119.45 198.11 L 113.15 199.14 L 106.67 199.77 L 100.00 200.00 L 93.33 199.77 L 86.85 199.14 L 80.55 198.11 L 74.40 196.70 L 68.39 194.90 L 61.03 192.11 L 54.01 188.82 L 47.32 185.02 L 40.94 180.71 L 34.90 175.91 L 29.29 170.71 L 24.09 165.10 L 19.29 159.06 L 14.98 152.68 L 11.18 145.99 L 7.89 138.97 L 5.10 131.61 L 3.30 125.60 L 1.89 119.45 L 0.86 113.15 L 0.23 106.67 L 0.00 100.00 L 0.23 93.33 L 0.86 86.85 L 1.89 80.55 L 3.30 74.40 L 5.10 68.39 L 7.89 61.03 L 11.18 54.01 L 14.98 47.32 L 19.29 40.94 L 24.09 34.90 L 29.29 29.29 L 34.90 24.09 L 40.94 19.29 L 47.32 14.98 L 54.01 11.18 L 61.03 7.89 L 68.39 5.10 L 74.40 3.30 L 80.55 1.89 L 86.85 0.86 L 93.33 0.23 L 100.00 0.00 L 106.67 0.23 L 113.15 0.86 L 119.45 1.89 L 125.60 3.30 L 131.61 5.10 L 138.97 7.89 L 145.99 11.18 L 152.68 14.98 L 159.06 19.29 L 165.10 24.09 L 170.71 29.29 L 175.91 34.90 L 180.71 40.94 L 185.02 47.32 L 188.82 54.01 L 192.11 61.03 L 194.90 68.39 L 196.70 74.40 L 198.11 80.55 L 199.14 86.85 L 199.77 93.33 L 200.00 100.00 Z" fill="#000000" fill-rule="nonzero" id="椭圆_139" node-id="4" stroke-linecap="butt" stroke-width="1" target-height="200" target-width="200" target-x="0" target-y="0"></path></clipPath><linearGradient gradientUnits="objectBoundingBox" id="linear-gradient" node-id="5" x1="0.5" x2="0.5" y1="0" y2="1"><stop offset="0" stop-color="#3e5060"></stop><stop offset="1" stop-color="#3e5060" stop-opacity="0"></stop></linearGradient><linearGradient gradientUnits="objectBoundingBox" id="linear-gradient-2" node-id="8" x1="1.043" x2="2.043" y1="1.48" y2="1.48"><stop offset="0" stop-color="#f8f4f3"></stop><stop offset="1" stop-color="#452929"></stop></linearGradient><linearGradient gradientUnits="objectBoundingBox" id="linear-gradient-3" node-id="11" x1="0.573" x2="1.573" y1="1.006" y2="1.006"><stop offset="0" stop-color="#f8f4f3"></stop><stop offset="1" stop-color="#452929"></stop></linearGradient></defs><g node-id="126"><g clip-path="url(#clip-path)" group-id="1" id="组_270" node-id="13"><path d="M 19.98 -30.96 L 223.08 3.95 L 186.10 219.07 L -17.00 184.15 Z" fill="#f0ce8f" fill-rule="nonzero" group-id="1" id="矩形_112" node-id="14" stroke-linecap="butt" stroke-width="0.99999994" target-height="250.0301" target-width="240.07826" target-x="-17.002272" target-y="-30.962"></path><path d="M 35.45 102.61 L 36.26 100.92 L 37.19 99.31 L 38.62 97.31 L 40.34 95.47 L 42.44 93.94 L 43.99 93.23 L 45.70 92.90 L 47.61 92.96 L 51.17 93.82 L 53.35 94.76 L 55.04 95.91 L 55.86 96.78 L 56.42 97.73 L 56.41 95.96 L 56.79 91.69 L 57.33 89.14 L 58.23 86.48 L 59.56 84.02 L 61.39 81.91 L 62.88 80.82 L 64.70 80.02 L 66.91 79.53 L 75.30 79.53 L 76.13 77.66 L 77.18 75.87 L 78.95 73.55 L 80.35 72.11 L 82.10 70.74 L 84.24 69.45 L 86.52 68.48 L 89.25 67.85 L 92.50 67.58 L 95.76 67.82 L 98.41 68.37 L 100.53 69.18 L 102.54 70.31 L 104.11 71.49 L 105.32 72.72 L 106.81 74.71 L 107.63 76.25 L 108.23 77.85 L 109.63 77.41 L 111.09 77.06 L 113.14 76.78 L 115.31 76.74 L 117.70 77.06 L 120.02 77.86 L 122.29 79.32 L 124.72 81.76 L 125.94 83.53 L 126.65 85.25 L 126.80 86.30 L 126.69 87.29 L 127.78 86.70 L 129.01 86.34 L 130.98 86.21 L 133.15 86.54 L 136.13 87.71 L 137.00 86.29 L 138.00 84.94 L 139.51 83.26 L 141.30 81.73 L 143.47 80.46 L 145.05 79.89 L 146.79 79.65 L 148.71 79.74 L 150.58 80.23 L 152.14 80.93 L 153.42 81.83 L 155.04 83.50 L 156.19 85.28 L 156.99 87.14 L 157.41 88.68 L 157.59 90.07 L 157.52 90.65 L 159.18 90.58 L 160.80 90.65 L 162.71 90.93 L 164.52 91.54 L 165.91 92.54 L 167.10 91.70 L 168.41 90.94 L 170.40 90.03 L 172.63 89.31 L 175.38 88.82 L 178.30 88.79 L 181.65 89.37 L 183.84 90.11 L 186.21 91.29 L 188.78 92.96 L 188.78 143.30 L 34.19 143.30 Z" fill="#ffffff" fill-opacity="0.25" fill-rule="nonzero" group-id="1,2" id="路径_3031" node-id="16" stroke-linecap="butt" stroke-opacity="0.25" stroke-width="1" target-height="75.725006" target-width="154.58984" target-x="34.18701" target-y="67.576996"></path><path d="M 152.35 55.08 L 150.32 56.64 L 145.31 60.35 L 138.92 64.78 L 135.62 66.87 L 132.76 68.49 L 130.06 69.70 L 128.45 70.04 L 207.45 70.04 L 207.45 55.08 Z" fill="#53687f" fill-rule="nonzero" group-id="1,3" id="路径_3032" node-id="18" stroke-linecap="butt" stroke-width="1" target-height="14.959991" target-width="79" target-x="128.45313" target-y="55.083008"></path><path d="M 128.45 70.04 L 207.45 70.04 L 207.45 76.06 L 128.45 76.06 Z" fill="#3e5060" fill-rule="nonzero" group-id="1,3" id="矩形_113" node-id="19" stroke-linecap="butt" stroke-width="1" target-height="6.020996" target-width="78.998" target-x="128.453" target-y="70.043"></path><path d="M 133.20 76.06 L 207.45 76.06 L 207.45 131.16 L 133.20 131.16 Z" fill="#c1ac9a" fill-rule="nonzero" group-id="1,3" id="矩形_114" node-id="20" stroke-linecap="butt" stroke-width="1" target-height="55.098" target-width="74.254" target-x="133.197" target-y="76.064"></path><path d="M 161.65 55.08 L 159.83 56.64 L 155.24 60.35 L 149.16 64.78 L 145.91 66.85 L 142.90 68.49 L 139.95 69.67 L 137.75 70.04" fill="none" group-id="1,3" id="路径_3033" node-id="21" stroke="#3a495c" stroke-linecap="butt" stroke-width="2" target-height="14.959991" target-width="23.90039" target-x="137.7539" target-y="55.083008"></path><path d="M 173.60 55.08 L 171.79 56.64 L 167.19 60.35 L 161.11 64.78 L 157.86 66.85 L 154.85 68.49 L 151.90 69.67 L 149.71 70.04" fill="none" group-id="1,3" id="路径_3034" node-id="22" stroke="#3a495c" stroke-linecap="butt" stroke-width="2" target-height="14.959991" target-width="23.899902" target-x="149.70508" target-y="55.083008"></path><path d="M 186.97 55.08 L 185.15 56.64 L 180.55 60.35 L 174.48 64.78 L 171.23 66.85 L 168.22 68.49 L 165.27 69.67 L 163.07 70.04" fill="none" group-id="1,3" id="路径_3035" node-id="23" stroke="#3a495c" stroke-linecap="butt" stroke-width="2" target-height="14.959991" target-width="23.90039" target-x="163.06982" target-y="55.083008"></path><path d="M 201.11 55.08 L 199.29 56.64 L 194.69 60.35 L 188.62 64.78 L 185.36 66.85 L 182.36 68.49 L 179.41 69.67 L 177.21 70.04" fill="none" group-id="1,3" id="路径_3036" node-id="24" stroke="#3a495c" stroke-linecap="butt" stroke-width="2" target-height="14.959991" target-width="23.899902" target-x="177.20898" target-y="55.083008"></path><path d="M 215.08 55.08 L 213.26 56.64 L 208.67 60.35 L 202.59 64.78 L 199.34 66.85 L 196.33 68.49 L 193.38 69.67 L 191.18 70.04" fill="none" group-id="1,3" id="路径_3037" node-id="25" stroke="#3a495c" stroke-linecap="butt" stroke-width="2" target-height="14.959991" target-width="23.899902" target-x="191.18213" target-y="55.083008"></path><path d="M -0.88 119.93 L -0.88 230.80 L 271.60 230.80 L 271.60 121.21 Z" fill="#c1ac9a" fill-rule="nonzero" group-id="1,4" id="路径_3038" node-id="27" stroke-linecap="butt" stroke-width="1" target-height="110.87402" target-width="272.48584" target-x="-0.8820801" target-y="119.925995"></path><path d="M -0.88 120.57 L -0.02 121.81 L 0.99 122.92 L 2.56 124.19 L 4.44 125.14 L 6.87 125.66 L 8.56 125.63 L 10.54 125.17 L 12.90 124.20 L 14.60 124.67 L 18.95 125.43 L 21.68 125.60 L 24.75 125.46 L 27.81 124.90 L 30.84 123.77 L 32.38 124.43 L 34.02 124.98 L 36.42 125.57 L 39.04 125.94 L 42.11 125.98 L 45.24 125.53 L 48.57 124.41 L 50.68 124.81 L 55.68 125.41 L 58.64 125.52 L 61.55 125.36 L 63.45 125.03 L 65.02 124.49 L 66.30 123.77 L 67.89 124.24 L 72.03 125.07 L 74.70 125.33 L 77.80 125.35 L 80.96 125.01 L 84.25 124.20 L 85.94 124.57 L 90.11 125.20 L 92.67 125.37 L 95.38 125.32 L 98.03 124.96 L 100.38 124.20 L 101.95 124.50 L 105.82 125.11 L 110.71 125.56 L 113.21 125.57 L 115.38 125.37 L 117.31 124.86 L 118.54 124.09 L 120.57 124.54 L 125.41 125.28 L 128.31 125.47 L 131.20 125.40 L 133.93 124.92 L 136.05 123.98 L 140.12 125.10 L 144.27 125.63 L 148.45 125.58 L 152.61 124.94 L 154.41 125.65 L 156.29 126.22 L 158.93 126.79 L 161.74 127.07 L 164.82 126.93 L 166.85 126.52 L 168.82 125.76 L 170.77 124.62 L 172.33 124.95 L 176.16 125.56 L 181.01 125.93 L 183.47 125.85 L 185.62 125.53 L 187.49 124.84 L 188.71 123.82 L 190.15 124.21 L 193.67 125.01 L 198.10 125.68 L 200.36 125.79 L 202.29 125.66 L 203.99 125.19 L 205.06 124.41 L 207.14 125.05 L 209.29 125.57 L 212.24 126.06 L 215.36 126.29 L 218.66 126.10 L 220.83 125.67 L 222.83 124.92 L 224.71 123.82 L 226.75 124.43 L 231.51 125.48 L 234.29 125.82 L 236.92 125.85 L 238.62 125.61 L 239.93 125.13 L 240.95 124.41 L 243.15 124.89 L 248.34 125.68 L 251.40 125.89 L 254.38 125.81 L 256.31 125.52 L 257.86 125.01 L 259.10 124.30 L 260.88 124.81 L 264.87 125.79 L 267.14 126.20 L 269.11 126.42 L 270.84 126.33 L 271.60 125.90 L 271.60 107.43 L -0.88 107.43 Z" fill="#ffffff" fill-rule="nonzero" group-id="1,4,6" id="路径_3039" node-id="29" stroke-linecap="butt" stroke-width="1" target-height="19.647339" target-width="272.48682" target-x="-0.8820801" target-y="107.42502"></path><path d="M -0.88 119.93 L -0.02 121.17 L 0.99 122.28 L 2.56 123.54 L 4.44 124.50 L 6.87 125.02 L 8.56 124.99 L 10.54 124.53 L 12.90 123.56 L 14.60 124.03 L 18.95 124.79 L 21.68 124.96 L 24.75 124.82 L 27.81 124.26 L 30.84 123.13 L 32.38 123.79 L 34.02 124.34 L 36.42 124.93 L 39.04 125.30 L 42.11 125.34 L 45.24 124.89 L 48.57 123.77 L 50.68 124.17 L 55.68 124.77 L 58.64 124.88 L 61.55 124.72 L 63.45 124.39 L 65.02 123.85 L 66.30 123.13 L 67.89 123.60 L 72.03 124.43 L 74.70 124.69 L 77.80 124.71 L 80.96 124.37 L 84.25 123.56 L 85.94 123.93 L 90.11 124.56 L 92.67 124.73 L 95.38 124.68 L 98.03 124.32 L 100.38 123.56 L 101.95 123.86 L 105.82 124.47 L 110.71 124.92 L 113.21 124.93 L 115.38 124.73 L 117.31 124.22 L 118.54 123.45 L 120.57 123.90 L 125.41 124.64 L 128.31 124.83 L 131.20 124.76 L 133.93 124.28 L 136.05 123.34 L 140.12 124.46 L 144.27 124.99 L 148.45 124.94 L 152.61 124.30 L 154.41 125.01 L 156.29 125.58 L 158.93 126.15 L 161.74 126.43 L 164.82 126.29 L 166.85 125.88 L 168.82 125.12 L 170.77 123.98 L 172.33 124.31 L 176.16 124.92 L 181.01 125.29 L 183.47 125.21 L 185.62 124.89 L 187.49 124.20 L 188.71 123.18 L 190.15 123.57 L 193.67 124.37 L 198.10 125.04 L 200.36 125.15 L 202.29 125.02 L 203.99 124.55 L 205.06 123.77 L 207.14 124.41 L 209.29 124.93 L 212.24 125.42 L 215.36 125.65 L 218.66 125.46 L 220.83 125.03 L 222.83 124.28 L 224.71 123.18 L 226.75 123.79 L 231.51 124.84 L 234.29 125.18 L 236.92 125.21 L 238.62 124.97 L 239.93 124.48 L 240.95 123.77 L 243.15 124.25 L 248.34 125.04 L 251.40 125.25 L 254.38 125.17 L 256.31 124.88 L 257.86 124.37 L 259.10 123.66 L 260.88 124.17 L 264.87 125.14 L 267.14 125.56 L 269.11 125.78 L 270.84 125.68 L 271.60 125.26 L 271.60 106.79 L -0.88 106.79 Z" fill="#53687f" fill-rule="nonzero" group-id="1,4,6" id="路径_3040" node-id="30" stroke-linecap="butt" stroke-width="1" target-height="19.643738" target-width="272.48682" target-x="-0.8820801" target-y="106.787994"></path><path d="M 12.90 123.56 L 14.98 106.79 L 15.86 106.79 L 13.77 123.82 Z" fill="#3a495c" fill-rule="nonzero" group-id="1,4,6" id="路径_3041" node-id="31" stroke-linecap="butt" stroke-width="1" target-height="17.028992" target-width="2.9638672" target-x="12.896973" target-y="106.787994"></path><path d="M 30.84 123.13 L 33.41 106.79 L 34.58 106.79 L 31.85 123.58 Z" fill="#3a495c" fill-rule="nonzero" group-id="1,4,6" id="路径_3042" node-id="32" stroke-linecap="butt" stroke-width="1" target-height="16.789978" target-width="3.7390137" target-x="30.843018" target-y="106.787994"></path><path d="M 48.57 123.77 L 51.24 106.79 L 52.42 106.79 L 49.70 123.99 Z" fill="#3a495c" fill-rule="nonzero" group-id="1,4,6" id="路径_3043" node-id="33" stroke-linecap="butt" stroke-width="1" target-height="17.20697" target-width="3.8452148" target-x="48.572754" target-y="106.787994"></path><path d="M 66.31 123.13 L 68.39 106.79 L 69.24 106.79 L 67.21 123.41 Z" fill="#3a495c" fill-rule="nonzero" group-id="1,4,6" id="路径_3044" node-id="34" stroke-linecap="butt" stroke-width="1" target-height="16.625977" target-width="2.9370117" target-x="66.305176" target-y="106.787994"></path><path d="M 84.25 123.56 L 85.91 106.79 L 86.60 106.79 L 85.15 123.77 Z" fill="#3a495c" fill-rule="nonzero" group-id="1,4,6" id="路径_3045" node-id="35" stroke-linecap="butt" stroke-width="1" target-height="16.97998" target-width="2.3500977" target-x="84.25" target-y="106.787994"></path><path d="M 100.38 123.56 L 101.98 106.79 L 102.73 106.79 L 101.13 123.71 Z" fill="#3a495c" fill-rule="nonzero" group-id="1,4,6" id="路径_3046" node-id="36" stroke-linecap="butt" stroke-width="1" target-height="16.921997" target-width="2.3481445" target-x="100.379395" target-y="106.787994"></path><path d="M 118.54 123.45 L 119.98 106.78 L 120.67 106.78 L 119.29 123.63 Z" fill="#3a495c" fill-rule="nonzero" group-id="1,4,6" id="路径_3047" node-id="37" stroke-linecap="butt" stroke-width="1" target-height="16.842041" target-width="2.1362305" target-x="118.53711" target-y="106.78494"></path><path d="M 136.05 123.35 L 137.71 106.79 L 138.51 106.79 L 136.84 123.63 Z" fill="#3a495c" fill-rule="nonzero" group-id="1,4,6" id="路径_3048" node-id="38" stroke-linecap="butt" stroke-width="1" target-height="16.84198" target-width="2.4550781" target-x="136.0542" target-y="106.79196"></path><path d="M 152.61 124.31 L 154.69 106.79 L 155.44 106.79 L 153.45 124.66 Z" fill="#3a495c" fill-rule="nonzero" group-id="1,4,6" id="路径_3049" node-id="39" stroke-linecap="butt" stroke-width="1" target-height="17.867981" target-width="2.8305664" target-x="152.61133" target-y="106.787994"></path><path d="M 170.77 123.98 L 172.91 106.78 L 173.76 106.78 L 171.59 124.16 Z" fill="#3a495c" fill-rule="nonzero" group-id="1,4,6" id="路径_3050" node-id="40" stroke-linecap="butt" stroke-width="1" target-height="17.373047" target-width="2.991211" target-x="170.77002" target-y="106.78494"></path><path d="M 188.71 123.19 L 190.31 106.79 L 191.12 106.79 L 189.50 123.40 Z" fill="#3a495c" fill-rule="nonzero" group-id="1,4,6" id="路径_3051" node-id="41" stroke-linecap="butt" stroke-width="1" target-height="16.615967" target-width="2.4003906" target-x="188.71484" target-y="106.78598"></path><path d="M 205.05 123.77 L 207.24 106.79 L 208.04 106.79 L 205.92 124.06 Z" fill="#3a495c" fill-rule="nonzero" group-id="1,4,6" id="路径_3052" node-id="42" stroke-linecap="butt" stroke-width="1" target-height="17.268982" target-width="2.9902344" target-x="205.0542" target-y="106.787994"></path><path d="M -0.88 100.71 L 271.60 100.71 L 271.60 112.82 L -0.88 112.82 Z" fill="url(#linear-gradient)" fill-rule="nonzero" group-id="1,4,6" id="矩形_115" node-id="43" stroke-linecap="butt" stroke-width="1" target-height="12.111" target-width="272.485" target-x="-0.882" target-y="100.71"></path><path d="M -0.88 100.97 L 271.60 100.97 L 271.60 106.82 L -0.88 106.82 Z" fill="#3e5060" fill-rule="nonzero" group-id="1,4,6" id="矩形_116" node-id="44" stroke-linecap="butt" stroke-width="1" target-height="5.8539963" target-width="272.485" target-x="-0.882" target-y="100.967"></path><path d="M 23.71 181.16 L 190.67 181.16 L 190.67 218.84 L 23.71 218.84 Z" fill="#877668" fill-rule="nonzero" group-id="1,4" id="矩形_117" node-id="45" stroke-linecap="butt" stroke-width="1" target-height="37.677002" target-width="166.954" target-x="23.712" target-y="181.161"></path><text align="center" editable="true" ellipsis="false" fill="#ffffff" flags="1" font-family="'Noto Sans CJK SC'" font-size="9" font-stretch="normal" font-style="normal" font-weight="400" group-id="1" height="13.32" hidden="true" id="秋分_" letter-spacing="0" node-id="46" stroke="none" target-x="122.309" target-y="29.133003" visibility="hidden" width="27" x="122.309" xml:space="preserve" y="39.573">秋分。</text><path d="M 119.85 28.05 L 117.68 28.05 L 117.68 28.05 L 116.93 28.05 L 116.93 30.97 L 117.68 30.97 L 117.68 28.80 L 119.85 28.80 Z" fill="#ffffff" fill-rule="nonzero" group-id="1" hidden="true" id="路径_3053" node-id="49" stroke-linecap="butt" stroke-width="1" target-height="2.9169922" target-width="2.921875" target-x="116.9292" target-y="28.052002" visibility="hidden"></path><path d="M 58.68 44.80 L 58.45 47.23 L 57.85 49.46 L 56.87 51.52 L 55.54 53.38 L 53.96 54.97 L 52.09 56.29 L 50.03 57.27 L 47.81 57.88 L 45.38 58.10 L 42.95 57.88 L 40.73 57.27 L 38.67 56.29 L 36.80 54.97 L 35.22 53.38 L 33.89 51.52 L 32.91 49.46 L 32.31 47.23 L 32.08 44.80 L 32.31 42.38 L 32.91 40.15 L 33.89 38.09 L 35.22 36.22 L 36.80 34.64 L 38.67 33.32 L 40.73 32.33 L 42.95 31.73 L 45.38 31.50 L 47.81 31.73 L 50.03 32.33 L 52.09 33.32 L 53.96 34.64 L 55.54 36.22 L 56.87 38.09 L 57.85 40.15 L 58.45 42.38 L 58.68 44.80 Z" fill="#faebb2" fill-rule="nonzero" group-id="1" id="椭圆_138" node-id="50" stroke-linecap="butt" stroke-width="1" target-height="26.602" target-width="26.602001" target-x="32.079" target-y="31.502"></path><path d="M 103.09 53.19 L 103.97 52.85 L 104.87 52.78 L 105.75 53.00 L 106.56 53.48 L 106.96 52.95 L 107.96 51.99 L 108.59 51.64 L 109.24 51.55 L 108.62 51.40 L 107.40 51.43 L 106.87 51.71 L 106.52 52.33 L 105.80 52.02 L 105.11 51.87 L 104.33 51.91 L 103.66 52.26 L 103.09 53.19 Z" fill="#b88871" fill-rule="nonzero" group-id="1" id="路径_3054" node-id="51" stroke-linecap="butt" stroke-width="1" target-height="2.0820313" target-width="6.1411133" target-x="103.09473" target-y="51.39998"></path><path d="M 77.09 39.37 L 77.97 39.02 L 78.87 38.96 L 79.75 39.17 L 80.56 39.65 L 80.96 39.12 L 81.95 38.16 L 82.59 37.81 L 83.23 37.72 L 82.62 37.57 L 81.40 37.60 L 80.87 37.89 L 80.51 38.50 L 79.80 38.19 L 79.11 38.03 L 78.33 38.08 L 77.65 38.43 L 77.09 39.37 Z" fill="#b88871" fill-rule="nonzero" group-id="1" id="路径_3055" node-id="52" stroke-linecap="butt" stroke-width="1" target-height="2.082016" target-width="6.1411133" target-x="77.09375" target-y="37.570984"></path><path d="M 40.26 68.45 L 41.44 68.18 L 42.58 68.24 L 43.72 68.65 L 44.94 67.74 L 46.40 67.32 L 45.79 67.22 L 44.57 67.24 L 44.02 67.45 L 43.68 67.86 L 42.97 67.65 L 41.50 67.57 L 40.80 67.83 L 40.26 68.45 Z" fill="#b88871" fill-rule="nonzero" group-id="1" id="路径_3056" node-id="53" stroke-linecap="butt" stroke-width="1" target-height="1.425293" target-width="6.1411133" target-x="40.260986" target-y="67.223724"></path><path d="M 57.46 186.54 L 57.21 186.60 L 57.14 186.71 L 57.13 187.30 L 57.18 187.87 L 57.32 188.37 L 56.76 188.23 L 56.42 187.94 L 56.37 188.01 L 55.58 188.81 L 55.53 188.90 L 55.49 189.07 L 55.41 189.07 L 55.09 188.93 L 55.03 188.77 L 54.55 187.59 L 54.57 186.32 L 55.19 186.18 L 55.33 186.25 L 55.79 186.37 L 55.96 186.37 L 55.98 187.01 L 56.04 187.63 L 56.42 187.65 L 56.53 187.38 L 57.20 186.29 L 57.46 186.54 Z M 52.68 173.96 L 52.79 174.70 L 53.15 175.15 L 53.17 175.58 L 52.88 175.86 L 52.78 176.59 L 52.62 177.07 L 52.40 177.34 L 51.57 177.62 L 52.05 178.47 L 52.77 179.12 L 53.37 179.52 L 53.77 179.63 L 54.98 179.59 L 54.72 180.47 L 54.25 181.24 L 53.61 181.87 L 52.80 182.32 L 52.48 181.78 L 52.18 182.61 L 51.87 182.86 L 51.07 182.83 L 50.17 182.51 L 49.40 181.95 L 48.97 181.90 L 48.90 182.26 L 48.78 182.64 L 48.67 183.00 L 49.12 183.22 L 48.70 183.80 L 48.14 184.38 L 47.97 184.96 L 48.03 185.38 L 48.33 186.09 L 49.12 185.92 L 49.04 185.63 L 48.52 185.58 L 48.87 184.08 L 49.31 183.27 L 49.79 182.87 L 50.28 184.08 L 50.94 184.99 L 51.36 185.46 L 51.95 185.69 L 52.72 185.70 L 53.39 185.71 L 53.39 185.79 L 53.48 186.20 L 53.42 186.80 L 53.40 187.45 L 53.61 188.20 L 53.84 188.28 L 53.83 188.50 L 53.70 188.50 L 54.06 189.34 L 54.51 189.18 L 54.59 189.44 L 54.51 189.74 L 54.91 189.74 L 55.00 189.83 L 55.34 189.90 L 55.51 189.85 L 55.49 189.74 L 55.45 189.52 L 55.07 189.40 L 55.07 189.08 L 55.64 189.01 L 56.11 189.17 L 56.47 189.07 L 56.54 189.06 L 57.48 188.54 L 57.55 188.51 L 57.42 187.96 L 57.52 187.41 L 57.67 186.77 L 57.72 185.54 L 58.04 185.44 L 57.18 185.07 L 56.50 184.46 L 57.70 183.79 L 58.03 183.42 L 58.44 182.52 L 58.76 181.22 L 58.76 180.44 L 58.66 179.77 L 57.94 179.92 L 57.23 179.73 L 56.19 179.09 L 55.93 179.20 L 55.56 179.16 L 55.43 179.37 L 55.22 179.27 L 54.93 179.12 L 54.01 178.17 L 53.34 177.03 L 53.20 175.63 L 53.31 174.23 L 53.01 174.12 L 52.68 173.96 Z" fill="#feeb3c" fill-rule="evenodd" group-id="1" id="路径_3057" node-id="54" stroke-linecap="butt" stroke-width="1" target-height="15.937988" target-width="10.797607" target-x="47.967285" target-y="173.961"></path><path d="M 70.08 180.75 L 70.00 180.94 L 69.94 181.03 L 69.82 181.35 L 69.68 181.68 L 69.60 181.96 L 69.73 183.53 L 69.96 183.67 L 70.41 184.22 L 70.86 184.43 L 71.95 184.42 L 72.66 184.13 L 73.20 183.90 L 72.52 184.67 L 72.02 185.08 L 70.77 185.67 L 71.09 186.32 L 71.66 187.13 L 71.25 187.93 L 70.64 188.47 L 69.77 188.91 L 68.80 189.04 L 68.81 188.89 L 68.71 188.84 L 68.65 188.78 L 68.50 188.54 L 69.00 188.68 L 69.09 188.72 L 69.17 188.76 L 69.18 188.79 L 69.46 188.89 L 69.40 188.41 L 69.03 188.19 L 68.80 187.83 L 68.63 187.45 L 68.24 187.72 L 67.74 187.59 L 67.55 188.19 L 66.49 187.53 L 66.42 187.37 L 66.31 187.09 L 65.85 187.15 L 65.51 186.79 L 65.32 186.88 L 65.42 187.04 L 65.45 187.28 L 65.48 187.54 L 65.25 187.44 L 65.09 187.25 L 65.22 187.25 L 65.21 187.57 L 65.22 187.82 L 64.92 187.87 L 64.66 187.23 L 64.58 187.25 L 64.53 187.27 L 64.40 187.41 L 64.08 187.40 L 63.71 187.21 L 63.57 186.82 L 63.80 186.92 L 64.01 187.13 L 64.07 186.77 L 63.75 186.26 L 63.39 185.93 L 63.12 185.84 L 62.93 185.94 L 62.87 186.36 L 62.94 186.44 L 62.89 186.70 L 62.55 187.24 L 62.49 187.30 L 62.42 187.35 L 62.68 187.77 L 62.76 188.25 L 62.41 188.05 L 62.17 187.75 L 61.90 187.47 L 61.78 187.37 L 61.44 186.86 L 61.35 186.45 L 61.26 186.06 L 60.97 185.72 L 60.37 186.20 L 59.27 186.76 L 58.63 186.73 L 57.88 186.30 L 58.45 185.93 L 58.65 185.23 L 58.40 184.54 L 57.92 184.07 L 58.17 183.99 L 58.07 183.31 L 58.64 183.65 L 58.89 183.47 L 59.09 183.22 L 59.30 183.99 L 59.44 184.17 L 60.09 184.43 L 60.99 184.63 L 61.89 184.43 L 61.07 183.42 L 61.08 183.20 L 61.55 183.25 L 61.78 183.42 L 61.83 183.14 L 61.85 182.73 L 61.92 182.55 L 62.03 182.44 L 62.35 182.55 L 62.36 182.73 L 62.39 182.98 L 62.43 182.88 L 62.58 183.03 L 62.80 183.08 L 62.88 183.12 L 63.19 183.46 L 63.20 183.05 L 63.24 182.47 L 63.66 182.48 L 63.91 182.76 L 64.09 182.92 L 64.22 183.15 L 64.42 183.68 L 64.72 184.10 L 64.63 184.69 L 64.19 184.91 L 64.55 185.63 L 65.17 186.10 L 65.92 186.55 L 66.74 186.80 L 66.95 186.09 L 67.23 186.75 L 68.18 186.62 L 68.75 186.34 L 69.77 185.41 L 69.28 185.02 L 69.49 184.99 L 69.32 184.41 L 69.11 184.14 L 68.90 183.91 L 68.80 183.53 L 68.92 183.18 L 69.22 182.97 L 69.39 182.86 L 69.14 182.51 L 69.10 182.18 L 69.09 181.75 L 69.34 181.56 L 69.62 181.06 L 69.42 180.41 Z" fill="#fccc1b" fill-rule="evenodd" group-id="1" id="路径_3058" node-id="55" stroke-linecap="butt" stroke-width="1" target-height="8.625977" target-width="15.314941" target-x="57.883057" target-y="180.41101"></path><path d="M 104.72 186.01 L 104.65 186.12 L 104.82 187.78 L 105.06 188.33 L 105.60 188.73 L 105.82 188.84 L 105.57 188.73 L 105.78 188.80 L 105.95 188.82 L 106.07 188.90 L 106.09 189.43 L 105.57 189.82 L 105.14 189.31 L 104.88 188.78 L 104.77 188.86 L 104.67 188.98 L 104.60 189.10 L 104.57 189.20 L 103.93 188.82 L 104.37 189.61 L 104.13 190.01 L 103.47 190.79 L 103.14 191.02 L 102.48 191.24 L 102.50 189.61 L 102.08 188.03 L 101.20 187.00 L 100.13 186.16 L 100.49 188.13 L 100.95 189.18 L 101.82 190.34 L 101.85 190.63 L 101.29 191.12 L 100.44 191.50 L 99.93 191.59 L 99.53 191.50 L 99.28 191.20 L 99.27 190.45 L 98.91 190.63 L 98.58 190.92 L 97.47 190.32 L 96.71 189.32 L 96.70 188.82 L 97.09 188.72 L 97.29 188.59 L 98.02 188.42 L 98.06 188.03 L 97.73 187.80 L 97.70 187.60 L 98.06 187.64 L 98.27 188.10 L 98.91 187.74 L 99.39 187.17 L 99.94 185.80 L 100.43 185.75 L 101.38 186.54 L 102.31 186.89 L 103.25 186.75 L 104.36 185.89 Z" fill="#fff946" fill-rule="evenodd" group-id="1" id="路径_3059" node-id="56" stroke-linecap="butt" stroke-width="1" target-height="5.847168" target-width="9.393555" target-x="96.69873" target-y="185.74506"></path><path d="M 73.09 166.96 L 73.01 167.01 L 72.55 168.03 L 72.51 168.44 L 72.69 168.85 L 72.73 168.92 L 72.78 168.96 L 72.86 169.03 L 72.91 169.11 L 72.75 169.43 L 72.31 169.48 L 72.23 169.04 L 72.25 168.64 L 72.06 168.69 L 71.98 168.74 L 71.93 168.79 L 71.68 168.35 L 71.67 168.96 L 71.40 169.12 L 70.75 169.35 L 70.02 169.28 L 70.58 168.33 L 70.86 167.27 L 70.69 166.37 L 70.35 165.52 L 69.89 166.80 L 69.81 167.56 L 69.93 168.54 L 69.85 168.72 L 69.36 168.81 L 68.41 168.64 L 68.16 168.35 L 68.40 167.74 L 68.13 167.73 L 67.84 167.79 L 67.39 167.07 L 67.28 166.22 L 67.44 165.93 L 67.71 166.00 L 67.87 165.99 L 68.35 166.14 L 68.50 165.92 L 68.39 165.68 L 68.44 165.55 L 68.63 165.69 L 68.60 166.03 L 69.10 166.04 L 69.57 165.86 L 70.35 165.25 L 70.65 165.38 L 70.95 166.17 L 71.38 166.68 L 71.98 166.91 L 72.91 166.78 Z" fill="#fff946" fill-rule="evenodd" group-id="1" id="路径_3060" node-id="57" stroke-linecap="butt" stroke-width="1" target-height="4.2369995" target-width="5.8100586" target-x="67.28174" target-y="165.24701"></path><path d="M 71.68 181.92 L 72.20 182.49 L 72.50 182.79 L 73.15 183.09 L 73.78 182.52 L 73.65 183.10 L 73.79 183.60 L 73.58 183.61 L 73.73 183.83 L 74.04 183.92 L 74.09 184.82 L 73.98 184.89 L 73.93 184.81 L 73.69 184.82 L 73.90 185.00 L 74.06 185.19 L 74.10 185.59 L 73.96 185.97 L 73.81 185.93 L 73.96 186.16 L 74.24 186.31 L 74.56 186.19 L 74.55 186.47 L 72.93 186.59 L 72.11 186.32 L 71.48 186.06 L 71.60 187.55 L 72.19 188.92 L 71.18 189.03 L 70.90 189.17 L 70.68 188.75 L 70.88 188.65 L 71.07 188.61 L 71.46 188.42 L 70.48 187.25 L 69.72 187.02 L 69.54 186.86 L 69.45 186.17 L 69.04 186.20 L 68.74 185.96 L 68.53 185.94 L 68.49 185.09 L 67.89 184.48 L 67.40 184.08 L 67.40 183.78 L 66.91 183.30 L 66.75 183.21 L 66.67 183.17 L 66.59 183.13 L 66.91 182.98 L 66.89 182.68 L 66.98 182.74 L 67.28 182.91 L 67.66 183.13 L 67.99 183.46 L 68.06 183.51 L 68.13 183.56 L 68.33 183.73 L 68.34 183.71 L 68.40 183.94 L 68.67 184.25 L 69.05 184.39 L 69.82 184.32 L 71.38 183.47 L 71.09 181.74 L 71.25 182.03 L 71.57 182.18 L 71.77 182.16 L 71.68 181.92 Z" fill="#fddc1d" fill-rule="evenodd" group-id="1" id="路径_3061" node-id="58" stroke-linecap="butt" stroke-width="1" target-height="7.430969" target-width="7.9692383" target-x="66.59082" target-y="181.73505"></path><path d="M 79.73 178.33 L 79.94 178.37 L 80.31 178.73 L 79.74 178.87 L 79.89 179.51 L 80.21 179.89 L 80.64 180.14 L 81.17 179.56 L 81.24 179.47 L 81.30 179.72 L 81.36 179.55 L 81.43 179.45 L 81.48 179.23 L 81.55 179.33 L 81.77 179.57 L 82.05 179.66 L 82.13 179.76 L 81.99 180.00 L 81.78 180.05 L 81.36 179.96 L 81.15 180.68 L 81.57 181.12 L 81.60 181.88 L 80.00 181.44 L 80.00 180.99 L 80.07 181.01 L 80.33 180.67 L 79.99 180.59 L 80.07 180.56 L 79.77 180.53 L 79.73 180.60 L 79.66 180.74 L 79.75 181.23 L 79.90 181.64 L 79.80 182.04 L 79.55 181.96 L 79.07 181.43 L 79.36 181.78 L 79.29 181.89 L 79.09 182.17 L 79.04 182.22 L 78.98 182.26 L 78.88 182.30 L 78.95 182.24 L 78.98 182.67 L 79.13 182.85 L 79.80 183.25 L 79.89 183.33 L 79.81 183.37 L 79.41 183.53 L 78.98 183.29 L 79.04 183.55 L 78.81 183.80 L 78.64 183.85 L 78.44 183.90 L 78.10 184.04 L 77.97 183.63 L 77.53 183.20 L 77.85 183.08 L 77.94 183.06 L 78.30 182.93 L 78.46 182.60 L 78.61 182.48 L 78.30 182.38 L 78.11 182.12 L 78.39 182.07 L 78.59 182.13 L 78.67 182.04 L 78.47 181.64 L 78.33 181.47 L 78.12 181.45 L 77.93 181.76 L 77.93 182.11 L 77.80 182.06 L 77.71 181.86 L 77.52 181.64 L 77.70 182.05 L 77.64 182.41 L 77.36 182.03 L 76.86 181.76 L 76.47 181.58 L 76.51 181.45 L 76.19 181.07 L 76.06 181.40 L 76.06 181.76 L 77.35 182.41 L 77.71 182.46 L 78.20 182.46 L 78.11 182.54 L 78.00 182.68 L 77.75 182.99 L 77.36 182.68 L 76.87 182.57 L 76.70 182.50 L 76.54 182.53 L 76.40 182.44 L 76.25 182.68 L 77.15 183.01 L 76.76 183.06 L 76.94 182.87 L 77.02 182.91 L 76.99 183.28 L 76.98 183.60 L 76.98 183.91 L 76.18 183.56 L 75.89 183.59 L 75.38 183.42 L 74.91 183.26 L 74.78 183.32 L 74.32 183.37 L 74.10 183.22 L 73.79 183.25 L 74.03 182.84 L 73.59 182.05 L 74.23 182.43 L 74.26 182.33 L 74.34 182.21 L 74.44 182.08 L 74.54 182.01 L 74.81 182.54 L 75.23 183.05 L 75.76 182.66 L 75.74 182.13 L 75.61 182.05 L 75.45 182.03 L 75.24 181.96 L 75.49 182.07 L 75.26 181.96 L 74.72 181.56 L 74.48 181.01 L 74.32 179.35 L 74.62 179.47 L 74.98 179.49 L 74.90 178.40 L 74.71 178.06 L 74.29 177.91 L 74.56 177.57 L 74.51 177.48 L 74.75 177.44 L 75.17 177.79 L 75.55 178.31 L 75.65 178.55 L 75.62 178.80 L 76.10 178.89 L 76.64 178.92 L 76.48 179.42 L 76.55 179.70 L 77.04 180.34 L 77.21 180.49 L 77.33 180.62 L 77.62 181.02 L 78.24 181.26 L 78.23 180.85 L 78.40 180.52 L 78.47 180.49 L 78.97 180.81 L 79.02 180.53 L 79.07 180.41 L 79.18 180.33 L 79.23 180.32 L 79.29 180.29 L 78.60 179.72 L 79.05 179.60 L 79.31 179.98 L 79.31 179.22 L 79.50 179.04 L 79.73 178.33 Z" fill="#fdd423" fill-rule="evenodd" group-id="1" id="路径_3062" node-id="59" stroke-linecap="butt" stroke-width="1" target-height="6.598999" target-width="8.538086" target-x="73.59375" target-y="177.445"></path><path d="M 69.14 189.21 L 69.41 188.99 L 69.29 188.24 L 69.75 188.21 L 69.89 188.11 L 70.64 188.27 L 70.80 188.30 L 71.08 188.31 L 71.36 189.24 L 71.59 189.69 L 71.73 190.23 L 70.82 190.95 L 69.96 190.40 L 69.93 190.34 L 69.85 189.87 L 69.85 189.55 L 69.25 189.47 L 69.15 189.21 Z M 73.38 188.68 L 73.31 188.62 L 73.17 188.38 L 73.67 188.52 L 73.75 188.56 L 73.84 188.60 L 73.85 188.63 L 74.13 188.73 L 74.07 188.25 L 73.70 188.03 L 73.47 187.67 L 73.30 187.30 L 72.90 187.56 L 72.41 187.43 L 72.22 188.03 L 71.15 187.37 L 71.09 187.21 L 70.98 186.93 L 70.52 186.99 L 70.18 186.63 L 69.99 186.72 L 70.09 186.88 L 70.12 187.12 L 70.15 187.39 L 69.91 187.28 L 69.76 187.09 L 69.89 187.09 L 69.88 187.41 L 69.89 187.66 L 69.59 187.71 L 69.15 187.83 L 69.09 188.15 L 69.02 188.31 L 68.93 188.44 L 68.63 188.77 L 68.81 188.85 L 68.99 188.93 L 69.14 189.21 L 68.77 189.75 L 68.52 190.08 L 68.28 190.38 L 68.34 190.65 L 68.45 190.77 L 68.56 190.87 L 68.50 190.92 L 68.52 191.15 L 68.72 191.35 L 68.81 191.40 L 69.11 191.58 L 69.49 191.80 L 69.82 192.13 L 69.89 192.18 L 69.96 192.23 L 70.16 192.39 L 70.18 192.38 L 70.24 192.61 L 70.51 192.92 L 70.88 193.06 L 71.65 192.99 L 73.21 192.14 L 72.92 190.40 L 73.08 190.70 L 73.40 190.85 L 73.60 190.82 L 73.51 190.58 L 72.99 189.72 L 72.62 188.78 L 73.45 188.87 L 73.47 188.73 L 73.39 188.68 Z" fill="#fcc413" fill-rule="evenodd" group-id="1" id="路径_3063" node-id="60" stroke-linecap="butt" stroke-width="1" target-height="6.4298706" target-width="5.8481445" target-x="68.2771" target-y="186.62701"></path><path d="M 95.26 185.31 L 95.46 186.02 L 95.35 186.25 L 94.94 186.52 L 94.39 186.19 L 94.29 185.79 L 94.54 185.45 L 95.26 185.31 Z M 99.23 182.01 L 99.02 181.95 L 98.61 181.88 L 98.36 182.56 L 97.84 182.97 L 97.32 183.17 L 96.78 182.98 L 96.68 183.68 L 96.33 184.02 L 95.80 184.15 L 95.07 184.12 L 93.51 183.86 L 93.26 184.24 L 92.96 184.01 L 92.82 184.05 L 93.10 184.27 L 93.11 184.48 L 92.93 184.95 L 92.92 185.16 L 93.08 185.31 L 93.27 185.40 L 93.38 185.22 L 93.53 185.09 L 93.53 185.44 L 93.68 185.70 L 94.11 186.15 L 94.33 186.73 L 94.81 187.44 L 94.98 187.66 L 95.17 187.42 L 95.48 187.49 L 95.78 187.59 L 95.96 187.84 L 96.22 187.82 L 96.34 187.64 L 96.28 187.57 L 96.11 187.37 L 96.05 187.30 L 95.99 187.18 L 96.22 187.32 L 96.33 187.13 L 96.47 186.91 L 96.82 186.67 L 97.11 186.79 L 97.45 187.45 L 97.56 187.15 L 97.45 186.93 L 97.07 186.03 L 97.83 186.49 L 98.12 186.12 L 98.16 186.02 L 98.39 185.92 L 99.27 185.81 L 99.53 185.29 L 99.12 185.22 L 98.81 184.93 L 98.66 184.51 L 98.74 184.10 L 99.04 183.82 L 99.77 183.74 L 99.84 182.95 L 99.88 182.74 L 99.69 182.14 L 99.41 182.10 L 99.23 182.01 Z" fill="#fcc41b" fill-rule="evenodd" group-id="1" id="路径_3064" node-id="61" stroke-linecap="butt" stroke-width="1" target-height="5.9559937" target-width="7.0620117" target-x="92.819824" target-y="181.88202"></path><path d="M 71.37 190.50 L 71.86 190.89 L 70.85 191.82 L 70.27 192.10 L 69.33 192.22 L 69.05 191.57 L 68.84 192.28 L 68.01 192.03 L 67.27 191.58 L 66.64 191.11 L 66.29 190.39 L 66.73 190.17 L 67.81 189.47 L 68.49 188.36 L 69.09 186.93 L 69.23 185.94 L 69.21 185.39 L 69.28 185.25 L 69.50 185.22 L 69.45 186.88 L 69.67 188.52 L 70.01 189.38 L 70.57 190.03 L 71.37 190.50 Z" fill="#ffec1b" fill-rule="evenodd" group-id="1" id="路径_3065" node-id="62" stroke-linecap="butt" stroke-width="1" target-height="7.060974" target-width="5.5737305" target-x="66.28711" target-y="185.22101"></path><path d="M 80.25 161.10 L 80.72 161.09 L 80.59 162.11 L 80.41 162.55 L 79.93 163.08 L 79.45 162.84 L 79.68 163.35 L 78.45 163.71 L 77.85 163.75 L 77.31 163.52 L 77.45 163.18 L 77.73 162.25 L 77.58 161.29 L 77.22 160.18 L 76.82 159.56 L 76.54 159.25 L 76.62 159.01 L 77.40 159.98 L 78.32 160.81 L 79.25 161.21 L 80.25 161.10 Z" fill="#f8a806" fill-rule="evenodd" group-id="1" id="路径_3066" node-id="63" stroke-linecap="butt" stroke-width="1" target-height="4.7372437" target-width="4.173828" target-x="76.54492" target-y="159.01398"></path><path d="M 56.07 165.95 L 55.98 166.28 L 55.30 165.98 L 54.76 165.33 L 55.02 165.04 L 54.62 165.10 L 54.62 164.17 L 54.71 163.75 L 54.99 163.42 L 55.20 163.59 L 55.79 163.97 L 56.48 164.05 L 57.32 164.03 L 57.84 163.88 L 58.13 163.75 L 58.26 163.85 L 57.43 164.19 L 56.67 164.67 L 56.20 165.23 L 56.07 165.95 Z" fill="#f8a806" fill-rule="evenodd" group-id="1" id="路径_3067" node-id="64" stroke-linecap="butt" stroke-width="1" target-height="2.8590088" target-width="3.635254" target-x="54.62085" target-y="163.41797"></path><path d="M 63.98 171.83 L 64.32 171.85 L 64.15 172.58 L 63.61 173.23 L 63.28 173.03 L 63.41 173.41 L 62.49 173.58 L 62.06 173.57 L 61.69 173.36 L 61.82 173.13 L 62.08 172.48 L 62.04 171.78 L 61.87 170.95 L 61.62 170.47 L 61.44 170.21 L 61.52 170.07 L 62.01 170.83 L 62.61 171.49 L 63.25 171.84 L 63.98 171.83 Z" fill="#feeb3c" fill-rule="evenodd" group-id="1" id="路径_3068" node-id="65" stroke-linecap="butt" stroke-width="1" target-height="3.5099487" target-width="2.8764648" target-x="61.439453" target-y="170.07404"></path><path d="M 93.80 176.82 L 93.68 177.59 L 93.55 178.28 L 93.11 178.77 L 92.95 178.99 L 92.89 179.55 L 92.60 179.48 L 92.10 179.64 L 91.92 179.71 L 92.19 180.41 L 92.14 180.64 L 91.68 180.78 L 91.51 180.48 L 91.27 180.38 L 90.57 181.18 L 89.74 181.02 L 88.76 181.03 L 88.96 180.67 L 89.01 180.21 L 88.50 180.32 L 87.77 180.55 L 87.74 179.99 L 87.97 179.54 L 88.32 179.88 L 88.78 179.77 L 89.11 179.64 L 89.52 178.96 L 90.49 176.59 L 91.69 176.90 L 92.06 176.46 L 92.76 176.65 L 93.55 176.65 L 93.67 176.32 L 94.00 176.45 L 93.83 176.67 L 93.80 176.82 Z" fill="#ffec2b" fill-rule="evenodd" group-id="1" id="路径_3069" node-id="66" stroke-linecap="butt" stroke-width="1" target-height="4.8589478" target-width="6.263672" target-x="87.74072" target-y="176.32"></path><path d="M 73.22 186.86 L 73.64 187.04 L 73.70 187.17 L 73.54 187.59 L 73.52 187.85 L 73.72 188.22 L 74.42 188.83 L 74.79 189.22 L 74.61 189.56 L 74.04 189.94 L 72.99 190.39 L 72.53 190.34 L 72.41 190.16 L 72.37 189.38 L 72.10 189.52 L 72.06 189.79 L 71.99 190.07 L 71.97 190.17 L 71.26 190.07 L 70.51 189.41 L 69.93 188.47 L 69.63 187.53 L 70.21 187.67 L 70.69 187.77 L 71.08 187.56 L 71.60 187.26 L 72.16 187.07 L 72.52 186.52 L 73.06 185.42 L 73.12 185.52 L 73.24 185.85 L 73.25 186.01 L 73.26 186.19 L 73.22 186.86 Z" fill="#fff11d" fill-rule="evenodd" group-id="1" id="路径_3070" node-id="67" stroke-linecap="butt" stroke-width="1" target-height="4.9639893" target-width="5.1640625" target-x="69.62988" target-y="185.42401"></path><path d="M 86.50 185.10 L 86.78 185.62 L 87.34 186.21 L 87.88 186.80 L 88.11 187.27 L 88.14 187.48 L 88.51 187.91 L 89.14 187.90 L 88.94 188.04 L 88.55 188.14 L 88.56 188.63 L 88.35 188.52 L 88.28 188.57 L 88.32 189.38 L 88.42 189.59 L 88.80 189.89 L 88.29 190.58 L 88.21 190.66 L 88.17 190.37 L 88.05 189.91 L 87.78 189.65 L 87.78 190.13 L 87.42 190.12 L 87.42 189.91 L 87.46 189.62 L 87.39 189.35 L 87.44 188.98 L 87.50 189.03 L 87.86 188.75 L 87.92 188.65 L 88.05 188.56 L 87.74 188.35 L 87.36 188.02 L 87.26 187.88 L 86.76 187.59 L 86.19 187.58 L 86.52 188.21 L 86.51 188.36 L 86.63 188.85 L 86.67 188.92 L 86.76 189.00 L 86.67 189.16 L 86.81 189.41 L 86.81 189.60 L 86.33 189.65 L 86.14 189.36 L 85.73 189.29 L 85.73 188.69 L 85.57 188.72 L 85.33 188.64 L 85.07 188.53 L 84.86 188.09 L 84.82 187.89 L 84.78 187.79 L 84.82 187.60 L 84.67 187.59 L 84.60 187.57 L 84.54 187.55 L 84.13 187.15 L 84.06 187.07 L 84.00 186.99 L 85.22 187.34 L 85.29 187.29 L 85.37 187.25 L 85.45 187.21 L 85.86 187.00 L 85.63 186.63 L 85.46 186.55 L 85.02 186.14 L 85.00 186.20 L 84.83 186.52 L 84.66 186.66 L 83.85 186.21 L 83.57 185.90 L 84.14 185.67 L 84.52 185.19 L 84.02 184.44 L 83.46 183.60 L 83.93 183.63 L 84.42 184.13 L 85.17 184.39 L 85.10 183.64 L 85.30 184.16 L 85.31 184.86 L 85.24 185.98 L 85.56 185.75 L 85.81 185.67 L 86.50 185.10 Z" fill="#fee33b" fill-rule="evenodd" group-id="1" id="路径_3071" node-id="68" stroke-linecap="butt" stroke-width="1" target-height="7.0619507" target-width="5.6831055" target-x="83.458984" target-y="183.60101"></path><path d="M 84.96 187.36 L 84.89 187.69 L 85.05 187.96 L 85.11 188.04 L 85.22 188.14 L 85.69 189.22 L 86.76 190.73 L 86.92 190.46 L 86.79 190.22 L 87.38 190.14 L 87.53 189.88 L 87.66 190.31 L 87.79 190.66 L 87.73 191.02 L 87.60 191.14 L 87.27 191.33 L 86.94 191.35 L 86.20 191.10 L 85.87 190.68 L 85.63 190.46 L 85.45 190.05 L 85.42 189.97 L 85.03 189.44 L 84.89 189.19 L 84.69 189.03 L 84.39 188.96 L 84.34 188.67 L 84.49 188.44 L 83.28 188.39 L 83.37 189.05 L 83.14 188.86 L 82.80 188.71 L 82.45 188.65 L 82.31 188.60 L 82.29 188.62 L 82.41 189.41 L 82.20 189.52 L 81.92 189.41 L 81.78 189.32 L 81.17 189.48 L 81.34 189.81 L 81.41 189.93 L 81.46 190.19 L 81.24 190.31 L 81.13 190.31 L 80.99 189.86 L 80.87 189.56 L 80.89 189.24 L 81.04 189.09 L 80.99 188.41 L 80.63 188.29 L 80.59 188.30 L 80.50 188.24 L 80.28 188.09 L 80.51 188.15 L 80.29 188.12 L 80.65 186.80 L 81.84 187.42 L 82.55 187.64 L 82.82 187.80 L 83.00 188.12 L 83.43 187.34 L 83.46 187.26 L 83.60 186.94 L 83.78 187.07 L 83.93 187.59 L 84.47 187.56 L 84.96 187.36 Z" fill="#fde859" fill-rule="evenodd" group-id="1" id="路径_3072" node-id="69" stroke-linecap="butt" stroke-width="1" target-height="4.5529175" target-width="7.505371" target-x="80.28125" target-y="186.79596"></path><path d="M 105.99 193.68 L 105.96 193.72 L 105.99 193.68 Z M 107.08 193.20 L 107.08 193.04 L 107.22 193.06 L 107.08 193.20 Z M 108.69 189.67 L 108.42 189.58 L 107.89 189.23 L 107.68 188.67 L 107.68 188.96 L 107.88 189.71 L 107.78 189.73 L 106.94 189.83 L 106.75 190.67 L 106.71 190.92 L 107.20 190.80 L 107.08 191.36 L 106.96 191.49 L 106.83 191.40 L 106.24 191.85 L 106.16 191.95 L 105.84 192.56 L 105.75 192.69 L 105.60 192.72 L 105.47 193.78 L 105.44 193.93 L 105.40 194.04 L 105.75 194.05 L 105.75 194.77 L 105.55 194.86 L 105.48 195.10 L 105.44 195.27 L 105.39 195.50 L 105.76 195.56 L 106.11 195.38 L 106.39 195.79 L 106.83 195.86 L 106.70 195.28 L 106.59 194.65 L 107.19 194.65 L 107.07 195.86 L 107.40 195.69 L 107.50 195.43 L 107.90 195.11 L 108.09 194.72 L 108.29 193.92 L 108.17 193.62 L 107.91 192.97 L 107.67 192.42 L 107.31 192.12 L 107.51 191.22 L 107.57 191.05 L 107.56 190.95 L 107.51 190.81 L 107.43 190.67 L 107.75 190.53 L 107.79 190.31 L 107.91 190.43 L 108.03 190.55 L 108.38 190.06 L 108.52 189.79 L 108.77 189.71 L 108.69 189.68 Z" fill="#ffda19" fill-rule="evenodd" group-id="1" id="路径_3073" node-id="70" stroke-linecap="butt" stroke-width="1" target-height="7.182007" target-width="3.3808594" target-x="105.38818" target-y="188.67499"></path><path d="M 91.34 187.94 L 91.94 187.93 L 92.51 188.69 L 92.56 188.75 L 92.68 188.86 L 92.74 188.92 L 93.28 189.35 L 93.02 189.57 L 92.68 189.60 L 92.60 189.58 L 91.95 189.37 L 91.46 189.49 L 91.18 189.94 L 91.28 190.18 L 91.64 190.40 L 92.19 190.91 L 92.37 191.26 L 92.34 191.60 L 92.26 191.77 L 92.26 191.90 L 92.13 192.27 L 91.86 192.16 L 91.75 191.85 L 91.35 192.62 L 90.86 192.30 L 90.31 192.10 L 89.45 191.45 L 89.63 191.60 L 89.85 191.81 L 90.12 192.11 L 90.11 192.62 L 89.45 192.30 L 88.98 192.09 L 89.08 191.68 L 89.41 191.07 L 88.92 190.22 L 89.28 190.42 L 89.60 190.54 L 89.83 189.22 L 89.75 187.88 L 90.02 188.83 L 89.96 189.82 L 90.23 189.59 L 90.65 188.90 L 91.34 187.94 Z" fill="#fdd40c" fill-rule="evenodd" group-id="1" id="路径_3074" node-id="71" stroke-linecap="butt" stroke-width="1" target-height="4.7470093" target-width="4.3583984" target-x="88.918945" target-y="187.875"></path><path d="M 104.19 192.83 L 104.43 192.93 L 104.62 193.11 L 104.40 193.83 L 104.08 193.73 L 103.76 193.80 L 103.37 194.04 L 103.36 194.43 L 102.74 194.10 L 102.16 194.08 L 102.13 194.30 L 102.34 194.67 L 101.87 194.49 L 101.37 194.48 L 101.45 193.11 L 101.06 192.88 L 100.61 192.81 L 100.35 192.87 L 100.37 193.00 L 100.60 193.02 L 100.96 192.95 L 101.10 193.34 L 101.19 193.59 L 101.16 193.88 L 101.15 194.35 L 100.86 194.09 L 100.47 194.11 L 99.85 194.06 L 100.08 194.85 L 100.05 195.11 L 99.69 195.23 L 99.62 194.75 L 99.32 194.07 L 99.05 193.97 L 98.57 194.22 L 98.34 194.46 L 98.09 194.24 L 98.11 193.79 L 98.41 193.71 L 98.56 193.34 L 98.13 193.11 L 98.63 192.89 L 98.78 192.86 L 98.89 192.72 L 99.74 192.53 L 100.03 192.36 L 100.27 192.15 L 101.74 192.85 L 101.91 193.00 L 102.03 192.97 L 102.50 193.24 L 102.72 192.73 L 102.87 192.90 L 103.40 193.04 L 103.83 193.05 L 104.19 192.83 Z" fill="#ffec2b" fill-rule="evenodd" group-id="1" id="路径_3075" node-id="72" stroke-linecap="butt" stroke-width="1" target-height="3.0750122" target-width="6.5356445" target-x="98.089355" target-y="192.15399"></path><path d="M 101.77 176.78 L 102.18 177.16 L 102.15 177.91 L 101.89 177.69 L 101.48 177.69 L 101.53 178.28 L 101.21 178.84 L 100.98 178.54 L 100.69 178.36 L 100.33 178.90 L 99.72 179.12 L 98.95 179.02 L 98.42 178.63 L 98.54 178.13 L 98.69 177.58 L 98.93 177.16 L 98.85 176.61 L 99.32 176.60 L 99.36 176.51 L 99.71 176.46 L 99.95 177.20 L 100.30 177.52 L 100.81 177.62 L 101.55 177.50 Z" fill="#f8a806" fill-rule="evenodd" group-id="1" id="路径_3076" node-id="73" stroke-linecap="butt" stroke-width="1" target-height="2.6589966" target-width="3.7592773" target-x="98.42334" target-y="176.46204"></path><path d="M 76.89 187.63 L 77.16 187.41 L 77.04 186.66 L 77.50 186.63 L 77.64 186.53 L 78.39 186.69 L 78.55 186.71 L 78.83 186.73 L 79.11 187.66 L 79.34 188.11 L 79.48 188.65 L 78.57 189.37 L 77.71 188.81 L 77.68 188.76 L 77.60 188.29 L 77.60 187.97 L 77.00 187.89 Z" fill="#f8a806" fill-rule="evenodd" group-id="1" id="路径_3077" node-id="74" stroke-linecap="butt" stroke-width="1" target-height="2.8371582" target-width="2.5888672" target-x="76.89404" target-y="186.52985"></path><path d="M 101.56 175.82 L 101.77 176.78 L 101.55 177.50 L 100.81 177.62 L 100.30 177.52 L 99.94 177.19 L 99.70 176.46 L 99.79 176.02 L 99.99 175.67 L 100.82 175.50 L 101.56 175.82 Z" fill="#f9d536" fill-rule="evenodd" group-id="1" id="路径_3078" node-id="75" stroke-linecap="butt" stroke-width="1" target-height="2.1153564" target-width="2.0629883" target-x="99.7041" target-y="175.50037"></path><path d="M 119.78 164.27 L 117.23 164.50 L 114.90 165.19 L 112.72 166.33 L 110.80 167.87 L 109.24 169.74 L 108.00 171.97 L 107.25 174.42 L 106.99 176.84 L 107.21 179.29 L 107.89 181.65 L 109.02 183.81 L 110.61 185.81 L 112.58 187.44 L 114.72 188.61 L 117.06 189.34 L 119.51 189.61 L 121.93 189.39 L 124.39 188.69 L 126.65 187.49 L 128.55 185.96 L 130.12 184.08 L 131.31 181.92 L 132.04 179.60 L 132.33 177.06 L 132.13 174.74 L 131.57 172.62 L 130.66 170.65 L 129.42 168.86 L 127.92 167.33 L 126.16 166.06 L 124.20 165.10 L 122.09 164.50 L 119.78 164.27 Z M 119.55 188.37 L 117.46 188.15 L 115.56 187.61 L 113.79 186.75 L 112.20 185.60 L 110.86 184.23 L 109.74 182.61 L 108.91 180.83 L 108.41 178.92 L 108.23 176.83 L 108.45 174.75 L 108.98 172.84 L 109.85 171.08 L 111.00 169.49 L 112.37 168.14 L 113.99 167.02 L 115.76 166.19 L 117.68 165.69 L 119.77 165.51 L 121.85 165.73 L 123.76 166.27 L 125.52 167.13 L 127.11 168.28 L 128.46 169.65 L 129.58 171.27 L 130.41 173.05 L 130.91 174.96 L 131.08 177.05 L 130.87 179.13 L 130.33 181.04 L 129.47 182.80 L 128.31 184.39 L 126.94 185.74 L 125.33 186.86 L 123.55 187.69 L 121.63 188.19 L 119.55 188.36 Z" fill="#eee0bf" fill-rule="nonzero" group-id="1,5,7" id="路径_3079" node-id="78" stroke-linecap="butt" stroke-width="1" target-height="25.339172" target-width="25.339355" target-x="106.98584" target-y="164.26697"></path><path d="M 119.79 162.91 L 116.97 163.17 L 114.38 163.93 L 111.97 165.20 L 109.85 166.90 L 108.12 168.96 L 106.75 171.44 L 105.91 174.15 L 105.62 176.83 L 105.87 179.54 L 106.63 182.15 L 107.88 184.55 L 109.64 186.76 L 111.82 188.57 L 114.19 189.86 L 116.79 190.67 L 119.49 190.97 L 122.18 190.73 L 124.90 189.95 L 127.40 188.63 L 129.50 186.93 L 131.24 184.84 L 132.55 182.46 L 133.37 179.89 L 133.68 177.07 L 133.44 174.31 L 132.67 171.69 L 131.41 169.27 L 129.67 167.11 L 127.55 165.34 L 125.15 164.03 L 122.54 163.21 L 119.79 162.91 Z M 119.53 189.61 L 117.22 189.37 L 115.11 188.77 L 113.16 187.82 L 111.39 186.54 L 109.90 185.02 L 108.65 183.23 L 107.74 181.26 L 107.18 179.13 L 106.99 176.82 L 107.22 174.51 L 107.82 172.39 L 108.78 170.44 L 110.05 168.67 L 111.58 167.18 L 113.37 165.94 L 115.34 165.02 L 117.46 164.46 L 119.78 164.27 L 122.09 164.51 L 124.20 165.11 L 126.15 166.06 L 127.92 167.34 L 129.41 168.86 L 130.66 170.65 L 131.57 172.62 L 132.13 174.75 L 132.32 177.06 L 132.09 179.37 L 131.49 181.48 L 130.53 183.44 L 129.25 185.20 L 127.73 186.70 L 125.94 187.94 L 123.97 188.85 L 121.85 189.41 L 119.53 189.60 Z" fill="#7b574d" fill-rule="nonzero" group-id="1,5,7" id="路径_3080" node-id="79" stroke-linecap="butt" stroke-width="1" target-height="28.059265" target-width="28.060059" target-x="105.623535" target-y="162.90802"></path><path d="M 108.23 176.82 L 131.08 177.05" fill="none" group-id="1,5,7" id="直线_139" node-id="80" stroke="#707070" stroke-linecap="butt" stroke-width="1" target-height="0.22099304" target-width="22.852997" target-x="108.229996" target-y="176.825"></path><path d="M 108.59 179.79 L 130.72 174.08" fill="none" group-id="1,5,7" id="直线_140" node-id="81" stroke="#707070" stroke-linecap="butt" stroke-width="1" target-height="5.701004" target-width="22.131996" target-x="108.590996" target-y="174.08499"></path><path d="M 109.71 182.55 L 129.61 171.32" fill="none" group-id="1,5,7" id="直线_141" node-id="82" stroke="#707070" stroke-linecap="butt" stroke-width="1" target-height="11.235001" target-width="19.902" target-x="109.706" target-y="171.318"></path><path d="M 111.50 184.94 L 127.81 168.93" fill="none" group-id="1,5,7" id="直线_142" node-id="83" stroke="#707070" stroke-linecap="butt" stroke-width="1" target-height="16.003006" target-width="16.316002" target-x="111.499" target-y="168.93399"></path><path d="M 113.85 186.78 L 125.47 167.09" fill="none" group-id="1,5,7" id="直线_143" node-id="84" stroke="#707070" stroke-linecap="butt" stroke-width="1" target-height="19.681" target-width="11.618004" target-x="113.848" target-y="167.095"></path><path d="M 116.59 187.94 L 122.72 165.93" fill="none" group-id="1,5,7" id="直线_144" node-id="85" stroke="#707070" stroke-linecap="butt" stroke-width="1" target-height="22.016998" target-width="6.128998" target-x="116.591995" target-y="165.927"></path><path d="M 119.55 188.36 L 119.77 165.51" fill="none" group-id="1,5,7" id="直线_145" node-id="86" stroke="#707070" stroke-linecap="butt" stroke-width="1" target-height="22.852997" target-width="0.22100067" target-x="119.546" target-y="165.509"></path><path d="M 122.51 188.00 L 116.81 165.87" fill="none" group-id="1,5,7" id="直线_146" node-id="87" stroke="#707070" stroke-linecap="butt" stroke-width="1" target-height="22.132004" target-width="5.701004" target-x="116.806" target-y="165.87"></path><path d="M 125.27 186.89 L 114.04 166.99" fill="none" group-id="1,5,7" id="直线_147" node-id="88" stroke="#707070" stroke-linecap="butt" stroke-width="1" target-height="19.901993" target-width="11.235001" target-x="114.039" target-y="166.985"></path><path d="M 127.66 185.09 L 111.66 168.78" fill="none" group-id="1,5,7" id="直线_148" node-id="89" stroke="#707070" stroke-linecap="butt" stroke-width="1" target-height="16.315994" target-width="16.002998" target-x="111.655" target-y="168.778"></path><path d="M 129.50 182.75 L 109.82 171.13" fill="none" group-id="1,5,7" id="直线_149" node-id="90" stroke="#707070" stroke-linecap="butt" stroke-width="1" target-height="11.617996" target-width="19.681007" target-x="109.816" target-y="171.127"></path><path d="M 130.66 180.00 L 108.65 173.87" fill="none" group-id="1,5,7" id="直线_150" node-id="91" stroke="#707070" stroke-linecap="butt" stroke-width="1" target-height="6.128998" target-width="22.016998" target-x="108.647995" target-y="173.871"></path><path d="M 108.23 176.82 L 131.08 177.05" fill="none" group-id="1,5,7" id="直线_151" node-id="92" stroke="#707070" stroke-linecap="butt" stroke-width="1" target-height="0.22099304" target-width="22.852997" target-x="108.229996" target-y="176.825"></path><path d="M 121.58 177.72 L 121.75 177.66 L 121.76 177.64 L 121.63 177.50 L 121.80 177.43 L 121.80 177.41 L 121.66 177.29 L 121.79 177.20 L 121.78 177.16 L 121.67 177.06 L 121.82 176.96 L 121.82 176.93 L 121.68 176.85 L 121.79 176.72 L 121.78 176.70 L 121.61 176.64 L 121.71 176.49 L 121.72 176.47 L 121.54 176.43 L 121.59 176.31 L 121.56 176.27 L 121.50 176.27 L 121.45 176.23 L 121.52 176.08 L 121.48 176.06 L 121.33 176.04 L 121.40 175.87 L 121.39 175.85 L 121.20 175.87 L 121.23 175.72 L 121.21 175.68 L 121.05 175.71 L 121.05 175.58 L 121.01 175.58 L 120.88 175.57 L 120.87 175.42 L 120.84 175.42 L 120.70 175.45 L 120.68 175.27 L 120.66 175.26 L 120.50 175.33 L 120.45 175.20 L 120.43 175.19 L 120.29 175.29 L 120.23 175.16 L 120.19 175.14 L 120.08 175.24 L 120.01 175.09 L 119.98 175.11 L 119.86 175.19 L 119.76 175.06 L 119.74 175.06 L 119.64 175.21 L 119.52 175.07 L 119.50 175.07 L 119.42 175.23 L 119.29 175.10 L 119.27 175.11 L 119.21 175.28 L 119.06 175.17 L 119.04 175.18 L 119.00 175.36 L 118.85 175.26 L 118.82 175.27 L 118.81 175.45 L 118.64 175.37 L 118.62 175.39 L 118.62 175.57 L 118.45 175.51 L 118.43 175.53 L 118.45 175.71 L 118.27 175.67 L 118.26 175.69 L 118.30 175.86 L 118.12 175.85 L 118.10 175.87 L 118.17 176.04 L 117.99 176.04 L 117.97 176.06 L 118.05 176.22 L 117.88 176.24 L 117.87 176.27 L 117.97 176.42 L 117.79 176.46 L 117.78 176.49 L 117.90 176.63 L 117.73 176.69 L 117.73 176.72 L 117.86 176.84 L 117.70 176.92 L 117.70 176.95 L 117.84 177.06 L 117.70 177.16 L 117.70 177.19 L 117.85 177.28 L 117.72 177.39 L 117.88 177.50 L 117.76 177.62 L 117.76 177.65 L 117.93 177.71 L 117.83 177.85 L 117.84 177.88 L 118.02 177.91 L 117.93 178.07 L 117.94 178.09 L 118.12 178.10 L 118.05 178.27 L 118.07 178.29 L 118.24 178.28 L 118.19 178.45 L 118.21 178.48 L 118.38 178.45 L 118.36 178.62 L 118.38 178.64 L 118.55 178.60 L 118.54 178.77 L 118.56 178.79 L 118.69 178.74 L 118.73 178.90 L 118.76 178.92 L 118.89 178.88 L 118.96 178.98 L 118.96 179.02 L 119.11 178.92 L 119.17 179.04 L 119.21 179.03 L 119.32 178.98 L 119.39 179.14 L 119.41 179.15 L 119.41 179.15 L 119.52 179.06 L 119.62 179.17 L 119.65 179.17 L 119.75 179.03 L 119.85 179.12 L 119.89 179.14 L 119.97 179.02 L 120.09 179.15 L 120.12 179.11 L 120.20 178.98 L 120.32 179.10 L 120.35 179.09 L 120.40 178.92 L 120.55 179.02 L 120.57 179.01 L 120.60 178.83 L 120.76 178.91 L 120.78 178.90 L 120.79 178.72 L 120.94 178.78 L 120.96 178.75 L 120.97 178.59 L 121.14 178.64 L 121.16 178.62 L 121.15 178.46 L 121.31 178.47 L 121.33 178.45 L 121.27 178.28 L 121.42 178.26 L 121.46 178.23 L 121.40 178.10 L 121.55 178.07 L 121.55 178.03 L 121.50 177.91 L 121.68 177.87 L 121.69 177.85 L 121.58 177.72 Z M 118.49 176.50 L 118.74 176.18 L 118.74 176.18 L 118.74 176.18 L 118.74 176.18 L 119.06 175.93 L 119.28 175.95 L 119.35 176.06 L 119.44 176.50 L 119.37 176.82 L 119.05 176.89 L 118.61 176.80 L 118.50 176.73 L 118.49 176.50 Z M 119.29 177.68 L 119.09 178.08 L 118.99 178.17 L 118.77 178.13 L 118.53 177.81 L 118.53 177.81 L 118.53 177.81 L 118.53 177.81 L 118.38 177.43 L 118.45 177.21 L 118.58 177.18 L 119.03 177.21 L 119.31 177.36 L 119.30 177.68 Z M 119.75 175.99 L 119.79 175.86 L 119.99 175.78 L 120.37 175.92 L 120.37 175.92 L 120.37 175.92 L 120.37 175.92 L 120.37 175.92 L 120.71 176.15 L 120.76 176.37 L 120.67 176.47 L 120.27 176.69 L 119.95 176.71 L 119.79 176.44 L 119.75 175.99 Z M 120.40 178.33 L 120.01 178.45 L 120.01 178.45 L 120.00 178.45 L 119.60 178.47 L 119.43 178.33 L 119.44 178.20 L 119.62 177.78 L 119.86 177.57 L 120.15 177.69 L 120.47 178.01 L 120.51 178.14 L 120.39 178.33 Z M 121.12 177.37 L 121.01 177.76 L 120.81 177.88 L 120.70 177.83 L 120.36 177.52 L 120.23 177.23 L 120.44 176.99 L 120.85 176.79 L 120.98 176.78 L 121.13 176.95 L 121.12 177.35 L 121.12 177.36 Z" fill="url(#linear-gradient-2)" fill-rule="nonzero" group-id="1,5,7" id="路径_3081" node-id="93" stroke-linecap="butt" stroke-width="1" target-height="4.115967" target-width="4.1210938" target-x="117.69678" target-y="175.055"></path><path d="M 119.90 160.88 L 117.66 160.97 L 115.52 161.35 L 113.48 162.01 L 111.54 162.95 L 109.77 164.13 L 108.15 165.55 L 106.74 167.17 L 105.55 168.99 L 104.60 171.01 L 105.87 171.03 L 107.13 168.77 L 108.67 166.84 L 110.48 165.21 L 112.54 163.89 L 114.74 162.93 L 117.11 162.33 L 119.54 162.11 L 122.00 162.30 L 124.51 162.92 L 126.88 163.96 L 128.95 165.31 L 130.74 166.96 L 132.25 168.89 L 133.41 170.99 L 134.24 173.29 L 134.69 175.69 L 134.73 178.15 L 134.35 180.71 L 135.58 180.72 L 135.83 179.04 L 135.92 177.34 L 135.84 175.17 L 135.49 173.08 L 134.86 171.06 L 133.96 169.13 L 132.82 167.34 L 131.42 165.69 L 129.80 164.25 L 128.05 163.05 L 126.15 162.11 L 124.14 161.42 L 122.06 161.01 L 119.90 160.88 Z" fill="#6f1419" fill-rule="nonzero" group-id="1,5" id="路径_3082" node-id="94" stroke-linecap="butt" stroke-width="1" target-height="19.84497" target-width="31.316895" target-x="104.598145" target-y="160.87799"></path><path d="M 157.73 165.88 L 155.96 167.89 L 154.59 169.97 L 153.59 172.13 L 152.94 174.39 L 152.63 176.73 L 152.69 179.05 L 153.12 181.40 L 153.93 183.78 L 154.85 182.88 L 154.14 180.39 L 153.86 177.95 L 154.00 175.51 L 154.52 173.12 L 155.40 170.89 L 156.65 168.78 L 158.21 166.91 L 160.08 165.31 L 162.30 163.96 L 164.71 163.03 L 167.12 162.52 L 169.56 162.42 L 171.99 162.71 L 174.30 163.38 L 176.51 164.42 L 178.52 165.80 L 180.30 167.51 L 181.84 169.59 L 182.66 168.64 L 181.85 167.52 L 180.92 166.50 L 178.58 164.50 L 176.12 163.00 L 173.49 161.97 L 170.73 161.39 L 167.99 161.30 L 165.23 161.70 L 162.59 162.57 L 160.10 163.95 L 157.73 165.88 Z" fill="#6f1419" fill-rule="nonzero" group-id="1,5" id="路径_3083" node-id="95" stroke-linecap="butt" stroke-width="1" target-height="22.481934" target-width="30.024902" target-x="152.6333" target-y="161.30304"></path><path d="M 169.17 164.75 L 166.62 164.98 L 164.29 165.67 L 162.11 166.81 L 160.19 168.35 L 158.63 170.22 L 157.39 172.45 L 156.64 174.90 L 156.38 177.32 L 156.60 179.77 L 157.28 182.12 L 158.41 184.29 L 160.00 186.29 L 161.97 187.92 L 164.11 189.08 L 166.45 189.82 L 168.90 190.09 L 171.32 189.87 L 173.78 189.17 L 176.04 187.97 L 177.94 186.44 L 179.51 184.55 L 180.70 182.40 L 181.43 180.08 L 181.72 177.54 L 181.52 175.22 L 180.97 173.10 L 180.05 171.13 L 178.81 169.34 L 177.31 167.81 L 175.55 166.54 L 173.59 165.58 L 171.48 164.98 L 169.17 164.75 Z M 168.94 188.84 L 166.85 188.63 L 164.95 188.09 L 163.19 187.23 L 161.59 186.07 L 160.25 184.70 L 159.13 183.09 L 158.30 181.31 L 157.80 179.39 L 157.62 177.30 L 157.84 175.22 L 158.38 173.31 L 159.24 171.55 L 160.39 169.96 L 161.76 168.61 L 163.38 167.49 L 165.15 166.66 L 167.07 166.16 L 169.16 165.99 L 171.24 166.20 L 173.15 166.74 L 174.91 167.60 L 176.50 168.75 L 177.85 170.13 L 178.97 171.74 L 179.80 173.52 L 180.30 175.44 L 180.47 177.52 L 180.23 179.77 L 179.56 181.89 L 178.50 183.84 L 177.05 185.57 L 175.29 186.99 L 173.32 188.01 L 171.18 188.64 L 168.94 188.84 Z" fill="#eee0bf" fill-rule="nonzero" group-id="1,5" id="路径_3084" node-id="96" stroke-linecap="butt" stroke-width="1" target-height="25.339233" target-width="25.339355" target-x="156.37598" target-y="164.74597"></path><path d="M 169.18 163.39 L 166.36 163.65 L 163.78 164.41 L 161.37 165.67 L 159.24 167.38 L 157.51 169.44 L 156.14 171.92 L 155.30 174.63 L 155.02 177.31 L 155.26 180.02 L 156.02 182.63 L 157.27 185.02 L 159.03 187.24 L 161.21 189.05 L 163.58 190.34 L 166.18 191.15 L 168.88 191.45 L 171.57 191.21 L 174.29 190.43 L 176.79 189.11 L 178.89 187.41 L 180.64 185.32 L 181.95 182.94 L 182.76 180.36 L 183.08 177.55 L 182.86 174.99 L 182.24 172.63 L 181.23 170.45 L 179.85 168.47 L 178.20 166.78 L 176.25 165.37 L 174.08 164.31 L 171.74 163.65 L 169.18 163.39 Z M 168.92 190.09 L 166.61 189.85 L 164.50 189.25 L 162.55 188.29 L 160.78 187.02 L 159.29 185.50 L 158.05 183.71 L 157.13 181.73 L 156.57 179.61 L 156.38 177.30 L 156.62 174.98 L 157.21 172.87 L 158.17 170.92 L 159.45 169.15 L 160.97 167.66 L 162.76 166.42 L 164.73 165.50 L 166.85 164.94 L 169.17 164.75 L 171.48 164.99 L 173.59 165.58 L 175.55 166.54 L 177.31 167.82 L 178.81 169.34 L 180.05 171.13 L 180.97 173.10 L 181.52 175.23 L 181.72 177.54 L 181.48 179.85 L 180.88 181.96 L 179.92 183.92 L 178.65 185.68 L 177.12 187.17 L 175.33 188.42 L 173.36 189.33 L 171.24 189.89 L 168.92 190.08 Z" fill="#7b574d" fill-rule="nonzero" group-id="1,5" id="路径_3085" node-id="97" stroke-linecap="butt" stroke-width="1" target-height="28.059448" target-width="28.05957" target-x="155.01563" target-y="163.38599"></path><path d="M 157.62 177.30 L 180.47 177.53" fill="none" group-id="1,5" id="直线_152" node-id="98" stroke="#707070" stroke-linecap="butt" stroke-width="1" target-height="0.22099304" target-width="22.852997" target-x="157.62" target-y="177.304"></path><path d="M 157.98 180.26 L 180.11 174.56" fill="none" group-id="1,5" id="直线_153" node-id="99" stroke="#707070" stroke-linecap="butt" stroke-width="1" target-height="5.701004" target-width="22.132004" target-x="157.981" target-y="174.564"></path><path d="M 159.10 183.03 L 179.00 171.80" fill="none" group-id="1,5" id="直线_154" node-id="100" stroke="#707070" stroke-linecap="butt" stroke-width="1" target-height="11.235001" target-width="19.902008" target-x="159.09601" target-y="171.797"></path><path d="M 160.89 185.42 L 177.21 169.41" fill="none" group-id="1,5" id="直线_155" node-id="101" stroke="#707070" stroke-linecap="butt" stroke-width="1" target-height="16.003006" target-width="16.315994" target-x="160.889" target-y="169.413"></path><path d="M 163.24 187.25 L 174.86 167.57" fill="none" group-id="1,5" id="直线_156" node-id="102" stroke="#707070" stroke-linecap="butt" stroke-width="1" target-height="19.681" target-width="11.617996" target-x="163.238" target-y="167.574"></path><path d="M 165.98 188.42 L 172.11 166.41" fill="none" group-id="1,5" id="直线_157" node-id="103" stroke="#707070" stroke-linecap="butt" stroke-width="1" target-height="22.016998" target-width="6.128998" target-x="165.983" target-y="166.406"></path><path d="M 168.94 188.84 L 169.16 165.99" fill="none" group-id="1,5" id="直线_158" node-id="104" stroke="#707070" stroke-linecap="butt" stroke-width="1" target-height="22.852997" target-width="0.22099304" target-x="168.936" target-y="165.988"></path><path d="M 171.90 188.48 L 166.20 166.35" fill="none" group-id="1,5" id="直线_159" node-id="105" stroke="#707070" stroke-linecap="butt" stroke-width="1" target-height="22.132004" target-width="5.701004" target-x="166.19699" target-y="166.349"></path><path d="M 174.66 187.36 L 163.43 167.46" fill="none" group-id="1,5" id="直线_160" node-id="106" stroke="#707070" stroke-linecap="butt" stroke-width="1" target-height="19.901993" target-width="11.235001" target-x="163.43" target-y="167.463"></path><path d="M 177.05 185.57 L 161.05 169.26" fill="none" group-id="1,5" id="直线_161" node-id="107" stroke="#707070" stroke-linecap="butt" stroke-width="1" target-height="16.315994" target-width="16.003006" target-x="161.046" target-y="169.256"></path><path d="M 178.89 183.22 L 159.21 171.61" fill="none" group-id="1,5" id="直线_162" node-id="108" stroke="#707070" stroke-linecap="butt" stroke-width="1" target-height="11.617996" target-width="19.681" target-x="159.207" target-y="171.60501"></path><path d="M 180.06 180.48 L 158.04 174.35" fill="none" group-id="1,5" id="直线_163" node-id="109" stroke="#707070" stroke-linecap="butt" stroke-width="1" target-height="6.128998" target-width="22.016998" target-x="158.038" target-y="174.35"></path><path d="M 157.62 177.30 L 180.47 177.53" fill="none" group-id="1,5" id="直线_164" node-id="110" stroke="#707070" stroke-linecap="butt" stroke-width="1" target-height="0.22099304" target-width="22.852997" target-x="157.62" target-y="177.304"></path><path d="M 119.12 176.91 L 138.47 165.98 L 138.82 166.59 L 119.47 177.52 Z" fill="#6f1419" fill-rule="nonzero" group-id="1,5" id="矩形_118" node-id="111" stroke-linecap="butt" stroke-width="1.0003524" target-height="11.542313" target-width="19.697647" target-x="119.121" target-y="165.98225"></path><path d="M 105.99 169.07 L 119.69 177.16 L 119.33 177.76 L 105.63 169.67 Z" fill="#6f1419" fill-rule="nonzero" group-id="1,5" id="矩形_119" node-id="112" stroke-linecap="butt" stroke-width="1" target-height="8.692261" target-width="14.057983" target-x="105.63064" target-y="169.069"></path><path d="M 119.17 176.93 L 140.88 181.71 L 140.73 182.39 L 119.02 177.62 Z" fill="#6f1419" fill-rule="nonzero" group-id="1,5" id="矩形_120" node-id="113" stroke-linecap="butt" stroke-width="1.0003769" target-height="5.46196" target-width="21.85868" target-x="119.024284" target-y="176.931"></path><path d="M 166.10 155.88 L 140.96 182.55 L 140.43 182.10 L 165.57 155.42 Z" fill="#6f1419" fill-rule="nonzero" group-id="1,5" id="路径_3086" node-id="114" stroke-linecap="butt" stroke-width="1" target-height="27.12201" target-width="25.674316" target-x="140.42725" target-y="155.42499"></path><path d="M 137.58 155.61 L 141.31 182.28 L 140.61 182.38 L 136.88 155.71 Z" fill="#6f1419" fill-rule="nonzero" group-id="1,5" id="矩形_121" node-id="115" stroke-linecap="butt" stroke-width="1" target-height="26.771515" target-width="4.424576" target-x="136.88376" target-y="155.60901"></path><path d="M 165.61 151.54 L 169.26 177.66 L 168.57 177.76 L 164.92 151.64 Z" fill="#6f1419" fill-rule="nonzero" group-id="1,5" id="矩形_122" node-id="116" stroke-linecap="butt" stroke-width="1" target-height="26.210968" target-width="4.3461914" target-x="164.91876" target-y="151.545"></path><path d="M 159.10 163.29 L 137.99 163.08 L 138.00 162.38 L 159.10 162.59 Z" fill="#6f1419" fill-rule="nonzero" group-id="1,5" id="矩形_123" node-id="117" stroke-linecap="butt" stroke-width="1" target-height="0.9054413" target-width="21.114792" target-x="137.98999" target-y="162.38356"></path><path d="M 155.02 155.28 L 165.34 150.90 L 165.62 151.55 L 155.29 155.92 Z" fill="#6f1419" fill-rule="nonzero" group-id="1,5" id="矩形_124" node-id="118" stroke-linecap="butt" stroke-width="1.0001705" target-height="5.017517" target-width="10.597794" target-x="155.02" target-y="150.9041"></path><path d="M 165.05 151.54 L 154.82 146.97 L 155.11 146.33 L 165.34 150.90 Z" fill="#6f1419" fill-rule="nonzero" group-id="1,5" id="矩形_125" node-id="119" stroke-linecap="butt" stroke-width="1" target-height="5.2132874" target-width="10.520691" target-x="154.81929" target-y="146.32771"></path><path d="M 132.19 153.99 L 132.51 154.84 L 133.09 155.49 L 133.86 155.89 L 134.76 155.99 L 138.72 155.70 L 142.65 155.18 L 142.66 154.73 L 142.52 154.32 L 142.10 153.83 L 141.44 153.46 L 140.13 153.17 L 135.67 152.88 L 133.67 152.69 L 132.60 152.44 L 132.16 152.39 L 132.00 152.62 L 132.05 153.48 L 132.19 153.99 Z" fill="#6f1419" fill-rule="nonzero" group-id="1,5" id="路径_3087" node-id="120" stroke-linecap="butt" stroke-width="1" target-height="3.6009521" target-width="10.656738" target-x="131.99902" target-y="152.38702"></path><path d="M 144.81 181.88 L 145.14 181.78 L 145.15 181.74 L 144.92 181.49 L 145.23 181.36 L 145.24 181.31 L 144.98 181.09 L 145.22 180.94 L 145.20 180.86 L 144.99 180.69 L 145.26 180.49 L 145.26 180.45 L 145.02 180.29 L 145.21 180.06 L 145.20 180.02 L 144.88 179.90 L 145.07 179.63 L 145.09 179.60 L 144.76 179.52 L 144.85 179.30 L 144.81 179.22 L 144.68 179.23 L 144.59 179.15 L 144.72 178.88 L 144.66 178.85 L 144.38 178.81 L 144.51 178.49 L 144.48 178.45 L 144.14 178.49 L 144.20 178.21 L 144.16 178.15 L 143.86 178.20 L 143.86 177.97 L 143.78 177.95 L 143.54 177.94 L 143.53 177.67 L 143.47 177.66 L 143.21 177.72 L 143.18 177.39 L 143.14 177.37 L 142.85 177.50 L 142.76 177.26 L 142.73 177.23 L 142.47 177.41 L 142.35 177.19 L 142.29 177.15 L 142.08 177.32 L 141.96 177.05 L 141.90 177.08 L 141.68 177.23 L 141.49 176.98 L 141.44 176.98 L 141.27 177.27 L 141.06 177.01 L 141.01 177.01 L 140.87 177.31 L 140.63 177.07 L 140.58 177.08 L 140.48 177.40 L 140.21 177.19 L 140.17 177.21 L 140.10 177.54 L 139.81 177.36 L 139.77 177.38 L 139.74 177.72 L 139.44 177.57 L 139.40 177.60 L 139.40 177.93 L 139.08 177.83 L 139.05 177.86 L 139.09 178.19 L 138.77 178.12 L 138.73 178.15 L 138.81 178.47 L 138.48 178.44 L 138.45 178.48 L 138.56 178.79 L 138.24 178.80 L 138.21 178.84 L 138.36 179.14 L 138.03 179.18 L 138.01 179.23 L 138.19 179.50 L 137.87 179.58 L 137.86 179.63 L 138.07 179.89 L 137.77 180.00 L 137.76 180.05 L 137.99 180.28 L 137.70 180.43 L 137.70 180.48 L 137.96 180.68 L 137.69 180.86 L 137.69 180.91 L 137.97 181.08 L 137.72 181.29 L 137.73 181.34 L 138.03 181.48 L 137.81 181.71 L 137.82 181.76 L 138.13 181.86 L 137.94 182.12 L 137.96 182.17 L 138.27 182.24 L 138.12 182.52 L 138.14 182.56 L 138.46 182.59 L 138.33 182.89 L 138.37 182.93 L 138.69 182.92 L 138.60 183.23 L 138.63 183.27 L 138.95 183.23 L 138.90 183.54 L 138.93 183.58 L 139.25 183.50 L 139.23 183.82 L 139.27 183.85 L 139.51 183.75 L 139.59 184.05 L 139.63 184.08 L 139.88 184.01 L 140.01 184.20 L 140.02 184.26 L 140.29 184.08 L 140.40 184.31 L 140.47 184.29 L 140.67 184.19 L 140.80 184.49 L 140.84 184.50 L 140.84 184.50 L 141.04 184.34 L 141.22 184.54 L 141.27 184.54 L 141.46 184.28 L 141.64 184.45 L 141.71 184.48 L 141.86 184.26 L 142.08 184.50 L 142.13 184.44 L 142.28 184.20 L 142.50 184.40 L 142.55 184.39 L 142.64 184.07 L 142.91 184.26 L 142.95 184.25 L 143.01 183.92 L 143.30 184.07 L 143.34 184.05 L 143.36 183.72 L 143.64 183.83 L 143.67 183.78 L 143.68 183.49 L 144.00 183.57 L 144.04 183.54 L 144.02 183.25 L 144.31 183.27 L 144.34 183.23 L 144.24 182.91 L 144.51 182.87 L 144.57 182.82 L 144.47 182.58 L 144.75 182.53 L 144.75 182.45 L 144.66 182.23 L 144.99 182.16 L 145.01 182.12 L 144.81 181.88 Z M 139.14 179.65 L 139.60 179.06 L 139.60 179.06 L 139.60 179.05 L 139.60 179.05 L 140.19 178.59 L 140.60 178.63 L 140.73 178.83 L 140.88 179.65 L 140.75 180.21 L 140.18 180.35 L 139.37 180.19 L 139.17 180.06 L 139.14 179.64 Z M 140.61 181.81 L 140.24 182.55 L 140.06 182.71 L 139.66 182.64 L 139.21 182.04 L 139.21 182.04 L 139.21 182.03 L 139.21 182.03 L 138.93 181.33 L 139.07 180.94 L 139.30 180.88 L 140.13 180.94 L 140.42 181.01 L 140.64 181.22 L 140.71 181.51 L 140.62 181.80 Z M 141.46 178.71 L 141.52 178.48 L 141.90 178.32 L 142.60 178.58 L 142.60 178.58 L 142.61 178.59 L 142.62 178.59 L 142.62 178.59 L 143.23 179.02 L 143.32 179.42 L 143.16 179.60 L 142.44 180.00 L 142.15 180.10 L 141.85 180.04 L 141.63 179.83 L 141.56 179.54 L 141.46 178.71 Z M 142.64 183.01 L 141.93 183.24 L 141.92 183.24 L 141.91 183.24 L 141.17 183.27 L 140.86 183.00 L 140.87 182.77 L 141.21 182.00 L 141.37 181.75 L 141.64 181.61 L 141.95 181.64 L 142.19 181.83 L 142.76 182.43 L 142.85 182.65 L 142.64 183.01 Z M 143.97 181.25 L 143.76 181.96 L 143.41 182.18 L 143.19 182.09 L 142.58 181.53 L 142.39 181.30 L 142.35 180.99 L 142.47 180.72 L 142.73 180.55 L 143.48 180.19 L 143.71 180.17 L 143.98 180.48 L 143.97 181.23 L 143.97 181.24 L 143.97 181.25 Z" fill="url(#linear-gradient-3)" fill-rule="nonzero" group-id="1,5" id="路径_3088" node-id="121" stroke-linecap="butt" stroke-width="1" target-height="7.561035" target-width="7.5722656" target-x="137.69092" target-y="176.98297"></path><path d="M 118.22 178.08 L 117.91 177.27 L 118.03 176.42 L 118.55 175.72 L 119.33 175.37 L 120.40 175.41 L 123.30 175.78 L 128.38 176.30 L 134.19 176.85 L 139.27 177.31 L 142.14 177.56 L 142.60 177.66 L 143.49 178.21 L 144.14 178.94 L 144.56 179.89 L 144.67 180.93 L 144.48 181.88 L 143.98 182.80 L 143.94 182.85 L 143.16 183.51 L 142.25 183.94 L 141.27 184.10 L 140.25 184.00 L 119.32 178.90 L 118.70 178.58 L 118.22 178.08 Z" fill="none" group-id="1,5" id="路径_3089" node-id="122" stroke="#707070" stroke-linecap="butt" stroke-width="1" target-height="8.738037" target-width="26.760254" target-x="117.91211" target-y="175.36597"></path></g></g></svg>